<svg width="127" height="100" viewBox="0 0 127 100" fill="none" xmlns="http://www.w3.org/2000/svg">
<ellipse cx="63.9147" cy="61.2706" rx="40.61" ry="26.255" fill="url(#paint0_radial_2468_94)"/>
<path d="M120.673 22.4204C111.555 44.0491 53.9866 55.0394 61.6355 52.3074C69.2843 49.5753 5.55501 51.6523 5.55469 22.4206C5.55437 -6.81121 56.1639 17.8956 63.2207 17.8681C70.2776 17.8405 129.791 0.791679 120.673 22.4204Z" fill="url(#paint1_radial_2468_94)"/>
<path d="M92.1894 0.0424254C92.1545 0.0686476 91.8051 0.103611 91.4034 0.121092C90.4078 0.147314 89.3249 0.260944 89.2725 0.348351C89.2463 0.392055 89.0803 0.427018 88.9057 0.427018C88.1895 0.427018 85.9189 0.820351 85.9189 0.951462C85.9189 0.986425 85.7529 1.03887 85.5521 1.06509C85.3425 1.10006 84.8621 1.16124 84.4779 1.21368C83.7967 1.30983 83.0893 1.50213 82.9059 1.64198C82.8622 1.68568 82.6788 1.73813 82.5129 1.76435C82.0937 1.82554 81.526 2.04406 81.4823 2.16643C81.4649 2.21887 81.4037 2.26257 81.3513 2.26257C81.2553 2.26257 80.3208 2.62094 79.823 2.83946C79.6658 2.91813 79.5086 3.03176 79.4824 3.10168C79.4562 3.17161 79.3165 3.22406 79.1418 3.22406C78.906 3.22406 78.8187 3.26776 78.7401 3.43383C78.6877 3.5562 78.5654 3.66109 78.4606 3.67857C78.3471 3.69606 78.2685 3.78346 78.251 3.89709C78.2161 4.11561 77.989 4.16806 77.9191 3.97576C77.8755 3.87087 77.8405 3.87087 77.6397 3.97576C77.5087 4.04568 77.3602 4.09813 77.2991 4.09813C77.2467 4.09813 77.0895 4.18554 76.9497 4.29917C76.8187 4.4128 76.4781 4.59635 76.1987 4.70124C75.9192 4.81487 75.6223 4.99843 75.5349 5.11206C75.4476 5.22568 75.3166 5.32183 75.2467 5.32183C75.1769 5.32183 75.0459 5.4005 74.9673 5.48791C74.8799 5.58406 74.6354 5.74139 74.4258 5.84628C74.1987 5.95117 74.0066 6.1085 73.9542 6.23087C73.9105 6.3445 73.7708 6.47561 73.6311 6.51931C73.4913 6.57176 73.1071 6.86894 72.7752 7.19235C72.4433 7.50702 72.1464 7.76924 72.1115 7.76924C72.0067 7.76924 71.3517 8.37235 70.3124 9.42998C68.8103 10.9596 68.4347 11.3617 68.1029 11.8249C67.9369 12.0522 67.6225 12.4368 67.4129 12.6728C67.2033 12.9088 67.0549 13.1535 67.0811 13.2235C67.1073 13.2934 67.0461 13.3808 66.9326 13.4332C66.7579 13.5119 66.0243 14.4996 65.5265 15.33C65.4305 15.4873 65.2121 15.7932 65.0375 15.9943C64.8715 16.2041 64.6619 16.5537 64.5833 16.7722C64.3999 17.2704 63.7973 17.9085 63.5179 17.9085C63.2733 17.9085 62.6358 17.2005 62.3127 16.5537C62.1904 16.3089 61.9197 15.8806 61.7013 15.5922C61.4917 15.3038 61.2472 14.9279 61.1686 14.7618C61.09 14.5958 60.6795 14.0538 60.2429 13.5556C59.8149 13.0661 59.4569 12.6204 59.4569 12.5766C59.4569 12.5329 59.2997 12.3144 59.1075 12.0959C58.9154 11.8774 58.7582 11.6589 58.7582 11.6239C58.7582 11.4928 57.291 10.0418 57.1513 10.0418C57.0814 10.0418 56.9679 9.96317 56.898 9.86702C56.8281 9.77087 56.7583 9.71843 56.7233 9.74465C56.6971 9.77087 56.6971 9.71843 56.7146 9.63102C56.7757 9.4125 56.4526 9.01917 56.0858 8.86183C55.9199 8.79191 55.7889 8.69576 55.7889 8.64331C55.7889 8.48598 54.9767 7.68183 54.5487 7.41087C54.3129 7.27102 54.1295 7.12243 54.1295 7.07872C54.1295 7.03502 54.0422 6.96509 53.9374 6.93013C53.8239 6.89517 53.6929 6.8165 53.6492 6.74657C53.5968 6.67665 53.4396 6.61546 53.2999 6.60672C53.0903 6.58924 53.0466 6.54554 53.0641 6.39694C53.0815 6.27457 53.0204 6.16968 52.8894 6.09976C52.7759 6.03857 52.575 5.89872 52.4353 5.78509C52.2693 5.64524 52.1034 5.58406 51.9724 5.61028C51.8414 5.6365 51.7628 5.60154 51.7279 5.49665C51.6667 5.31309 50.8371 4.74494 50.5139 4.65754C50.4004 4.63131 50.2781 4.55265 50.2519 4.48272C50.2257 4.4128 49.9725 4.24672 49.7017 4.12435C49.2127 3.89709 49.1428 3.87961 48.9157 3.85339C48.8546 3.84465 48.8022 3.78346 48.8022 3.72228C48.8022 3.66109 48.5577 3.49502 48.2607 3.35517C47.9551 3.21531 47.6407 3.04924 47.5621 2.97931C47.4747 2.90939 47.3525 2.87443 47.2739 2.90939C47.204 2.93561 46.8983 2.83072 46.5927 2.66465C46.2957 2.50731 45.9202 2.34998 45.7543 2.31502C45.5883 2.2888 45.3962 2.21013 45.3263 2.15768C45.0993 1.96539 44.5753 1.79931 44.2172 1.80806C44.0338 1.80806 43.8329 1.75561 43.7805 1.69443C43.6495 1.52835 42.6627 1.27487 42.3046 1.31857C42.1299 1.33606 41.9902 1.31857 41.9902 1.28361C41.9902 1.24865 41.9378 1.21368 41.8679 1.21368C41.8068 1.21368 41.6583 1.14376 41.5448 1.04761C41.3963 0.933981 41.178 0.881536 40.8287 0.872796C40.5492 0.872796 40.2523 0.829092 40.1737 0.785388C40.0951 0.750425 39.8331 0.68924 39.5885 0.663018C39.3527 0.628055 39.0209 0.584351 38.8549 0.558129C38.689 0.540648 38.4969 0.56687 38.4357 0.619314C38.3484 0.68924 38.2873 0.680499 38.2087 0.584351C38.1039 0.45324 37.8593 0.374574 37.3179 0.295907C37.1781 0.278425 36.9336 0.225981 36.7939 0.182277C36.6454 0.138574 36.4445 0.129833 36.331 0.173536C36.2087 0.21724 36.0603 0.21724 35.9729 0.173536C35.7721 0.0599068 31.3967 0.121092 30.5495 0.243462C29.7024 0.365833 29.4142 0.427018 29.4142 0.514425C29.4142 0.558129 29.2046 0.56687 28.9601 0.540648C28.5933 0.505685 27.5889 0.628055 26.7505 0.811611C26.7069 0.820351 26.3663 0.881536 26.0082 0.942722C25.6501 1.01265 25.0825 1.14376 24.7419 1.25739C24.41 1.36228 23.9733 1.44968 23.7725 1.45843C23.5716 1.45843 23.2048 1.56331 22.9428 1.68568C22.4799 1.89546 22.314 1.93917 21.5804 2.07902C21.3708 2.11398 21.135 2.21013 21.0477 2.2888C20.9603 2.3762 20.7769 2.43739 20.6547 2.43739C20.5237 2.43739 20.4189 2.46361 20.4189 2.50731C20.4189 2.57724 19.9036 2.76954 19.5281 2.8482C19.3971 2.87443 19.2399 2.94435 19.1875 3.01428C19.1351 3.0842 19.0215 3.13665 18.9342 3.13665C18.8032 3.13665 18.1045 3.43383 17.7115 3.65235C17.6417 3.69606 17.4059 3.80094 17.1875 3.88835C16.9692 3.96702 16.7334 4.11561 16.6461 4.20302C16.5675 4.29043 16.419 4.36035 16.3229 4.36035C16.2181 4.36035 16.0347 4.43028 15.9125 4.50894C15.5981 4.70998 15.2225 4.91976 14.6199 5.24317C14.3405 5.39176 14.0959 5.57531 14.0697 5.66272C14.0348 5.81131 13.6505 6.04731 13.2925 6.14346C13.1789 6.17843 13.1178 6.26583 13.1178 6.39694C13.1265 6.54554 13.0741 6.58924 12.9082 6.59798C12.5152 6.60672 12.4715 6.63294 12.4715 6.80776C12.4715 6.91265 12.4191 6.98257 12.358 6.97383C12.1309 6.94761 12.0349 6.99131 12.0349 7.11368C12.0349 7.18361 11.9563 7.2448 11.8602 7.2448C11.6331 7.2448 10.4629 8.03146 10.4629 8.18006C10.4629 8.24124 10.4192 8.29368 10.3755 8.29368C10.3231 8.29368 10.2358 8.39857 10.1834 8.52094C10.1223 8.65206 9.98254 8.75694 9.84281 8.79191C9.71181 8.81813 9.46727 8.9842 9.31007 9.15902C9.14414 9.33383 8.82974 9.63976 8.60267 9.84954C8.37561 10.0506 8.19221 10.2604 8.19221 10.3041C8.19221 10.3478 8.07867 10.4439 7.93021 10.5226C7.79047 10.6012 7.66821 10.6886 7.66821 10.7324C7.66821 10.7761 7.39747 11.082 7.07434 11.4141C6.74247 11.7375 6.34947 12.1833 6.20101 12.4018C5.93027 12.8039 5.26654 13.6168 4.96087 13.9315C4.8648 14.0364 4.7862 14.1412 4.7862 14.1762C4.7862 14.2112 4.64647 14.4384 4.48054 14.6744C4.3146 14.9104 4.17487 15.1814 4.17487 15.2601C4.17487 15.3475 4.09627 15.4698 4.0002 15.5223C3.78187 15.6709 3.53734 16.1429 3.58974 16.3352C3.61594 16.4313 3.57227 16.51 3.48494 16.5362C3.31027 16.5799 2.6902 17.4802 2.6902 17.6812C2.6902 17.7512 2.57667 18.0221 2.43694 18.2756C2.2972 18.5291 2.15747 18.87 2.12254 19.0186C2.09634 19.1759 2.02647 19.307 1.9828 19.307C1.93914 19.307 1.9042 19.4032 1.9042 19.5168C1.9042 19.6304 1.84307 19.7441 1.7732 19.779C1.70334 19.8052 1.6422 19.8839 1.6422 19.9451C1.6422 20.015 1.58107 20.1898 1.5112 20.3384C1.4326 20.487 1.3278 20.8541 1.2754 21.1601C1.23174 21.466 1.15314 21.7457 1.10947 21.7981C1.0658 21.8418 1.03087 22.0341 1.03087 22.2352C1.03087 22.4362 0.995938 22.6285 0.952271 22.6722C0.821271 22.8121 0.681538 23.3977 0.506871 24.5078C0.419538 25.0846 0.279804 25.8713 0.209938 26.2559C0.131338 26.6405 0.0702044 27.0513 0.0789377 27.1737C0.0789377 27.2961 0.0527377 27.8118 0.0178044 28.3275C-0.0171289 28.9043 0.000337735 29.6648 0.0614711 30.2941C0.113871 30.8623 0.175004 31.6489 0.192471 32.0335C0.209938 32.4269 0.271071 32.8289 0.323471 32.9338C0.384604 33.0387 0.402071 33.1961 0.375871 33.2835C0.349671 33.3709 0.375871 33.5544 0.428271 33.6943C0.480671 33.8341 0.524338 34.0614 0.515604 34.2012C0.506871 34.3323 0.541804 34.4984 0.594204 34.5596C0.646604 34.6208 0.672804 34.8043 0.664071 34.9617C0.646604 35.1452 0.681538 35.2589 0.751404 35.2676C0.952271 35.2938 0.961004 35.3026 0.873671 35.4162C0.742671 35.5735 0.952271 37.3479 1.13567 37.7063C1.21427 37.8461 1.3016 38.187 1.33654 38.4492C1.37147 38.7115 1.4326 38.9649 1.46754 39.0174C1.50247 39.0611 1.55487 39.2446 1.58107 39.4107C1.6684 39.9963 1.80814 40.4072 1.93914 40.4771C2.01774 40.5208 2.07887 40.6432 2.07887 40.7481C2.07887 41.2201 2.33214 42.1116 2.533 42.3389C2.56794 42.3826 2.60287 42.5049 2.60287 42.6098C2.60287 42.8546 2.8212 43.3703 2.98714 43.5101C3.057 43.5713 3.1356 43.7811 3.17054 43.9821C3.23167 44.4279 3.5548 45.1796 3.6858 45.1796C3.7382 45.1796 3.83427 45.2146 3.90414 45.2583C4.00894 45.3282 4.00894 45.3632 3.9216 45.4768C3.82554 45.5992 3.843 45.7041 4.0788 46.1848C4.22727 46.4995 4.40194 46.7792 4.4718 46.8054C4.54167 46.8316 4.629 47.0152 4.6552 47.2075C4.75127 47.7319 5.43247 49.2441 5.84294 49.8297C5.93901 49.9521 6.00887 50.1269 6.00887 50.2055C6.00887 50.2929 6.14861 50.5464 6.31454 50.7737C6.48047 51.0009 6.62021 51.2457 6.62021 51.3069C6.62894 51.3768 6.74247 51.5866 6.88221 51.7789C7.03067 51.9712 7.20534 52.2683 7.28394 52.4344C7.36254 52.6005 7.59834 52.9326 7.81667 53.1686C8.02627 53.4046 8.25334 53.7193 8.31447 53.8679C8.37561 54.0165 8.59394 54.3224 8.79481 54.5497C8.98694 54.7682 9.15287 54.9867 9.15287 55.0304C9.15287 55.0741 9.26641 55.2402 9.40614 55.415C9.55461 55.5898 9.69434 55.8433 9.72927 55.9832C9.75547 56.123 9.91267 56.3765 10.0699 56.5426C10.2183 56.7086 10.4541 57.0408 10.5939 57.2855C10.7249 57.5215 10.9519 57.8187 11.0917 57.9236C11.2227 58.0372 11.4061 58.2558 11.4847 58.4043C11.5633 58.5617 11.7991 58.8414 12.0087 59.0424C12.2095 59.2435 12.3842 59.4445 12.3842 59.4882C12.3842 59.5406 12.5327 59.7504 12.7248 59.9602C12.9082 60.17 13.1353 60.4672 13.2226 60.6158C13.3187 60.7643 13.5108 60.9916 13.668 61.1227C13.8252 61.2538 14.0348 61.5073 14.1396 61.6821C14.2531 61.8569 14.4191 62.058 14.5151 62.1279C14.7422 62.294 15.5282 63.0806 15.5282 63.1506C15.5282 63.1943 16.1133 63.946 16.4365 64.3218C16.4976 64.3918 16.681 64.5491 16.8382 64.6715C17.2661 64.9861 17.598 65.362 17.7115 65.6417C17.7727 65.7728 17.9037 65.9039 18.0259 65.9301C18.1395 65.9651 18.2792 66.07 18.3316 66.1836C18.3927 66.2885 18.7159 66.6993 19.0565 67.0926C19.4931 67.5996 19.7377 67.8181 19.8774 67.8181C20.0084 67.8181 20.0695 67.8706 20.0695 67.9929C20.0695 68.1066 20.1307 68.1678 20.2442 68.1678C20.3403 68.1678 20.4538 68.2377 20.4887 68.3251C20.6023 68.6135 21.3097 69.4789 21.4319 69.4789C21.4931 69.4789 21.5979 69.5663 21.6503 69.6799C21.7638 69.8809 21.8249 69.9509 23.3096 71.3144C23.7987 71.7689 24.3052 72.2497 24.4275 72.3808C24.5497 72.5206 24.6895 72.6255 24.7331 72.6255C24.7855 72.6255 25.0475 72.8528 25.3183 73.1238C26.0868 73.9192 26.8291 74.6009 27.1086 74.7758C27.2483 74.8632 27.4055 74.9855 27.4492 75.0467C27.5016 75.1079 27.8422 75.4051 28.2177 75.711C28.7592 76.1655 28.9339 76.2617 29.1173 76.2267C29.2832 76.2005 29.3356 76.218 29.3094 76.2966C29.2483 76.4889 31.7023 78.779 32.1477 78.9451C32.2263 78.9713 32.2962 79.0325 32.2962 79.0762C32.2962 79.1461 33.5625 79.8104 33.8944 79.9153C33.973 79.9415 34.0691 80.0814 34.0953 80.23C34.1651 80.5446 34.6105 80.9555 34.8201 80.8855C34.9162 80.8593 35.021 80.9292 35.1171 81.1041C35.2044 81.2526 35.4227 81.4449 35.6061 81.5411C35.7895 81.6285 35.9991 81.8033 36.0865 81.9257C36.1651 82.0481 36.2699 82.1529 36.3223 82.1529C36.3747 82.1529 36.6367 82.354 36.9074 82.59C37.1781 82.8347 37.4925 83.0532 37.5973 83.0795C37.7021 83.1057 37.8506 83.2193 37.9205 83.3329C37.9903 83.4378 38.2349 83.6126 38.4707 83.7263C38.6977 83.8312 39.0209 84.0322 39.1693 84.1721C39.3265 84.3119 39.6671 84.5566 39.9117 84.714C40.1649 84.8801 40.4531 85.0986 40.5405 85.2035C40.6365 85.2996 40.7937 85.387 40.8898 85.387C40.9946 85.387 41.2129 85.5269 41.3789 85.7017C41.5448 85.8765 41.9989 86.2261 42.3919 86.4883C42.7849 86.7506 43.1517 87.0215 43.2129 87.0915C43.3701 87.2838 43.5884 87.2575 43.536 87.0565C43.5098 86.9341 43.536 86.9079 43.6495 86.9341C43.7456 86.9603 43.8067 87.0565 43.8067 87.1876C43.798 87.4061 44.0425 87.747 44.1997 87.747C44.2434 87.747 44.4792 87.8869 44.7063 88.0529C44.9421 88.219 45.1691 88.3589 45.2041 88.3589C45.2477 88.3589 45.4311 88.4725 45.6233 88.6211C45.8067 88.7609 46.025 88.8833 46.0949 88.8833C46.1647 88.8833 46.4005 89.0406 46.6101 89.2329C46.8197 89.4252 47.0643 89.6001 47.1516 89.6263C47.2477 89.6612 47.3175 89.7137 47.3175 89.7661C47.3175 89.8098 47.4485 89.8972 47.6057 89.9672C47.7542 90.0283 48.0686 90.2469 48.2957 90.4479C48.514 90.6402 48.7236 90.8063 48.7498 90.8063C48.7847 90.8063 49.0729 90.9811 49.3961 91.1821C50.8807 92.1436 51.1253 92.2922 51.2475 92.2922C51.3174 92.2922 51.6143 92.4932 51.9025 92.7292C52.1907 92.9652 52.5575 93.2275 52.7147 93.3061C52.8807 93.3848 53.1514 93.5421 53.3173 93.6558C53.5007 93.7781 53.7016 93.8481 53.7889 93.8218C53.8937 93.7869 53.9811 93.8306 54.0422 93.9442C54.0859 94.0403 54.1819 94.1015 54.2518 94.0753C54.3129 94.0491 54.4352 94.1278 54.5138 94.2501C54.5924 94.3812 54.7321 94.4774 54.8282 94.4774C54.9243 94.4774 55.0378 94.5561 55.0902 94.6522C55.1426 94.7483 55.2736 94.827 55.3784 94.827C55.4832 94.827 55.6229 94.9057 55.6841 95.0018C55.7452 95.098 55.8587 95.1766 55.9373 95.1766C56.0159 95.1766 56.2168 95.2815 56.3827 95.4126C56.767 95.7186 57.8936 96.4178 58.4089 96.6801C58.6272 96.7937 58.8543 96.951 58.9154 97.0297C58.9765 97.1171 59.0901 97.187 59.1599 97.187C59.3259 97.187 59.6053 97.3443 59.9547 97.6415C60.1031 97.7639 60.3477 97.895 60.4961 97.93C60.6446 97.9649 60.7669 98.0261 60.7669 98.0698C60.7669 98.1135 60.8629 98.1485 60.9765 98.1485C61.1075 98.1485 61.2123 98.2097 61.2472 98.3146C61.2734 98.402 61.4481 98.5418 61.6402 98.6292C61.9633 98.7778 61.9983 98.7778 62.1467 98.6467C62.3738 98.4369 62.4262 98.4632 62.3738 98.7516C62.3301 98.9701 62.3563 99.0313 62.5834 99.1449C62.7319 99.2236 62.9327 99.2848 63.0201 99.2848C63.1161 99.2848 63.2471 99.3635 63.3083 99.4683C63.3781 99.5645 63.5877 99.6781 63.7799 99.7218C64.0855 99.7918 64.1729 99.7743 64.5309 99.5383C64.7493 99.3984 64.9851 99.2848 65.0549 99.2848C65.1248 99.2848 65.2907 99.1886 65.4305 99.0663C65.5702 98.9526 65.7623 98.8303 65.8671 98.7953C65.9632 98.7603 66.3737 98.5243 66.7667 98.2709C67.1597 98.0086 67.509 97.7989 67.5439 97.7989C67.5789 97.7989 67.8758 97.6241 68.2077 97.4055C68.5395 97.187 68.8714 96.9772 68.9587 96.951C69.0373 96.9161 69.2033 96.8199 69.3168 96.7325C69.4303 96.6451 69.5875 96.5752 69.6749 96.5752C69.7535 96.5752 69.9107 96.479 70.0242 96.3566C70.1377 96.2343 70.2862 96.1381 70.3473 96.1381C70.4085 96.1381 70.5045 96.042 70.5482 95.9283C70.6006 95.771 70.6705 95.7273 70.8015 95.7623C70.915 95.7885 71.046 95.7273 71.1857 95.5787C71.2993 95.4563 71.4477 95.3515 71.5001 95.3515C71.6486 95.3515 72.1551 95.0892 72.225 94.9669C72.2599 94.9144 72.2512 94.8532 72.1988 94.8183C72.1551 94.7921 72.094 94.6609 72.0678 94.5298C72.0329 94.3201 72.0416 94.3026 72.1988 94.39C72.2949 94.4337 72.3997 94.5211 72.4259 94.5648C72.5045 94.6959 72.7927 94.6697 72.8538 94.5211C72.88 94.4512 72.9586 94.39 73.0285 94.39C73.1071 94.39 73.1333 94.3288 73.1071 94.2239C73.0634 94.0491 73.2643 93.8568 73.3254 94.0229C73.3778 94.1889 73.5699 94.1452 73.8581 93.9005C74.0066 93.7781 74.1638 93.6995 74.2162 93.7344C74.3559 93.8218 74.6529 93.6121 74.6529 93.4285C74.6529 93.3061 74.714 93.2537 74.8625 93.2537C75.1943 93.2537 75.3428 93.1663 75.2904 93.0177C75.2555 92.939 75.2991 92.8516 75.3777 92.7992C75.4651 92.7555 75.5262 92.6331 75.5262 92.5282C75.5349 92.3534 75.5437 92.3534 75.6223 92.4932C75.6659 92.5719 75.6834 92.6855 75.6572 92.7292C75.5437 92.9128 75.9105 92.8079 76.2161 92.5632C76.5567 92.2922 77.1768 91.9426 77.3165 91.9426C77.4039 91.9338 77.8842 91.5492 77.8842 91.4793C77.8842 91.4531 77.8056 91.4181 77.7008 91.3919C77.5523 91.3482 77.5349 91.3132 77.6222 91.1646C77.7445 90.9199 77.8667 90.9374 77.9366 91.1996C77.9977 91.4618 78.0676 91.4706 78.2597 91.2608C78.3383 91.1821 78.5479 91.0335 78.7313 90.9374C78.9147 90.8412 79.1331 90.6926 79.2291 90.614C79.3165 90.5353 79.5173 90.4042 79.6658 90.3343C80.0151 90.1507 80.2422 89.9759 80.2422 89.871C80.2422 89.8273 80.3994 89.7224 80.6003 89.635C80.7924 89.5476 80.9758 89.4252 81.002 89.3553C81.0282 89.2854 81.1068 89.2329 81.1854 89.2329C81.3513 89.2329 82.2159 88.5686 82.2858 88.3851C82.312 88.3152 82.3993 88.2715 82.4605 88.2977C82.5303 88.3239 82.6788 88.2802 82.7923 88.1928C82.9059 88.1054 83.098 88.0092 83.2377 87.9743C83.3687 87.9481 83.4735 87.8606 83.4735 87.7907C83.4735 87.7121 83.5696 87.6159 83.6919 87.5722C83.8141 87.5285 83.9102 87.4586 83.9102 87.4149C83.9102 87.3799 84.146 87.2313 84.4342 87.0915C84.8709 86.8729 84.9495 86.7943 84.9582 86.5932C84.9582 86.3048 85.0717 86.2261 85.3075 86.3485C85.4647 86.4272 85.5259 86.4097 85.7267 86.1824C85.849 86.0338 85.9975 85.9115 86.0499 85.9115C86.1634 85.9115 86.6175 85.4395 86.8271 85.0986C86.9057 84.9675 87.0455 84.8626 87.1241 84.8713C87.3424 84.8975 87.7441 84.7752 87.8227 84.6528C87.9101 84.5129 88.8445 83.8137 88.9493 83.8137C88.993 83.8137 89.1415 83.6913 89.2899 83.5427C89.4297 83.3941 89.7266 83.1843 89.9449 83.0707C90.3467 82.8609 90.6349 82.5375 90.6349 82.2928C90.6349 82.2141 90.6873 82.1792 90.7571 82.2054C90.8707 82.2491 92.0409 81.5061 92.5125 81.1041C92.6086 81.0166 92.7745 80.9205 92.8793 80.8855C92.9929 80.8593 93.0977 80.7457 93.1239 80.6408C93.1675 80.4747 93.3771 80.2999 93.8662 80.0202C93.9448 79.9765 94.102 79.8104 94.2155 79.6531C94.3378 79.4958 94.5037 79.3559 94.5823 79.3559C94.6697 79.3559 94.8007 79.2598 94.8793 79.1374C94.9579 79.015 95.0714 78.9189 95.1325 78.9189C95.3072 78.9189 96.2242 78.2196 96.2242 78.0798C96.2242 78.0186 96.2591 77.9574 96.3028 77.9574C96.3465 77.9574 96.4425 77.9049 96.5037 77.8438C96.5648 77.7913 96.7744 77.6252 96.9753 77.4941C97.1761 77.363 97.377 77.162 97.4381 77.0571C97.4993 76.9522 97.7176 76.7686 97.9359 76.655C98.1543 76.5414 98.5385 76.218 98.8005 75.9295C99.08 75.6323 99.342 75.4226 99.4468 75.4226C99.5516 75.4226 99.6302 75.3701 99.6302 75.3089C99.6389 75.1429 99.9446 74.8107 100.093 74.8107C100.259 74.8107 100.329 74.6359 100.233 74.4436C100.154 74.2863 100.215 74.0241 100.329 74.0241C100.434 74.0241 100.504 74.2688 100.442 74.4349C100.399 74.5398 100.434 74.531 100.573 74.3912C100.678 74.2863 100.8 74.1989 100.844 74.1989C100.949 74.1989 101.892 73.2374 102.058 72.9577C102.137 72.8178 102.25 72.7129 102.311 72.7129C102.381 72.7129 102.451 72.6518 102.477 72.5818C102.512 72.5119 102.582 72.4507 102.643 72.4507C102.792 72.4507 103.735 71.4892 103.735 71.3319C103.735 71.2795 103.796 71.227 103.875 71.227C103.953 71.227 104.137 71.0872 104.285 70.9211C104.434 70.755 104.591 70.6152 104.634 70.6152C104.827 70.6152 105.307 70.1432 105.307 69.9509C105.307 69.8023 105.368 69.7323 105.551 69.6886C105.682 69.6537 105.901 69.5051 106.032 69.3565C106.163 69.2079 106.547 68.7883 106.879 68.43C107.211 68.0716 107.569 67.6346 107.682 67.4685C107.796 67.3024 107.979 67.1538 108.084 67.1363C108.189 67.1189 108.32 67.0227 108.372 66.9266C108.425 66.8217 108.582 66.6294 108.722 66.4983C108.861 66.3584 108.975 66.2098 108.975 66.1574C108.975 66.1137 109.036 66.07 109.106 66.07C109.184 66.07 109.281 65.9738 109.324 65.8515C109.368 65.7291 109.543 65.5018 109.708 65.3445C109.874 65.1872 110.023 64.9686 110.04 64.8463C110.058 64.7239 110.136 64.619 110.241 64.5841C110.468 64.5229 111.219 63.8236 111.377 63.5264C111.446 63.3953 111.813 62.9758 112.197 62.5824C112.582 62.1891 112.922 61.7958 112.949 61.6996C112.983 61.6035 113.036 61.5248 113.062 61.5248C113.097 61.5248 113.202 61.3762 113.298 61.2014C113.394 61.0266 113.813 60.5371 114.232 60.1088C114.652 59.6805 115.062 59.2085 115.149 59.0512C115.237 58.9026 115.394 58.7015 115.507 58.6141C115.612 58.5267 115.7 58.4131 115.7 58.3606C115.7 58.2732 115.988 57.8799 116.669 57.0408C116.791 56.8835 116.913 56.6999 116.948 56.6212C116.975 56.5426 117.167 56.2454 117.385 55.9657C117.865 55.3189 118.232 54.6895 118.232 54.506C118.232 54.4186 118.276 54.3574 118.328 54.3574C118.494 54.3574 118.931 53.8504 118.931 53.6669C118.931 53.5795 118.992 53.4833 119.053 53.4571C119.123 53.4309 119.254 53.2735 119.333 53.1162C119.411 52.9589 119.507 52.8103 119.542 52.7841C119.577 52.7578 119.691 52.5568 119.787 52.3383C119.892 52.111 120.031 51.91 120.11 51.875C120.18 51.8488 120.241 51.7526 120.241 51.6652C120.241 51.5778 120.354 51.3506 120.494 51.1583C120.843 50.6775 121.612 49.2091 121.673 48.8857C121.708 48.7283 121.813 48.5361 121.909 48.4486C121.996 48.37 122.075 48.2301 122.075 48.1515C122.075 48.0728 122.11 47.9766 122.153 47.9242C122.267 47.8193 122.948 46.4732 122.948 46.3683C122.948 46.3246 123.027 46.2023 123.123 46.0974C123.219 46.0012 123.306 45.7565 123.324 45.5729C123.359 45.1883 123.56 44.7513 123.769 44.5765C123.848 44.5066 123.909 44.3405 123.909 44.2006C123.909 44.0521 123.987 43.8335 124.084 43.6937C124.171 43.5626 124.276 43.2916 124.311 43.0993C124.346 42.8983 124.424 42.6885 124.485 42.6361C124.555 42.5836 124.608 42.4175 124.608 42.2777C124.608 42.1378 124.704 41.8581 124.817 41.6571C124.931 41.4561 125.053 41.1501 125.088 40.9841C125.158 40.6344 125.28 40.2061 125.437 39.7603C125.498 39.5943 125.603 39.2184 125.664 38.93C125.725 38.6415 125.821 38.3443 125.891 38.2657C125.952 38.187 125.987 38.0646 125.961 37.9947C125.926 37.9161 126.005 37.5664 126.118 37.2081C126.241 36.8497 126.311 36.4476 126.293 36.299C126.267 36.1242 126.319 35.8795 126.442 35.6435C126.59 35.3288 126.625 35.1015 126.634 34.4285C126.634 33.974 126.669 33.5369 126.704 33.4583C126.747 33.3883 126.808 32.7765 126.843 32.1035C127.027 28.2226 126.765 23.5638 126.319 23.0743C126.223 22.9694 126.162 22.7159 126.136 22.3575C126.092 21.7894 125.856 20.9503 125.559 20.3035C125.472 20.1024 125.394 19.8315 125.394 19.7004C125.394 19.5605 125.341 19.3857 125.28 19.3158C125.21 19.2371 125.088 18.9574 125.009 18.6777C124.931 18.4067 124.782 18.1183 124.695 18.0396C124.599 17.9522 124.468 17.6812 124.389 17.4278C124.319 17.1743 124.206 16.947 124.145 16.9208C124.075 16.8946 123.935 16.6498 123.822 16.3614C123.647 15.9331 123.228 15.2688 123.027 15.1115C122.992 15.0852 122.905 14.9192 122.835 14.7356C122.756 14.5608 122.66 14.4122 122.608 14.4122C122.564 14.4122 122.407 14.2199 122.258 13.9752C122.11 13.7392 121.909 13.4944 121.813 13.4332C121.717 13.3721 121.638 13.2759 121.638 13.2147C121.638 13.1535 121.56 13.0661 121.472 13.0137C121.376 12.97 121.21 12.7427 121.097 12.5242C120.974 12.2795 120.747 12.0172 120.529 11.8599C120.319 11.7201 120.154 11.5452 120.154 11.4753C120.154 11.3966 120.04 11.2918 119.9 11.2393C119.656 11.1519 119.455 10.8635 119.455 10.61C119.455 10.5488 119.298 10.4002 119.106 10.2953C118.913 10.1817 118.695 10.0069 118.625 9.89324C118.547 9.77961 118.442 9.6922 118.381 9.6922C118.328 9.6922 118.075 9.48243 117.822 9.22894C117.088 8.49472 116.913 8.34613 116.224 7.85665C115.865 7.60317 115.472 7.30598 115.35 7.20109C115.228 7.08746 114.896 6.87768 114.608 6.72035C114.32 6.56302 114.005 6.36198 113.9 6.27457C113.804 6.17843 113.691 6.1085 113.638 6.1085C113.595 6.09976 113.342 5.92494 113.08 5.71517C112.818 5.49665 112.486 5.26939 112.337 5.19946C112.197 5.12954 111.979 5.03339 111.857 4.98094C111.446 4.78865 111.219 4.63131 111.141 4.5002C111.097 4.42154 110.992 4.36035 110.905 4.36035C110.818 4.36035 110.722 4.33413 110.687 4.29917C110.608 4.21176 110.005 4.01072 109.839 4.01072C109.761 4.01072 109.674 3.94954 109.647 3.87961C109.586 3.73102 108.73 3.28524 108.189 3.12791C107.971 3.06672 107.709 2.94435 107.604 2.8482C107.464 2.72583 107.377 2.70835 107.263 2.76954C107.15 2.83072 107.08 2.81324 106.975 2.69087C106.896 2.59472 106.573 2.46361 106.25 2.38494C105.918 2.30628 105.656 2.20139 105.656 2.16643C105.656 2.12272 105.56 2.08776 105.438 2.08776C105.316 2.08776 105.123 2.02657 105.01 1.95665C104.905 1.88672 104.722 1.83428 104.599 1.84302C104.486 1.85176 104.163 1.74687 103.892 1.61576C103.595 1.47591 103.316 1.39724 103.22 1.4322C103.132 1.45843 102.923 1.40598 102.765 1.30983C102.6 1.22243 102.276 1.11754 102.032 1.08257C101.796 1.04761 101.377 0.951462 101.115 0.864055C100.818 0.767907 100.207 0.680499 99.5429 0.645536C98.9403 0.610574 98.2591 0.531907 98.0145 0.470722C97.7787 0.409536 97.3421 0.348351 97.0539 0.348351C96.7744 0.339611 96.4338 0.278425 96.3028 0.21724C96.1456 0.138574 96.0233 0.129833 95.9185 0.191018C95.8137 0.243462 95.7439 0.243462 95.7002 0.164796C95.6478 0.0861291 95.5168 0.0686476 95.281 0.112351C95.0801 0.138574 94.9055 0.129833 94.8793 0.0948698C94.8269 0.0074624 92.268 -0.044982 92.1894 0.0424254ZM35.0035 0.374574C35.0035 0.400796 34.9686 0.444499 34.9162 0.470722C34.8725 0.496944 34.8289 0.479462 34.8289 0.435759C34.8289 0.383314 34.8725 0.339611 34.9162 0.339611C34.9686 0.339611 35.0035 0.357092 35.0035 0.374574ZM26.5322 1.03887C26.5322 1.08257 26.4885 1.12628 26.4361 1.12628C26.3925 1.12628 26.375 1.08257 26.4012 1.03887C26.4274 0.986425 26.4711 0.951462 26.4973 0.951462C26.5147 0.951462 26.5322 0.986425 26.5322 1.03887ZM39.8942 1.12628C39.8942 1.16998 39.8593 1.21368 39.8069 1.21368C39.7632 1.21368 39.7195 1.16998 39.7195 1.12628C39.7195 1.07383 39.7632 1.03887 39.8069 1.03887C39.8593 1.03887 39.8942 1.07383 39.8942 1.12628ZM41.6933 1.97413C41.6059 2.06154 41.5273 1.93043 41.6059 1.8168C41.6583 1.72065 41.6758 1.72065 41.7107 1.8168C41.7282 1.87798 41.7195 1.94791 41.6933 1.97413ZM89.5869 2.00035C89.5869 2.04406 89.5519 2.08776 89.4995 2.08776C89.4559 2.08776 89.4122 2.04406 89.4122 2.00035C89.4122 1.94791 89.4559 1.91294 89.4995 1.91294C89.5519 1.91294 89.5869 1.94791 89.5869 2.00035ZM105.22 2.66465C105.22 2.73457 105.185 2.76954 105.132 2.74331C105.089 2.71709 105.045 2.65591 105.045 2.60346C105.045 2.55976 105.089 2.5248 105.132 2.5248C105.185 2.5248 105.22 2.58598 105.22 2.66465ZM79.1069 3.7922C79.2466 3.96702 79.1942 4.01946 78.9497 3.94954C78.8449 3.92331 78.7575 3.84465 78.7575 3.78346C78.7575 3.61739 78.9671 3.62613 79.1069 3.7922ZM107.054 5.40924C107.054 5.45294 107.01 5.49665 106.957 5.49665C106.914 5.49665 106.896 5.45294 106.923 5.40924C106.949 5.3568 106.992 5.32183 107.019 5.32183C107.036 5.32183 107.054 5.3568 107.054 5.40924ZM19.8337 8.79191C20.1656 9.04539 20.2442 9.33383 20.0433 9.50865C19.9735 9.56109 19.6416 9.61354 19.301 9.63102C18.9604 9.6485 18.6198 9.70968 18.5499 9.77087C18.3578 9.9282 18.3753 10.1904 18.5849 10.3215C18.6809 10.3827 18.7595 10.4964 18.7595 10.5663C18.7595 10.6449 18.9429 10.7935 19.1787 10.8984C19.4058 11.0033 19.6853 11.1519 19.8075 11.2131C20.2267 11.4578 21.0127 11.7288 21.1525 11.6764C21.2311 11.6414 21.266 11.5627 21.2398 11.4841C21.2049 11.3966 21.2398 11.3529 21.3708 11.3529C21.5804 11.3529 21.6066 11.4404 21.4494 11.6064C21.3621 11.6938 21.3621 11.7375 21.4407 11.7638C21.4931 11.7812 21.6241 11.8774 21.7289 11.9648C21.8424 12.0609 22.0695 12.1571 22.2441 12.1833C22.4188 12.2095 22.6808 12.2882 22.8205 12.3581C22.969 12.4281 23.2223 12.5155 23.3882 12.5417C23.5541 12.5766 23.8249 12.6728 23.9733 12.7689C24.1829 12.8913 24.4449 12.9438 24.934 12.9525C25.3357 12.9612 25.6501 13.0137 25.7025 13.0749C25.851 13.2497 26.6807 13.5206 26.9252 13.4769C27.0649 13.442 27.2134 13.4857 27.3182 13.5818C27.4143 13.6692 27.6239 13.7304 27.816 13.7304C27.9994 13.7304 28.2701 13.8004 28.4186 13.8965C28.6631 14.0451 29.4579 14.2199 30.6718 14.386C30.8552 14.4122 31.0823 14.5084 31.1696 14.5958C31.2569 14.6832 31.4229 14.7706 31.5277 14.7968C31.6412 14.8143 32.0604 14.8929 32.4709 14.9716C32.8813 15.0503 33.3005 15.1115 33.3966 15.1115C33.5014 15.1115 33.6324 15.1639 33.6848 15.2338C33.7634 15.33 34.2263 15.4436 34.7852 15.4961C34.8376 15.5048 34.9948 15.5485 35.1345 15.6097C35.283 15.6709 35.8507 15.8195 36.4009 15.9418C36.9511 16.0642 37.51 16.2303 37.641 16.3002C37.7633 16.3614 37.9991 16.4226 38.1563 16.4226C38.3222 16.4226 38.7065 16.5187 39.0209 16.6324C39.3353 16.7547 39.9029 16.9121 40.2872 16.9907C40.9771 17.1393 41.8592 17.419 42.0339 17.5501C42.0775 17.5938 42.3919 17.7162 42.7238 17.8298C43.1692 17.9872 43.4312 18.1445 43.7369 18.4592C44.191 18.9049 44.3045 19.1584 44.3919 19.9364C44.4355 20.3734 44.4181 20.5132 44.1997 20.9852C43.7543 21.9817 42.7937 22.6722 42.4356 22.2439C42.3745 22.1652 42.2435 22.1041 42.1649 22.1041C41.9989 22.1041 41.4662 21.6321 41.4662 21.4835C41.4662 21.4398 41.3963 21.4048 41.309 21.4048C41.2217 21.4048 40.9684 21.2824 40.7413 21.1426C40.5143 20.994 40.2785 20.8804 40.2173 20.8804C40.1562 20.8804 40.0689 20.8454 40.0165 20.8104C39.9728 20.7667 39.7457 20.6618 39.5012 20.5832C39.2654 20.4958 38.8811 20.3384 38.6628 20.2248C38.4357 20.1199 38.0427 19.9975 37.7895 19.9626C37.5275 19.9364 37.1257 19.814 36.8812 19.7004C35.938 19.2458 35.6411 19.1322 35.414 19.1322C35.2917 19.1322 35.0821 19.0885 34.9424 19.0361C34.8114 18.9836 34.5581 18.9224 34.3922 18.9049C34.2263 18.8875 33.9119 18.7738 33.6935 18.6602C33.4752 18.5466 33.0822 18.4329 32.8115 18.398C32.5407 18.3718 32.2089 18.2844 32.0691 18.2144C31.9294 18.1445 31.7373 18.0833 31.6412 18.0833C31.4054 18.0833 30.8989 17.8998 30.6107 17.7075C30.4884 17.6288 30.3137 17.5589 30.2351 17.5589C30.1478 17.5589 29.9644 17.5239 29.8159 17.4715C29.6675 17.4278 29.3094 17.3229 29.0212 17.2442C28.733 17.1743 28.1391 16.9645 27.6937 16.7984C27.2571 16.6324 26.8553 16.51 26.8204 16.5362C26.7767 16.5624 26.6283 16.5362 26.4885 16.4663C25.9558 16.239 25.1523 15.9855 24.9253 15.9855C24.7943 15.9855 24.541 15.8894 24.3663 15.767C24.1917 15.6446 23.9297 15.5485 23.7899 15.5485C23.6502 15.5485 23.4493 15.4698 23.3445 15.3737C23.2397 15.2688 22.9952 15.1639 22.8118 15.1377C22.3489 15.0678 20.7944 14.2986 20.4975 14.0014C20.4451 13.9489 20.3403 13.9227 20.2791 13.9489C20.2093 13.9752 20.1307 13.9315 20.1045 13.8528C20.0521 13.7129 19.3359 13.1972 18.8381 12.9438C18.7159 12.8738 18.4975 12.7165 18.3491 12.5941C18.0871 12.3581 17.5369 11.5802 17.5369 11.4491C17.5369 11.4054 17.4757 11.3267 17.4059 11.2655C17.3098 11.1869 17.2749 10.9858 17.2749 10.5575C17.2749 9.99813 17.336 9.77087 17.5893 9.42998C17.6417 9.36006 17.7115 9.19398 17.7465 9.05413C17.7901 8.86183 17.8513 8.81813 18.0609 8.81813C18.2093 8.81813 18.3229 8.78317 18.3229 8.73946C18.3229 8.62583 18.5412 8.58213 19.0739 8.56465C19.432 8.55591 19.5805 8.59961 19.8337 8.79191ZM56.4002 9.61354C56.4002 9.6485 56.2255 9.58731 56.0159 9.48243C55.8063 9.38628 55.6491 9.27265 55.6666 9.23768C55.7103 9.16776 56.4002 9.51739 56.4002 9.61354ZM113.01 19.1322C113.193 19.4906 113.342 19.8227 113.342 19.8664C113.342 19.9101 113.411 20.0325 113.499 20.1286C113.595 20.2335 113.752 20.5482 113.866 20.8366C113.979 21.1251 114.18 21.5446 114.32 21.7632C114.451 21.9817 114.608 22.375 114.652 22.6285C114.704 22.882 114.835 23.2928 114.948 23.5463C115.21 24.0795 115.315 25.1458 115.219 26.2472C115.167 26.9289 115.132 27.0426 114.809 27.5146C114.547 27.9079 114.381 28.0652 114.136 28.1439C113.962 28.2051 113.569 28.3799 113.254 28.546C112.206 29.0879 111.132 29.0005 109.438 28.2138C108.783 27.9166 108.678 28.0041 108.94 28.6421C109.062 28.9568 109.062 29.0792 108.931 30.0057C108.8 30.9672 108.503 31.8849 108.285 32.0248C108.233 32.051 108.189 32.1559 108.189 32.2521C108.189 32.3569 108.084 32.4881 107.918 32.5755C107.77 32.6541 107.508 32.8289 107.342 32.9601C107.045 33.1873 107.019 33.1961 105.918 33.1698C105.054 33.1523 104.748 33.1174 104.634 33.0125C104.547 32.9426 104.25 32.7852 103.962 32.6716C103.578 32.5143 103.263 32.2783 102.722 31.7451C102.32 31.3518 101.988 30.9934 101.988 30.9497C101.988 30.8535 101.455 30.0057 101.263 29.7959C101.01 29.5162 100.783 29.1229 100.722 28.8606C100.696 28.7033 100.626 28.5547 100.582 28.5285C100.538 28.4935 100.504 28.3624 100.504 28.2226C100.504 28.0827 100.469 27.9429 100.416 27.9166C100.373 27.8904 100.329 27.7855 100.329 27.6981C100.329 27.5495 100.25 27.2786 99.9795 26.4132C99.8747 26.0986 99.8311 24.4553 99.9271 24.3067C99.9621 24.2543 99.9621 24.1144 99.9359 24.0008C99.9009 23.8609 99.9184 23.7735 100.006 23.7386C100.076 23.7124 100.154 23.5113 100.18 23.2841C100.268 22.6809 100.8 21.8156 101.543 21.0552C102.425 20.1549 102.931 19.7703 103.298 19.7178C103.464 19.6916 103.813 19.6217 104.075 19.5605C104.434 19.4818 104.582 19.4818 104.704 19.5518C104.792 19.6129 105.08 19.6566 105.333 19.6566C105.752 19.6566 105.831 19.6916 106.093 19.9626C106.259 20.1286 106.442 20.2685 106.503 20.2685C106.564 20.2685 106.722 20.487 106.844 20.7492C106.975 21.0202 107.106 21.2562 107.15 21.2824C107.289 21.3611 107.237 22.1915 107.08 22.4712C106.818 22.9082 105.796 23.4152 105.158 23.4152C104.809 23.4152 104.661 23.1704 104.573 22.4537C104.46 21.5359 103.866 20.994 103.124 21.1076C102.835 21.1513 102.687 21.2562 102.338 21.6495C101.953 22.0866 101.901 22.174 101.91 22.5324C101.91 22.7509 101.901 23.0306 101.892 23.1529C101.875 23.5288 102.006 24.3242 102.119 24.4641C102.172 24.534 102.276 24.7875 102.338 25.0322C102.399 25.2682 102.503 25.5479 102.573 25.6441C102.634 25.7402 102.687 25.8888 102.687 25.9849C102.687 26.2996 102.905 26.7804 103.132 26.9726C103.255 27.0775 103.403 27.331 103.473 27.5408C103.534 27.7506 103.682 28.0128 103.796 28.1439C103.91 28.2663 103.997 28.4061 103.997 28.4673C103.997 28.5198 104.075 28.6072 104.172 28.6596C104.268 28.7121 104.346 28.8082 104.346 28.8781C104.346 28.9481 104.425 29.0442 104.521 29.0966C104.617 29.1491 104.722 29.2889 104.748 29.4026C104.774 29.5162 104.879 29.6386 104.966 29.6648C105.054 29.6998 105.167 29.7872 105.22 29.8746C105.263 29.962 105.516 30.1455 105.778 30.2766C106.198 30.4864 106.329 30.5126 106.757 30.4689C107.481 30.3903 107.691 30.163 107.735 29.3851C107.787 28.2575 107.778 28.1089 107.621 28.0215C107.525 27.9691 107.49 27.8817 107.525 27.7331C107.586 27.5146 107.219 26.3695 107.019 26.1335C106.957 26.0549 106.861 25.8626 106.809 25.7052C106.757 25.5479 106.634 25.3119 106.547 25.1808C106.128 24.5777 106.154 24.3067 106.687 23.791C106.949 23.5375 107.027 23.5113 107.796 23.4589C108.826 23.3802 109.184 23.4938 109.464 23.9921C109.569 24.1756 109.743 24.3679 109.857 24.4116C110.154 24.534 110.163 24.5515 110.023 24.6389C109.813 24.77 111.237 26.0986 111.962 26.4569C112.625 26.7716 112.992 26.8066 113.42 26.5793C113.874 26.3521 114.084 26.0112 114.066 25.5566C114.058 25.3381 114.023 25.1196 113.988 25.0584C113.944 24.9972 113.909 24.8224 113.9 24.6826C113.857 24.0358 113.673 23.2928 113.516 23.0918C113.42 22.9694 113.342 22.7596 113.342 22.6285C113.342 22.4974 113.263 22.3226 113.176 22.2439C113.08 22.1565 112.975 21.9642 112.94 21.8244C112.914 21.6758 112.791 21.3961 112.678 21.195C112.564 21.0027 112.355 20.5832 112.206 20.2685C112.058 19.9626 111.901 19.6829 111.866 19.6566C111.822 19.6304 111.761 19.4906 111.735 19.3332C111.682 19.106 111.717 18.9924 111.909 18.7389C112.101 18.4766 112.197 18.4329 112.416 18.4504C112.643 18.4766 112.713 18.5553 113.01 19.1322ZM27.7811 19.9014C27.9121 20.1199 27.9295 20.2161 27.8509 20.2947C27.7985 20.3472 27.7549 20.5569 27.7549 20.758C27.7549 20.9765 27.7025 21.1688 27.6239 21.23C27.554 21.2912 27.4929 21.3961 27.4929 21.4572C27.4929 21.5884 26.9601 22.5586 26.3663 23.5201C26.1741 23.8435 26.0082 24.1581 26.0082 24.2193C26.0082 24.2805 25.8685 24.4291 25.7025 24.5427C25.5366 24.6564 25.3969 24.7962 25.3969 24.8486C25.3969 24.9011 25.1873 25.1721 24.934 25.443C24.4187 26.0112 23.7375 26.8765 23.7375 26.9552C23.7375 27.0338 23.0389 27.6981 22.9515 27.6981C22.9166 27.6981 22.8555 27.803 22.8293 27.9254C22.7943 28.0565 22.576 28.3362 22.3315 28.546C22.0957 28.7645 21.9035 28.9918 21.9035 29.0529C21.9035 29.1491 21.5629 29.6473 21.2573 29.9882C21.1787 30.0756 21.1175 30.1805 21.1175 30.2329C21.1175 30.2766 20.9778 30.4078 20.8119 30.5126C20.6459 30.6263 20.4625 30.8098 20.4014 30.9322C20.2442 31.2469 19.8425 31.7713 19.3097 32.3569C19.0565 32.6366 18.7857 33.0038 18.7159 33.1698C18.6198 33.3971 18.5412 33.467 18.3753 33.467C18.1919 33.467 18.1482 33.5107 18.1482 33.6768C18.1482 33.7992 18.0434 33.9565 17.8862 34.0789C17.7465 34.1838 17.6067 34.3411 17.5805 34.4198C17.5631 34.4984 17.4495 34.6033 17.3447 34.647C17.2399 34.6995 17.0827 34.8743 16.9867 35.0403C16.8993 35.2064 16.7159 35.4424 16.5849 35.5648C16.4539 35.6872 16.2705 35.9144 16.1832 36.063C16.0522 36.2903 15.9299 36.3602 15.5893 36.4389C15.3448 36.4913 15.109 36.4913 15.0217 36.4476C14.9431 36.4126 14.6985 36.3515 14.4889 36.3252C14.2357 36.2903 14.0348 36.2029 13.9038 36.0543C13.7903 35.9406 13.5632 35.7309 13.3885 35.5998C13.1877 35.4512 13.0829 35.2938 13.0829 35.1627C13.0829 35.0491 13.0043 34.8743 12.9082 34.7781C12.8121 34.682 12.7335 34.5334 12.7335 34.446C12.7335 34.3586 12.7073 34.2537 12.6724 34.2187C12.5414 34.0876 12.6724 33.4408 12.9169 32.9601C13.1527 32.5143 13.2401 32.4443 13.7903 32.1821C14.1221 32.0161 14.5588 31.7276 14.7597 31.5441C14.9518 31.3518 15.1701 31.1944 15.2313 31.1944C15.2924 31.1944 15.371 31.0983 15.4059 30.9846C15.4321 30.8623 15.5369 30.7486 15.6592 30.7224C15.7815 30.6875 15.9911 30.5126 16.1483 30.3203C16.2967 30.1368 16.5325 29.9445 16.6723 29.8921C16.812 29.8483 16.9255 29.7522 16.9255 29.6823C16.9255 29.5599 17.4583 28.9918 18.5237 27.9691C18.8469 27.6632 19.1351 27.3223 19.1613 27.2086C19.1875 27.095 19.2661 26.9989 19.3185 26.9989C19.4844 26.9989 20.2355 26.2472 20.2879 26.0199C20.3228 25.9063 20.4713 25.7577 20.6197 25.679C20.7769 25.6004 20.8992 25.4692 20.8992 25.3818C20.8992 25.2944 20.9603 25.207 21.0302 25.1808C21.1001 25.1546 21.2223 25.0759 21.3009 24.9972C21.3708 24.9186 21.5629 24.7612 21.7114 24.6389C21.8686 24.5165 21.9909 24.3941 21.9909 24.3592C21.9909 24.3242 22.1655 24.1057 22.3839 23.8784C22.6022 23.6599 22.7769 23.4239 22.7769 23.3715C22.7769 23.319 22.9079 23.2054 23.0738 23.1267C23.2747 23.0306 23.4057 22.8907 23.4843 22.6809C23.5454 22.5061 23.624 22.3663 23.6589 22.3663C23.7725 22.3663 24.6109 21.6321 24.6109 21.5272C24.6109 21.466 24.7157 21.3349 24.8467 21.23C24.9777 21.1251 25.3619 20.7842 25.7025 20.4608C26.6807 19.5255 27.4492 19.3245 27.7811 19.9014ZM84.4953 22.1652C84.9145 22.41 84.9844 22.5324 85.3599 23.6337C85.4735 23.9658 85.6481 24.3504 85.7529 24.4903C85.849 24.6301 85.9101 24.7875 85.8927 24.8574C85.8665 24.9186 85.9014 25.0409 85.9625 25.1371C86.0237 25.2332 86.1547 25.5829 86.2333 25.915C86.3206 26.2472 86.4778 26.6405 86.5913 26.7978C86.7049 26.9464 86.7922 27.1912 86.7922 27.3398C86.7922 27.4796 86.8359 27.6282 86.8795 27.6544C86.9319 27.6806 86.9669 27.8467 86.9669 28.0128C86.9669 28.1789 87.028 28.4586 87.1066 28.6421C87.1852 28.8169 87.2551 29.0792 87.2638 29.219C87.2725 29.3589 87.3511 29.5162 87.4297 29.5774C87.5083 29.6386 87.5782 29.7959 87.5782 29.9445C87.5782 30.0843 87.6393 30.2766 87.7092 30.3728C87.7791 30.4602 87.8402 30.6263 87.8402 30.7312C87.8402 30.8361 87.9188 31.0546 88.0149 31.2206C88.1808 31.4916 88.2769 31.85 88.4428 32.7415C88.5127 33.1349 88.8707 33.7292 89.0367 33.7292C89.1502 33.7292 89.2725 33.4233 89.2026 33.3097C89.1764 33.266 89.1851 32.8726 89.2201 32.4269C89.255 31.9898 89.255 31.579 89.2201 31.5178C89.1851 31.4654 89.2113 31.3605 89.2725 31.2818C89.3423 31.2119 89.4122 31.0109 89.4471 30.8361C89.5257 30.399 90.0934 29.2889 90.4602 28.8606C90.8008 28.4673 91.5955 28.0478 92.006 28.0478C92.5038 28.0478 93.2811 28.3886 93.6653 28.7645C93.8749 28.9655 94.0409 29.1753 94.0409 29.2365C94.0409 29.2889 94.102 29.455 94.1719 29.5861C94.4251 30.0756 94.2941 30.3116 93.7789 30.3116C93.6129 30.3116 93.1763 30.3291 92.8182 30.3641C92.4601 30.3903 91.9274 30.4165 91.6392 30.4165C90.8445 30.4252 90.8095 30.4602 90.5039 31.5878C90.4253 31.8762 90.3292 32.2258 90.2855 32.3744C90.2419 32.5143 90.2157 32.9076 90.2331 33.2485C90.2506 33.5806 90.2244 33.9303 90.172 34.0264C90.0672 34.2362 90.0323 35.3026 90.1283 35.4949C90.172 35.5823 90.1633 35.8008 90.1196 36.0018C90.0759 36.2203 90.0759 36.4738 90.1283 36.6836C90.172 36.8584 90.2331 37.1206 90.2593 37.2692C90.2855 37.4091 90.3554 37.5926 90.4165 37.6626C90.4777 37.7325 90.5475 37.8986 90.5825 38.0297C90.6087 38.1695 90.6611 38.3793 90.6873 38.5104C90.7222 38.6503 90.7921 38.8163 90.8532 38.8863C91.0104 39.0698 91.2899 39.8041 91.4209 40.3547C91.4733 40.5995 91.5955 40.9578 91.6829 41.1414C92.1021 42.0417 91.6392 43.0906 90.6261 43.5014C90.1109 43.7112 90.0847 43.7112 89.7615 43.5626C89.5781 43.4839 89.386 43.3266 89.3336 43.2217C89.2812 43.1255 89.1589 42.9332 89.0629 42.8109C88.9581 42.6885 88.8445 42.3738 88.8009 42.1116C88.7659 41.8494 88.6437 41.4211 88.5389 41.1589C88.4341 40.8966 88.3118 40.5383 88.2594 40.3722C88.2157 40.2061 88.1371 40.0313 88.0935 39.9876C88.0498 39.9352 88.0149 39.839 88.0149 39.7603C88.0149 39.6817 87.9188 39.4195 87.7965 39.1835C87.6743 38.9475 87.5957 38.7027 87.6219 38.6415C87.6393 38.5803 87.5869 38.4667 87.4909 38.3881C87.3948 38.3006 87.3162 38.1695 87.3162 38.0821C87.3162 38.0035 87.2725 37.9073 87.2289 37.8811C87.1765 37.8461 87.1503 37.7238 87.159 37.5926C87.1765 37.3829 86.6525 35.9232 86.4341 35.5648C86.3905 35.4949 86.3206 35.3375 86.2682 35.2152C86.2245 35.0928 86.1285 34.883 86.0499 34.7519C85.98 34.6121 85.9189 34.4372 85.9189 34.3586C85.9189 34.2799 85.8577 34.1313 85.7879 34.0439C85.718 33.9478 85.6569 33.7904 85.6569 33.6943C85.6569 33.5981 85.5957 33.4583 85.5259 33.3796C85.4036 33.2398 85.0805 32.4181 84.9844 31.9811C84.9582 31.8587 84.8796 31.7014 84.8185 31.6315C84.6525 31.4392 84.3469 30.7399 84.3469 30.5563C84.3469 30.4602 84.2683 30.2941 84.1722 30.1718C84.0761 30.0494 83.9975 29.8746 83.9975 29.7872C83.9975 29.7085 83.9015 29.5599 83.7879 29.4638C83.6395 29.3501 83.5609 29.1753 83.5172 28.8956C83.4735 28.6159 83.3687 28.3886 83.1941 28.2051C83.0543 28.0565 82.9583 27.8817 82.9845 27.8205C83.0107 27.7593 82.9146 27.567 82.7749 27.3747C82.6351 27.1912 82.5129 26.9639 82.5129 26.8765C82.5129 26.6318 82.1635 25.95 82.05 25.95C81.9889 25.95 81.8666 25.7752 81.7793 25.5741C81.6832 25.3731 81.5522 25.1633 81.4823 25.1109C81.3863 25.0409 81.3601 24.8836 81.395 24.499C81.4299 23.9921 81.6919 23.2404 81.8317 23.2404C81.8666 23.2404 81.9015 23.1617 81.9015 23.0743C81.9015 22.7771 81.9976 22.6285 82.1985 22.6285C82.3033 22.6285 82.4517 22.5498 82.5391 22.4537C82.6177 22.3575 82.7399 22.2789 82.8011 22.2789C82.8709 22.2789 82.9932 22.2002 83.0805 22.1041C83.3251 21.8418 83.9888 21.8681 84.4953 22.1652ZM52.2955 25.0147C52.7322 25.1371 53.5357 25.8451 53.6492 26.2122C53.6841 26.3346 53.7627 26.4919 53.8326 26.5618C53.9811 26.7366 53.9985 27.2786 53.8675 27.8118C53.7453 28.3012 53.8413 28.4848 54.2081 28.4848C54.5313 28.4848 55.5531 28.2663 55.7801 28.1439C56.0334 28.0041 57.0028 27.6981 57.1775 27.6981C57.3871 27.6981 57.8587 28.0128 58.0246 28.2575C58.2429 28.5984 58.1207 29.018 57.6316 29.6036C57.2473 30.0581 57.1687 30.1106 56.6971 30.2067C56.4177 30.2679 55.8325 30.3378 55.3959 30.3728C54.9679 30.4078 54.54 30.4777 54.4527 30.5389C54.3391 30.6175 54.2256 30.6263 54.0597 30.5651C53.9025 30.5039 53.7453 30.5039 53.5968 30.5651C53.3959 30.6438 53.3523 30.7312 53.2562 31.343C53.1863 31.7189 53.1252 32.1996 53.1165 32.4181C53.1077 32.6366 53.0815 32.9513 53.0466 33.1174C53.0204 33.2835 52.9767 33.6593 52.9505 33.9478C52.9331 34.2362 52.8981 34.5858 52.8719 34.7344C52.7846 35.1977 52.4964 37.6975 52.4964 37.9685C52.4877 38.5279 52.3741 40.2761 52.3043 40.9403C52.2606 41.3249 52.2519 41.6921 52.2868 41.7707C52.3741 41.9281 52.3479 43.0294 52.2519 43.3703C52.2169 43.5101 52.2257 43.6587 52.2868 43.7286C52.3392 43.7898 52.3654 43.9122 52.3305 43.9909C52.3043 44.0695 52.3217 44.1832 52.3741 44.2443C52.4265 44.3055 52.4877 44.594 52.5139 44.8824C52.5401 45.1621 52.6099 45.5642 52.6623 45.7565C52.7759 46.2372 53.3523 46.7966 53.7889 46.8666C54.1645 46.919 54.7496 46.7442 55.0989 46.4645C56.1207 45.6691 56.2343 45.5555 56.2867 45.3282C56.3129 45.1971 56.4089 45.0485 56.4963 45.0048C56.5836 44.9523 56.6797 44.83 56.7146 44.7251C56.7495 44.6115 56.8631 44.4017 56.9766 44.2531C57.0901 44.1045 57.1862 43.9209 57.1862 43.851C57.1862 43.65 57.4482 43.1518 57.684 42.8983C57.8063 42.7672 57.8936 42.5923 57.8761 42.5049C57.8587 42.3563 58.1993 41.4998 58.5137 40.9054C58.5748 40.7918 58.7757 40.6432 58.9591 40.582C59.256 40.4771 59.3259 40.4858 59.518 40.6082C59.7014 40.7306 59.7276 40.8005 59.6839 41.0627C59.5791 41.7969 59.518 42.0155 59.3171 42.4001C59.1949 42.6361 59.125 42.8546 59.1512 42.907C59.1774 42.9595 59.1425 43.0556 59.0726 43.1343C58.994 43.2042 58.9329 43.3266 58.9329 43.4052C58.9329 43.4752 58.8193 43.6849 58.6709 43.8685C58.5311 44.0521 58.4089 44.2793 58.4089 44.3755C58.4089 44.4803 58.3739 44.5765 58.3303 44.6027C58.2866 44.6289 58.1643 44.8212 58.0595 45.0223C57.9547 45.2321 57.7189 45.5467 57.5268 45.7215C57.3434 45.9051 57.1862 46.0974 57.1862 46.1411C57.1862 46.1935 57.0901 46.2722 56.9766 46.3334C56.8543 46.3858 56.7495 46.5082 56.7321 46.6043C56.7146 46.7005 56.6273 46.8229 56.5399 46.8753C56.3653 46.9802 56.2867 47.0326 55.7627 47.4609C55.5443 47.6532 55.2037 47.7931 54.671 47.9329C54.0247 48.099 53.8064 48.1165 53.1689 48.0641C52.7584 48.0203 52.2693 47.9329 52.0772 47.8543C51.8851 47.7843 51.6667 47.7232 51.5881 47.7144C51.4309 47.7144 50.6449 47.1375 50.3305 46.8054C50.2083 46.6743 50.0336 46.4033 49.9463 46.2023C49.8502 46.0012 49.693 45.7565 49.5969 45.6691C49.4921 45.5729 49.4135 45.4506 49.4135 45.3806C49.4135 45.2408 49.1428 44.4192 48.9245 43.9122C48.8459 43.7199 48.7673 43.3528 48.7498 43.0993C48.7323 42.8458 48.6101 42.3214 48.4878 41.9368C48.3219 41.4298 48.2782 41.1414 48.3219 40.9141C48.3655 40.6432 48.4267 40.11 48.4616 39.5855C48.4703 39.5156 48.514 39.1747 48.5577 38.8426C48.6799 37.9685 48.7149 37.6363 48.7498 36.7448C48.7673 36.3078 48.8284 35.8445 48.8808 35.7046C48.9332 35.5735 49.0031 35.0403 49.0293 34.5246C49.0555 34.0177 49.1079 33.5195 49.1515 33.4233C49.2563 33.1786 49.4135 32.0598 49.4135 31.5965C49.4135 31.3343 49.4485 31.1944 49.5183 31.1944C49.5795 31.1944 49.5445 31.107 49.4397 31.0021C49.2563 30.8273 49.2127 30.8186 48.8022 30.9147C48.5577 30.9759 48.2433 31.0196 48.1035 31.0196C47.9725 31.0196 47.8153 31.0808 47.7542 31.1507C47.597 31.343 47.3787 31.3081 47.1778 31.0808C46.8983 30.7661 46.8634 30.5826 47.0206 30.3291C47.3874 29.7784 47.9289 29.4463 48.4703 29.4463C49.0118 29.4463 49.7978 29.0442 49.8327 28.747C49.8939 28.275 49.9375 27.803 49.9725 27.3485C49.9899 27.0863 50.0249 26.7978 50.0685 26.7192C50.1035 26.6318 50.086 26.4395 50.0336 26.2909C49.8939 25.8801 49.9113 25.6703 50.1384 25.4081C50.4965 24.9623 51.4571 24.7875 52.2955 25.0147ZM62.924 26.5706C63.6052 26.7279 63.8585 26.894 64.1729 27.3747C64.7493 28.2575 64.8191 29.0879 64.3737 29.8309C64.1205 30.2504 63.8847 30.3815 62.9939 30.5826C62.2166 30.7574 61.5965 30.7399 61.3171 30.5301C61.0027 30.2941 60.7669 29.4201 60.7407 28.3974C60.7145 27.3922 60.8455 27.1737 61.7275 26.7804C62.5135 26.4395 62.4175 26.4482 62.924 26.5706ZM29.388 28.4411C29.8771 28.4935 29.9819 28.546 30.3312 28.8694C30.7591 29.2802 30.7766 29.3239 30.6019 29.5774C30.3923 29.8833 30.3487 30.1455 30.4971 30.1455C30.5757 30.1455 30.6369 30.1106 30.6369 30.0756C30.6369 29.9532 31.1172 29.8309 31.5102 29.8571C31.7285 29.8746 32.0691 29.9008 32.2787 29.9095C32.5145 29.9183 32.6979 29.9795 32.7678 30.0756C32.8289 30.1543 32.9861 30.2504 33.1346 30.2854C33.2743 30.3203 33.4403 30.3815 33.5014 30.434C33.6149 30.5214 34.0429 31.3692 34.0429 31.5003C34.0429 31.5441 34.104 31.6402 34.1739 31.7189C34.2874 31.8412 34.2961 31.9723 34.2263 32.4618C34.1739 32.8377 34.1739 33.1174 34.2263 33.2135C34.2787 33.3097 34.2699 33.3883 34.2175 33.4233C34.1739 33.4495 34.1302 33.5457 34.1302 33.6243C34.1302 33.703 34.0691 33.8866 33.9905 34.0352C33.9206 34.175 33.8507 34.4897 33.8333 34.7344C33.8158 35.0578 33.6761 35.4337 33.3093 36.1766C32.6543 37.479 32.5844 37.6014 32.4447 37.7063C32.3835 37.75 32.1215 38.0996 31.8683 38.4755C31.3443 39.2272 31.3355 39.4282 31.8246 39.6642C31.9643 39.7254 32.1827 39.839 32.3137 39.9089C32.5233 40.0138 32.6193 40.0138 33.0298 39.9002C33.2918 39.839 33.6237 39.6992 33.7634 39.5943C33.9119 39.4894 34.0516 39.4107 34.0953 39.4107C34.2175 39.4107 35.6149 37.8811 35.6673 37.6801C35.7371 37.4441 35.5974 37.2605 35.3005 37.1906C35.1258 37.1469 35.0909 37.0944 35.1345 36.9808C35.1695 36.9021 35.2219 36.7361 35.2393 36.6137C35.2655 36.4913 35.3616 36.2378 35.4489 36.0368C35.5363 35.8445 35.6149 35.626 35.6149 35.5561C35.6149 35.4861 35.6935 35.3812 35.7983 35.3201C35.9293 35.2326 35.9555 35.1715 35.8856 35.0928C35.8245 35.0141 35.8419 34.9442 35.9555 34.8481C36.2 34.6383 36.2873 33.6943 36.1039 33.266C36.0341 33.0824 35.9118 32.9163 35.8332 32.8901C35.7633 32.8639 35.7022 32.794 35.7022 32.7503C35.7022 32.6978 35.6498 32.5405 35.5799 32.3919C35.3878 31.9636 35.3441 31.3867 35.4926 31.2381C35.5799 31.1595 35.5887 31.0546 35.5363 30.9147C35.4839 30.7661 35.5188 30.6175 35.6673 30.3203C35.7808 30.1018 35.8943 29.8658 35.9293 29.7959C36.0515 29.4987 36.6541 29.1229 37.1083 29.0617C37.4925 29.0092 37.5799 29.0267 37.7283 29.1753C37.8157 29.2802 37.9205 29.3589 37.9641 29.3589C37.9991 29.3589 38.1301 29.6211 38.2523 29.9445C38.6453 31.0021 38.6803 31.1769 38.5929 31.343C38.5493 31.4304 38.4619 31.7276 38.4008 32.0161C38.3047 32.4706 38.3047 32.5318 38.4357 32.6104C38.5143 32.6541 38.5842 32.7415 38.5842 32.8027C38.5842 32.8726 38.6541 32.9513 38.7414 32.9863C38.9161 33.0649 40.8723 33.2223 41.5099 33.2135C41.7544 33.2048 42.1649 33.2747 42.4269 33.3621C42.8373 33.502 42.9421 33.5894 43.1517 33.9565C43.4399 34.4372 43.4399 34.7432 43.143 35.39C43.0469 35.6085 42.9334 35.9232 42.9072 36.0892C42.8723 36.2553 42.7937 36.4738 42.7325 36.57C42.6801 36.6661 42.6015 36.9283 42.5666 37.1556C42.5317 37.3829 42.4705 37.5926 42.4269 37.6189C42.3832 37.6451 42.3483 37.8374 42.357 38.0472C42.357 38.2482 42.3221 38.4929 42.2697 38.5891C42.1212 38.8513 41.9815 39.4806 41.8941 40.2236C41.8505 40.5995 41.7981 40.9403 41.7719 40.9841C41.7457 41.0278 41.7719 41.1501 41.8243 41.2725C41.9029 41.4386 41.8854 41.5435 41.7719 41.7707C41.6845 41.9281 41.6234 42.2427 41.6321 42.4612C41.6321 42.6798 41.6409 42.9769 41.6409 43.1255C41.6496 43.2654 41.6409 43.6675 41.6321 44.0171C41.6147 44.7601 41.8155 45.2058 42.1736 45.2495C42.4618 45.2845 43.1779 44.8038 43.2478 44.5241C43.2827 44.4017 43.3439 44.3055 43.3875 44.3055C43.5971 44.3055 44.6975 42.8196 44.6975 42.5224C44.6975 42.4525 44.7761 42.3651 44.8722 42.3389C44.9683 42.3126 45.0469 42.2165 45.0469 42.1378C45.0469 42.0679 45.1167 41.9193 45.2128 41.8232C45.3787 41.6309 46.025 40.4246 46.1735 40.0051C46.3132 39.638 46.6363 39.4719 47.0905 39.5331C47.3001 39.5681 47.5446 39.6729 47.6319 39.7691C47.7717 39.9177 47.7717 39.9526 47.6494 40.0488C47.5708 40.1012 47.4485 40.3722 47.3612 40.6344C47.2826 40.8966 47.1254 41.2725 47.0031 41.4648C46.8896 41.6571 46.7324 41.9368 46.6625 42.0941C46.5927 42.2427 46.4966 42.3913 46.4442 42.4263C46.3918 42.4612 46.2957 42.6186 46.2259 42.7934C46.156 42.9595 45.8591 43.4052 45.5709 43.7898C45.2827 44.1657 45.0469 44.5066 45.0469 44.5503C45.0469 44.594 44.9508 44.6726 44.8285 44.7251C44.7063 44.7775 44.6102 44.8824 44.6102 44.9436C44.6102 45.0048 44.3045 45.3719 43.9377 45.7652C43.2478 46.4645 42.5055 46.9365 41.8417 47.0676C41.3789 47.1638 40.261 46.8403 39.9117 46.5082C39.8505 46.4558 39.7457 46.4033 39.6933 46.4033C39.6322 46.4033 39.4925 46.3072 39.3702 46.1848C39.2479 46.0712 39.0383 45.8614 38.8899 45.7303C38.6366 45.4855 38.2785 45.0485 37.9292 44.5241C37.5886 44.0258 37.4401 42.4263 37.6847 41.8494C37.7371 41.727 37.7633 41.4473 37.7371 41.2201C37.7021 40.9578 37.7196 40.8092 37.7807 40.8092C37.8855 40.8092 38.1475 39.9789 38.1475 39.6555C38.1475 39.5418 38.2523 39.2971 38.3746 39.1135C38.4969 38.93 38.6279 38.6153 38.6453 38.4143C38.6715 38.222 38.7501 37.951 38.8113 37.8199C38.8811 37.6888 38.9335 37.5227 38.9335 37.4353C38.9335 37.3566 39.0296 37.0944 39.1519 36.8584C39.3091 36.5438 39.344 36.3864 39.2829 36.3078C39.2217 36.2291 39.2305 36.1679 39.3265 36.0892C39.4051 36.0281 39.4488 35.9232 39.4226 35.862C39.3964 35.8008 39.4401 35.7046 39.5099 35.6522C39.5798 35.591 39.6322 35.4075 39.6322 35.2414C39.6322 34.9355 39.5361 34.8568 39.1606 34.8218C38.8549 34.8043 38.4095 34.5946 38.4095 34.4722C38.4095 34.3411 38.0427 34.2275 37.8506 34.3061C37.772 34.3323 37.7109 34.411 37.7109 34.4722C37.7109 34.5334 37.6323 34.6033 37.5362 34.6295C37.4401 34.6558 37.3353 34.7432 37.3091 34.8393C37.2305 35.0841 37.0995 35.4075 36.9598 35.6784C36.8899 35.8183 36.8375 35.9843 36.8375 36.0455C36.8375 36.1155 36.7589 36.2203 36.6541 36.2903C36.5144 36.3952 36.4795 36.4913 36.5057 36.7535C36.5319 37.042 36.5755 37.1119 36.8812 37.2605C37.3266 37.4965 37.379 37.75 37.0384 38.0996C36.4795 38.6678 36.2349 38.9649 36.1039 39.2272C36.0166 39.3845 35.8332 39.5506 35.6585 39.6205C35.4926 39.6904 35.3529 39.7866 35.3529 39.839C35.3529 39.8827 35.1869 40.0138 34.9861 40.1362C34.7765 40.2586 34.5057 40.4596 34.3835 40.582C34.2525 40.6956 33.9992 40.8267 33.8158 40.8617C33.6237 40.8966 33.3966 40.9753 33.3005 41.0365C33.0735 41.2026 32.2787 41.1938 31.5102 41.019C31.0124 40.9054 30.8639 40.8355 30.7941 40.6694C30.6194 40.3023 29.9906 40.346 29.4928 40.7743C29.3094 40.9316 28.7068 41.2725 28.0256 41.5959C27.4841 41.8494 27.4055 41.8581 26.4711 41.8494C25.6938 41.8406 25.4143 41.7969 25.1785 41.6746C25.0126 41.5784 24.8205 41.5085 24.7593 41.5085C24.6982 41.5085 24.6109 41.4386 24.5585 41.3512C24.5061 41.2725 24.2615 41.1239 24.0083 41.0278C23.7637 40.9316 23.5367 40.7918 23.5105 40.7043C23.4843 40.6169 23.2921 40.4246 23.0738 40.2848C22.8642 40.1362 22.6895 39.9614 22.6895 39.9002C22.6895 39.839 22.6197 39.7254 22.5411 39.6467C22.4537 39.5681 22.3053 39.3583 22.2092 39.1747C22.1219 38.9912 21.9996 38.7814 21.9385 38.7115C21.8162 38.5541 21.7289 38.2482 21.6765 37.8374C21.659 37.6713 21.5979 37.3741 21.5542 37.1818C21.3883 36.5438 21.397 35.5648 21.5717 35.0841C21.659 34.8393 21.7201 34.5858 21.7114 34.5159C21.659 34.1575 22.1306 32.8814 22.6109 32.0685C22.6546 31.9986 22.7769 31.7888 22.8817 31.5965C23.231 31.0021 23.2485 30.9672 23.493 30.6875C23.624 30.5301 23.7637 30.4078 23.8074 30.4078C23.8598 30.4078 23.9122 30.3466 23.9471 30.2766C23.9733 30.2067 24.0345 30.1455 24.0869 30.1455C24.1305 30.1455 24.3838 29.9445 24.6371 29.6998C24.8816 29.455 25.327 29.1403 25.6152 28.9918C25.9034 28.8432 26.2003 28.6771 26.2702 28.6159C26.3401 28.5547 26.6545 28.4761 26.9689 28.4411C27.2833 28.4061 27.7549 28.3537 28.0169 28.3187C28.2789 28.2838 28.5758 28.2838 28.6719 28.3187C28.7679 28.3537 29.0911 28.4061 29.388 28.4411ZM100.626 30.0669C100.8 30.198 100.853 30.3203 100.835 30.4864C100.827 30.6175 100.862 30.8361 100.914 30.9759C100.975 31.1245 101.036 31.6489 101.062 32.1559C101.089 32.6629 101.132 33.2485 101.159 33.467C101.22 33.9303 101.228 35.0491 101.159 35.4774C101.141 35.6435 101.106 35.9581 101.08 36.1766C101.001 37.1381 100.224 38.7552 99.7175 39.0174C99.5865 39.0873 99.4555 39.2009 99.4293 39.2796C99.3944 39.3495 99.2809 39.4107 99.1673 39.4107C99.0538 39.4107 98.8966 39.4806 98.818 39.5681C98.6957 39.7079 98.5997 39.7166 98.1717 39.6555C97.8923 39.6118 97.5429 39.5855 97.3857 39.5855C97.0539 39.5943 96.5211 39.3845 96.2679 39.1485C96.1718 39.0611 95.936 38.9475 95.7439 38.895C95.5517 38.8426 95.2461 38.7027 95.0714 38.5803C94.8967 38.458 94.7046 38.3618 94.6522 38.3618C94.5998 38.3618 94.4688 38.2744 94.3553 38.1608C94.0845 37.9073 93.7527 37.6538 93.1675 37.2605C92.9055 37.0769 92.661 36.9021 92.6348 36.8584C92.6086 36.8147 92.3379 36.7361 92.0322 36.6749C91.5781 36.5787 91.4296 36.5001 91.2287 36.2641C90.9929 35.9756 90.9143 35.7396 91.0541 35.7396C91.089 35.7396 91.1851 35.5473 91.2724 35.3113C91.4733 34.7257 91.7353 34.5683 92.3728 34.6383C92.6435 34.6732 93.0103 34.7519 93.1937 34.8218C93.9797 35.1365 94.2155 35.2501 94.2155 35.3201C94.2155 35.355 94.2679 35.39 94.3378 35.39C94.4077 35.39 94.626 35.5298 94.8269 35.6959C95.0277 35.862 95.2461 36.0018 95.3072 36.0018C95.3683 36.0018 95.4819 36.098 95.5605 36.2203C95.6391 36.334 95.9447 36.5962 96.2417 36.7972C96.5473 37.007 96.9578 37.3042 97.1587 37.4703C97.6041 37.8286 98.4425 38.0384 98.9228 37.9073C99.3857 37.7762 99.7175 37.3916 99.7175 36.9895C99.7175 36.7972 99.7612 36.6049 99.8136 36.5525C99.8747 36.4913 99.9097 36.1417 99.9097 35.6435C99.9009 35.1802 99.9446 34.7781 99.997 34.7169C100.049 34.6558 100.058 34.5421 100.014 34.4547C99.9795 34.3673 99.9359 33.8603 99.9271 33.3359C99.9184 32.8027 99.8835 32.2783 99.8485 32.1559C99.7787 31.8675 99.5429 30.5651 99.5429 30.4515C99.5429 30.2766 99.9883 29.8833 100.189 29.8833C100.303 29.8833 100.495 29.9707 100.626 30.0669ZM14.1833 30.9934C14.0959 31.0808 14.0173 30.9497 14.0959 30.8361C14.1483 30.7399 14.1658 30.7399 14.2007 30.8361C14.2182 30.8972 14.2095 30.9672 14.1833 30.9934ZM78.2859 33.3534C78.5479 33.467 78.7575 33.6156 78.7575 33.6681C78.7663 33.7292 78.8798 33.9128 79.0195 34.0789C79.168 34.2449 79.2815 34.4285 79.2815 34.4897C79.2815 34.5509 79.3165 34.6033 79.3689 34.6033C79.4649 34.6033 79.9191 35.4861 80.0151 35.8532C80.0413 35.9843 80.1112 36.0892 80.1549 36.0892C80.2073 36.0892 80.2422 36.2029 80.2422 36.3427C80.2422 36.4826 80.3033 36.6399 80.3732 36.7011C80.4431 36.7623 80.5042 36.8846 80.5042 36.9808C80.5042 37.0682 80.5566 37.2343 80.6265 37.3392C80.6876 37.4441 80.8099 37.8461 80.8972 38.2307C80.9845 38.6153 81.0981 38.9912 81.1592 39.0611C81.2203 39.131 81.2989 39.3845 81.3339 39.6292C81.4299 40.346 81.5435 40.6869 81.7269 40.8529C81.8317 40.9491 81.8841 41.0715 81.8579 41.1676C81.8317 41.255 81.8491 41.3949 81.8928 41.4823C81.9365 41.5697 82.0675 41.9892 82.1723 42.4175C82.3731 43.2129 82.8273 43.9909 83.1417 44.0695C83.36 44.1307 83.9539 43.8073 84.0587 43.5801C84.1809 43.3091 84.5215 42.3126 84.6089 41.9455C84.6525 41.7795 84.7748 41.3599 84.8796 41.0278C85.0019 40.6257 85.0805 40.1187 85.0979 39.5418C85.1154 39.0611 85.1678 38.2832 85.2115 37.8024C85.2639 37.3304 85.2988 36.9196 85.2901 36.8846C85.2726 36.6923 85.3425 36.6049 85.587 36.5001C85.8403 36.3952 85.9101 36.4039 86.1547 36.5525C86.4167 36.7011 86.5127 36.9196 86.4341 37.1818C86.4254 37.2255 86.4079 37.3654 86.3992 37.4878C86.3905 37.6101 86.3468 38.0384 86.3119 38.4492C86.2769 38.8601 86.242 39.3495 86.2245 39.5418C86.2071 39.7341 86.1547 40.0663 86.1023 40.2848C86.0499 40.5033 86.0149 40.9054 86.0062 41.1851C86.0062 41.4735 85.9538 41.8057 85.8839 41.9281C85.6481 42.3826 85.3512 43.1168 85.3774 43.1867C85.3949 43.2566 85.0543 44.0521 84.9582 44.1307C84.932 44.1569 84.7049 44.4192 84.4429 44.7251C83.7967 45.4768 83.5521 45.5904 82.4255 45.6254C81.6832 45.6429 81.4474 45.6254 81.1592 45.4943C80.9671 45.4069 80.7225 45.2932 80.6177 45.2408C80.5217 45.1971 80.3033 44.9873 80.1461 44.7775C79.9889 44.5678 79.7706 44.3318 79.6571 44.2618C79.5435 44.1832 79.4562 44.0521 79.4562 43.9559C79.4562 43.8598 79.4213 43.7811 79.3776 43.7811C79.3339 43.7811 79.2553 43.6587 79.2029 43.5189C79.1593 43.3703 79.0545 43.1867 78.9759 43.1168C78.906 43.0469 78.8449 42.8808 78.8449 42.7497C78.8449 42.6186 78.7837 42.435 78.7139 42.3476C78.644 42.2515 78.5829 42.0679 78.5829 41.9281C78.5829 41.7969 78.5479 41.6833 78.4955 41.6833C78.4519 41.6833 78.4082 41.5697 78.4082 41.4386C78.4082 41.2987 78.3471 41.1152 78.2772 41.019C78.2073 40.9316 78.1462 40.6869 78.1462 40.4858C78.1462 40.2848 78.1113 40.0925 78.0589 40.0663C77.9366 39.9963 77.7707 39.3321 77.7881 38.9737C77.7881 38.7989 77.7008 38.4755 77.5698 38.2307C77.4475 37.986 77.3253 37.6189 77.2991 37.4003C77.2729 37.1818 77.2205 36.9633 77.1768 36.9196C77.1419 36.8672 77.1157 36.6574 77.1157 36.4389C77.1157 35.591 76.286 34.883 75.7533 35.2763C75.4651 35.4949 75.0895 36.0805 75.0895 36.3252C75.0895 36.4389 75.0546 36.5962 75.0109 36.6836C74.8363 37.0332 74.6529 37.7325 74.6529 38.0646C74.6529 38.2569 74.6179 38.4492 74.5743 38.5017C74.4433 38.6241 74.3123 39.6467 74.3472 40.2411C74.3909 40.9054 74.4869 41.5085 74.5568 41.5085C74.583 41.5085 74.6179 41.7532 74.6267 42.0592C74.6529 42.7235 74.6878 43.0206 74.7577 43.1255C74.845 43.2741 75.0109 44.5241 74.9935 44.8912C74.976 45.0747 75.0022 45.2845 75.0371 45.3457C75.1157 45.4681 75.1157 46.7529 75.0371 47.0414C74.845 47.7931 73.011 48.0553 72.6529 47.3735C72.6005 47.2774 72.4957 46.6655 72.4259 46.0012C72.3473 45.3457 72.2687 44.7688 72.2425 44.7251C72.2163 44.6814 72.1726 44.4803 72.1551 44.2793C72.1289 44.0783 72.0416 43.7374 71.9543 43.5189C71.8582 43.3003 71.7621 42.9245 71.7447 42.6885C71.6923 42.2427 71.4215 41.3075 71.308 41.1938C71.2731 41.1589 71.2469 41.0015 71.2469 40.8442C71.2469 40.6869 71.1683 40.311 71.0722 40.0051C70.9761 39.7079 70.8975 39.367 70.8975 39.2709C70.8975 39.166 70.8364 39.0349 70.7665 38.9737C70.6967 38.9125 70.6355 38.7901 70.6355 38.7027C70.6355 38.6153 70.6006 38.5192 70.5482 38.4929C70.5045 38.4667 70.4609 38.3618 70.4609 38.2744C70.4609 38.1783 70.3997 37.9248 70.3211 37.6975C70.2425 37.4703 70.1639 37.1818 70.1465 37.0595C70.1203 36.9371 69.9893 36.6661 69.8495 36.4563C69.6312 36.1417 69.5875 36.0193 69.6225 35.6872C69.6661 35.2589 69.7098 35.1802 70.3124 34.5858C70.653 34.2449 70.7927 34.1663 71.0373 34.1663C71.439 34.1663 71.9979 34.4635 72.1551 34.7606C72.225 34.8918 72.3822 35.1015 72.4957 35.2239C72.6442 35.3725 72.6966 35.5211 72.6704 35.6609C72.6442 35.8008 72.6966 35.9406 72.8276 36.0718C72.9586 36.2203 73.0285 36.4214 73.0459 36.7273C73.0983 37.4178 73.5175 38.1433 73.5175 37.5402C73.5175 37.4266 73.5787 37.2867 73.6485 37.2255C73.7533 37.1381 73.7708 37.0158 73.7271 36.7361C73.6835 36.4214 73.7097 36.3165 73.9105 36.0543C74.0328 35.8882 74.1813 35.6172 74.2249 35.4424C74.2686 35.2763 74.4083 35.0141 74.5219 34.8743C74.6441 34.7344 74.7402 34.5683 74.7402 34.4984C74.7402 34.3149 75.6572 33.467 76.0764 33.2572C76.5829 33.0038 77.6222 33.0475 78.2859 33.3534ZM35.9642 33.8166C35.9118 33.9128 35.8332 33.9915 35.7895 33.9915C35.6673 33.9915 35.6847 33.7555 35.8157 33.703C36.0166 33.6156 36.0603 33.6418 35.9642 33.8166ZM63.841 35.2152C64.1292 35.4424 64.2427 36.334 64.0419 36.8147C63.9545 37.0332 63.9371 37.1906 63.9895 37.3392C64.0419 37.4615 64.0244 37.8811 63.9545 38.458C63.8934 38.9562 63.8148 39.6992 63.7799 40.11C63.7537 40.5208 63.6838 41.2725 63.6314 41.7882C63.5528 42.6098 63.5615 42.7759 63.6838 43.0906C63.8148 43.414 63.8148 43.4664 63.7013 43.5975C63.5179 43.8073 63.5441 44.4366 63.7537 44.6989C63.8934 44.8824 63.9109 44.9523 63.8235 45.0485C63.7537 45.1359 63.7362 45.2845 63.7886 45.503C63.8235 45.6866 63.8585 45.9226 63.8672 46.0362C63.8759 46.2809 64.4611 46.8054 64.7842 46.8666C65.2209 46.954 65.5527 46.8316 65.7623 46.5082C66.1903 45.8352 66.2514 45.7303 66.3125 45.5205C66.3475 45.4069 66.4785 45.1971 66.592 45.0572C66.7055 44.9174 66.7841 44.7601 66.7579 44.6989C66.7055 44.5503 66.9064 43.9821 67.0898 43.7723C67.1684 43.6762 67.2295 43.5626 67.2295 43.5014C67.2295 43.3353 67.4129 42.8021 67.5963 42.4525C67.6924 42.2689 67.7361 42.0766 67.7099 42.0329C67.6575 41.9455 67.7273 41.6921 68.1378 40.4596C68.2164 40.2149 68.3037 40.1362 68.5483 40.075C69.0024 39.9614 69.5002 40.075 69.5002 40.2848C69.5002 40.3722 69.4653 40.4683 69.4216 40.4946C69.3867 40.5208 69.3255 40.7306 69.2993 40.9578C69.2033 41.8406 68.9675 42.9507 68.8452 43.0818C68.7753 43.1605 68.688 43.4227 68.6618 43.6587C68.6269 43.8947 68.557 44.1482 68.4959 44.2181C68.3299 44.4192 68.0155 45.1097 68.0155 45.2758C68.0155 45.3544 67.9369 45.5205 67.8409 45.6429C67.7448 45.7652 67.6662 45.9138 67.6662 45.975C67.6662 46.0275 67.5352 46.2372 67.3693 46.4383C67.0461 46.8403 66.7929 47.2949 66.7929 47.4784C66.7929 47.5483 66.6269 47.6532 66.4261 47.7144C66.2165 47.7756 65.9894 47.898 65.9108 47.9854C65.6837 48.2301 65.3257 48.335 64.7405 48.3263C63.841 48.3088 63.6227 48.2651 62.8541 47.9504C62.2428 47.7057 61.9895 47.5396 61.5616 47.1201C61.2734 46.8316 61.0201 46.5432 61.0114 46.4732C60.9852 46.211 60.9503 46.0974 60.6795 45.4855C60.3215 44.6639 60.2167 42.9944 60.4088 41.29C60.4699 40.7568 60.5311 40.0838 60.5485 39.7866C60.5747 39.4894 60.6621 38.9387 60.7581 38.5629C60.8804 38.0646 60.9241 37.6451 60.9066 36.9808C60.8891 36.4913 60.9153 36.063 60.9503 36.0368C60.9939 36.0193 61.0027 35.9406 60.9765 35.8707C60.8629 35.5823 62.1729 35.0578 63.0463 35.0491C63.5004 35.0403 63.6751 35.0753 63.841 35.2152ZM73.6485 35.7309C73.6747 35.7746 73.6573 35.8358 73.6049 35.8707C73.5612 35.8969 73.5175 35.862 73.5175 35.7921C73.5175 35.6347 73.5699 35.6085 73.6485 35.7309ZM38.6715 36.5263C38.6715 36.57 38.6366 36.6137 38.5842 36.6137C38.5405 36.6137 38.4969 36.57 38.4969 36.5263C38.4969 36.4738 38.5405 36.4389 38.5842 36.4389C38.6366 36.4389 38.6715 36.4738 38.6715 36.5263ZM64.1729 44.559C64.1729 44.6027 64.0943 44.6552 63.9982 44.6814C63.8061 44.7338 63.7449 44.5241 63.9371 44.4541C64.0593 44.4104 64.1729 44.4629 64.1729 44.559ZM4.5242 46.447C4.5242 46.5169 4.48927 46.5781 4.4456 46.5781C4.33207 46.5781 4.25347 46.4383 4.32334 46.3683C4.4194 46.2722 4.5242 46.3159 4.5242 46.447ZM64.5222 52.819C64.5921 52.8889 64.7405 52.9676 64.8453 52.9938C64.9676 53.0375 65.0637 53.1512 65.0899 53.291C65.1248 53.4221 65.1859 53.6669 65.2383 53.8504C65.2907 54.0252 65.3082 54.2787 65.2733 54.4186C65.2471 54.5497 65.2034 54.742 65.1859 54.8469C65.151 55.0916 64.7318 55.5461 64.4349 55.6685C64.1379 55.7909 63.9021 56.1143 63.9895 56.2629C64.0244 56.3241 64.0244 56.5688 63.9982 56.8135C63.9545 57.1719 63.972 57.2681 64.0943 57.3555C64.2689 57.4866 64.5222 58.0547 64.5222 58.3344C64.5222 58.4393 64.6008 58.6316 64.6969 58.754C64.7929 58.8763 64.8715 58.9987 64.8715 59.0337C64.8715 59.0774 64.9239 59.1473 64.9938 59.1998C65.0637 59.2522 65.2209 59.5494 65.3519 59.8641C65.5178 60.2661 65.7099 60.5546 66.0243 60.843C66.2689 61.079 66.5134 61.2626 66.5745 61.2626C66.6269 61.2626 66.7143 61.3063 66.7754 61.3675C66.9064 61.4986 67.5177 61.4898 68.0767 61.35C68.4173 61.2626 68.6618 61.114 69.0286 60.7643C69.3081 60.5109 69.5613 60.3011 69.5875 60.3011C69.6225 60.3011 69.9019 60.0039 70.2076 59.6368C71.0547 58.6141 71.0198 58.6841 70.8975 58.3606C70.8364 58.2033 70.7054 57.9935 70.6181 57.8886C70.5307 57.7925 70.4871 57.6876 70.5133 57.6526C70.5395 57.6264 70.5045 57.5128 70.4259 57.3992C70.2513 57.1544 70.2425 56.7261 70.4085 56.4989C70.4696 56.4027 70.5482 56.1842 70.5831 56.0094C70.6268 55.7646 70.7054 55.6685 70.9412 55.5549C71.1159 55.4762 71.308 55.4063 71.3779 55.4063C71.4565 55.4063 71.5875 55.3626 71.6748 55.3014C71.9281 55.1441 73.011 55.4937 73.2992 55.8171C73.4127 55.9482 73.5175 56.1055 73.5175 56.1667C73.5175 56.3066 73.8057 56.9184 73.8931 56.9883C73.9367 57.0146 73.8931 57.0583 73.797 57.0845C73.6922 57.1195 73.6136 57.2331 73.5787 57.4429C73.5088 57.8974 73.2119 58.1771 72.4084 58.5529C71.6573 58.9026 71.3517 59.2435 71.4652 59.6106C71.5001 59.7155 71.4739 59.8466 71.3953 59.934C71.2294 60.1263 70.9587 61.0528 71.0285 61.1752C71.0635 61.2276 71.0198 61.35 70.9412 61.4374C70.8015 61.5947 70.7141 61.8657 70.5744 62.6174C70.5482 62.7572 70.4958 62.9146 70.4609 62.967C70.3735 63.0894 70.2775 63.5089 70.2425 63.9635C70.2251 64.1645 70.1552 64.4005 70.0853 64.4879C70.0155 64.5666 69.9107 64.8113 69.8495 65.0386C69.7884 65.2658 69.6923 65.5018 69.6225 65.5543C69.5613 65.598 69.4915 65.7553 69.4565 65.8864C69.3867 66.2273 68.8976 66.743 68.5832 66.8217C68.4435 66.8566 68.2251 66.9441 68.1029 67.0227C67.8321 67.1975 67.1946 67.3723 66.7754 67.3811C66.6007 67.3811 66.1728 67.4423 65.8322 67.5122C65.3344 67.6171 63.7449 67.6958 63.1249 67.6521C63.055 67.6433 62.6271 67.6608 62.1817 67.6958C61.5529 67.7395 61.2647 67.722 60.9153 67.6171C60.6621 67.5384 60.2079 67.4335 59.8935 67.3898C59.3084 67.2937 59.3171 67.3024 58.4351 66.4371C58.0945 66.1049 57.9722 65.9214 57.9722 65.7378C57.9722 65.6067 57.8761 65.362 57.7539 65.1959C57.6229 65.0211 57.5355 64.7851 57.5355 64.6103C57.5355 64.4442 57.4831 64.2082 57.4133 64.0771C57.3434 63.946 57.2648 63.6401 57.2299 63.4041C57.1949 63.1593 57.1076 62.8971 57.0377 62.8184C56.9679 62.7398 56.9329 62.6349 56.9591 62.5824C56.9941 62.53 56.9591 62.3989 56.8805 62.2852C56.8107 62.1716 56.767 62.0055 56.8019 61.9269C56.8281 61.8482 56.8194 61.7346 56.7757 61.6734C56.7233 61.6209 56.6447 61.3675 56.5836 61.1315C56.3915 60.2836 55.6841 58.7715 55.4221 58.6316C55.3085 58.5704 55.0902 58.518 54.933 58.5005C54.7671 58.4918 54.5749 58.4218 54.4963 58.3432C54.409 58.2732 54.2431 58.1771 54.1121 58.1246C53.7977 58.0023 53.4658 57.5303 53.3959 57.0932C53.3435 56.7349 53.3785 56.6125 53.7715 55.8433C53.8675 55.6598 54.3304 55.3538 54.7933 55.179C55.1775 55.0304 55.1863 55.0304 55.6491 55.2664C56.2255 55.5549 56.4002 55.7472 56.6797 56.3678C56.8631 56.7873 56.8718 56.8747 56.7757 57.067C56.7146 57.1894 56.6622 57.3904 56.6622 57.5215C56.6622 57.6614 56.6273 57.7663 56.5923 57.7663C56.5487 57.7663 56.4439 57.9236 56.3565 58.1159C56.2168 58.4306 56.2168 58.4743 56.3391 58.6578C56.5399 58.9638 57.5093 59.899 58.1032 60.371C58.994 61.0615 59.1774 61.1752 59.4569 61.1752C59.6053 61.1752 59.8149 61.2363 59.9197 61.3063C60.1381 61.4461 60.5136 61.4199 60.9765 61.2276C61.2734 61.1052 61.3258 61.0178 61.2996 60.7643C61.2909 60.7119 61.4044 60.5808 61.5441 60.4759C61.8149 60.2923 61.9022 60.1525 62.2952 59.3658C62.4175 59.1211 62.5747 58.8676 62.6445 58.8152C62.7144 58.754 62.7755 58.6054 62.7755 58.483C62.7755 58.2383 62.8716 57.8886 63.1336 57.1981C63.3694 56.5775 63.3519 56.2017 63.0725 55.8608C62.9415 55.7035 62.7843 55.5811 62.7231 55.5811C62.6533 55.5811 62.6009 55.5549 62.6009 55.5112C62.6009 55.4762 62.4699 55.2402 62.3039 54.9955C62.0507 54.6196 62.007 54.4798 62.0332 54.1214C62.0594 53.6057 62.2166 53.2823 62.662 52.854C62.9065 52.618 63.0812 52.5218 63.3432 52.5043C63.7187 52.4781 64.3039 52.6267 64.5222 52.819ZM100.853 60.0126C101.062 60.0826 101.281 60.17 101.333 60.2049C101.377 60.2486 101.525 60.3011 101.648 60.3273C101.77 60.3623 102.093 60.5808 102.372 60.8255C102.643 61.0615 102.905 61.2626 102.958 61.2626C103.001 61.2626 103.036 61.3325 103.036 61.4286C103.036 61.5161 103.106 61.6821 103.193 61.7958C103.779 62.5824 103.997 64.5316 103.56 65.126C103.464 65.2571 103.386 65.4756 103.386 65.6067C103.386 65.9651 102.888 66.8741 102.407 67.3811C102.294 67.5035 102.137 67.7045 102.049 67.8356C101.962 67.9755 101.857 68.0803 101.814 68.0803C101.7 68.0803 101.071 68.7097 101.001 68.8932C100.975 68.9719 100.879 69.0418 100.792 69.0418C100.704 69.0418 100.521 69.1817 100.39 69.3478C100.259 69.5138 100.023 69.7149 99.866 69.7848C99.4031 70.0033 99.2023 70.1432 99.0276 70.3355C98.9403 70.4403 98.8005 70.5278 98.7219 70.5278C98.6433 70.5278 98.556 70.5802 98.5298 70.6501C98.5036 70.7201 98.3289 70.7987 98.1455 70.8337C97.9621 70.8686 97.7613 70.9473 97.7001 71.0172C97.6477 71.0872 97.5429 71.1396 97.4731 71.1396C97.3421 71.1396 96.8355 71.3931 96.7482 71.498C96.6696 71.5941 96.1019 71.734 95.5779 71.7864C95.2985 71.8214 94.8269 71.9175 94.5299 72.0137C94.0671 72.1535 93.7963 72.171 92.4252 72.1448C91.5606 72.1186 90.6087 72.1011 90.3117 72.1098C90.0148 72.1098 89.5869 72.0486 89.3511 71.9612C88.9843 71.8389 87.4385 71.6029 86.5215 71.5329C86.3468 71.5155 86.0673 71.463 85.9101 71.4193C85.7442 71.3669 85.2988 71.2532 84.9145 71.1746C84.5303 71.0959 84.1547 70.9998 84.0849 70.9561C83.9015 70.8686 82.7487 70.6851 82.2509 70.6676C82.0325 70.6589 81.6745 70.5715 81.4561 70.4578C81.0893 70.283 80.9147 70.2568 79.7968 70.2568C79.1069 70.2481 77.9541 70.2655 77.2467 70.2918C76.155 70.318 75.9367 70.3529 75.8493 70.4753C75.7882 70.5627 75.5 70.6851 75.2205 70.7463C74.6092 70.8861 73.8407 71.1571 73.6747 71.2882C73.6136 71.3406 73.4651 71.4106 73.3429 71.4455C73.2206 71.4805 72.9062 71.7078 72.6355 71.935C72.3647 72.171 72.094 72.3633 72.0329 72.3633C71.9717 72.3633 71.8233 72.4682 71.701 72.6081C71.57 72.7392 71.3604 72.914 71.2207 73.0014C70.7491 73.3073 69.2906 74.9418 69.212 75.2652C69.1771 75.3789 69.0548 75.5275 68.9238 75.5886C68.7491 75.6673 68.7055 75.7285 68.7491 75.8858C68.7841 76.0257 68.7055 76.2267 68.4959 76.5326C68.3299 76.7861 68.1465 77.1532 68.0941 77.363C67.9631 77.8612 67.8496 79.2947 67.9107 79.7929C67.9631 80.2999 68.4085 81.1041 68.6269 81.1041C68.7142 81.1041 68.8103 81.1827 68.8452 81.2701C68.8976 81.4362 69.0461 81.4886 69.9456 81.5848C70.3211 81.6285 70.4521 81.6198 70.5395 81.5061C70.6181 81.41 70.6967 81.3925 70.8015 81.4449C70.9674 81.5411 71.7097 81.375 71.8757 81.2089C71.9368 81.1478 72.0154 81.1041 72.0591 81.1041C72.1027 81.1041 72.2861 80.9904 72.4608 80.8506C72.6442 80.7107 72.8887 80.5621 73.011 80.5359C73.3953 80.4398 74.2337 79.05 74.1027 78.7178C74.059 78.6042 73.797 78.4643 72.9673 78.0972C72.4171 77.8525 72.2163 77.6602 71.9805 77.1358C71.832 76.8123 71.832 76.7949 71.9805 76.69C72.0591 76.6288 72.3735 76.5326 72.6704 76.4802C73.1333 76.4015 73.3079 76.4103 73.8232 76.5589C74.7664 76.8123 75.1157 76.9347 75.3515 77.1095C75.7882 77.4242 76.5393 77.9661 76.7925 78.1584C77.1069 78.3857 77.3515 78.6479 77.5611 78.9451C77.6484 79.0849 77.7619 79.1549 77.8405 79.1286C77.9366 79.0937 77.9715 79.1374 77.9715 79.2685C77.9715 79.3734 78.0414 79.5657 78.1375 79.6881C78.2248 79.8192 78.3209 80.0639 78.3558 80.2387C78.382 80.4135 78.4868 80.6233 78.5829 80.7107C78.7139 80.8243 78.7313 80.8943 78.6615 80.9817C78.6091 81.0516 78.6003 81.1478 78.6527 81.2526C78.6964 81.3401 78.7837 81.5586 78.8449 81.7421C78.9322 82.0218 78.9235 82.1005 78.8187 82.2229C78.7488 82.3015 78.644 82.59 78.5829 82.8522C78.3907 83.7175 78.251 83.9186 77.334 84.7577C77.0109 85.0461 76.6004 85.3346 76.4257 85.3958C76.2598 85.4482 75.9803 85.5881 75.8231 85.6929C75.6659 85.7978 75.3865 85.9202 75.2031 85.9552C75.0197 85.9901 74.7751 86.0688 74.6529 86.1387C74.2511 86.3572 73.0023 86.6894 71.9892 86.838C71.8495 86.8642 71.6137 86.9166 71.4652 86.9603C71.3255 86.9953 71.0285 87.0565 70.8189 87.0827C70.6093 87.1177 70.4085 87.1614 70.3648 87.1789C70.3037 87.2226 69.1509 87.275 66.4435 87.3624C64.5484 87.4236 65.0462 87.4236 62.3389 87.3624C58.863 87.2838 58.3477 87.2488 57.4919 87.0915C57.0639 87.0041 56.3478 86.9166 55.9111 86.8817C55.4745 86.8555 55.064 86.7855 54.9941 86.7418C54.8369 86.6195 54.3042 86.4446 53.7016 86.2961C52.9767 86.1387 52.1034 85.8153 51.8851 85.6492C51.7715 85.5618 51.5445 85.4657 51.3785 85.4395C51.1951 85.4045 51.0205 85.2909 50.9331 85.1685C50.8545 85.0549 50.7148 84.9325 50.61 84.8975C50.4441 84.8451 49.5533 84.0147 49.5358 83.9011C49.5183 83.7438 49.3786 83.2281 49.3262 83.1144C49.2127 82.8872 48.9594 82.1092 48.9594 82.0218C48.9681 81.8208 49.1341 81.2789 49.2738 81.0166C49.3524 80.8593 49.4135 80.6583 49.4135 80.5796C49.4135 80.2737 49.6843 79.7929 50.0685 79.3996C50.3829 79.0762 50.4528 78.9451 50.4091 78.779C50.3655 78.6042 50.3917 78.5692 50.5401 78.5692C50.6624 78.5692 50.7585 78.4906 50.8109 78.3507C50.8545 78.2283 50.9506 78.1322 51.0117 78.1322C51.0729 78.1322 51.2388 78.0098 51.3785 77.87C51.5183 77.7214 51.7017 77.6078 51.7803 77.6078C51.8676 77.6078 51.9724 77.5553 52.0073 77.4941C52.1383 77.2669 53.5444 76.6201 53.9985 76.5763C54.7409 76.4977 55.6142 76.5414 55.7627 76.655C55.8587 76.7424 55.8849 76.8735 55.85 77.1532C55.7976 77.6078 55.5618 77.8525 54.8544 78.1759C54.6099 78.2895 54.3828 78.4294 54.3479 78.4731C54.3217 78.5255 54.1994 78.5692 54.0859 78.5692C53.8763 78.5692 53.6055 78.8577 53.6055 79.0675C53.6055 79.1286 53.7889 79.4433 54.0073 79.7667C54.278 80.1775 54.5575 80.466 54.8981 80.6845C55.6229 81.1652 56.2343 81.4537 56.5137 81.4537C56.6535 81.4537 56.8456 81.5061 56.9504 81.5586C57.2648 81.7334 58.1381 81.7159 58.4438 81.5323C58.5923 81.4362 58.7931 81.3663 58.8892 81.3663C59.0901 81.3663 59.6053 80.7719 59.7189 80.4223C59.7625 80.2912 59.8499 80.0464 59.911 79.8716C60.0071 79.6094 60.0071 79.3996 59.9197 78.6916C59.7451 77.2494 59.6927 77.0746 59.2211 76.3666C58.9765 75.9995 58.7495 75.6061 58.7145 75.4925C58.6796 75.3789 58.5137 75.1516 58.3477 74.9855C58.1818 74.8195 57.9547 74.5835 57.8412 74.4611C57.7189 74.3387 57.6229 74.1901 57.6229 74.1289C57.6229 74.0678 57.5967 74.0241 57.553 74.0241C57.5181 74.0241 57.1862 73.7356 56.8194 73.386C55.4745 72.1011 55.2998 71.9612 54.7059 71.6291C54.0684 71.2882 53.1601 70.9735 52.2169 70.7725C51.9025 70.7113 51.6143 70.6152 51.5619 70.5627C51.3611 70.3704 51.0641 70.3442 48.9332 70.3442C46.811 70.3442 46.2695 70.3966 46.2695 70.6326C46.2695 70.6676 46.0861 70.7026 45.8591 70.7026C45.6233 70.7026 45.1953 70.7638 44.8897 70.8337C44.5927 70.9036 44.3133 70.9561 44.2783 70.9473C44.1299 70.9123 43.3264 71.0784 43.0993 71.2008C42.9596 71.2707 42.7937 71.3057 42.7151 71.2795C42.6452 71.2532 42.488 71.2795 42.357 71.3494C42.226 71.4106 41.9116 71.4892 41.6496 71.5155C41.3963 71.5504 41.1343 71.6116 41.0819 71.6553C41.0208 71.7078 40.8549 71.7427 40.7151 71.7427C40.3658 71.734 39.0383 71.9175 38.7065 72.0224C38.558 72.0661 38.3222 72.1011 38.1825 72.1011C38.0427 72.1011 37.6323 72.171 37.2742 72.2584C36.9161 72.3371 36.3485 72.3983 36.0079 72.3895C35.676 72.3808 35.0297 72.3721 34.5843 72.3721C33.842 72.3721 32.8202 72.2147 32.1652 72.0137C32.0255 71.97 31.7897 71.9088 31.6412 71.8913C31.2395 71.8214 28.7941 70.7375 28.4797 70.4841C28.3225 70.3617 28.1129 70.2218 27.9994 70.1781C27.554 69.9771 26.8903 69.5051 26.5759 69.1467C26.3925 68.9457 26.2003 68.7796 26.1479 68.7796C26.0955 68.7796 25.9296 68.6048 25.7724 68.4038C25.6152 68.2027 25.3445 67.8793 25.1785 67.687C25.0039 67.4947 24.7943 67.2325 24.7157 67.0926C24.6371 66.9615 24.541 66.8566 24.5061 66.8566C24.4711 66.8566 24.4362 66.7955 24.4362 66.7255C24.4362 66.6556 24.3139 66.3672 24.1742 66.0875C24.0257 65.799 23.9122 65.5018 23.9122 65.4232C23.9122 65.3445 23.8511 65.1522 23.7725 65.0036C23.5716 64.6103 23.5454 63.5701 23.7375 63.1418C23.8249 62.9495 23.9209 62.6611 23.9471 62.5125C23.9995 62.1803 24.3576 61.6122 24.7681 61.2014C24.934 61.0353 25.458 60.7032 25.9471 60.4584L26.8379 60.0126L28.4535 60.0214C30.2002 60.0389 30.4098 60.0738 31.2919 60.5371C31.877 60.843 32.3224 61.2801 32.6717 61.8919C32.9075 62.294 32.9599 62.6523 32.8551 63.1768C32.7853 63.5089 32.7067 63.5177 32.5669 63.203C32.4971 63.0719 32.4185 62.8971 32.3748 62.8184C32.3311 62.731 32.2962 62.6086 32.2962 62.5475C32.2962 62.4338 31.5713 61.7783 31.1434 61.4986C30.698 61.2189 30.174 61.1052 29.2832 61.1052C28.8029 61.1052 28.3662 61.1402 28.3138 61.1839C28.2614 61.2276 27.947 61.3412 27.6151 61.4461C27.1523 61.586 26.9165 61.7171 26.6021 62.0318C26.3663 62.2503 26.1829 62.4863 26.1829 62.5562C26.1829 62.6261 26.1043 62.7922 25.9995 62.9321C25.7637 63.2642 25.6763 64.3655 25.8423 64.9337C25.9034 65.1522 25.9645 65.3795 25.9733 65.4494C26.0257 65.7203 26.2091 66.0612 26.3226 66.1049C26.3925 66.1312 26.4449 66.2098 26.4449 66.2798C26.4449 66.4895 27.0824 67.3636 27.2833 67.4423C27.5103 67.5297 28.1042 68.0454 28.1042 68.1503C28.1042 68.2552 29.0125 69.103 29.5452 69.4963C29.781 69.6712 30.2002 69.9246 30.4622 70.047C30.7242 70.1781 31.0561 70.3355 31.1871 70.4054C31.3268 70.4753 31.484 70.5278 31.5451 70.5278C31.5975 70.5278 31.7984 70.6064 31.9818 70.7026C32.1652 70.79 32.4971 70.8949 32.7241 70.9298C32.9425 70.9561 33.4665 71.0784 33.8857 71.1833C34.497 71.3494 34.8027 71.3756 35.5101 71.3494C36.5144 71.3144 37.8768 71.1658 38.3222 71.0522C38.6017 70.9823 39.0383 70.9298 40.0514 70.8337C40.7413 70.7725 41.0819 70.6851 41.571 70.4316C41.6583 70.3879 41.9465 70.3529 42.2085 70.3529C42.4793 70.3529 42.8024 70.3005 42.9334 70.2306C43.0644 70.1694 43.5185 70.0732 43.9465 70.0121C44.3744 69.9509 44.8023 69.8635 44.8897 69.8198C45.0469 69.7323 47.6319 69.4701 48.1909 69.4789C48.3568 69.4876 49.3349 69.4876 50.3655 69.4876C52.1733 69.4789 52.2781 69.4876 53.2911 69.7411C54.3915 70.0208 56.1033 70.7812 56.9329 71.3669C57.1513 71.5155 57.4482 71.7078 57.5879 71.7777C57.7277 71.8476 58.0333 72.0836 58.2517 72.2934C58.47 72.4944 58.8717 72.8703 59.1337 73.1063C59.3957 73.351 59.6665 73.6657 59.7451 73.8055C59.8149 73.9541 59.9634 74.1464 60.0682 74.2426C60.3389 74.4873 60.8542 75.2827 60.8542 75.4488C60.8542 75.5275 60.9503 75.6586 61.0725 75.7372C61.1948 75.8159 61.2909 75.947 61.2909 76.0257C61.2909 76.1043 61.3433 76.2442 61.4044 76.3403C61.4655 76.4365 61.5703 76.69 61.6402 76.9085C61.7013 77.127 61.7887 77.3368 61.8323 77.3805C61.8673 77.4329 61.9022 77.5728 61.9022 77.6952C61.9022 77.8175 61.9633 78.0098 62.0419 78.1235C62.2603 78.4294 62.2603 80.3611 62.0507 81.0341C61.9633 81.3138 61.8323 81.5935 61.7625 81.6635C61.6926 81.7334 61.6402 81.8121 61.6402 81.847C61.6402 81.9432 61.0813 82.4589 60.8542 82.5725C60.7319 82.6249 60.3651 82.7735 60.042 82.8959C59.4831 83.1057 59.3695 83.1144 58.3827 83.0707C57.2473 83.0183 56.6447 82.9046 56.4788 82.7123C56.4264 82.6424 56.2692 82.59 56.1382 82.59C55.8413 82.59 55.2998 82.3715 55.2037 82.2054C55.1688 82.1442 54.9767 82.0043 54.7845 81.9082C54.4177 81.7246 53.8413 81.174 53.2562 80.4485C52.8894 79.9852 52.8457 79.8891 53.0029 79.7318C53.1776 79.5569 53.0117 79.2685 52.7322 79.2685C52.5401 79.2685 52.4265 79.3559 52.2169 79.6269C52.0772 79.8279 51.8763 80.0464 51.7803 80.1163C51.6755 80.1863 51.5969 80.3349 51.5969 80.4485C51.5969 80.5621 51.5532 80.667 51.4921 80.6845C51.4135 80.7107 51.4135 80.8156 51.4921 81.1215C51.5532 81.3488 51.5969 81.6372 51.5969 81.7596C51.5969 81.9169 51.6493 82.0131 51.7715 82.0393C51.8676 82.0655 51.9462 82.1092 51.9462 82.1442C51.9462 82.1792 52.0685 82.3715 52.2257 82.5725C52.4091 82.8085 52.575 82.9396 52.706 82.9396C52.8108 82.9396 52.9418 83.0183 52.9942 83.1144C53.1165 83.3417 54.2955 83.9011 54.6361 83.9011C54.7845 83.9011 55.0116 83.9623 55.1426 84.0322C55.2823 84.1021 55.4919 84.1633 55.6142 84.1633C55.7365 84.1633 55.9199 84.2158 56.0072 84.2857C56.1033 84.3556 56.4613 84.4343 56.7932 84.4692C57.1338 84.5042 57.5617 84.6091 57.7539 84.6878C57.9897 84.7839 58.1731 84.8101 58.2953 84.7664C58.4089 84.7227 58.5137 84.7315 58.5399 84.7752C58.5748 84.8276 58.7582 84.8626 58.9591 84.8626C59.1599 84.8713 59.4656 84.9412 59.6315 85.0286C59.8673 85.1598 59.9721 85.1685 60.1381 85.0986C60.2865 85.0286 60.3564 85.0286 60.4088 85.1073C60.4437 85.1685 60.6533 85.2035 60.9066 85.2035C61.1424 85.1947 62.0332 85.2122 62.8891 85.2384C64.1903 85.2821 64.4523 85.2646 64.496 85.1598C64.5571 85.0024 64.7842 85.0024 64.9065 85.1685C64.9851 85.2734 65.0986 85.2821 65.5265 85.2035C65.8147 85.1598 66.1291 85.1248 66.2252 85.1423C66.3213 85.151 66.7055 85.1598 67.0811 85.1598C67.5963 85.1685 67.7972 85.1335 67.8671 85.0374C67.9369 84.95 68.1727 84.8975 68.5832 84.8713C68.9238 84.8538 69.3168 84.7839 69.4565 84.7052C69.605 84.6266 69.9194 84.5566 70.1552 84.5479C70.7665 84.5217 72.1115 84.3556 72.2075 84.2944C72.2599 84.2682 72.2949 84.1633 72.2949 84.0672C72.2949 83.9273 72.3211 83.9186 72.4608 84.006C72.6005 84.0846 72.6966 84.0759 72.9848 83.9448C73.2905 83.8137 73.3341 83.7612 73.2905 83.5864C73.2555 83.4553 73.273 83.3766 73.3341 83.3766C73.4215 83.3766 73.4739 83.5602 73.4389 83.7438C73.4215 83.8486 73.8494 83.8224 73.9105 83.7175C73.9629 83.6389 74.3297 83.4291 75.1419 83.0358C75.3341 82.9396 75.5437 82.7561 75.5961 82.6337C75.6485 82.5113 75.7533 82.4152 75.8144 82.4152C75.8755 82.4152 76.0415 82.2928 76.1812 82.1529C76.3908 81.9344 76.4432 81.7858 76.4956 81.2789C76.5567 80.7195 76.548 80.6321 76.3384 80.2562C76.1113 79.8454 75.5611 79.2685 75.4039 79.2685C75.3603 79.2685 75.2555 79.2073 75.1681 79.1286C74.976 78.9538 74.7402 79.0238 74.7402 79.2598C74.7402 79.3559 74.6965 79.4608 74.6441 79.4958C74.5917 79.522 74.5655 79.6181 74.5917 79.6968C74.6092 79.7842 74.5743 79.9241 74.5131 80.0115C74.4433 80.0989 74.3909 80.2649 74.3909 80.3786C74.3909 80.4922 74.3559 80.5796 74.3123 80.5796C74.2686 80.5796 74.1987 80.667 74.1725 80.7719C74.059 81.1303 73.1158 81.9606 72.4521 82.2841C72.1115 82.4501 71.7621 82.59 71.6748 82.59C71.5875 82.59 71.308 82.6686 71.0547 82.7735C70.8015 82.8697 70.4085 82.9571 70.1727 82.9658C69.9456 82.9658 69.736 83.0008 69.7185 83.0358C69.6923 83.062 69.2993 83.0707 68.8277 83.0445C68.1029 83.0095 67.902 82.9658 67.5003 82.7561C67.2383 82.6162 66.9675 82.5026 66.8889 82.5026C66.6793 82.5026 65.8322 81.5323 65.8322 81.2963C65.8322 81.2526 65.7361 80.9904 65.6139 80.7195C65.5003 80.4572 65.413 80.1863 65.4392 80.1251C65.4567 80.0639 65.4916 79.6269 65.5091 79.1549C65.5353 78.543 65.5877 78.2633 65.6837 78.1497C65.7623 78.071 65.8671 77.8001 65.9283 77.5641C65.9807 77.3193 66.0593 77.0571 66.1029 76.9784C66.1466 76.891 66.1815 76.7599 66.1815 76.6812C66.1815 76.6113 66.2427 76.4889 66.3125 76.419C66.3824 76.3403 66.4435 76.218 66.4435 76.1306C66.4435 76.0432 66.5221 75.9033 66.6269 75.8072C66.7317 75.7198 66.9239 75.3876 67.0636 75.0904C67.3081 74.5485 67.9457 73.7443 68.8627 72.8178C69.1159 72.5643 69.3255 72.3196 69.3255 72.2759C69.3255 72.2322 69.3954 72.1798 69.4827 72.1535C69.5613 72.1273 69.7622 71.9875 69.9194 71.8389C70.0766 71.699 70.2513 71.5766 70.2949 71.5766C70.3473 71.5766 70.6006 71.4018 70.8713 71.1833C71.1333 70.9648 71.3953 70.79 71.4565 70.79C71.5176 70.79 71.7534 70.6938 71.9979 70.5802C72.9673 70.1082 73.4215 69.9159 73.7446 69.8372C73.9367 69.7935 74.2075 69.7149 74.3472 69.6624C75.0284 69.4352 75.8755 69.374 78.0589 69.4352C81.3601 69.5226 81.6221 69.5401 82.4255 69.7848C82.6439 69.8547 83.1242 69.9246 83.4997 69.9421C83.9451 69.9683 84.2246 70.0208 84.3294 70.1082C84.408 70.1869 84.7311 70.2743 85.0455 70.3092C85.3599 70.3355 85.8228 70.4403 86.0761 70.5365C86.3293 70.6239 86.7223 70.7026 86.9494 70.7026C87.1765 70.7026 87.5083 70.7463 87.7005 70.7987C87.8839 70.8512 88.2594 70.9036 88.5301 70.9211C88.8009 70.9386 89.4122 71.0347 89.9013 71.1309C90.3816 71.227 91.0104 71.3057 91.2986 71.3057C92.0759 71.3232 93.1151 71.227 93.2025 71.1309C93.2549 71.0872 93.3946 71.0522 93.5169 71.0522C93.6391 71.0522 93.7876 71.0085 93.84 70.9561C93.9011 70.8949 94.1806 70.8424 94.4688 70.8424C94.7657 70.8337 95.0452 70.7812 95.1063 70.7201C95.1675 70.6589 95.2985 70.6152 95.3945 70.6152C95.6041 70.6152 96.1019 70.3879 96.1893 70.2568C96.2155 70.2131 96.3115 70.1956 96.3989 70.2218C96.4949 70.2568 96.6259 70.2043 96.722 70.1082C96.8093 70.0121 97.0277 69.8897 97.2023 69.8372C97.3857 69.7761 97.5517 69.6886 97.5866 69.6449C97.6128 69.6012 97.7962 69.4614 97.9971 69.339C98.4075 69.0855 98.5735 68.9369 99.342 68.1765C99.6389 67.8881 99.9097 67.6433 99.9533 67.6433C100.023 67.6346 100.407 67.1713 100.984 66.3934C101.15 66.1661 101.351 65.7553 101.421 65.4756C101.49 65.2046 101.639 64.8113 101.744 64.6103C101.936 64.2432 101.945 64.2344 101.779 63.9372C101.691 63.7712 101.648 63.5963 101.683 63.5352C101.761 63.4128 101.586 62.9845 101.272 62.5125C101.141 62.3115 101.028 62.1279 101.028 62.0929C101.028 62.0055 100.556 61.6209 100.451 61.6122C100.39 61.6122 100.329 61.551 100.294 61.4811C100.268 61.4112 100.172 61.35 100.084 61.35C99.997 61.35 99.8049 61.2888 99.6564 61.2189C99.1499 60.9654 97.5866 60.9042 96.8181 61.114C96.5386 61.1926 96.1369 61.3762 95.9185 61.5248C95.5081 61.8045 94.8269 62.7485 94.8269 63.0369C94.8269 63.1243 94.7832 63.1855 94.7221 63.1593C94.5998 63.1243 94.5823 62.294 94.6871 61.8132C94.7657 61.4549 95.6478 60.6245 96.1805 60.3885C96.4251 60.2923 96.6958 60.17 96.7919 60.1263C97.2285 59.9427 97.5517 59.8815 98.0931 59.899C98.4163 59.9078 98.6957 59.899 98.7132 59.8641C98.7743 59.7679 100.46 59.8815 100.853 60.0126ZM111.027 63.4915C111.027 63.5789 110.975 63.6663 110.922 63.6838C110.853 63.71 110.809 63.6401 110.809 63.4915C110.809 63.3429 110.853 63.2729 110.922 63.2904C110.975 63.3166 111.027 63.4041 111.027 63.4915ZM100.154 73.5433C100.154 73.6744 99.997 73.8055 99.9184 73.7356C99.9009 73.7094 99.9009 73.6045 99.9359 73.5083C99.997 73.3073 100.154 73.3423 100.154 73.5433ZM101.115 73.6744C101.115 73.7181 101.08 73.7618 101.028 73.7618C100.984 73.7618 100.94 73.7181 100.94 73.6744C100.94 73.622 100.984 73.587 101.028 73.587C101.08 73.587 101.115 73.622 101.115 73.6744ZM95.2111 78.3507C95.2373 78.4206 95.2199 78.4818 95.1762 78.4818C95.1238 78.4818 95.0889 78.4206 95.0889 78.3507C95.0889 78.2808 95.1063 78.2196 95.1238 78.2196C95.1413 78.2196 95.1762 78.2808 95.2111 78.3507ZM34.5669 79.0063C34.5669 79.1024 34.5319 79.1811 34.4883 79.1811C34.366 79.1811 34.2874 79.0238 34.3485 78.9189C34.4359 78.7703 34.5669 78.8227 34.5669 79.0063ZM92.7309 79.8803C92.7309 79.9241 92.6959 79.9678 92.6435 79.9678C92.5999 79.9678 92.5562 79.9241 92.5562 79.8803C92.5562 79.8279 92.5999 79.7929 92.6435 79.7929C92.6959 79.7929 92.7309 79.8279 92.7309 79.8803ZM86.8621 83.7962C86.8883 83.8749 86.8446 83.9098 86.7398 83.8836C86.6612 83.8749 86.5739 83.8049 86.5477 83.7438C86.5215 83.6651 86.5651 83.6301 86.6699 83.6563C86.7485 83.6651 86.8359 83.735 86.8621 83.7962ZM84.4342 85.8678C84.4342 85.9377 84.3993 85.9989 84.3469 85.9989C84.3032 85.9989 84.2595 85.9377 84.2595 85.8678C84.2595 85.7978 84.3032 85.7366 84.3469 85.7366C84.3993 85.7366 84.4342 85.7978 84.4342 85.8678ZM84.5215 86.4796C84.5215 86.5495 84.4866 86.6107 84.4342 86.6107C84.3905 86.6107 84.3469 86.5495 84.3469 86.4796C84.3469 86.4097 84.3905 86.3485 84.4342 86.3485C84.4866 86.3485 84.5215 86.4097 84.5215 86.4796ZM49.4135 90.5441C49.4135 90.5878 49.3524 90.6315 49.2738 90.6315C49.2039 90.6315 49.169 90.5878 49.1952 90.5441C49.2214 90.4916 49.2825 90.4566 49.3349 90.4566C49.3786 90.4566 49.4135 90.4916 49.4135 90.5441ZM76.6615 91.558C76.6615 91.6279 76.6179 91.6629 76.5742 91.6366C76.5218 91.6017 76.5043 91.5405 76.5305 91.4968C76.6091 91.3744 76.6615 91.4006 76.6615 91.558ZM75.9629 92.0824C75.9629 92.2223 75.7358 92.2485 75.6572 92.1174C75.6223 92.0649 75.6223 91.9601 75.6485 91.8814C75.6921 91.7765 75.7271 91.7678 75.8319 91.8552C75.9017 91.9163 75.9629 92.0212 75.9629 92.0824ZM75.5262 92.2048C75.5262 92.2485 75.4913 92.2922 75.4389 92.2922C75.3952 92.2922 75.3515 92.2485 75.3515 92.2048C75.3515 92.1523 75.3952 92.1174 75.4389 92.1174C75.4913 92.1174 75.5262 92.1523 75.5262 92.2048ZM74.6965 92.2922C74.7227 92.3359 74.7053 92.3796 74.6616 92.3796C74.6092 92.3796 74.5655 92.3359 74.5655 92.2922C74.5655 92.2398 74.583 92.2048 74.6005 92.2048C74.6267 92.2048 74.6703 92.2398 74.6965 92.2922ZM75.0459 92.5544C75.0721 92.5981 75.0546 92.6418 75.0109 92.6418C74.9585 92.6418 74.9149 92.5981 74.9149 92.5544C74.9149 92.502 74.9323 92.467 74.9498 92.467C74.976 92.467 75.0197 92.502 75.0459 92.5544ZM72.9935 93.0002C72.9935 93.0439 72.9586 93.0789 72.9062 93.0789C72.8625 93.0789 72.8189 93.0177 72.8189 92.939C72.8189 92.8691 72.8625 92.8341 72.9062 92.8603C72.9586 92.8866 72.9935 92.9478 72.9935 93.0002ZM71.9281 94.7571C71.9019 94.8183 71.832 94.8707 71.7709 94.8707C71.7097 94.8707 71.6399 94.8183 71.6224 94.7571C71.5962 94.6959 71.6573 94.6522 71.7709 94.6522C71.8844 94.6522 71.9455 94.6959 71.9281 94.7571ZM66.3562 98.2709C66.3562 98.2971 66.3213 98.3408 66.2689 98.367C66.2252 98.3932 66.1815 98.3758 66.1815 98.3321C66.1815 98.2796 66.2252 98.2359 66.2689 98.2359C66.3213 98.2359 66.3562 98.2534 66.3562 98.2709Z" fill="url(#paint2_linear_2468_94)"/>
<path d="M28.834 30.4129C28.8078 30.4566 28.6943 30.4916 28.572 30.4916C28.4497 30.4916 28.2663 30.5353 28.1703 30.5877C27.917 30.7276 27.5677 31.1122 27.6201 31.1996C27.6463 31.2345 27.5764 31.2957 27.4716 31.3219C27.1921 31.4093 26.9651 31.6279 26.9651 31.8027C26.9651 31.8901 26.9039 31.9862 26.8253 32.0125C26.7555 32.0387 26.7118 32.0999 26.7467 32.1436C26.7729 32.1873 26.7205 32.2834 26.6419 32.3446C26.4498 32.4845 25.8297 33.4197 25.8297 33.5683C25.8297 33.6295 25.6987 33.9354 25.5415 34.2501C25.1835 34.9756 25.0612 35.3339 24.9913 35.8671C24.9564 36.1119 24.8778 36.3916 24.8079 36.5052C24.7206 36.6538 24.6769 37.0559 24.6507 37.8775C24.6245 38.9002 24.642 39.0837 24.7905 39.3547C24.8778 39.5295 24.9564 39.7218 24.9564 39.7917C24.9564 39.9753 25.4804 40.491 25.7948 40.6221C26.1354 40.7619 26.476 40.6133 27.0087 40.0976C27.2009 39.9141 27.5065 39.6431 27.6812 39.4945C27.8559 39.3459 28.0305 39.1449 28.0567 39.0575C28.0917 38.9613 28.2227 38.7691 28.3711 38.6292C28.5109 38.4893 28.6244 38.3145 28.6244 38.2446C28.6244 38.1747 28.703 38.0523 28.7991 37.9649C29.0349 37.7551 29.0261 37.1957 28.7903 36.6625C28.6419 36.3216 28.6157 36.1206 28.6506 35.4651C28.6681 35.0368 28.6593 34.6696 28.6331 34.6434C28.5371 34.5385 28.6419 32.9914 28.7641 32.8079C28.834 32.703 28.8689 32.5544 28.8427 32.4757C28.8078 32.4058 28.8253 32.3184 28.8777 32.2834C28.9301 32.2572 28.9737 32.0911 28.9737 31.9251C28.9737 31.7415 29.0436 31.5579 29.1484 31.4531C29.2445 31.3569 29.3231 31.1996 29.3231 31.1122C29.3231 31.0248 29.3842 30.9286 29.4541 30.8936C29.5239 30.8674 29.5851 30.7625 29.5851 30.6664C29.5851 30.5702 29.6287 30.4916 29.6811 30.4916C29.7248 30.4916 29.751 30.4566 29.7248 30.4216C29.6637 30.3168 28.8951 30.3168 28.834 30.4129ZM28.1004 36.1731C28.1004 36.2168 28.0655 36.2605 28.0131 36.2605C27.9694 36.2605 27.9257 36.2168 27.9257 36.1731C27.9257 36.1206 27.9694 36.0856 28.0131 36.0856C28.0655 36.0856 28.1004 36.1206 28.1004 36.1731Z" fill="#730630"/>
<path d="M30.8436 32.2146C30.8785 32.337 30.8611 32.4244 30.7825 32.4768C30.5903 32.5905 30.4593 32.8964 30.5205 33.0974C30.5467 33.2198 30.5292 33.2897 30.4593 33.2897C30.3895 33.2897 30.372 33.3596 30.3982 33.482C30.4331 33.5956 30.3982 33.7355 30.3283 33.8142C30.1799 33.9715 30.0751 34.9155 30.1886 34.9854C30.2323 35.0116 30.3283 34.9592 30.4069 34.8718C30.503 34.7669 30.5205 34.6882 30.4681 34.6533C30.4157 34.6183 30.4855 34.4435 30.634 34.2162C30.7825 33.9977 30.8698 33.7792 30.8436 33.6743C30.8174 33.5869 30.8785 33.3596 30.9746 33.1673C31.1056 32.9226 31.1318 32.7827 31.0707 32.6691C31.0183 32.5905 31.0095 32.4593 31.027 32.3894C31.0532 32.3282 31.0095 32.2146 30.9309 32.1447C30.7999 32.0398 30.7912 32.0398 30.8436 32.2146Z" fill="#730630"/>
<defs>
<radialGradient id="paint0_radial_2468_94" cx="0" cy="0" r="1" gradientTransform="matrix(-2.8165 -64.5394 99.8276 -4.31271 66.7312 87.5256)" gradientUnits="userSpaceOnUse">
<stop stop-color="white"/>
<stop offset="0.9999" stop-color="#281515"/>
</radialGradient>
<radialGradient id="paint1_radial_2468_94" cx="0" cy="0" r="1" gradientTransform="matrix(1.6375 44.1844 -115.039 4.19892 65.7492 24.1362)" gradientUnits="userSpaceOnUse">
<stop stop-color="white"/>
<stop offset="1" stop-color="#281515"/>
</radialGradient>
<linearGradient id="paint2_linear_2468_94" x1="60.4069" y1="93.2647" x2="67.0007" y2="-10.7057" gradientUnits="userSpaceOnUse">
<stop stop-color="#970003"/>
<stop offset="0.168502" stop-color="#83031D"/>
<stop offset="0.805232" stop-color="#730630"/>
<stop offset="1" stop-color="#AE4F74"/>
</linearGradient>
</defs>
</svg>
