<svg width="96" height="76" viewBox="0 0 96 76" fill="none" xmlns="http://www.w3.org/2000/svg">
<ellipse cx="48.2994" cy="46.2166" rx="30.69" ry="19.8025" fill="url(#paint0_radial_2468_94)"/>
<path d="M91.1932 16.911C84.3022 33.2242 40.7965 41.5134 46.577 39.4528C52.3574 37.3922 4.19556 38.9588 4.19531 16.9111C4.19507 -5.1366 42.4419 13.4982 47.775 13.4774C53.1081 13.4566 98.0841 0.597776 91.1932 16.911Z" fill="url(#paint1_radial_2468_94)"/>
<path d="M69.6699 0.0331293C69.6435 0.052907 69.3795 0.0792774 69.0759 0.0924626C68.3235 0.11224 67.5051 0.197944 67.4655 0.26387C67.4457 0.296833 67.3203 0.323203 67.1883 0.323203C66.6471 0.323203 64.9311 0.61987 64.9311 0.718759C64.9311 0.745129 64.8057 0.784685 64.6539 0.804463C64.4955 0.830833 64.1325 0.876981 63.8421 0.916537C63.3273 0.989055 62.7927 1.13409 62.6541 1.23957C62.6211 1.27254 62.4825 1.31209 62.3571 1.33187C62.0403 1.37802 61.6113 1.54283 61.5783 1.63513C61.5651 1.67468 61.5189 1.70765 61.4793 1.70765C61.4067 1.70765 60.7005 1.97794 60.3243 2.14276C60.2055 2.20209 60.0867 2.2878 60.0669 2.34054C60.0471 2.39328 59.9415 2.43283 59.8095 2.43283C59.6313 2.43283 59.5653 2.4658 59.5059 2.59106C59.4663 2.68335 59.3739 2.76246 59.2947 2.77565C59.2089 2.78883 59.1495 2.85476 59.1363 2.94046C59.1099 3.10528 58.9383 3.14483 58.8855 2.9998C58.8525 2.92068 58.8261 2.92068 58.6743 2.9998C58.5753 3.05254 58.4631 3.09209 58.4169 3.09209C58.3773 3.09209 58.2585 3.15802 58.1529 3.24372C58.0539 3.32943 57.7965 3.46787 57.5853 3.54698C57.3741 3.63268 57.1497 3.77113 57.0837 3.85683C57.0177 3.94254 56.9187 4.01505 56.8659 4.01505C56.8131 4.01505 56.7141 4.07439 56.6547 4.14031C56.5887 4.21283 56.4039 4.3315 56.2455 4.41061C56.0739 4.48972 55.9287 4.60839 55.8891 4.70068C55.8561 4.78639 55.7505 4.88528 55.6449 4.91824C55.5393 4.9578 55.2489 5.18194 54.9981 5.42587C54.7473 5.6632 54.5229 5.86098 54.4965 5.86098C54.4173 5.86098 53.9223 6.31587 53.1369 7.11357C52.0017 8.26728 51.7179 8.57054 51.4671 8.91994C51.3417 9.09135 51.1041 9.38143 50.9457 9.55943C50.7873 9.73743 50.6751 9.92202 50.6949 9.97476C50.7147 10.0275 50.6685 10.0934 50.5827 10.133C50.4507 10.1923 49.8963 10.9373 49.5201 11.5636C49.4475 11.6822 49.2825 11.913 49.1505 12.0646C49.0251 12.2228 48.8667 12.4865 48.8073 12.6514C48.6687 13.0271 48.2133 13.5084 48.0021 13.5084C47.8173 13.5084 47.3355 12.9744 47.0913 12.4865C46.9989 12.3019 46.7943 11.9789 46.6293 11.7614C46.4709 11.5438 46.2861 11.2603 46.2267 11.1351C46.1673 11.0098 45.8571 10.6011 45.5271 10.2253C45.2037 9.85609 44.9331 9.51987 44.9331 9.48691C44.9331 9.45394 44.8143 9.28913 44.6691 9.12431C44.5239 8.9595 44.4051 8.79468 44.4051 8.76831C44.4051 8.66943 43.2963 7.57505 43.1907 7.57505C43.1379 7.57505 43.0521 7.51572 42.9993 7.4432C42.9465 7.37068 42.8937 7.33113 42.8673 7.35091C42.8475 7.37068 42.8475 7.33113 42.8607 7.2652C42.9069 7.10039 42.6627 6.80372 42.3855 6.68505C42.2601 6.63231 42.1611 6.5598 42.1611 6.52024C42.1611 6.40157 41.5473 5.79505 41.2239 5.59068C41.0457 5.4852 40.9071 5.37313 40.9071 5.34017C40.9071 5.3072 40.8411 5.25446 40.7619 5.22809C40.6761 5.20172 40.5771 5.14239 40.5441 5.08965C40.5045 5.03691 40.3857 4.99076 40.2801 4.98417C40.1217 4.97098 40.0887 4.93802 40.1019 4.82594C40.1151 4.73365 40.0689 4.65454 39.9699 4.6018C39.8841 4.55565 39.7323 4.45017 39.6267 4.36446C39.5013 4.25898 39.3759 4.21283 39.2769 4.23261C39.1779 4.25239 39.1185 4.22602 39.0921 4.14691C39.0459 4.00846 38.4189 3.57994 38.1747 3.51402C38.0889 3.49424 37.9965 3.43491 37.9767 3.38217C37.9569 3.32943 37.7655 3.20417 37.5609 3.11187C37.1913 2.94046 37.1385 2.92728 36.9669 2.9075C36.9207 2.90091 36.8811 2.85476 36.8811 2.80861C36.8811 2.76246 36.6963 2.6372 36.4719 2.53172C36.2409 2.42624 36.0033 2.30098 35.9439 2.24824C35.8779 2.1955 35.7855 2.16913 35.7261 2.1955C35.6733 2.21528 35.4423 2.13617 35.2113 2.01091C34.9869 1.89224 34.7031 1.77357 34.5777 1.7472C34.4523 1.72743 34.3071 1.66809 34.2543 1.62854C34.0827 1.4835 33.6867 1.35824 33.4161 1.36483C33.2775 1.36483 33.1257 1.32528 33.0861 1.27913C32.9871 1.15387 32.2413 0.962685 31.9707 0.995648C31.8387 1.00883 31.7331 0.995648 31.7331 0.969277C31.7331 0.942907 31.6935 0.916537 31.6407 0.916537C31.5945 0.916537 31.4823 0.863796 31.3965 0.791277C31.2843 0.705574 31.1193 0.666018 30.8553 0.659426C30.6441 0.659426 30.4197 0.626463 30.3603 0.5935C30.3009 0.567129 30.1029 0.520981 29.9181 0.501203C29.7399 0.474833 29.4891 0.44187 29.3637 0.422092C29.2383 0.408907 29.0931 0.428685 29.0469 0.46824C28.9809 0.520981 28.9347 0.514389 28.8753 0.44187C28.7961 0.342981 28.6113 0.283648 28.2021 0.224314C28.0965 0.211129 27.9117 0.171574 27.8061 0.138611C27.6939 0.105648 27.5421 0.0990552 27.4563 0.132018C27.3639 0.164981 27.2517 0.164981 27.1857 0.132018C27.0339 0.0463145 23.7273 0.0924626 23.0871 0.184759C22.4469 0.277055 22.2291 0.323203 22.2291 0.389129C22.2291 0.422092 22.0707 0.428685 21.8859 0.408907C21.6087 0.382537 20.8497 0.474833 20.2161 0.613277C20.1831 0.61987 19.9257 0.666018 19.6551 0.712166C19.3845 0.764907 18.9555 0.863796 18.6981 0.9495C18.4473 1.02861 18.1173 1.09454 17.9655 1.10113C17.8137 1.10113 17.5365 1.18024 17.3385 1.27254C16.9887 1.43076 16.8633 1.46372 16.3089 1.5692C16.1505 1.59557 15.9723 1.66809 15.9063 1.72743C15.8403 1.79335 15.7017 1.8395 15.6093 1.8395C15.5103 1.8395 15.4311 1.85928 15.4311 1.89224C15.4311 1.94498 15.0417 2.09002 14.7579 2.14935C14.6589 2.16913 14.5401 2.22187 14.5005 2.27461C14.4609 2.32735 14.3751 2.36691 14.3091 2.36691C14.2101 2.36691 13.6821 2.59106 13.3851 2.75587C13.3323 2.78883 13.1541 2.86794 12.9891 2.93387C12.8241 2.9932 12.6459 3.10528 12.5799 3.1712C12.5205 3.23713 12.4083 3.28987 12.3357 3.28987C12.2565 3.28987 12.1179 3.34261 12.0255 3.40194C11.7879 3.55357 11.5041 3.7118 11.0487 3.95572C10.8375 4.0678 10.6527 4.20624 10.6329 4.27217C10.6065 4.38424 10.3161 4.56224 10.0455 4.63476C9.95966 4.66113 9.91346 4.72705 9.91346 4.82594C9.92006 4.93802 9.88046 4.97098 9.75506 4.97757C9.45806 4.98417 9.42506 5.00394 9.42506 5.1358C9.42506 5.21491 9.38546 5.26765 9.33926 5.26105C9.16766 5.24128 9.09506 5.27424 9.09506 5.36654C9.09506 5.41928 9.03566 5.46543 8.96306 5.46543C8.79146 5.46543 7.90706 6.05876 7.90706 6.17083C7.90706 6.21698 7.87406 6.25654 7.84106 6.25654C7.80146 6.25654 7.73546 6.33565 7.69586 6.42794C7.64966 6.52683 7.54406 6.60594 7.43846 6.63231C7.33946 6.65209 7.15466 6.77735 7.03586 6.9092C6.91046 7.04105 6.67286 7.2718 6.50126 7.43002C6.32966 7.58165 6.19106 7.73987 6.19106 7.77283C6.19106 7.8058 6.10526 7.87831 5.99306 7.93765C5.88746 7.99698 5.79506 8.06291 5.79506 8.09587C5.79506 8.12883 5.59046 8.35957 5.34626 8.61009C5.09546 8.85402 4.79846 9.19024 4.68626 9.35505C4.48166 9.65831 3.98006 10.2714 3.74906 10.5088C3.67646 10.5879 3.61706 10.667 3.61706 10.6934C3.61706 10.7197 3.51146 10.8911 3.38606 11.0691C3.26066 11.2471 3.15506 11.4515 3.15506 11.5108C3.15506 11.5768 3.09566 11.6691 3.02306 11.7086C2.85806 11.8207 2.67326 12.1767 2.71286 12.3217C2.73266 12.3942 2.69966 12.4536 2.63366 12.4734C2.50166 12.5063 2.03306 13.1854 2.03306 13.337C2.03306 13.3897 1.94726 13.5941 1.84166 13.7853C1.73606 13.9765 1.63046 14.2336 1.60406 14.3456C1.58426 14.4643 1.53146 14.5632 1.49846 14.5632C1.46546 14.5632 1.43906 14.6357 1.43906 14.7214C1.43906 14.8071 1.39286 14.8928 1.34006 14.9192C1.28726 14.939 1.24106 14.9983 1.24106 15.0445C1.24106 15.0972 1.19486 15.2291 1.14206 15.3411C1.08266 15.4532 1.00346 15.7301 0.963855 15.9608C0.930855 16.1916 0.871455 16.4025 0.838455 16.4421C0.805455 16.4751 0.779055 16.6201 0.779055 16.7717C0.779055 16.9234 0.752655 17.0684 0.719655 17.1014C0.620655 17.2068 0.515055 17.6485 0.383055 18.4858C0.317055 18.9209 0.211455 19.5142 0.158655 19.8043C0.0992552 20.0944 0.0530552 20.4042 0.0596552 20.4965C0.0596552 20.5888 0.0398552 20.9778 0.0134552 21.3668C-0.0129448 21.8019 0.000255235 22.3754 0.0464552 22.8501C0.0860552 23.2786 0.132255 23.8719 0.145455 24.162C0.158655 24.4587 0.204855 24.7619 0.244455 24.8411C0.290655 24.9202 0.303855 25.0388 0.284055 25.1048C0.264255 25.1707 0.284055 25.3091 0.323655 25.4146C0.363255 25.5201 0.396255 25.6915 0.389655 25.797C0.383055 25.8959 0.409455 26.0211 0.449055 26.0673C0.488655 26.1134 0.508455 26.2519 0.501855 26.3705C0.488655 26.509 0.515055 26.5947 0.567855 26.6013C0.719655 26.6211 0.726255 26.6276 0.660255 26.7133C0.561255 26.832 0.719655 28.1703 0.858255 28.4406C0.917655 28.5461 0.983655 28.8032 1.01006 29.001C1.03646 29.1988 1.08266 29.3899 1.10906 29.4295C1.13546 29.4625 1.17506 29.6009 1.19486 29.7262C1.26086 30.1679 1.36646 30.4777 1.46546 30.5305C1.52486 30.5634 1.57106 30.6557 1.57106 30.7348C1.57106 31.0908 1.76246 31.7633 1.91426 31.9347C1.94066 31.9676 1.96706 32.0599 1.96706 32.1391C1.96706 32.3236 2.13206 32.7126 2.25746 32.8181C2.31026 32.8642 2.36966 33.0225 2.39606 33.1741C2.44226 33.5103 2.68646 34.0773 2.78546 34.0773C2.82506 34.0773 2.89766 34.1036 2.95046 34.1366C3.02966 34.1893 3.02966 34.2157 2.96366 34.3014C2.89106 34.3937 2.90426 34.4728 3.08246 34.8354C3.19466 35.0728 3.32666 35.2837 3.37946 35.3035C3.43226 35.3233 3.49826 35.4617 3.51806 35.6068C3.59066 36.0023 4.10546 37.1428 4.41566 37.5845C4.48826 37.6768 4.54106 37.8087 4.54106 37.868C4.54106 37.9339 4.64666 38.1251 4.77206 38.2965C4.89746 38.4679 5.00306 38.6525 5.00306 38.6987C5.00966 38.7514 5.09546 38.9096 5.20106 39.0547C5.31326 39.1997 5.44526 39.4239 5.50466 39.5491C5.56406 39.6744 5.74226 39.9249 5.90726 40.1029C6.06566 40.2809 6.23726 40.5182 6.28346 40.6303C6.32966 40.7424 6.49466 40.9731 6.64646 41.1445C6.79166 41.3093 6.91706 41.4742 6.91706 41.5071C6.91706 41.5401 7.00286 41.6653 7.10846 41.7972C7.22066 41.929 7.32626 42.1202 7.35266 42.2257C7.37246 42.3312 7.49126 42.5224 7.61006 42.6476C7.72226 42.7729 7.90046 43.0234 8.00606 43.208C8.10506 43.386 8.27666 43.6102 8.38226 43.6893C8.48126 43.775 8.61986 43.9398 8.67926 44.0519C8.73866 44.1705 8.91686 44.3815 9.07526 44.5331C9.22706 44.6848 9.35906 44.8364 9.35906 44.8693C9.35906 44.9089 9.47126 45.0671 9.61646 45.2253C9.75506 45.3836 9.92666 45.6077 9.99266 45.7198C10.0653 45.8319 10.2105 46.0033 10.3293 46.1022C10.4481 46.201 10.6065 46.3922 10.6857 46.5241C10.7715 46.6559 10.8969 46.8076 10.9695 46.8603C11.1411 46.9856 11.7351 47.5789 11.7351 47.6316C11.7351 47.6646 12.1773 48.2316 12.4215 48.515C12.4677 48.5678 12.6063 48.6865 12.7251 48.7788C13.0485 49.0161 13.2993 49.2996 13.3851 49.5105C13.4313 49.6094 13.5303 49.7083 13.6227 49.7281C13.7085 49.7545 13.8141 49.8336 13.8537 49.9193C13.8999 49.9984 14.1441 50.3082 14.4015 50.6049C14.7315 50.9873 14.9163 51.1521 15.0219 51.1521C15.1209 51.1521 15.1671 51.1916 15.1671 51.2839C15.1671 51.3696 15.2133 51.4158 15.2991 51.4158C15.3717 51.4158 15.4575 51.4685 15.4839 51.5345C15.5697 51.752 16.1043 52.4047 16.1967 52.4047C16.2429 52.4047 16.3221 52.4706 16.3617 52.5563C16.4475 52.7079 16.4937 52.7607 17.6157 53.7891C17.9853 54.1319 18.3681 54.4945 18.4605 54.5934C18.5529 54.6989 18.6585 54.778 18.6915 54.778C18.7311 54.778 18.9291 54.9494 19.1337 55.1538C19.7145 55.7537 20.2755 56.2679 20.4867 56.3998C20.5923 56.4657 20.7111 56.558 20.7441 56.6042C20.7837 56.6503 21.0411 56.8745 21.3249 57.1052C21.7341 57.448 21.8661 57.5205 22.0047 57.4942C22.1301 57.4744 22.1697 57.4876 22.1499 57.5469C22.1037 57.6919 23.9583 59.4192 24.2949 59.5445C24.3543 59.5642 24.4071 59.6104 24.4071 59.6433C24.4071 59.6961 25.3641 60.1971 25.6149 60.2762C25.6743 60.296 25.7469 60.4015 25.7667 60.5136C25.8195 60.7509 26.1561 61.0608 26.3145 61.008C26.3871 60.9882 26.4663 61.041 26.5389 61.1728C26.6049 61.2849 26.7699 61.4299 26.9085 61.5025C27.0471 61.5684 27.2055 61.7002 27.2715 61.7925C27.3309 61.8848 27.4101 61.9639 27.4497 61.9639C27.4893 61.9639 27.6873 62.1156 27.8919 62.2936C28.0965 62.4782 28.3341 62.643 28.4133 62.6628C28.4925 62.6825 28.6047 62.7682 28.6575 62.8539C28.7103 62.933 28.8951 63.0649 29.0733 63.1506C29.2449 63.2297 29.4891 63.3813 29.6013 63.4868C29.7201 63.5923 29.9775 63.7769 30.1623 63.8956C30.3537 64.0208 30.5715 64.1856 30.6375 64.2648C30.7101 64.3373 30.8289 64.4032 30.9015 64.4032C30.9807 64.4032 31.1457 64.5087 31.2711 64.6405C31.3965 64.7724 31.7397 65.0361 32.0367 65.2339C32.3337 65.4316 32.6109 65.636 32.6571 65.6888C32.7759 65.8338 32.9409 65.814 32.9013 65.6624C32.8815 65.5701 32.9013 65.5503 32.9871 65.5701C33.0597 65.5899 33.1059 65.6624 33.1059 65.7613C33.0993 65.9261 33.2841 66.1832 33.4029 66.1832C33.4359 66.1832 33.6141 66.2887 33.7857 66.4139C33.9639 66.5392 34.1355 66.6447 34.1619 66.6447C34.1949 66.6447 34.3335 66.7304 34.4787 66.8425C34.6173 66.9479 34.7823 67.0402 34.8351 67.0402C34.8879 67.0402 35.0661 67.1589 35.2245 67.3039C35.3829 67.449 35.5677 67.5808 35.6337 67.6006C35.7063 67.627 35.7591 67.6665 35.7591 67.7061C35.7591 67.739 35.8581 67.805 35.9769 67.8577C36.0891 67.9039 36.3267 68.0687 36.4983 68.2203C36.6633 68.3653 36.8217 68.4906 36.8415 68.4906C36.8679 68.4906 37.0857 68.6225 37.3299 68.7741C38.4519 69.4993 38.6367 69.6113 38.7291 69.6113C38.7819 69.6113 39.0063 69.763 39.2241 69.941C39.4419 70.119 39.7191 70.3168 39.8379 70.3761C39.9633 70.4354 40.1679 70.5541 40.2933 70.6398C40.4319 70.7321 40.5837 70.7848 40.6497 70.765C40.7289 70.7387 40.7949 70.7716 40.8411 70.8573C40.8741 70.9299 40.9467 70.976 40.9995 70.9562C41.0457 70.9365 41.1381 70.9958 41.1975 71.0881C41.2569 71.187 41.3625 71.2595 41.4351 71.2595C41.5077 71.2595 41.5935 71.3188 41.6331 71.3913C41.6727 71.4639 41.7717 71.5232 41.8509 71.5232C41.9301 71.5232 42.0357 71.5825 42.0819 71.655C42.1281 71.7276 42.2139 71.7869 42.2733 71.7869C42.3327 71.7869 42.4845 71.866 42.6099 71.9649C42.9003 72.1956 43.7517 72.723 44.1411 72.9208C44.3061 73.0065 44.4777 73.1252 44.5239 73.1845C44.5701 73.2505 44.6559 73.3032 44.7087 73.3032C44.8341 73.3032 45.0453 73.4219 45.3093 73.646C45.4215 73.7383 45.6063 73.8372 45.7185 73.8636C45.8307 73.8899 45.9231 73.9361 45.9231 73.969C45.9231 74.002 45.9957 74.0284 46.0815 74.0284C46.1805 74.0284 46.2597 74.0745 46.2861 74.1536C46.3059 74.2196 46.4379 74.325 46.5831 74.391C46.8273 74.503 46.8537 74.503 46.9659 74.4042C47.1375 74.2459 47.1771 74.2657 47.1375 74.4833C47.1045 74.6481 47.1243 74.6942 47.2959 74.7799C47.4081 74.8393 47.5599 74.8854 47.6259 74.8854C47.6985 74.8854 47.7975 74.9448 47.8437 75.0239C47.8965 75.0964 48.0549 75.1821 48.2001 75.215C48.4311 75.2678 48.4971 75.2546 48.7677 75.0766C48.9327 74.9711 49.1109 74.8854 49.1637 74.8854C49.2165 74.8854 49.3419 74.8129 49.4475 74.7206C49.5531 74.6349 49.6983 74.5426 49.7775 74.5162C49.8501 74.4899 50.1603 74.3119 50.4573 74.1207C50.7543 73.9229 51.0183 73.7647 51.0447 73.7647C51.0711 73.7647 51.2955 73.6328 51.5463 73.468C51.7971 73.3032 52.0479 73.145 52.1139 73.1252C52.1733 73.0988 52.2987 73.0263 52.3845 72.9604C52.4703 72.8945 52.5891 72.8417 52.6551 72.8417C52.7145 72.8417 52.8333 72.7692 52.9191 72.6769C53.0049 72.5846 53.1171 72.5121 53.1633 72.5121C53.2095 72.5121 53.2821 72.4396 53.3151 72.3539C53.3547 72.2352 53.4075 72.2022 53.5065 72.2286C53.5923 72.2484 53.6913 72.2022 53.7969 72.0902C53.8827 71.9979 53.9949 71.9188 54.0345 71.9188C54.1467 71.9188 54.5295 71.721 54.5823 71.6287C54.6087 71.5891 54.6021 71.543 54.5625 71.5166C54.5295 71.4968 54.4833 71.3979 54.4635 71.299C54.4371 71.1408 54.4437 71.1276 54.5625 71.1936C54.6351 71.2265 54.7143 71.2925 54.7341 71.3254C54.7935 71.4243 55.0113 71.4045 55.0575 71.2925C55.0773 71.2397 55.1367 71.1936 55.1895 71.1936C55.2489 71.1936 55.2687 71.1474 55.2489 71.0683C55.2159 70.9365 55.3677 70.7914 55.4139 70.9167C55.4535 71.0419 55.5987 71.009 55.8165 70.8244C55.9287 70.7321 56.0475 70.6728 56.0871 70.6991C56.1927 70.765 56.4171 70.6068 56.4171 70.4684C56.4171 70.3761 56.4633 70.3365 56.5755 70.3365C56.8263 70.3365 56.9385 70.2706 56.8989 70.1585C56.8725 70.0992 56.9055 70.0333 56.9649 69.9937C57.0309 69.9608 57.0771 69.8685 57.0771 69.7893C57.0837 69.6575 57.0903 69.6575 57.1497 69.763C57.1827 69.8223 57.1959 69.908 57.1761 69.941C57.0903 70.0794 57.3675 70.0003 57.5985 69.8157C57.8559 69.6113 58.3245 69.3476 58.4301 69.3476C58.4961 69.341 58.8591 69.051 58.8591 68.9982C58.8591 68.9785 58.7997 68.9521 58.7205 68.9323C58.6083 68.8993 58.5951 68.873 58.6611 68.7609C58.7535 68.5763 58.8459 68.5895 58.8987 68.7873C58.9449 68.985 58.9977 68.9916 59.1429 68.8334C59.2023 68.7741 59.3607 68.662 59.4993 68.5895C59.6379 68.517 59.8029 68.4049 59.8755 68.3456C59.9415 68.2862 60.0933 68.1873 60.2055 68.1346C60.4695 67.9962 60.6411 67.8643 60.6411 67.7852C60.6411 67.7522 60.7599 67.6731 60.9117 67.6072C61.0569 67.5413 61.1955 67.449 61.2153 67.3962C61.2351 67.3435 61.2945 67.3039 61.3539 67.3039C61.4793 67.3039 62.1327 66.8029 62.1855 66.6645C62.2053 66.6117 62.2713 66.5788 62.3175 66.5985C62.3703 66.6183 62.4825 66.5853 62.5683 66.5194C62.6541 66.4535 62.7993 66.381 62.9049 66.3546C63.0039 66.3348 63.0831 66.2689 63.0831 66.2162C63.0831 66.1568 63.1557 66.0843 63.2481 66.0513C63.3405 66.0184 63.4131 65.9656 63.4131 65.9327C63.4131 65.9063 63.5913 65.7942 63.8091 65.6888C64.1391 65.5239 64.1985 65.4646 64.2051 65.313C64.2051 65.0954 64.2909 65.0361 64.4691 65.1284C64.5879 65.1877 64.6341 65.1745 64.7859 65.0031C64.8783 64.891 64.9905 64.7988 65.0301 64.7988C65.1159 64.7988 65.4591 64.4428 65.6175 64.1856C65.6769 64.0868 65.7825 64.0076 65.8419 64.0142C66.0069 64.034 66.3105 63.9417 66.3699 63.8494C66.4359 63.7439 67.1421 63.2165 67.2213 63.2165C67.2543 63.2165 67.3665 63.1242 67.4787 63.0122C67.5843 62.9001 67.8087 62.7419 67.9737 62.6562C68.2773 62.4979 68.4951 62.254 68.4951 62.0694C68.4951 62.0101 68.5347 61.9837 68.5875 62.0035C68.6733 62.0365 69.5577 61.4761 69.9141 61.1728C69.9867 61.1069 70.1121 61.0344 70.1913 61.008C70.2771 60.9882 70.3563 60.9025 70.3761 60.8234C70.4091 60.6982 70.5675 60.5663 70.9371 60.3553C70.9965 60.3224 71.1153 60.1971 71.2011 60.0785C71.2935 59.9598 71.4189 59.8543 71.4783 59.8543C71.5443 59.8543 71.6433 59.7818 71.7027 59.6895C71.7621 59.5972 71.8479 59.5247 71.8941 59.5247C72.0261 59.5247 72.7191 58.9973 72.7191 58.8918C72.7191 58.8456 72.7455 58.7995 72.7785 58.7995C72.8115 58.7995 72.8841 58.7599 72.9303 58.7138C72.9765 58.6742 73.1349 58.549 73.2867 58.4501C73.4385 58.3512 73.5903 58.1996 73.6365 58.1205C73.6827 58.0413 73.8477 57.9029 74.0127 57.8172C74.1777 57.7315 74.4681 57.4876 74.6661 57.27C74.8773 57.0459 75.0753 56.8876 75.1545 56.8876C75.2337 56.8876 75.2931 56.8481 75.2931 56.8019C75.2997 56.6767 75.5307 56.4262 75.6429 56.4262C75.7683 56.4262 75.8211 56.2943 75.7485 56.1493C75.6891 56.0306 75.7353 55.8328 75.8211 55.8328C75.9003 55.8328 75.9531 56.0174 75.9069 56.1427C75.8739 56.2218 75.9003 56.2152 76.0059 56.1097C76.0851 56.0306 76.1775 55.9647 76.2105 55.9647C76.2897 55.9647 77.0025 55.2395 77.1279 55.0285C77.1873 54.923 77.2731 54.8439 77.3193 54.8439C77.3721 54.8439 77.4249 54.7978 77.4447 54.745C77.4711 54.6923 77.5239 54.6462 77.5701 54.6462C77.6823 54.6462 78.3951 53.921 78.3951 53.8023C78.3951 53.7628 78.4413 53.7232 78.5007 53.7232C78.5601 53.7232 78.6987 53.6177 78.8109 53.4925C78.9231 53.3672 79.0419 53.2617 79.0749 53.2617C79.2201 53.2617 79.5831 52.9057 79.5831 52.7607C79.5831 52.6486 79.6293 52.5959 79.7679 52.5629C79.8669 52.5365 80.0319 52.4245 80.1309 52.3124C80.2299 52.2003 80.5203 51.8839 80.7711 51.6136C81.0219 51.3433 81.2925 51.0136 81.3783 50.8884C81.4641 50.7631 81.6027 50.651 81.6819 50.6379C81.7611 50.6247 81.8601 50.5522 81.8997 50.4796C81.9393 50.4005 82.0581 50.2555 82.1637 50.1566C82.2693 50.0511 82.3551 49.939 82.3551 49.8995C82.3551 49.8665 82.4013 49.8336 82.4541 49.8336C82.5135 49.8336 82.5861 49.761 82.6191 49.6688C82.6521 49.5765 82.7841 49.405 82.9095 49.2864C83.0349 49.1677 83.1471 49.0029 83.1603 48.9106C83.1735 48.8183 83.2329 48.7392 83.3121 48.7128C83.4837 48.6667 84.0513 48.1393 84.1701 47.9151C84.2229 47.8162 84.5001 47.4998 84.7905 47.2031C85.0809 46.9065 85.3383 46.6098 85.3581 46.5373C85.3845 46.4648 85.4241 46.4054 85.4439 46.4054C85.4703 46.4054 85.5495 46.2933 85.6221 46.1615C85.6947 46.0296 86.0115 45.6605 86.3283 45.3374C86.6451 45.0144 86.9553 44.6584 87.0213 44.5397C87.0873 44.4276 87.2061 44.276 87.2919 44.2101C87.3711 44.1442 87.4371 44.0585 87.4371 44.0189C87.4371 43.953 87.6549 43.6563 88.1697 43.0234C88.2621 42.9048 88.3545 42.7663 88.3809 42.707C88.4007 42.6476 88.5459 42.4235 88.7109 42.2125C89.0739 41.7247 89.3511 41.25 89.3511 41.1116C89.3511 41.0456 89.3841 40.9995 89.4237 40.9995C89.5491 40.9995 89.8791 40.6171 89.8791 40.4787C89.8791 40.4128 89.9253 40.3402 89.9715 40.3205C90.0243 40.3007 90.1233 40.182 90.1827 40.0633C90.2421 39.9447 90.3147 39.8326 90.3411 39.8128C90.3675 39.793 90.4533 39.6414 90.5259 39.4766C90.6051 39.3052 90.7107 39.1536 90.7701 39.1272C90.8229 39.1074 90.8691 39.0349 90.8691 38.969C90.8691 38.903 90.9549 38.7316 91.0605 38.5866C91.3245 38.224 91.9053 37.1165 91.9515 36.8725C91.9779 36.7539 92.0571 36.6088 92.1297 36.5429C92.1957 36.4836 92.2551 36.3781 92.2551 36.3188C92.2551 36.2594 92.2815 36.1869 92.3145 36.1473C92.4003 36.0682 92.9151 35.053 92.9151 34.9739C92.9151 34.9409 92.9745 34.8486 93.0471 34.7695C93.1197 34.697 93.1857 34.5124 93.1989 34.3739C93.2253 34.0839 93.3771 33.7542 93.5355 33.6224C93.5949 33.5696 93.6411 33.4444 93.6411 33.3389C93.6411 33.2268 93.7005 33.062 93.7731 32.9565C93.8391 32.8576 93.9183 32.6533 93.9447 32.5082C93.9711 32.3566 94.0305 32.1984 94.0767 32.1588C94.1295 32.1193 94.1691 31.994 94.1691 31.8885C94.1691 31.7831 94.2417 31.5721 94.3275 31.4205C94.4133 31.2688 94.5057 31.0381 94.5321 30.9128C94.5849 30.6491 94.6773 30.3261 94.7961 29.9899C94.8423 29.8646 94.9215 29.5811 94.9677 29.3636C95.0139 29.146 95.0865 28.9219 95.1393 28.8625C95.1855 28.8032 95.2119 28.7109 95.1921 28.6582C95.1657 28.5988 95.2251 28.3351 95.3109 28.0648C95.4033 27.7945 95.4561 27.4913 95.4429 27.3792C95.4231 27.2473 95.4627 27.0628 95.5551 26.8848C95.6673 26.6474 95.6937 26.476 95.7003 25.9684C95.7003 25.6256 95.7267 25.2959 95.7531 25.2366C95.7861 25.1839 95.8323 24.7224 95.8587 24.2148C95.9973 21.2876 95.7993 17.7738 95.4627 17.4046C95.3901 17.3255 95.3439 17.1343 95.3241 16.864C95.2911 16.4355 95.1129 15.8026 94.8885 15.3148C94.8225 15.1631 94.7631 14.9588 94.7631 14.8599C94.7631 14.7544 94.7235 14.6225 94.6773 14.5698C94.6245 14.5105 94.5321 14.2995 94.4727 14.0885C94.4133 13.8842 94.3011 13.6666 94.2351 13.6073C94.1625 13.5414 94.0635 13.337 94.0041 13.1458C93.9513 12.9546 93.8655 12.7832 93.8193 12.7634C93.7665 12.7436 93.6609 12.5591 93.5751 12.3415C93.4431 12.0185 93.1263 11.5174 92.9745 11.3988C92.9481 11.379 92.8821 11.2537 92.8293 11.1153C92.7699 10.9834 92.6973 10.8714 92.6577 10.8714C92.6247 10.8714 92.5059 10.7263 92.3937 10.5417C92.2815 10.3637 92.1297 10.1791 92.0571 10.133C91.9845 10.0868 91.9251 10.0143 91.9251 9.96817C91.9251 9.92202 91.8657 9.85609 91.7997 9.81654C91.7271 9.78357 91.6017 9.61217 91.5159 9.44735C91.4235 9.26276 91.2519 9.06498 91.0869 8.94631C90.9285 8.84083 90.8031 8.70898 90.8031 8.65624C90.8031 8.59691 90.7173 8.5178 90.6117 8.47824C90.4269 8.41231 90.2751 8.19476 90.2751 8.00357C90.2751 7.95743 90.1563 7.84535 90.0111 7.76624C89.8659 7.68054 89.7009 7.54868 89.6481 7.46298C89.5887 7.37728 89.5095 7.31135 89.4633 7.31135C89.4237 7.31135 89.2323 7.15313 89.0409 6.96194C88.4865 6.40817 88.3545 6.29609 87.8331 5.92691C87.5625 5.73572 87.2655 5.51157 87.1731 5.43246C87.0807 5.34676 86.8299 5.18854 86.6121 5.06987C86.3943 4.9512 86.1567 4.79957 86.0775 4.73365C86.0049 4.66113 85.9191 4.60839 85.8795 4.60839C85.8465 4.6018 85.6551 4.46994 85.4571 4.31172C85.2591 4.14691 85.0083 3.9755 84.8961 3.92276C84.7905 3.87002 84.6255 3.7975 84.5331 3.75794C84.2229 3.61291 84.0513 3.49424 83.9919 3.39535C83.9589 3.33602 83.8797 3.28987 83.8137 3.28987C83.7477 3.28987 83.6751 3.27009 83.6487 3.24372C83.5893 3.1778 83.1339 3.02617 83.0085 3.02617C82.9491 3.02617 82.8831 2.98002 82.8633 2.92728C82.8171 2.8152 82.1703 2.47898 81.7611 2.36031C81.5961 2.31417 81.3981 2.22187 81.3189 2.14935C81.2133 2.05706 81.1473 2.04387 81.0615 2.09002C80.9757 2.13617 80.9229 2.12298 80.8437 2.03068C80.7843 1.95817 80.5401 1.85928 80.2959 1.79994C80.0451 1.74061 79.8471 1.6615 79.8471 1.63513C79.8471 1.60217 79.7745 1.5758 79.6821 1.5758C79.5897 1.5758 79.4445 1.52965 79.3587 1.47691C79.2795 1.42417 79.1409 1.38461 79.0485 1.3912C78.9627 1.3978 78.7185 1.31868 78.5139 1.2198C78.2895 1.11431 78.0783 1.05498 78.0057 1.08135C77.9397 1.10113 77.7813 1.06157 77.6625 0.989055C77.5371 0.923129 77.2929 0.844018 77.1081 0.817648C76.9299 0.791277 76.6131 0.718759 76.4151 0.652833C76.1907 0.580314 75.7287 0.514389 75.2271 0.488018C74.7717 0.461648 74.2569 0.402314 74.0721 0.356166C73.8939 0.310018 73.5639 0.26387 73.3461 0.26387C73.1349 0.257277 72.8775 0.211129 72.7785 0.164981C72.6597 0.105648 72.5673 0.0990552 72.4881 0.145203C72.4089 0.184759 72.3561 0.184759 72.3231 0.125426C72.2835 0.0660922 72.1845 0.052907 72.0063 0.08587C71.8545 0.105648 71.7225 0.0990552 71.7027 0.0726848C71.6631 0.0067589 69.7293 -0.0327967 69.6699 0.0331293ZM26.4531 0.283648C26.4531 0.303426 26.4267 0.336389 26.3871 0.356166C26.3541 0.375944 26.3211 0.362759 26.3211 0.329796C26.3211 0.29024 26.3541 0.257277 26.3871 0.257277C26.4267 0.257277 26.4531 0.270463 26.4531 0.283648ZM20.0511 0.784685C20.0511 0.817648 20.0181 0.850611 19.9785 0.850611C19.9455 0.850611 19.9323 0.817648 19.9521 0.784685C19.9719 0.745129 20.0049 0.718759 20.0247 0.718759C20.0379 0.718759 20.0511 0.745129 20.0511 0.784685ZM30.1491 0.850611C30.1491 0.883574 30.1227 0.916537 30.0831 0.916537C30.0501 0.916537 30.0171 0.883574 30.0171 0.850611C30.0171 0.811055 30.0501 0.784685 30.0831 0.784685C30.1227 0.784685 30.1491 0.811055 30.1491 0.850611ZM31.5087 1.49009C31.4427 1.55602 31.3833 1.45713 31.4427 1.37143C31.4823 1.29891 31.4955 1.29891 31.5219 1.37143C31.5351 1.41757 31.5285 1.47031 31.5087 1.49009ZM67.7031 1.50987C67.7031 1.54283 67.6767 1.5758 67.6371 1.5758C67.6041 1.5758 67.5711 1.54283 67.5711 1.50987C67.5711 1.47031 67.6041 1.44394 67.6371 1.44394C67.6767 1.44394 67.7031 1.47031 67.7031 1.50987ZM79.5171 2.01091C79.5171 2.06365 79.4907 2.09002 79.4511 2.07024C79.4181 2.05046 79.3851 2.00431 79.3851 1.96476C79.3851 1.9318 79.4181 1.90543 79.4511 1.90543C79.4907 1.90543 79.5171 1.95157 79.5171 2.01091ZM59.7831 2.86135C59.8887 2.9932 59.8491 3.03276 59.6643 2.98002C59.5851 2.96024 59.5191 2.90091 59.5191 2.85476C59.5191 2.7295 59.6775 2.73609 59.7831 2.86135ZM80.9031 4.08098C80.9031 4.11394 80.8701 4.14691 80.8305 4.14691C80.7975 4.14691 80.7843 4.11394 80.8041 4.08098C80.8239 4.04143 80.8569 4.01505 80.8767 4.01505C80.8899 4.01505 80.9031 4.04143 80.9031 4.08098ZM14.9889 6.63231C15.2397 6.8235 15.2991 7.04105 15.1473 7.17291C15.0945 7.21246 14.8437 7.25202 14.5863 7.2652C14.3289 7.27839 14.0715 7.32454 14.0187 7.37068C13.8735 7.48935 13.8867 7.68713 14.0451 7.78602C14.1177 7.83217 14.1771 7.91787 14.1771 7.97061C14.1771 8.02994 14.3157 8.14202 14.4939 8.22113C14.6655 8.30024 14.8767 8.41231 14.9691 8.45846C15.2859 8.64305 15.8799 8.84743 15.9855 8.80787C16.0449 8.7815 16.0713 8.72217 16.0515 8.66283C16.0251 8.59691 16.0515 8.56394 16.1505 8.56394C16.3089 8.56394 16.3287 8.62987 16.2099 8.75513C16.1439 8.82105 16.1439 8.85402 16.2033 8.8738C16.2429 8.88698 16.3419 8.9595 16.4211 9.02543C16.5069 9.09794 16.6785 9.17046 16.8105 9.19024C16.9425 9.21002 17.1405 9.26935 17.2461 9.32209C17.3583 9.37483 17.5497 9.44076 17.6751 9.46054C17.8005 9.48691 18.0051 9.55943 18.1173 9.63194C18.2757 9.72424 18.4737 9.7638 18.8433 9.77039C19.1469 9.77698 19.3845 9.81654 19.4241 9.86268C19.5363 9.99454 20.1633 10.1989 20.3481 10.1659C20.4537 10.1396 20.5659 10.1725 20.6451 10.2451C20.7177 10.311 20.8761 10.3571 21.0213 10.3571C21.1599 10.3571 21.3645 10.4099 21.4767 10.4824C21.6615 10.5945 22.2621 10.7263 23.1795 10.8516C23.3181 10.8714 23.4897 10.9439 23.5557 11.0098C23.6217 11.0757 23.7471 11.1416 23.8263 11.1614C23.9121 11.1746 24.2289 11.2339 24.5391 11.2933C24.8493 11.3526 25.1661 11.3988 25.2387 11.3988C25.3179 11.3988 25.4169 11.4383 25.4565 11.4911C25.5159 11.5636 25.8657 11.6493 26.2881 11.6888C26.3277 11.6954 26.4465 11.7284 26.5521 11.7745C26.6643 11.8207 27.0933 11.9328 27.5091 12.0251C27.9249 12.1174 28.3473 12.2426 28.4463 12.2954C28.5387 12.3415 28.7169 12.3876 28.8357 12.3876C28.9611 12.3876 29.2515 12.4602 29.4891 12.5459C29.7267 12.6382 30.1557 12.7568 30.4461 12.8162C30.9675 12.9282 31.6341 13.1392 31.7661 13.2381C31.7991 13.2711 32.0367 13.3634 32.2875 13.4491C32.6241 13.5677 32.8221 13.6864 33.0531 13.9237C33.3963 14.2599 33.4821 14.4511 33.5481 15.0379C33.5811 15.3675 33.5679 15.473 33.4029 15.829C33.0663 16.5805 32.3403 17.1014 32.0697 16.7783C32.0235 16.719 31.9245 16.6728 31.8651 16.6728C31.7397 16.6728 31.3371 16.3168 31.3371 16.2048C31.3371 16.1718 31.2843 16.1454 31.2183 16.1454C31.1523 16.1454 30.9609 16.0531 30.7893 15.9476C30.6177 15.8356 30.4395 15.7499 30.3933 15.7499C30.3471 15.7499 30.2811 15.7235 30.2415 15.6971C30.2085 15.6642 30.0369 15.5851 29.8521 15.5257C29.6739 15.4598 29.3835 15.3411 29.2185 15.2554C29.0469 15.1763 28.7499 15.084 28.5585 15.0576C28.3605 15.0379 28.0569 14.9456 27.8721 14.8599C27.1593 14.5171 26.9349 14.4314 26.7633 14.4314C26.6709 14.4314 26.5125 14.3984 26.4069 14.3588C26.3079 14.3193 26.1165 14.2731 25.9911 14.2599C25.8657 14.2468 25.6281 14.1611 25.4631 14.0754C25.2981 13.9896 25.0011 13.9039 24.7965 13.8776C24.5919 13.8578 24.3411 13.7919 24.2355 13.7391C24.1299 13.6864 23.9847 13.6402 23.9121 13.6402C23.7339 13.6402 23.3511 13.5018 23.1333 13.3568C23.0409 13.2974 22.9089 13.2447 22.8495 13.2447C22.7835 13.2447 22.6449 13.2183 22.5327 13.1788C22.4205 13.1458 22.1499 13.0667 21.9321 13.0074C21.7143 12.9546 21.2655 12.7964 20.9289 12.6711C20.5989 12.5459 20.2953 12.4536 20.2689 12.4734C20.2359 12.4931 20.1237 12.4734 20.0181 12.4206C19.6155 12.2492 19.0083 12.058 18.8367 12.058C18.7377 12.058 18.5463 11.9855 18.4143 11.8932C18.2823 11.8009 18.0843 11.7284 17.9787 11.7284C17.8731 11.7284 17.7213 11.6691 17.6421 11.5965C17.5629 11.5174 17.3781 11.4383 17.2395 11.4185C16.8897 11.3658 15.7149 10.7856 15.4905 10.5615C15.4509 10.5219 15.3717 10.5022 15.3255 10.5219C15.2727 10.5417 15.2133 10.5088 15.1935 10.4494C15.1539 10.3439 14.6127 9.95498 14.2365 9.7638C14.1441 9.71105 13.9791 9.59239 13.8669 9.50009C13.6689 9.32209 13.2531 8.73535 13.2531 8.63646C13.2531 8.6035 13.2069 8.54417 13.1541 8.49802C13.0815 8.43868 13.0551 8.28705 13.0551 7.96402C13.0551 7.54209 13.1013 7.37068 13.2927 7.11357C13.3323 7.06083 13.3851 6.93557 13.4115 6.83009C13.4445 6.68505 13.4907 6.65209 13.6491 6.65209C13.7613 6.65209 13.8471 6.62572 13.8471 6.59276C13.8471 6.50705 14.0121 6.47409 14.4147 6.46091C14.6853 6.45431 14.7975 6.48728 14.9889 6.63231ZM42.6231 7.25202C42.6231 7.27839 42.4911 7.23224 42.3327 7.15313C42.1743 7.08061 42.0555 6.99491 42.0687 6.96854C42.1017 6.9158 42.6231 7.1795 42.6231 7.25202ZM85.4043 14.4314C85.5429 14.7016 85.6551 14.9522 85.6551 14.9851C85.6551 15.0181 85.7079 15.1104 85.7739 15.1829C85.8465 15.262 85.9653 15.4994 86.0511 15.7169C86.1369 15.9345 86.2887 16.2509 86.3943 16.4157C86.4933 16.5805 86.6121 16.8772 86.6451 17.0684C86.6847 17.2596 86.7837 17.5694 86.8695 17.7606C87.0675 18.1628 87.1467 18.9671 87.0741 19.7977C87.0345 20.3119 87.0081 20.3976 86.7639 20.7536C86.5659 21.0503 86.4405 21.169 86.2557 21.2283C86.1237 21.2745 85.8267 21.4063 85.5891 21.5316C84.7971 21.9403 83.9853 21.8744 82.7049 21.2811C82.2099 21.0569 82.1307 21.1228 82.3287 21.6041C82.4211 21.8414 82.4211 21.9337 82.3221 22.6325C82.2231 23.3577 81.9987 24.0499 81.8337 24.1554C81.7941 24.1752 81.7611 24.2543 81.7611 24.3268C81.7611 24.4059 81.6819 24.5048 81.5565 24.5708C81.4443 24.6301 81.2463 24.7619 81.1209 24.8608C80.8965 25.0322 80.8767 25.0388 80.0451 25.0191C79.3917 25.0059 79.1607 24.9795 79.0749 24.9004C79.0089 24.8476 78.7845 24.729 78.5667 24.6433C78.2763 24.5246 78.0387 24.3466 77.6295 23.9445C77.3259 23.6478 77.0751 23.3775 77.0751 23.3445C77.0751 23.272 76.6725 22.6325 76.5273 22.4743C76.3359 22.2633 76.1643 21.9667 76.1181 21.7689C76.0983 21.6502 76.0455 21.5382 76.0125 21.5184C75.9795 21.492 75.9531 21.3931 75.9531 21.2876C75.9531 21.1822 75.9267 21.0767 75.8871 21.0569C75.8541 21.0371 75.8211 20.958 75.8211 20.8921C75.8211 20.78 75.7617 20.5756 75.5571 19.923C75.4779 19.6856 75.4449 18.4462 75.5175 18.3342C75.5439 18.2946 75.5439 18.1891 75.5241 18.1034C75.4977 17.9979 75.5109 17.932 75.5769 17.9056C75.6297 17.8859 75.6891 17.7342 75.7089 17.5628C75.7749 17.1079 76.1775 16.4553 76.7385 15.8817C77.4051 15.2027 77.7879 14.9126 78.0651 14.8731C78.1905 14.8533 78.4545 14.8005 78.6525 14.7544C78.9231 14.6951 79.0353 14.6951 79.1277 14.7478C79.1937 14.7939 79.4115 14.8269 79.6029 14.8269C79.9197 14.8269 79.9791 14.8533 80.1771 15.0576C80.3025 15.1829 80.4411 15.2884 80.4873 15.2884C80.5335 15.2884 80.6523 15.4532 80.7447 15.651C80.8437 15.8554 80.9427 16.0334 80.9757 16.0531C81.0813 16.1125 81.0417 16.7388 80.9229 16.9497C80.7249 17.2794 79.9527 17.6617 79.4709 17.6617C79.2069 17.6617 79.0947 17.4771 79.0287 16.9365C78.9429 16.2443 78.4941 15.8356 77.9331 15.9213C77.7153 15.9542 77.6031 16.0334 77.3391 16.33C77.0487 16.6596 77.0091 16.7256 77.0157 16.9959C77.0157 17.1607 77.0091 17.3716 77.0025 17.4639C76.9893 17.7474 77.0883 18.3474 77.1741 18.4528C77.2137 18.5056 77.2929 18.6968 77.3391 18.8814C77.3853 19.0594 77.4645 19.2703 77.5173 19.3428C77.5635 19.4154 77.6031 19.5274 77.6031 19.5999C77.6031 19.8373 77.7681 20.1999 77.9397 20.3449C78.0321 20.424 78.1443 20.6152 78.1971 20.7734C78.2433 20.9316 78.3555 21.1294 78.4413 21.2283C78.5271 21.3206 78.5931 21.4261 78.5931 21.4722C78.5931 21.5118 78.6525 21.5777 78.7251 21.6173C78.7977 21.6568 78.8571 21.7293 78.8571 21.7821C78.8571 21.8348 78.9165 21.9073 78.9891 21.9469C79.0617 21.9865 79.1409 22.0919 79.1607 22.1776C79.1805 22.2633 79.2597 22.3556 79.3257 22.3754C79.3917 22.4018 79.4775 22.4677 79.5171 22.5336C79.5501 22.5996 79.7415 22.738 79.9395 22.8369C80.2563 22.9951 80.3553 23.0149 80.6787 22.9819C81.2265 22.9226 81.3849 22.7512 81.4179 22.1645C81.4575 21.314 81.4509 21.2019 81.3321 21.136C81.2595 21.0965 81.2331 21.0305 81.2595 20.9185C81.3057 20.7536 81.0285 19.89 80.8767 19.712C80.8305 19.6527 80.7579 19.5076 80.7183 19.389C80.6787 19.2703 80.5863 19.0923 80.5203 18.9934C80.2035 18.5385 80.2233 18.3342 80.6259 17.9452C80.8239 17.754 80.8833 17.7342 81.4641 17.6947C82.2429 17.6354 82.5135 17.7211 82.7247 18.0968C82.8039 18.2353 82.9359 18.3803 83.0217 18.4133C83.2461 18.5056 83.2527 18.5188 83.1471 18.5847C82.9887 18.6836 84.0645 19.6856 84.6123 19.9559C85.1139 20.1933 85.3911 20.2196 85.7145 20.0482C86.0577 19.8768 86.2161 19.6197 86.2029 19.2769C86.1963 19.1121 86.1699 18.9473 86.1435 18.9011C86.1105 18.855 86.0841 18.7231 86.0775 18.6176C86.0445 18.1298 85.9059 17.5694 85.7871 17.4178C85.7145 17.3255 85.6551 17.1673 85.6551 17.0684C85.6551 16.9695 85.5957 16.8376 85.5297 16.7783C85.4571 16.7124 85.3779 16.5674 85.3515 16.4619C85.3317 16.3498 85.2393 16.1388 85.1535 15.9872C85.0677 15.8422 84.9093 15.5257 84.7971 15.2884C84.6849 15.0576 84.5661 14.8467 84.5397 14.8269C84.5067 14.8071 84.4605 14.7016 84.4407 14.583C84.4011 14.4116 84.4275 14.3259 84.5727 14.1347C84.7179 13.9369 84.7905 13.9039 84.9555 13.9171C85.1271 13.9369 85.1799 13.9962 85.4043 14.4314ZM20.9949 15.0115C21.0939 15.1763 21.1071 15.2488 21.0477 15.3082C21.0081 15.3477 20.9751 15.5059 20.9751 15.6576C20.9751 15.8224 20.9355 15.9674 20.8761 16.0136C20.8233 16.0597 20.7771 16.1388 20.7771 16.185C20.7771 16.2839 20.3745 17.0156 19.9257 17.7408C19.7805 17.9848 19.6551 18.2221 19.6551 18.2682C19.6551 18.3144 19.5495 18.4265 19.4241 18.5122C19.2987 18.5979 19.1931 18.7034 19.1931 18.7429C19.1931 18.7825 19.0347 18.9868 18.8433 19.1912C18.4539 19.6197 17.9391 20.2724 17.9391 20.3317C17.9391 20.3911 17.4111 20.8921 17.3451 20.8921C17.3187 20.8921 17.2725 20.9712 17.2527 21.0635C17.2263 21.1624 17.0613 21.3733 16.8765 21.5316C16.6983 21.6964 16.5531 21.8678 16.5531 21.9139C16.5531 21.9865 16.2957 22.3622 16.0647 22.6193C16.0053 22.6853 15.9591 22.7644 15.9591 22.8039C15.9591 22.8369 15.8535 22.9358 15.7281 23.0149C15.6027 23.1006 15.4641 23.2391 15.4179 23.3313C15.2991 23.5687 14.9955 23.9642 14.5929 24.4059C14.4015 24.6169 14.1969 24.8938 14.1441 25.0191C14.0715 25.1905 14.0121 25.2432 13.8867 25.2432C13.7481 25.2432 13.7151 25.2762 13.7151 25.4014C13.7151 25.4937 13.6359 25.6124 13.5171 25.7047C13.4115 25.7838 13.3059 25.9025 13.2861 25.9618C13.2729 26.0211 13.1871 26.1002 13.1079 26.1332C13.0287 26.1728 12.9099 26.3046 12.8373 26.4299C12.7713 26.5551 12.6327 26.7331 12.5337 26.8254C12.4347 26.9177 12.2961 27.0891 12.2301 27.2012C12.1311 27.3726 12.0387 27.4253 11.7813 27.4847C11.5965 27.5242 11.4183 27.5242 11.3523 27.4913C11.2929 27.4649 11.1081 27.4188 10.9497 27.399C10.7583 27.3726 10.6065 27.3067 10.5075 27.1946C10.4217 27.1089 10.2501 26.9507 10.1181 26.8518C9.96626 26.7397 9.88706 26.6211 9.88706 26.5222C9.88706 26.4365 9.82766 26.3046 9.75506 26.2321C9.68246 26.1596 9.62306 26.0475 9.62306 25.9816C9.62306 25.9156 9.60326 25.8365 9.57686 25.8102C9.47786 25.7113 9.57686 25.2234 9.76166 24.8608C9.93986 24.5246 10.0059 24.4719 10.4217 24.2741C10.6725 24.1488 11.0025 23.9313 11.1543 23.7928C11.2995 23.6478 11.4645 23.5291 11.5107 23.5291C11.5569 23.5291 11.6163 23.4566 11.6427 23.3709C11.6625 23.2786 11.7417 23.1929 11.8341 23.1731C11.9265 23.1468 12.0849 23.0149 12.2037 22.8699C12.3159 22.7314 12.4941 22.5864 12.5997 22.5468C12.7053 22.5139 12.7911 22.4413 12.7911 22.3886C12.7911 22.2963 13.1937 21.8678 13.9989 21.0965C14.2431 20.8657 14.4609 20.6086 14.4807 20.5229C14.5005 20.4372 14.5599 20.3647 14.5995 20.3647C14.7249 20.3647 15.2925 19.7977 15.3321 19.6263C15.3585 19.5406 15.4707 19.4285 15.5829 19.3692C15.7017 19.3099 15.7941 19.211 15.7941 19.1451C15.7941 19.0791 15.8403 19.0132 15.8931 18.9934C15.9459 18.9736 16.0383 18.9143 16.0977 18.855C16.1505 18.7956 16.2957 18.677 16.4079 18.5847C16.5267 18.4924 16.6191 18.4001 16.6191 18.3737C16.6191 18.3474 16.7511 18.1825 16.9161 18.0111C17.0811 17.8463 17.2131 17.6683 17.2131 17.6288C17.2131 17.5892 17.3121 17.5035 17.4375 17.4442C17.5893 17.3716 17.6883 17.2662 17.7477 17.1079C17.7939 16.9761 17.8533 16.8706 17.8797 16.8706C17.9655 16.8706 18.5991 16.3168 18.5991 16.2377C18.5991 16.1916 18.6783 16.0927 18.7773 16.0136C18.8763 15.9345 19.1667 15.6774 19.4241 15.4334C20.1633 14.728 20.7441 14.5764 20.9949 15.0115ZM63.8553 16.719C64.1721 16.9036 64.2249 16.9959 64.5087 17.8265C64.5945 18.0771 64.7265 18.3671 64.8057 18.4726C64.8783 18.5781 64.9245 18.6968 64.9113 18.7495C64.8915 18.7956 64.9179 18.8879 64.9641 18.9605C65.0103 19.033 65.1093 19.2967 65.1687 19.5472C65.2347 19.7977 65.3535 20.0944 65.4393 20.2131C65.5251 20.3251 65.5911 20.5097 65.5911 20.6218C65.5911 20.7273 65.6241 20.8394 65.6571 20.8591C65.6967 20.8789 65.7231 21.0042 65.7231 21.1294C65.7231 21.2547 65.7693 21.4656 65.8287 21.6041C65.8881 21.7359 65.9409 21.9337 65.9475 22.0392C65.9541 22.1447 66.0135 22.2633 66.0729 22.3095C66.1323 22.3556 66.1851 22.4743 66.1851 22.5864C66.1851 22.6919 66.2313 22.8369 66.2841 22.9094C66.3369 22.9753 66.3831 23.1006 66.3831 23.1797C66.3831 23.2588 66.4425 23.4236 66.5151 23.5489C66.6405 23.7533 66.7131 24.0236 66.8385 24.696C66.8913 24.9927 67.1619 25.441 67.2873 25.441C67.3731 25.441 67.4655 25.2102 67.4127 25.1245C67.3929 25.0916 67.3995 24.7949 67.4259 24.4587C67.4523 24.1291 67.4523 23.8192 67.4259 23.7731C67.3995 23.7335 67.4193 23.6544 67.4655 23.5951C67.5183 23.5423 67.5711 23.3907 67.5975 23.2588C67.6569 22.9292 68.0859 22.0919 68.3631 21.7689C68.6205 21.4722 69.2211 21.1558 69.5313 21.1558C69.9075 21.1558 70.4949 21.4129 70.7853 21.6964C70.9437 21.848 71.0691 22.0062 71.0691 22.0524C71.0691 22.0919 71.1153 22.2172 71.1681 22.3161C71.3595 22.6853 71.2605 22.8633 70.8711 22.8633C70.7457 22.8633 70.4157 22.8765 70.1451 22.9028C69.8745 22.9226 69.4719 22.9424 69.2541 22.9424C68.6535 22.949 68.6271 22.9753 68.3961 23.8258C68.3367 24.0433 68.2641 24.3071 68.2311 24.4191C68.1981 24.5246 68.1783 24.8213 68.1915 25.0784C68.2047 25.3289 68.1849 25.5926 68.1453 25.6651C68.0661 25.8233 68.0397 26.6276 68.1123 26.7727C68.1453 26.8386 68.1387 27.0034 68.1057 27.1551C68.0727 27.3199 68.0727 27.5111 68.1123 27.6693C68.1453 27.8011 68.1915 27.9989 68.2113 28.111C68.2311 28.2165 68.2839 28.3549 68.3301 28.4076C68.3763 28.4604 68.4291 28.5856 68.4555 28.6845C68.4753 28.79 68.5149 28.9482 68.5347 29.0471C68.5611 29.1526 68.6139 29.2779 68.6601 29.3306C68.7789 29.4691 68.9901 30.0228 69.0891 30.4382C69.1287 30.6228 69.2211 30.8931 69.2871 31.0315C69.6039 31.7105 69.2541 32.5016 68.4885 32.8115C68.0991 32.9697 68.0793 32.9697 67.8351 32.8576C67.6965 32.7983 67.5513 32.6796 67.5117 32.6005C67.4721 32.528 67.3797 32.383 67.3071 32.2907C67.2279 32.1984 67.1421 31.9611 67.1091 31.7633C67.0827 31.5655 66.9903 31.2425 66.9111 31.0447C66.8319 30.8469 66.7395 30.5766 66.6999 30.4513C66.6669 30.3261 66.6075 30.1942 66.5745 30.1613C66.5415 30.1217 66.5151 30.0492 66.5151 29.9899C66.5151 29.9305 66.4425 29.7328 66.3501 29.5548C66.2577 29.3768 66.1983 29.1922 66.2181 29.146C66.2313 29.0999 66.1917 29.0142 66.1191 28.9548C66.0465 28.8889 65.9871 28.79 65.9871 28.7241C65.9871 28.6648 65.9541 28.5922 65.9211 28.5725C65.8815 28.5461 65.8617 28.4538 65.8683 28.3549C65.8815 28.1967 65.4855 27.0957 65.3205 26.8254C65.2875 26.7727 65.2347 26.654 65.1951 26.5617C65.1621 26.4694 65.0895 26.3112 65.0301 26.2123C64.9773 26.1068 64.9311 25.975 64.9311 25.9156C64.9311 25.8563 64.8849 25.7442 64.8321 25.6783C64.7793 25.6058 64.7331 25.4871 64.7331 25.4146C64.7331 25.3421 64.6869 25.2366 64.6341 25.1773C64.5417 25.0718 64.2975 24.4521 64.2249 24.1225C64.2051 24.0302 64.1457 23.9115 64.0995 23.8588C63.9741 23.7137 63.7431 23.1863 63.7431 23.0479C63.7431 22.9753 63.6837 22.8501 63.6111 22.7578C63.5385 22.6655 63.4791 22.5336 63.4791 22.4677C63.4791 22.4084 63.4065 22.2963 63.3207 22.2238C63.2085 22.1381 63.1491 22.0062 63.1161 21.7953C63.0831 21.5843 63.0039 21.4129 62.8719 21.2745C62.7663 21.1624 62.6937 21.0305 62.7135 20.9844C62.7333 20.9382 62.6607 20.7932 62.5551 20.6482C62.4495 20.5097 62.3571 20.3383 62.3571 20.2724C62.3571 20.0878 62.0931 19.5736 62.0073 19.5736C61.9611 19.5736 61.8687 19.4417 61.8027 19.2901C61.7301 19.1385 61.6311 18.9802 61.5783 18.9407C61.5057 18.8879 61.4859 18.7693 61.5123 18.4792C61.5387 18.0968 61.7367 17.5299 61.8423 17.5299C61.8687 17.5299 61.8951 17.4705 61.8951 17.4046C61.8951 17.1805 61.9677 17.0684 62.1195 17.0684C62.1987 17.0684 62.3109 17.0091 62.3769 16.9365C62.4363 16.864 62.5287 16.8047 62.5749 16.8047C62.6277 16.8047 62.7201 16.7454 62.7861 16.6728C62.9709 16.4751 63.4725 16.4948 63.8553 16.719ZM39.5211 18.8682C39.8511 18.9605 40.4583 19.4945 40.5441 19.7714C40.5705 19.8636 40.6299 19.9823 40.6827 20.0351C40.7949 20.1669 40.8081 20.5756 40.7091 20.9778C40.6167 21.347 40.6893 21.4854 40.9665 21.4854C41.2107 21.4854 41.9829 21.3206 42.1545 21.2283C42.3459 21.1228 43.0785 20.8921 43.2105 20.8921C43.3689 20.8921 43.7253 21.1294 43.8507 21.314C44.0157 21.5711 43.9233 21.8876 43.5537 22.3293C43.2633 22.6721 43.2039 22.7116 42.8475 22.7842C42.6363 22.8303 42.1941 22.8831 41.8641 22.9094C41.5407 22.9358 41.2173 22.9885 41.1513 23.0347C41.0655 23.094 40.9797 23.1006 40.8543 23.0545C40.7355 23.0083 40.6167 23.0083 40.5045 23.0545C40.3527 23.1138 40.3197 23.1797 40.2471 23.6412C40.1943 23.9247 40.1481 24.2873 40.1415 24.4521C40.1349 24.6169 40.1151 24.8542 40.0887 24.9795C40.0689 25.1048 40.0359 25.3882 40.0161 25.6058C40.0029 25.8233 39.9765 26.0871 39.9567 26.1991C39.8907 26.5485 39.6729 28.434 39.6729 28.6384C39.6663 29.0603 39.5805 30.3788 39.5277 30.8799C39.4947 31.1699 39.4881 31.4468 39.5145 31.5062C39.5805 31.6248 39.5607 32.4555 39.4881 32.7126C39.4617 32.8181 39.4683 32.9302 39.5145 32.9829C39.5541 33.0291 39.5739 33.1213 39.5475 33.1807C39.5277 33.24 39.5409 33.3257 39.5805 33.3719C39.6201 33.418 39.6663 33.6356 39.6861 33.8531C39.7059 34.0641 39.7587 34.3673 39.7983 34.5124C39.8841 34.875 40.3197 35.2969 40.6497 35.3496C40.9335 35.3892 41.3757 35.2573 41.6397 35.0464C42.4119 34.4465 42.4977 34.3608 42.5373 34.1893C42.5571 34.0905 42.6297 33.9784 42.6957 33.9454C42.7617 33.9059 42.8343 33.8136 42.8607 33.7345C42.8871 33.6488 42.9729 33.4905 43.0587 33.3785C43.1445 33.2664 43.2171 33.1279 43.2171 33.0752C43.2171 32.9236 43.4151 32.5478 43.5933 32.3566C43.6857 32.2577 43.7517 32.1259 43.7385 32.0599C43.7253 31.9479 43.9827 31.3018 44.2203 30.8535C44.2665 30.7678 44.4183 30.6557 44.5569 30.6096C44.7813 30.5305 44.8341 30.5371 44.9793 30.6293C45.1179 30.7216 45.1377 30.7744 45.1047 30.9722C45.0255 31.5259 44.9793 31.6908 44.8275 31.9808C44.7351 32.1588 44.6823 32.3236 44.7021 32.3632C44.7219 32.4028 44.6955 32.4753 44.6427 32.5346C44.5833 32.5873 44.5371 32.6796 44.5371 32.739C44.5371 32.7917 44.4513 32.9499 44.3391 33.0884C44.2335 33.2268 44.1411 33.3982 44.1411 33.4708C44.1411 33.5499 44.1147 33.6224 44.0817 33.6422C44.0487 33.6619 43.9563 33.807 43.8771 33.9586C43.7979 34.1168 43.6197 34.3542 43.4745 34.486C43.3359 34.6245 43.2171 34.7695 43.2171 34.8025C43.2171 34.842 43.1445 34.9013 43.0587 34.9475C42.9663 34.9871 42.8871 35.0793 42.8739 35.1519C42.8607 35.2244 42.7947 35.3167 42.7287 35.3562C42.5967 35.4353 42.5373 35.4749 42.1413 35.7979C41.9763 35.943 41.7189 36.0485 41.3163 36.1539C40.8279 36.2792 40.6629 36.2924 40.1811 36.2528C39.8709 36.2199 39.5013 36.1539 39.3561 36.0946C39.2109 36.0419 39.0459 35.9957 38.9865 35.9891C38.8677 35.9891 38.2737 35.554 38.0361 35.3035C37.9437 35.2046 37.8117 35.0002 37.7457 34.8486C37.6731 34.697 37.5543 34.5124 37.4817 34.4465C37.4025 34.3739 37.3431 34.2816 37.3431 34.2289C37.3431 34.1234 37.1385 33.5037 36.9735 33.1213C36.9141 32.9763 36.8547 32.6994 36.8415 32.5082C36.8283 32.3171 36.7359 31.9215 36.6435 31.6314C36.5181 31.2491 36.4851 31.0315 36.5181 30.8601C36.5511 30.6557 36.5973 30.2536 36.6237 29.858C36.6303 29.8053 36.6633 29.5482 36.6963 29.2976C36.7887 28.6384 36.8151 28.3879 36.8415 27.7154C36.8547 27.3858 36.9009 27.0364 36.9405 26.9309C36.9801 26.832 37.0329 26.4299 37.0527 26.0409C37.0725 25.6585 37.1121 25.2828 37.1451 25.2102C37.2243 25.0256 37.3431 24.1818 37.3431 23.8324C37.3431 23.6346 37.3695 23.5291 37.4223 23.5291C37.4685 23.5291 37.4421 23.4632 37.3629 23.3841C37.2243 23.2522 37.1913 23.2456 36.8811 23.3182C36.6963 23.3643 36.4587 23.3973 36.3531 23.3973C36.2541 23.3973 36.1353 23.4434 36.0891 23.4962C35.9703 23.6412 35.8053 23.6148 35.6535 23.4434C35.4423 23.2061 35.4159 23.0676 35.5347 22.8765C35.8119 22.4611 36.2211 22.2106 36.6303 22.2106C37.0395 22.2106 37.6335 21.9073 37.6599 21.6832C37.7061 21.3272 37.7391 20.9712 37.7655 20.6284C37.7787 20.4306 37.8051 20.2131 37.8381 20.1537C37.8645 20.0878 37.8513 19.9428 37.8117 19.8307C37.7061 19.5208 37.7193 19.3626 37.8909 19.1648C38.1615 18.8286 38.8875 18.6968 39.5211 18.8682ZM47.5533 20.0416C48.0681 20.1603 48.2595 20.2856 48.4971 20.6482C48.9327 21.314 48.9855 21.9403 48.6489 22.5007C48.4575 22.8171 48.2793 22.916 47.6061 23.0676C47.0187 23.1995 46.5501 23.1863 46.3389 23.0281C46.1013 22.8501 45.9231 22.1908 45.9033 21.4195C45.8835 20.6613 45.9825 20.4965 46.6491 20.1999C47.2431 19.9428 47.1705 19.9494 47.5533 20.0416ZM22.2093 21.4525C22.5789 21.492 22.6581 21.5316 22.9221 21.7755C23.2455 22.0853 23.2587 22.1183 23.1267 22.3095C22.9683 22.5402 22.9353 22.738 23.0475 22.738C23.1069 22.738 23.1531 22.7116 23.1531 22.6853C23.1531 22.593 23.5161 22.5007 23.8131 22.5205C23.9781 22.5336 24.2355 22.5534 24.3939 22.56C24.5721 22.5666 24.7107 22.6128 24.7635 22.6853C24.8097 22.7446 24.9285 22.8171 25.0407 22.8435C25.1463 22.8699 25.2717 22.916 25.3179 22.9556C25.4037 23.0215 25.7271 23.661 25.7271 23.7599C25.7271 23.7928 25.7733 23.8653 25.8261 23.9247C25.9119 24.017 25.9185 24.1159 25.8657 24.4851C25.8261 24.7685 25.8261 24.9795 25.8657 25.052C25.9053 25.1245 25.8987 25.1839 25.8591 25.2102C25.8261 25.23 25.7931 25.3025 25.7931 25.3619C25.7931 25.4212 25.7469 25.5596 25.6875 25.6717C25.6347 25.7772 25.5819 26.0145 25.5687 26.1991C25.5555 26.4431 25.4499 26.7265 25.1727 27.2869C24.6777 28.2692 24.6249 28.3615 24.5193 28.4406C24.4731 28.4736 24.2751 28.7373 24.0837 29.0208C23.6877 29.5877 23.6811 29.7393 24.0507 29.9173C24.1563 29.9635 24.3213 30.0492 24.4203 30.1019C24.5787 30.1811 24.6513 30.1811 24.9615 30.0953C25.1595 30.0492 25.4103 29.9437 25.5159 29.8646C25.6281 29.7855 25.7337 29.7262 25.7667 29.7262C25.8591 29.7262 26.9151 28.5725 26.9547 28.4208C27.0075 28.2428 26.9019 28.1044 26.6775 28.0516C26.5455 28.0187 26.5191 27.9791 26.5521 27.8934C26.5785 27.8341 26.6181 27.7088 26.6313 27.6165C26.6511 27.5242 26.7237 27.3331 26.7897 27.1814C26.8557 27.0364 26.9151 26.8716 26.9151 26.8188C26.9151 26.7661 26.9745 26.687 27.0537 26.6408C27.1527 26.5749 27.1725 26.5288 27.1197 26.4694C27.0735 26.4101 27.0867 26.3573 27.1725 26.2848C27.3573 26.1266 27.4233 25.4146 27.2847 25.0916C27.2319 24.9531 27.1395 24.8279 27.0801 24.8081C27.0273 24.7883 26.9811 24.7356 26.9811 24.7026C26.9811 24.6631 26.9415 24.5444 26.8887 24.4323C26.7435 24.1093 26.7105 23.6742 26.8227 23.5621C26.8887 23.5028 26.8953 23.4236 26.8557 23.3182C26.8161 23.2061 26.8425 23.094 26.9547 22.8699C27.0405 22.7051 27.1263 22.5271 27.1527 22.4743C27.2451 22.2502 27.7005 21.9667 28.0437 21.9205C28.3341 21.881 28.4001 21.8942 28.5123 22.0062C28.5783 22.0853 28.6575 22.1447 28.6905 22.1447C28.7169 22.1447 28.8159 22.3425 28.9083 22.5864C29.2053 23.3841 29.2317 23.5159 29.1657 23.6412C29.1327 23.7071 29.0667 23.9313 29.0205 24.1488C28.9479 24.4916 28.9479 24.5378 29.0469 24.5971C29.1063 24.6301 29.1591 24.696 29.1591 24.7422C29.1591 24.7949 29.2119 24.8542 29.2779 24.8806C29.4099 24.9399 30.8883 25.0586 31.3701 25.052C31.5549 25.0454 31.8651 25.0982 32.0631 25.1641C32.3733 25.2696 32.4525 25.3355 32.6109 25.6124C32.8287 25.975 32.8287 26.2057 32.6043 26.6936C32.5317 26.8584 32.4459 27.0957 32.4261 27.221C32.3997 27.3462 32.3403 27.5111 32.2941 27.5836C32.2545 27.6561 32.1951 27.8539 32.1687 28.0253C32.1423 28.1967 32.0961 28.3549 32.0631 28.3747C32.0301 28.3945 32.0037 28.5395 32.0103 28.6977C32.0103 28.8493 31.9839 29.0339 31.9443 29.1065C31.8321 29.3042 31.7265 29.7789 31.6605 30.3393C31.6275 30.6228 31.5879 30.8799 31.5681 30.9128C31.5483 30.9458 31.5681 31.0381 31.6077 31.1304C31.6671 31.2556 31.6539 31.3348 31.5681 31.5062C31.5021 31.6248 31.4559 31.8622 31.4625 32.027C31.4625 32.1918 31.4691 32.4159 31.4691 32.528C31.4757 32.6335 31.4691 32.9368 31.4625 33.2005C31.4493 33.7608 31.6011 34.0971 31.8717 34.13C32.0895 34.1564 32.6307 33.7938 32.6835 33.5828C32.7099 33.4905 32.7561 33.418 32.7891 33.418C32.9475 33.418 33.7791 32.2973 33.7791 32.0731C33.7791 32.0204 33.8385 31.9545 33.9111 31.9347C33.9837 31.9149 34.0431 31.8424 34.0431 31.7831C34.0431 31.7303 34.0959 31.6182 34.1685 31.5457C34.2939 31.4007 34.7823 30.4909 34.8945 30.1745C35.0001 29.8976 35.2443 29.7723 35.5875 29.8185C35.7459 29.8448 35.9307 29.9239 35.9967 29.9965C36.1023 30.1085 36.1023 30.1349 36.0099 30.2074C35.9505 30.247 35.8581 30.4513 35.7921 30.6491C35.7327 30.8469 35.6139 31.1304 35.5215 31.2754C35.4357 31.4205 35.3169 31.6314 35.2641 31.7501C35.2113 31.8622 35.1387 31.9742 35.0991 32.0006C35.0595 32.027 34.9869 32.1456 34.9341 32.2775C34.8813 32.4028 34.6569 32.739 34.4391 33.0291C34.2213 33.3125 34.0431 33.5696 34.0431 33.6026C34.0431 33.6356 33.9705 33.6949 33.8781 33.7345C33.7857 33.774 33.7131 33.8531 33.7131 33.8993C33.7131 33.9454 33.4821 34.2223 33.2049 34.519C32.6835 35.0464 32.1225 35.4024 31.6209 35.5013C31.2711 35.5738 30.4263 35.3299 30.1623 35.0793C30.1161 35.0398 30.0369 35.0002 29.9973 35.0002C29.9511 35.0002 29.8455 34.9277 29.7531 34.8354C29.6607 34.7497 29.5023 34.5915 29.3901 34.4926C29.1987 34.308 28.9281 33.9784 28.6641 33.5828C28.4067 33.2071 28.2945 32.0006 28.4793 31.5655C28.5189 31.4732 28.5387 31.2622 28.5189 31.0908C28.4925 30.8931 28.5057 30.781 28.5519 30.781C28.6311 30.781 28.8291 30.1547 28.8291 29.9108C28.8291 29.8251 28.9083 29.6405 29.0007 29.502C29.0931 29.3636 29.1921 29.1262 29.2053 28.9746C29.2251 28.8296 29.2845 28.6252 29.3307 28.5263C29.3835 28.4274 29.4231 28.3022 29.4231 28.2362C29.4231 28.1769 29.4957 27.9791 29.5881 27.8011C29.7069 27.5638 29.7333 27.4451 29.6871 27.3858C29.6409 27.3265 29.6475 27.2803 29.7201 27.221C29.7795 27.1748 29.8125 27.0957 29.7927 27.0496C29.7729 27.0034 29.8059 26.9309 29.8587 26.8913C29.9115 26.8452 29.9511 26.7068 29.9511 26.5815C29.9511 26.3508 29.8785 26.2914 29.5947 26.2651C29.3637 26.2519 29.0271 26.0936 29.0271 26.0013C29.0271 25.9025 28.7499 25.8168 28.6047 25.8761C28.5453 25.8959 28.4991 25.9552 28.4991 26.0013C28.4991 26.0475 28.4397 26.1002 28.3671 26.12C28.2945 26.1398 28.2153 26.2057 28.1955 26.2782C28.1361 26.4628 28.0371 26.7068 27.9315 26.9111C27.8787 27.0166 27.8391 27.1419 27.8391 27.188C27.8391 27.2408 27.7797 27.3199 27.7005 27.3726C27.5949 27.4517 27.5685 27.5242 27.5883 27.722C27.6081 27.9396 27.6411 27.9923 27.8721 28.1044C28.2087 28.2824 28.2483 28.4736 27.9909 28.7373C27.5685 29.1658 27.3837 29.3899 27.2847 29.5877C27.2187 29.7064 27.0801 29.8316 26.9481 29.8844C26.8227 29.9371 26.7171 30.0096 26.7171 30.0492C26.7171 30.0822 26.5917 30.1811 26.4399 30.2733C26.2815 30.3656 26.0769 30.5173 25.9845 30.6096C25.8855 30.6953 25.6941 30.7942 25.5555 30.8205C25.4103 30.8469 25.2387 30.9062 25.1661 30.9524C24.9945 31.0776 24.3939 31.0711 23.8131 30.9392C23.4369 30.8535 23.3247 30.8008 23.2719 30.6755C23.1399 30.3986 22.6647 30.4316 22.2885 30.7546C22.1499 30.8733 21.6945 31.1304 21.1797 31.3743C20.7705 31.5655 20.7111 31.5721 20.0049 31.5655C19.4175 31.5589 19.2063 31.5259 19.0281 31.4336C18.9027 31.3611 18.7575 31.3084 18.7113 31.3084C18.6651 31.3084 18.5991 31.2556 18.5595 31.1897C18.5199 31.1304 18.3351 31.0183 18.1437 30.9458C17.9589 30.8733 17.7873 30.7678 17.7675 30.7019C17.7477 30.6359 17.6025 30.4909 17.4375 30.3854C17.2791 30.2733 17.1471 30.1415 17.1471 30.0953C17.1471 30.0492 17.0943 29.9635 17.0349 29.9042C16.9689 29.8448 16.8567 29.6866 16.7841 29.5482C16.7181 29.4097 16.6257 29.2515 16.5795 29.1988C16.4871 29.0801 16.4211 28.8493 16.3815 28.5395C16.3683 28.4142 16.3221 28.1901 16.2891 28.0451C16.1637 27.5638 16.1703 26.8254 16.3023 26.4628C16.3683 26.2782 16.4145 26.0871 16.4079 26.0343C16.3683 25.764 16.7247 24.8015 17.0877 24.1884C17.1207 24.1356 17.2131 23.9774 17.2923 23.8324C17.5563 23.3841 17.5695 23.3577 17.7543 23.1468C17.8533 23.0281 17.9589 22.9358 17.9919 22.9358C18.0315 22.9358 18.0711 22.8896 18.0975 22.8369C18.1173 22.7842 18.1635 22.738 18.2031 22.738C18.2361 22.738 18.4275 22.5864 18.6189 22.4018C18.8037 22.2172 19.1403 21.9799 19.3581 21.8678C19.5759 21.7557 19.8003 21.6305 19.8531 21.5843C19.9059 21.5382 20.1435 21.4788 20.3811 21.4525C20.6187 21.4261 20.9751 21.3865 21.1731 21.3602C21.3711 21.3338 21.5955 21.3338 21.6681 21.3602C21.7407 21.3865 21.9849 21.4261 22.2093 21.4525ZM76.0455 22.6787C76.1775 22.7776 76.2171 22.8699 76.2039 22.9951C76.1973 23.094 76.2237 23.2588 76.2633 23.3643C76.3095 23.4764 76.3557 23.8719 76.3755 24.2543C76.3953 24.6367 76.4283 25.0784 76.4481 25.2432C76.4943 25.5926 76.5009 26.4365 76.4481 26.7595C76.4349 26.8848 76.4085 27.1221 76.3887 27.2869C76.3293 28.0121 75.7419 29.2317 75.3591 29.4295C75.2601 29.4822 75.1611 29.5679 75.1413 29.6273C75.1149 29.68 75.0291 29.7262 74.9433 29.7262C74.8575 29.7262 74.7387 29.7789 74.6793 29.8448C74.5869 29.9503 74.5143 29.9569 74.1909 29.9108C73.9797 29.8778 73.7157 29.858 73.5969 29.858C73.3461 29.8646 72.9435 29.7064 72.7521 29.5284C72.6795 29.4625 72.5013 29.3768 72.3561 29.3372C72.2109 29.2976 71.9799 29.1922 71.8479 29.0999C71.7159 29.0076 71.5707 28.9351 71.5311 28.9351C71.4915 28.9351 71.3925 28.8691 71.3067 28.7834C71.1021 28.5922 70.8513 28.4011 70.4091 28.1044C70.2111 27.9659 70.0263 27.8341 70.0065 27.8011C69.9867 27.7682 69.7821 27.7088 69.5511 27.6627C69.2079 27.5902 69.0957 27.5308 68.9439 27.3528C68.7657 27.1353 68.7063 26.9573 68.8119 26.9573C68.8383 26.9573 68.9109 26.8122 68.9769 26.6342C69.1287 26.1925 69.3267 26.0739 69.8085 26.1266C70.0131 26.153 70.2903 26.2123 70.4289 26.2651C71.0229 26.5024 71.2011 26.5881 71.2011 26.6408C71.2011 26.6672 71.2407 26.6936 71.2935 26.6936C71.3463 26.6936 71.5113 26.7991 71.6631 26.9243C71.8149 27.0496 71.9799 27.1551 72.0261 27.1551C72.0723 27.1551 72.1581 27.2276 72.2175 27.3199C72.2769 27.4056 72.5079 27.6033 72.7323 27.755C72.9633 27.9132 73.2735 28.1373 73.4253 28.2626C73.7619 28.5329 74.3955 28.6911 74.7585 28.5922C75.1083 28.4933 75.3591 28.2033 75.3591 27.9C75.3591 27.755 75.3921 27.6099 75.4317 27.5704C75.4779 27.5242 75.5043 27.2605 75.5043 26.8848C75.4977 26.5353 75.5307 26.2321 75.5703 26.1859C75.6099 26.1398 75.6165 26.0541 75.5835 25.9882C75.5571 25.9222 75.5241 25.5399 75.5175 25.1443C75.5109 24.7422 75.4845 24.3466 75.4581 24.2543C75.4053 24.0368 75.2271 23.0545 75.2271 22.9688C75.2271 22.8369 75.5637 22.5402 75.7155 22.5402C75.8013 22.5402 75.9465 22.6062 76.0455 22.6787ZM10.7187 23.3775C10.6527 23.4434 10.5933 23.3445 10.6527 23.2588C10.6923 23.1863 10.7055 23.1863 10.7319 23.2588C10.7451 23.305 10.7385 23.3577 10.7187 23.3775ZM59.1627 25.1575C59.3607 25.2432 59.5191 25.3553 59.5191 25.3948C59.5257 25.441 59.6115 25.5794 59.7171 25.7047C59.8293 25.8299 59.9151 25.9684 59.9151 26.0145C59.9151 26.0607 59.9415 26.1002 59.9811 26.1002C60.0537 26.1002 60.3969 26.7661 60.4695 27.043C60.4893 27.1419 60.5421 27.221 60.5751 27.221C60.6147 27.221 60.6411 27.3067 60.6411 27.4122C60.6411 27.5176 60.6873 27.6363 60.7401 27.6825C60.7929 27.7286 60.8391 27.8209 60.8391 27.8934C60.8391 27.9593 60.8787 28.0846 60.9315 28.1637C60.9777 28.2428 61.0701 28.5461 61.1361 28.8362C61.2021 29.1262 61.2879 29.4097 61.3341 29.4625C61.3803 29.5152 61.4397 29.7064 61.4661 29.891C61.5387 30.4316 61.6245 30.6887 61.7631 30.8139C61.8423 30.8865 61.8819 30.9788 61.8621 31.0513C61.8423 31.1172 61.8555 31.2227 61.8885 31.2886C61.9215 31.3545 62.0205 31.671 62.0997 31.994C62.2515 32.5939 62.5947 33.1807 62.8323 33.24C62.9973 33.2862 63.4461 33.0422 63.5253 32.8708C63.6177 32.6665 63.8751 31.9149 63.9411 31.638C63.9741 31.5128 64.0665 31.1963 64.1457 30.9458C64.2381 30.6425 64.2975 30.2602 64.3107 29.8251C64.3239 29.4625 64.3635 28.8757 64.3965 28.5131C64.4361 28.1571 64.4625 27.8473 64.4559 27.8209C64.4427 27.6759 64.4955 27.6099 64.6803 27.5308C64.8717 27.4517 64.9245 27.4583 65.1093 27.5704C65.3073 27.6825 65.3799 27.8473 65.3205 28.0451C65.3139 28.078 65.3007 28.1835 65.2941 28.2758C65.2875 28.3681 65.2545 28.6911 65.2281 29.001C65.2017 29.3108 65.1753 29.68 65.1621 29.8251C65.1489 29.9701 65.1093 30.2206 65.0697 30.3854C65.0301 30.5502 65.0037 30.8535 64.9971 31.0645C64.9971 31.282 64.9575 31.5325 64.9047 31.6248C64.7265 31.9676 64.5021 32.5214 64.5219 32.5742C64.5351 32.6269 64.2777 33.2268 64.2051 33.2862C64.1853 33.3059 64.0137 33.5037 63.8157 33.7345C63.3273 34.3014 63.1425 34.3871 62.2911 34.4135C61.7301 34.4267 61.5519 34.4135 61.3341 34.3146C61.1889 34.2487 61.0041 34.163 60.9249 34.1234C60.8523 34.0905 60.6873 33.9322 60.5685 33.774C60.4497 33.6158 60.2847 33.4378 60.1989 33.3851C60.1131 33.3257 60.0471 33.2268 60.0471 33.1543C60.0471 33.0818 60.0207 33.0225 59.9877 33.0225C59.9547 33.0225 59.8953 32.9302 59.8557 32.8247C59.8227 32.7126 59.7435 32.5742 59.6841 32.5214C59.6313 32.4687 59.5851 32.3434 59.5851 32.2445C59.5851 32.1456 59.5389 32.0072 59.4861 31.9413C59.4333 31.8688 59.3871 31.7303 59.3871 31.6248C59.3871 31.5259 59.3607 31.4402 59.3211 31.4402C59.2881 31.4402 59.2551 31.3545 59.2551 31.2556C59.2551 31.1502 59.2089 31.0117 59.1561 30.9392C59.1033 30.8733 59.0571 30.6887 59.0571 30.5371C59.0571 30.3854 59.0307 30.2404 58.9911 30.2206C58.8987 30.1679 58.7733 29.6668 58.7865 29.3965C58.7865 29.2647 58.7205 29.0208 58.6215 28.8362C58.5291 28.6516 58.4367 28.3747 58.4169 28.2099C58.3971 28.0451 58.3575 27.8802 58.3245 27.8473C58.2981 27.8077 58.2783 27.6495 58.2783 27.4847C58.2783 26.8452 57.6513 26.3112 57.2487 26.6079C57.0309 26.7727 56.7471 27.2144 56.7471 27.399C56.7471 27.4847 56.7207 27.6033 56.6877 27.6693C56.5557 27.933 56.4171 28.4604 56.4171 28.7109C56.4171 28.8559 56.3907 29.001 56.3577 29.0405C56.2587 29.1328 56.1597 29.9042 56.1861 30.3525C56.2191 30.8535 56.2917 31.3084 56.3445 31.3084C56.3643 31.3084 56.3907 31.493 56.3973 31.7237C56.4171 32.2248 56.4435 32.4489 56.4963 32.528C56.5623 32.6401 56.6877 33.5828 56.6745 33.8597C56.6613 33.9982 56.6811 34.1564 56.7075 34.2025C56.7669 34.2948 56.7669 35.2639 56.7075 35.4815C56.5623 36.0485 55.1763 36.2462 54.9057 35.732C54.8661 35.6595 54.7869 35.198 54.7341 34.697C54.6747 34.2025 54.6153 33.7674 54.5955 33.7345C54.5757 33.7015 54.5427 33.5499 54.5295 33.3982C54.5097 33.2466 54.4437 32.9895 54.3777 32.8247C54.3051 32.6599 54.2325 32.3764 54.2193 32.1984C54.1797 31.8622 53.9751 31.1568 53.8893 31.0711C53.8629 31.0447 53.8431 30.926 53.8431 30.8073C53.8431 30.6887 53.7837 30.4052 53.7111 30.1745C53.6385 29.9503 53.5791 29.6932 53.5791 29.6207C53.5791 29.5416 53.5329 29.4427 53.4801 29.3965C53.4273 29.3504 53.3811 29.2581 53.3811 29.1922C53.3811 29.1262 53.3547 29.0537 53.3151 29.0339C53.2821 29.0142 53.2491 28.9351 53.2491 28.8691C53.2491 28.7966 53.2029 28.6054 53.1435 28.434C53.0841 28.2626 53.0247 28.0451 53.0115 27.9528C52.9917 27.8605 52.8927 27.6561 52.7871 27.4979C52.6221 27.2605 52.5891 27.1682 52.6155 26.9177C52.6485 26.5947 52.6815 26.5353 53.1369 26.0871C53.3943 25.8299 53.4999 25.7706 53.6847 25.7706C53.9883 25.7706 54.4107 25.9948 54.5295 26.2189C54.5823 26.3178 54.7011 26.476 54.7869 26.5683C54.8991 26.6804 54.9387 26.7925 54.9189 26.8979C54.8991 27.0034 54.9387 27.1089 55.0377 27.2078C55.1367 27.3199 55.1895 27.4715 55.2027 27.7022C55.2423 28.2231 55.5591 28.7702 55.5591 28.3153C55.5591 28.2296 55.6053 28.1242 55.6581 28.078C55.7373 28.0121 55.7505 27.9198 55.7175 27.7088C55.6845 27.4715 55.7043 27.3924 55.8561 27.1946C55.9485 27.0693 56.0607 26.865 56.0937 26.7331C56.1267 26.6079 56.2323 26.4101 56.3181 26.3046C56.4105 26.1991 56.4831 26.0739 56.4831 26.0211C56.4831 25.8827 57.1761 25.2432 57.4929 25.085C57.8757 24.8938 58.6611 24.9268 59.1627 25.1575ZM27.1791 25.5069C27.1395 25.5794 27.0801 25.6388 27.0471 25.6388C26.9547 25.6388 26.9679 25.4608 27.0669 25.4212C27.2187 25.3553 27.2517 25.3751 27.1791 25.5069ZM48.2463 26.5617C48.4641 26.7331 48.5499 27.4056 48.3981 27.7682C48.3321 27.933 48.3189 28.0516 48.3585 28.1637C48.3981 28.256 48.3849 28.5725 48.3321 29.0076C48.2859 29.3833 48.2265 29.9437 48.2001 30.2536C48.1803 30.5634 48.1275 31.1304 48.0879 31.5193C48.0285 32.1391 48.0351 32.2643 48.1275 32.5016C48.2265 32.7456 48.2265 32.7851 48.1407 32.884C48.0021 33.0422 48.0219 33.5169 48.1803 33.7147C48.2859 33.8531 48.2991 33.9059 48.2331 33.9784C48.1803 34.0443 48.1671 34.1564 48.2067 34.3212C48.2331 34.4596 48.2595 34.6376 48.2661 34.7233C48.2727 34.9079 48.7149 35.3035 48.9591 35.3496C49.2891 35.4156 49.5399 35.3233 49.6983 35.0793C50.0217 34.5717 50.0679 34.4926 50.1141 34.3344C50.1405 34.2487 50.2395 34.0905 50.3253 33.985C50.4111 33.8795 50.4705 33.7608 50.4507 33.7147C50.4111 33.6026 50.5629 33.1741 50.7015 33.0159C50.7609 32.9433 50.8071 32.8576 50.8071 32.8115C50.8071 32.6862 50.9457 32.2841 51.0843 32.0204C51.1569 31.8819 51.1899 31.7369 51.1701 31.7039C51.1305 31.638 51.1833 31.4468 51.4935 30.5173C51.5529 30.3327 51.6189 30.2733 51.8037 30.2272C52.1469 30.1415 52.5231 30.2272 52.5231 30.3854C52.5231 30.4513 52.4967 30.5239 52.4637 30.5436C52.4373 30.5634 52.3911 30.7216 52.3713 30.8931C52.2987 31.5589 52.1205 32.3962 52.0281 32.4951C51.9753 32.5544 51.9093 32.7522 51.8895 32.9302C51.8631 33.1082 51.8103 33.2993 51.7641 33.3521C51.6387 33.5037 51.4011 34.0245 51.4011 34.1498C51.4011 34.2091 51.3417 34.3344 51.2691 34.4267C51.1965 34.519 51.1371 34.6311 51.1371 34.6772C51.1371 34.7168 51.0381 34.875 50.9127 35.0266C50.6685 35.3299 50.4771 35.6727 50.4771 35.8111C50.4771 35.8639 50.3517 35.943 50.1999 35.9891C50.0415 36.0353 49.8699 36.1276 49.8105 36.1935C49.6389 36.3781 49.3683 36.4572 48.9261 36.4506C48.2463 36.4374 48.0813 36.4045 47.5005 36.1671C47.0385 35.9825 46.8471 35.8573 46.5237 35.5408C46.3059 35.3233 46.1145 35.1057 46.1079 35.053C46.0881 34.8552 46.0617 34.7695 45.8571 34.308C45.5865 33.6883 45.5073 32.4291 45.6525 31.1436C45.6987 30.7414 45.7449 30.2338 45.7581 30.0096C45.7779 29.7855 45.8439 29.3702 45.9165 29.0867C46.0089 28.7109 46.0419 28.3945 46.0287 27.8934C46.0155 27.5242 46.0353 27.2012 46.0617 27.1814C46.0947 27.1682 46.1013 27.1089 46.0815 27.0562C45.9957 26.8386 46.9857 26.4431 47.6457 26.4365C47.9889 26.4299 48.1209 26.4562 48.2463 26.5617ZM55.6581 26.9507C55.6779 26.9836 55.6647 27.0298 55.6251 27.0562C55.5921 27.0759 55.5591 27.0496 55.5591 26.9968C55.5591 26.8782 55.5987 26.8584 55.6581 26.9507ZM29.2251 27.5506C29.2251 27.5836 29.1987 27.6165 29.1591 27.6165C29.1261 27.6165 29.0931 27.5836 29.0931 27.5506C29.0931 27.5111 29.1261 27.4847 29.1591 27.4847C29.1987 27.4847 29.2251 27.5111 29.2251 27.5506ZM48.4971 33.6092C48.4971 33.6422 48.4377 33.6817 48.3651 33.7015C48.2199 33.7411 48.1737 33.5828 48.3189 33.5301C48.4113 33.4971 48.4971 33.5367 48.4971 33.6092ZM3.41906 35.0332C3.41906 35.0859 3.39266 35.1321 3.35966 35.1321C3.27386 35.1321 3.21446 35.0266 3.26726 34.9739C3.33986 34.9013 3.41906 34.9343 3.41906 35.0332ZM48.7611 39.8392C48.8139 39.8919 48.9261 39.9513 49.0053 39.971C49.0977 40.004 49.1703 40.0897 49.1901 40.1952C49.2165 40.2941 49.2627 40.4787 49.3023 40.6171C49.3419 40.749 49.3551 40.9402 49.3287 41.0456C49.3089 41.1445 49.2759 41.2896 49.2627 41.3687C49.2363 41.5533 48.9195 41.8961 48.6951 41.9884C48.4707 42.0807 48.2925 42.3246 48.3585 42.4367C48.3849 42.4828 48.3849 42.6674 48.3651 42.852C48.3321 43.1223 48.3453 43.1948 48.4377 43.2608C48.5697 43.3596 48.7611 43.7882 48.7611 43.9991C48.7611 44.0782 48.8205 44.2233 48.8931 44.3156C48.9657 44.4079 49.0251 44.5002 49.0251 44.5265C49.0251 44.5595 49.0647 44.6122 49.1175 44.6518C49.1703 44.6913 49.2891 44.9155 49.3881 45.1528C49.5135 45.4561 49.6587 45.6736 49.8963 45.8912C50.0811 46.0692 50.2659 46.2076 50.3121 46.2076C50.3517 46.2076 50.4177 46.2406 50.4639 46.2868C50.5629 46.3856 51.0249 46.379 51.4473 46.2736C51.7047 46.2076 51.8895 46.0956 52.1667 45.8319C52.3779 45.6407 52.5693 45.4825 52.5891 45.4825C52.6155 45.4825 52.8267 45.2583 53.0577 44.9814C53.6979 44.2101 53.6715 44.2628 53.5791 44.0189C53.5329 43.9002 53.4339 43.742 53.3679 43.6629C53.3019 43.5904 53.2689 43.5113 53.2887 43.4849C53.3085 43.4651 53.2821 43.3794 53.2227 43.2937C53.0907 43.1091 53.0841 42.7861 53.2095 42.6147C53.2557 42.5422 53.3151 42.3773 53.3415 42.2455C53.3745 42.0609 53.4339 41.9884 53.6121 41.9027C53.7441 41.8433 53.8893 41.7906 53.9421 41.7906C54.0015 41.7906 54.1005 41.7576 54.1665 41.7115C54.3579 41.5928 55.1763 41.8565 55.3941 42.1005C55.4799 42.1993 55.5591 42.318 55.5591 42.3642C55.5591 42.4696 55.7769 42.9311 55.8429 42.9839C55.8759 43.0036 55.8429 43.0366 55.7703 43.0564C55.6911 43.0828 55.6317 43.1685 55.6053 43.3267C55.5525 43.6695 55.3281 43.8805 54.7209 44.1639C54.1533 44.4276 53.9223 44.6848 54.0081 44.9616C54.0345 45.0408 54.0147 45.1396 53.9553 45.2056C53.8299 45.3506 53.6253 46.0494 53.6781 46.1417C53.7045 46.1813 53.6715 46.2736 53.6121 46.3395C53.5065 46.4582 53.4405 46.6625 53.3349 47.2295C53.3151 47.335 53.2755 47.4536 53.2491 47.4932C53.1831 47.5855 53.1105 47.9019 53.0841 48.2448C53.0709 48.3964 53.0181 48.5744 52.9653 48.6403C52.9125 48.6996 52.8333 48.8842 52.7871 49.0556C52.7409 49.227 52.6683 49.405 52.6155 49.4446C52.5693 49.4776 52.5165 49.5962 52.4901 49.6951C52.4373 49.9522 52.0677 50.3412 51.8301 50.4005C51.7245 50.4269 51.5595 50.4928 51.4671 50.5522C51.2625 50.684 50.7807 50.8159 50.4639 50.8225C50.3319 50.8225 50.0085 50.8686 49.7511 50.9213C49.3749 51.0005 48.1737 51.0598 47.7051 51.0268C47.6523 51.0202 47.3289 51.0334 46.9923 51.0598C46.5171 51.0928 46.2993 51.0796 46.0353 51.0005C45.8439 50.9411 45.5007 50.862 45.2631 50.829C44.8209 50.7565 44.8275 50.7631 44.1609 50.1105C43.9035 49.8599 43.8111 49.7215 43.8111 49.583C43.8111 49.4842 43.7385 49.2996 43.6461 49.1743C43.5471 49.0425 43.4811 48.8645 43.4811 48.7326C43.4811 48.6073 43.4415 48.4293 43.3887 48.3305C43.3359 48.2316 43.2765 48.0008 43.2501 47.8228C43.2237 47.6382 43.1577 47.4405 43.1049 47.3811C43.0521 47.3218 43.0257 47.2427 43.0455 47.2031C43.0719 47.1636 43.0455 47.0647 42.9861 46.979C42.9333 46.8933 42.9003 46.768 42.9267 46.7087C42.9465 46.6493 42.9399 46.5636 42.9069 46.5175C42.8673 46.4779 42.8079 46.2868 42.7617 46.1088C42.6165 45.4693 42.0819 44.3288 41.8839 44.2233C41.7981 44.1771 41.6331 44.1376 41.5143 44.1244C41.3889 44.1178 41.2437 44.065 41.1843 44.0057C41.1183 43.953 40.9929 43.8805 40.8939 43.8409C40.6563 43.7486 40.4055 43.3926 40.3527 43.063C40.3131 42.7927 40.3395 42.7004 40.6365 42.1202C40.7091 41.9818 41.0589 41.751 41.4087 41.6192C41.6991 41.5071 41.7057 41.5071 42.0555 41.6851C42.4911 41.9027 42.6231 42.0477 42.8343 42.5158C42.9729 42.8322 42.9795 42.8982 42.9069 43.0432C42.8607 43.1355 42.8211 43.2871 42.8211 43.386C42.8211 43.4915 42.7947 43.5706 42.7683 43.5706C42.7353 43.5706 42.6561 43.6893 42.5901 43.8343C42.4845 44.0716 42.4845 44.1046 42.5769 44.243C42.7287 44.4738 43.4613 45.1792 43.9101 45.5352C44.5833 46.056 44.7219 46.1417 44.9331 46.1417C45.0453 46.1417 45.2037 46.1879 45.2829 46.2406C45.4479 46.3461 45.7317 46.3263 46.0815 46.1813C46.3059 46.089 46.3455 46.023 46.3257 45.8319C46.3191 45.7923 46.4049 45.6934 46.5105 45.6143C46.7151 45.4759 46.7811 45.3704 47.0781 44.777C47.1705 44.5925 47.2893 44.4013 47.3421 44.3617C47.3949 44.3156 47.4411 44.2035 47.4411 44.1112C47.4411 43.9266 47.5137 43.6629 47.7117 43.1421C47.8899 42.674 47.8767 42.3905 47.6655 42.1334C47.5665 42.0148 47.4477 41.9225 47.4015 41.9225C47.3487 41.9225 47.3091 41.9027 47.3091 41.8697C47.3091 41.8433 47.2101 41.6653 47.0847 41.4808C46.8933 41.1973 46.8603 41.0918 46.8801 40.8215C46.8999 40.4325 47.0187 40.1886 47.3553 39.8656C47.5401 39.6876 47.6721 39.615 47.8701 39.6019C48.1539 39.5821 48.5961 39.6942 48.7611 39.8392ZM76.2171 45.2649C76.3755 45.3176 76.5405 45.3836 76.5801 45.4099C76.6131 45.4429 76.7253 45.4825 76.8177 45.5022C76.9101 45.5286 77.1543 45.6934 77.3655 45.878C77.5701 46.056 77.7681 46.2076 77.8077 46.2076C77.8407 46.2076 77.8671 46.2604 77.8671 46.3329C77.8671 46.3988 77.9199 46.5241 77.9859 46.6098C78.4281 47.2031 78.5931 48.6733 78.2631 49.1216C78.1905 49.2205 78.1311 49.3853 78.1311 49.4842C78.1311 49.7545 77.7549 50.4401 77.3919 50.8225C77.3061 50.9148 77.1873 51.0664 77.1213 51.1653C77.0553 51.2708 76.9761 51.3499 76.9431 51.3499C76.8573 51.3499 76.3821 51.8245 76.3293 51.963C76.3095 52.0223 76.2369 52.075 76.1709 52.075C76.1049 52.075 75.9663 52.1805 75.8673 52.3058C75.7683 52.431 75.5901 52.5827 75.4713 52.6354C75.1215 52.8002 74.9697 52.9057 74.8377 53.0508C74.7717 53.1299 74.6661 53.1958 74.6067 53.1958C74.5473 53.1958 74.4813 53.2353 74.4615 53.2881C74.4417 53.3408 74.3097 53.4002 74.1711 53.4265C74.0325 53.4529 73.8807 53.5122 73.8345 53.565C73.7949 53.6177 73.7157 53.6573 73.6629 53.6573C73.5639 53.6573 73.1811 53.8485 73.1151 53.9276C73.0557 54.0001 72.6267 54.1056 72.2307 54.1451C72.0195 54.1715 71.6631 54.244 71.4387 54.3165C71.0889 54.422 70.8843 54.4352 69.8481 54.4154C69.1947 54.3956 68.4753 54.3825 68.2509 54.389C68.0265 54.389 67.7031 54.3429 67.5249 54.277C67.2477 54.1847 66.0795 54.0067 65.3865 53.9539C65.2545 53.9408 65.0433 53.9012 64.9245 53.8682C64.7991 53.8287 64.4625 53.743 64.1721 53.6836C63.8817 53.6243 63.5979 53.5518 63.5451 53.5188C63.4065 53.4529 62.5353 53.3145 62.1591 53.3013C61.9941 53.2947 61.7235 53.2288 61.5585 53.143C61.2813 53.0112 61.1493 52.9914 60.3045 52.9914C59.7831 52.9848 58.9119 52.998 58.3773 53.0178C57.5523 53.0376 57.3873 53.0639 57.3213 53.1562C57.2751 53.2222 57.0573 53.3145 56.8461 53.3606C56.3841 53.4661 55.8033 53.6705 55.6779 53.7693C55.6317 53.8089 55.5195 53.8616 55.4271 53.888C55.3347 53.9144 55.0971 54.0858 54.8925 54.2572C54.6879 54.4352 54.4833 54.5802 54.4371 54.5802C54.3909 54.5802 54.2787 54.6593 54.1863 54.7648C54.0873 54.8637 53.9289 54.9956 53.8233 55.0615C53.4669 55.2922 52.3647 56.525 52.3053 56.769C52.2789 56.8547 52.1865 56.9668 52.0875 57.0129C51.9555 57.0722 51.9225 57.1184 51.9555 57.237C51.9819 57.3425 51.9225 57.4942 51.7641 57.7249C51.6387 57.9161 51.5001 58.193 51.4605 58.3512C51.3615 58.727 51.2757 59.8082 51.3219 60.1839C51.3615 60.5663 51.6981 61.1728 51.8631 61.1728C51.9291 61.1728 52.0017 61.2322 52.0281 61.2981C52.0677 61.4233 52.1799 61.4629 52.8597 61.5354C53.1435 61.5684 53.2425 61.5618 53.3085 61.4761C53.3679 61.4036 53.4273 61.3904 53.5065 61.4299C53.6319 61.5025 54.1929 61.3772 54.3183 61.2519C54.3645 61.2058 54.4239 61.1728 54.4569 61.1728C54.4899 61.1728 54.6285 61.0871 54.7605 60.9816C54.8991 60.8762 55.0839 60.7641 55.1763 60.7443C55.4667 60.6718 56.1003 59.6236 56.0013 59.373C55.9683 59.2873 55.7703 59.1819 55.1433 58.905C54.7275 58.7204 54.5757 58.5753 54.3975 58.1798C54.2853 57.9359 54.2853 57.9227 54.3975 57.8436C54.4569 57.7974 54.6945 57.7249 54.9189 57.6853C55.2687 57.626 55.4007 57.6326 55.7901 57.7447C56.5029 57.9359 56.7669 58.0282 56.9451 58.16C57.2751 58.3973 57.8427 58.8061 58.0341 58.9511C58.2717 59.1225 58.4565 59.3203 58.6149 59.5445C58.6809 59.6499 58.7667 59.7027 58.8261 59.6829C58.8987 59.6565 58.9251 59.6895 58.9251 59.7884C58.9251 59.8675 58.9779 60.0125 59.0505 60.1048C59.1165 60.2037 59.1891 60.3883 59.2155 60.5202C59.2353 60.652 59.3145 60.8102 59.3871 60.8762C59.4861 60.9619 59.4993 61.0146 59.4465 61.0805C59.4069 61.1333 59.4003 61.2058 59.4399 61.2849C59.4729 61.3508 59.5389 61.5156 59.5851 61.6541C59.6511 61.865 59.6445 61.9244 59.5653 62.0167C59.5125 62.076 59.4333 62.2936 59.3871 62.4913C59.2419 63.144 59.1363 63.2956 58.4433 63.9285C58.1991 64.1461 57.8889 64.3636 57.7569 64.4098C57.6315 64.4493 57.4203 64.5548 57.3015 64.6339C57.1827 64.713 56.9715 64.8053 56.8329 64.8317C56.6943 64.8581 56.5095 64.9174 56.4171 64.9702C56.1135 65.135 55.1697 65.3855 54.4041 65.4976C54.2985 65.5173 54.1203 65.5569 54.0081 65.5899C53.9025 65.6162 53.6781 65.6624 53.5197 65.6822C53.3613 65.7085 53.2095 65.7415 53.1765 65.7547C53.1303 65.7876 52.2591 65.8272 50.2131 65.8931C48.7809 65.9393 49.1571 65.9393 47.1111 65.8931C44.4843 65.8338 44.0949 65.8074 43.4481 65.6888C43.1247 65.6228 42.5835 65.5569 42.2535 65.5305C41.9235 65.5108 41.6133 65.458 41.5605 65.425C41.4417 65.3328 41.0391 65.2009 40.5837 65.0888C40.0359 64.9702 39.3759 64.7262 39.2109 64.601C39.1251 64.535 38.9535 64.4625 38.8281 64.4428C38.6895 64.4164 38.5575 64.3307 38.4915 64.2384C38.4321 64.1527 38.3265 64.0604 38.2473 64.034C38.1219 63.9945 37.4487 63.3682 37.4355 63.2825C37.4223 63.1638 37.3167 62.7748 37.2771 62.6891C37.1913 62.5177 36.9999 61.931 36.9999 61.865C37.0065 61.7134 37.1319 61.3047 37.2375 61.1069C37.2969 60.9882 37.3431 60.8366 37.3431 60.7773C37.3431 60.5465 37.5477 60.1839 37.8381 59.8873C38.0757 59.6433 38.1285 59.5445 38.0955 59.4192C38.0625 59.2873 38.0823 59.261 38.1945 59.261C38.2869 59.261 38.3595 59.2016 38.3991 59.0962C38.4321 59.0039 38.5047 58.9313 38.5509 58.9313C38.5971 58.9313 38.7225 58.839 38.8281 58.7336C38.9337 58.6215 39.0723 58.5358 39.1317 58.5358C39.1977 58.5358 39.2769 58.4962 39.3033 58.4501C39.4023 58.2787 40.4649 57.7908 40.8081 57.7579C41.3691 57.6985 42.0291 57.7315 42.1413 57.8172C42.2139 57.8831 42.2337 57.982 42.2073 58.193C42.1677 58.5358 41.9895 58.7204 41.4549 58.9643C41.2701 59.05 41.0985 59.1555 41.0721 59.1885C41.0523 59.228 40.9599 59.261 40.8741 59.261C40.7157 59.261 40.5111 59.4785 40.5111 59.6368C40.5111 59.6829 40.6497 59.9202 40.8147 60.1642C41.0193 60.474 41.2305 60.6916 41.4879 60.8564C42.0357 61.219 42.4977 61.4365 42.7089 61.4365C42.8145 61.4365 42.9597 61.4761 43.0389 61.5156C43.2765 61.6475 43.9365 61.6343 44.1675 61.4959C44.2797 61.4233 44.4315 61.3706 44.5041 61.3706C44.6559 61.3706 45.0453 60.9223 45.1311 60.6586C45.1641 60.5597 45.2301 60.3751 45.2763 60.2433C45.3489 60.0455 45.3489 59.8873 45.2829 59.3533C45.1509 58.2655 45.1113 58.1336 44.7549 57.5996C44.5701 57.3228 44.3985 57.0261 44.3721 56.9404C44.3457 56.8547 44.2203 56.6833 44.0949 56.558C43.9695 56.4328 43.7979 56.2548 43.7121 56.1625C43.6197 56.0702 43.5471 55.9581 43.5471 55.9119C43.5471 55.8658 43.5273 55.8328 43.4943 55.8328C43.4679 55.8328 43.2171 55.6153 42.9399 55.3516C41.9235 54.3825 41.7915 54.277 41.3427 54.0265C40.8609 53.7693 40.1745 53.532 39.4617 53.3804C39.2241 53.3342 39.0063 53.2617 38.9667 53.2222C38.8149 53.0771 38.5905 53.0573 36.9801 53.0573C35.3763 53.0573 34.9671 53.0969 34.9671 53.2749C34.9671 53.3013 34.8285 53.3276 34.6569 53.3276C34.4787 53.3276 34.1553 53.3738 33.9243 53.4265C33.6999 53.4793 33.4887 53.5188 33.4623 53.5122C33.3501 53.4859 32.7429 53.6111 32.5713 53.7034C32.4657 53.7562 32.3403 53.7825 32.2809 53.7628C32.2281 53.743 32.1093 53.7628 32.0103 53.8155C31.9113 53.8616 31.6737 53.921 31.4757 53.9408C31.2843 53.9671 31.0863 54.0133 31.0467 54.0462C31.0005 54.0858 30.8751 54.1122 30.7695 54.1122C30.5055 54.1056 29.5023 54.244 29.2515 54.3231C29.1393 54.3561 28.9611 54.3825 28.8555 54.3825C28.7499 54.3825 28.4397 54.4352 28.1691 54.5011C27.8985 54.5605 27.4695 54.6066 27.2121 54.6C26.9613 54.5934 26.4729 54.5868 26.1363 54.5868C25.5753 54.5868 24.8031 54.4682 24.3081 54.3165C24.2025 54.2836 24.0243 54.2374 23.9121 54.2242C23.6085 54.1715 21.7605 53.354 21.5229 53.1628C21.4041 53.0705 21.2457 52.965 21.1599 52.9321C20.8233 52.7805 20.3217 52.4245 20.0841 52.1542C19.9455 52.0025 19.8003 51.8773 19.7607 51.8773C19.7211 51.8773 19.5957 51.7454 19.4769 51.5938C19.3581 51.4422 19.1535 51.1982 19.0281 51.0532C18.8961 50.9082 18.7377 50.7104 18.6783 50.6049C18.6189 50.506 18.5463 50.4269 18.5199 50.4269C18.4935 50.4269 18.4671 50.3808 18.4671 50.328C18.4671 50.2753 18.3747 50.0577 18.2691 49.8468C18.1569 49.6292 18.0711 49.405 18.0711 49.3457C18.0711 49.2864 18.0249 49.1413 17.9655 49.0293C17.8137 48.7326 17.7939 47.9481 17.9391 47.625C18.0051 47.48 18.0777 47.2625 18.0975 47.1504C18.1371 46.8999 18.4077 46.4713 18.7179 46.1615C18.8433 46.0362 19.2393 45.7857 19.6089 45.6011L20.2821 45.2649L21.5031 45.2715C22.8231 45.2847 22.9815 45.311 23.6481 45.6605C24.0903 45.8912 24.4269 46.2208 24.6909 46.6823C24.8691 46.9856 24.9087 47.2559 24.8295 47.6514C24.7767 47.9019 24.7173 47.9085 24.6117 47.6712C24.5589 47.5723 24.4995 47.4405 24.4665 47.3811C24.4335 47.3152 24.4071 47.2229 24.4071 47.1768C24.4071 47.091 23.8593 46.5966 23.5359 46.3856C23.1993 46.1747 22.8033 46.089 22.1301 46.089C21.7671 46.089 21.4371 46.1153 21.3975 46.1483C21.3579 46.1813 21.1203 46.267 20.8695 46.3461C20.5197 46.4516 20.3415 46.5505 20.1039 46.7878C19.9257 46.9526 19.7871 47.1306 19.7871 47.1833C19.7871 47.2361 19.7277 47.3613 19.6485 47.4668C19.4703 47.7173 19.4043 48.548 19.5297 48.9765C19.5759 49.1413 19.6221 49.3128 19.6287 49.3655C19.6683 49.5699 19.8069 49.827 19.8927 49.8599C19.9455 49.8797 19.9851 49.939 19.9851 49.9918C19.9851 50.15 20.4669 50.8093 20.6187 50.8686C20.7903 50.9345 21.2391 51.3235 21.2391 51.4026C21.2391 51.4817 21.9255 52.1212 22.3281 52.4179C22.5063 52.5497 22.8231 52.7409 23.0211 52.8332C23.2191 52.9321 23.4699 53.0508 23.5689 53.1035C23.6745 53.1562 23.7933 53.1958 23.8395 53.1958C23.8791 53.1958 24.0309 53.2551 24.1695 53.3276C24.3081 53.3936 24.5589 53.4727 24.7305 53.499C24.8955 53.5188 25.2915 53.6111 25.6083 53.6902C26.0703 53.8155 26.3013 53.8353 26.8359 53.8155C27.5949 53.7891 28.6245 53.677 28.9611 53.5913C29.1723 53.5386 29.5023 53.499 30.2679 53.4265C30.7893 53.3804 31.0467 53.3145 31.4163 53.1233C31.4823 53.0903 31.7001 53.0639 31.8981 53.0639C32.1027 53.0639 32.3469 53.0244 32.4459 52.9716C32.5449 52.9255 32.8881 52.853 33.2115 52.8068C33.5349 52.7607 33.8583 52.6948 33.9243 52.6618C34.0431 52.5959 35.9967 52.3981 36.4191 52.4047C36.5445 52.4113 37.2837 52.4113 38.0625 52.4113C39.4287 52.4047 39.5079 52.4113 40.2735 52.6025C41.1051 52.8134 42.3987 53.387 43.0257 53.8287C43.1907 53.9408 43.4151 54.0858 43.5207 54.1385C43.6263 54.1913 43.8573 54.3693 44.0223 54.5275C44.1873 54.6791 44.4909 54.9626 44.6889 55.1406C44.8869 55.3252 45.0915 55.5625 45.1509 55.668C45.2037 55.7801 45.3159 55.9251 45.3951 55.9976C45.5997 56.1822 45.9891 56.7822 45.9891 56.9074C45.9891 56.9668 46.0617 57.0656 46.1541 57.125C46.2465 57.1843 46.3191 57.2832 46.3191 57.3425C46.3191 57.4019 46.3587 57.5073 46.4049 57.5799C46.4511 57.6524 46.5303 57.8436 46.5831 58.0084C46.6293 58.1732 46.6953 58.3314 46.7283 58.3644C46.7547 58.4039 46.7811 58.5094 46.7811 58.6017C46.7811 58.694 46.8273 58.839 46.8867 58.9248C47.0517 59.1555 47.0517 60.6125 46.8933 61.1201C46.8273 61.331 46.7283 61.542 46.6755 61.5948C46.6227 61.6475 46.5831 61.7068 46.5831 61.7332C46.5831 61.8057 46.1607 62.1947 45.9891 62.2804C45.8967 62.3199 45.6195 62.432 45.3753 62.5243C44.9529 62.6825 44.8671 62.6891 44.1213 62.6562C43.2633 62.6166 42.8079 62.5309 42.6825 62.3859C42.6429 62.3331 42.5241 62.2936 42.4251 62.2936C42.2007 62.2936 41.7915 62.1288 41.7189 62.0035C41.6925 61.9573 41.5473 61.8519 41.4021 61.7793C41.1249 61.6409 40.6893 61.2256 40.2471 60.6784C39.9699 60.329 39.9369 60.2565 40.0557 60.1378C40.1877 60.0059 40.0623 59.7884 39.8511 59.7884C39.7059 59.7884 39.6201 59.8543 39.4617 60.0587C39.3561 60.2103 39.2043 60.3751 39.1317 60.4279C39.0525 60.4806 38.9931 60.5927 38.9931 60.6784C38.9931 60.7641 38.9601 60.8432 38.9139 60.8564C38.8545 60.8762 38.8545 60.9553 38.9139 61.186C38.9601 61.3574 38.9931 61.575 38.9931 61.6673C38.9931 61.7859 39.0327 61.8585 39.1251 61.8782C39.1977 61.898 39.2571 61.931 39.2571 61.9573C39.2571 61.9837 39.3495 62.1288 39.4683 62.2804C39.6069 62.4584 39.7323 62.5573 39.8313 62.5573C39.9105 62.5573 40.0095 62.6166 40.0491 62.6891C40.1415 62.8605 41.0325 63.2825 41.2899 63.2825C41.4021 63.2825 41.5737 63.3286 41.6727 63.3813C41.7783 63.4341 41.9367 63.4802 42.0291 63.4802C42.1215 63.4802 42.2601 63.5198 42.3261 63.5725C42.3987 63.6253 42.6693 63.6846 42.9201 63.711C43.1775 63.7373 43.5009 63.8165 43.6461 63.8758C43.8243 63.9483 43.9629 63.9681 44.0553 63.9351C44.1411 63.9022 44.2203 63.9088 44.2401 63.9417C44.2665 63.9813 44.4051 64.0076 44.5569 64.0076C44.7087 64.0142 44.9397 64.067 45.0651 64.1329C45.2433 64.2318 45.3225 64.2384 45.4479 64.1856C45.5601 64.1329 45.6129 64.1329 45.6525 64.1922C45.6789 64.2384 45.8373 64.2648 46.0287 64.2648C46.2069 64.2582 46.8801 64.2713 47.5269 64.2911C48.5103 64.3241 48.7083 64.3109 48.7413 64.2318C48.7875 64.1131 48.9591 64.1131 49.0515 64.2384C49.1109 64.3175 49.1967 64.3241 49.5201 64.2648C49.7379 64.2318 49.9755 64.2054 50.0481 64.2186C50.1207 64.2252 50.4111 64.2318 50.6949 64.2318C51.0843 64.2384 51.2361 64.212 51.2889 64.1395C51.3417 64.0736 51.5199 64.034 51.8301 64.0142C52.0875 64.001 52.3845 63.9483 52.4901 63.889C52.6023 63.8296 52.8399 63.7769 53.0181 63.7703C53.4801 63.7505 54.4965 63.6253 54.5691 63.5791C54.6087 63.5593 54.6351 63.4802 54.6351 63.4077C54.6351 63.3022 54.6549 63.2956 54.7605 63.3616C54.8661 63.4209 54.9387 63.4143 55.1565 63.3154C55.3875 63.2165 55.4205 63.177 55.3875 63.0451C55.3611 62.9462 55.3743 62.8869 55.4205 62.8869C55.4865 62.8869 55.5261 63.0253 55.4997 63.1638C55.4865 63.2429 55.8099 63.2231 55.8561 63.144C55.8957 63.0847 56.1729 62.9265 56.7867 62.6298C56.9319 62.5573 57.0903 62.4188 57.1299 62.3265C57.1695 62.2342 57.2487 62.1617 57.2949 62.1617C57.3411 62.1617 57.4665 62.0694 57.5721 61.9639C57.7305 61.7991 57.7701 61.687 57.8097 61.3047C57.8559 60.8828 57.8493 60.8168 57.6909 60.5333C57.5193 60.2235 57.1035 59.7884 56.9847 59.7884C56.9517 59.7884 56.8725 59.7422 56.8065 59.6829C56.6613 59.551 56.4831 59.6038 56.4831 59.7818C56.4831 59.8543 56.4501 59.9334 56.4105 59.9598C56.3709 59.9796 56.3511 60.0521 56.3709 60.1114C56.3841 60.1773 56.3577 60.2828 56.3115 60.3488C56.2587 60.4147 56.2191 60.5399 56.2191 60.6256C56.2191 60.7113 56.1927 60.7773 56.1597 60.7773C56.1267 60.7773 56.0739 60.8432 56.0541 60.9223C55.9683 61.1926 55.2555 61.8189 54.7539 62.0628C54.4965 62.1881 54.2325 62.2936 54.1665 62.2936C54.1005 62.2936 53.8893 62.3529 53.6979 62.432C53.5065 62.5045 53.2095 62.5705 53.0313 62.577C52.8597 62.577 52.7013 62.6034 52.6881 62.6298C52.6683 62.6496 52.3713 62.6562 52.0149 62.6364C51.4671 62.61 51.3153 62.577 51.0117 62.4188C50.8137 62.3133 50.6091 62.2276 50.5497 62.2276C50.3913 62.2276 49.7511 61.4959 49.7511 61.3179C49.7511 61.2849 49.6785 61.0871 49.5861 60.8828C49.5003 60.685 49.4343 60.4806 49.4541 60.4345C49.4673 60.3883 49.4937 60.0587 49.5069 59.7027C49.5267 59.2412 49.5663 59.0302 49.6389 58.9445C49.6983 58.8852 49.7775 58.6808 49.8237 58.5028C49.8633 58.3182 49.9227 58.1205 49.9557 58.0611C49.9887 57.9952 50.0151 57.8963 50.0151 57.837C50.0151 57.7842 50.0613 57.6919 50.1141 57.6392C50.1669 57.5799 50.2131 57.4876 50.2131 57.4216C50.2131 57.3557 50.2725 57.2502 50.3517 57.1777C50.4309 57.1118 50.5761 56.8613 50.6817 56.6371C50.8665 56.2284 51.3483 55.6219 52.0413 54.923C52.2327 54.7319 52.3911 54.5473 52.3911 54.5143C52.3911 54.4813 52.4439 54.4418 52.5099 54.422C52.5693 54.4022 52.7211 54.2968 52.8399 54.1847C52.9587 54.0792 53.0907 53.9869 53.1237 53.9869C53.1633 53.9869 53.3547 53.855 53.5593 53.6902C53.7573 53.5254 53.9553 53.3936 54.0015 53.3936C54.0477 53.3936 54.2259 53.321 54.4107 53.2353C55.1433 52.8793 55.4865 52.7343 55.7307 52.675C55.8759 52.642 56.0805 52.5827 56.1861 52.5431C56.7009 52.3717 57.3411 52.3256 58.9911 52.3717C61.4859 52.4376 61.6839 52.4508 62.2911 52.6354C62.4561 52.6882 62.8191 52.7409 63.1029 52.7541C63.4395 52.7739 63.6507 52.8134 63.7299 52.8793C63.7893 52.9387 64.0335 53.0046 64.2711 53.031C64.5087 53.0508 64.8585 53.1299 65.0499 53.2024C65.2413 53.2683 65.5383 53.3276 65.7099 53.3276C65.8815 53.3276 66.1323 53.3606 66.2775 53.4002C66.4161 53.4397 66.6999 53.4793 66.9045 53.4925C67.1091 53.5056 67.5711 53.5782 67.9407 53.6507C68.3037 53.7232 68.7789 53.7825 68.9967 53.7825C69.5841 53.7957 70.3695 53.7232 70.4355 53.6507C70.4751 53.6177 70.5807 53.5913 70.6731 53.5913C70.7655 53.5913 70.8777 53.5584 70.9173 53.5188C70.9635 53.4727 71.1747 53.4331 71.3925 53.4331C71.6169 53.4265 71.8281 53.387 71.8743 53.3408C71.9205 53.2947 72.0195 53.2617 72.0921 53.2617C72.2505 53.2617 72.6267 53.0903 72.6927 52.9914C72.7125 52.9585 72.7851 52.9453 72.8511 52.965C72.9237 52.9914 73.0227 52.9519 73.0953 52.8793C73.1613 52.8068 73.3263 52.7145 73.4583 52.675C73.5969 52.6288 73.7223 52.5629 73.7487 52.5299C73.7685 52.497 73.9071 52.3915 74.0589 52.2992C74.3691 52.108 74.4945 51.9959 75.0753 51.4224C75.2997 51.2048 75.5043 51.0202 75.5373 51.0202C75.5901 51.0136 75.8805 50.6642 76.3161 50.0775C76.4415 49.9061 76.5933 49.5962 76.6461 49.3853C76.6989 49.1809 76.8111 48.8842 76.8903 48.7326C77.0355 48.4557 77.0421 48.4491 76.9167 48.225C76.8507 48.0997 76.8177 47.9679 76.8441 47.9217C76.9035 47.8294 76.7715 47.5064 76.5339 47.1504C76.4349 46.9988 76.3491 46.8603 76.3491 46.8339C76.3491 46.768 75.9927 46.4779 75.9135 46.4713C75.8673 46.4713 75.8211 46.4252 75.7947 46.3725C75.7749 46.3197 75.7023 46.2736 75.6363 46.2736C75.5703 46.2736 75.4251 46.2274 75.3129 46.1747C74.9301 45.9835 73.7487 45.9373 73.1679 46.0956C72.9567 46.1549 72.6531 46.2933 72.4881 46.4054C72.1779 46.6164 71.6631 47.3284 71.6631 47.5459C71.6631 47.6119 71.6301 47.658 71.5839 47.6382C71.4915 47.6119 71.4783 46.9856 71.5575 46.623C71.6169 46.3527 72.2835 45.7264 72.6861 45.5484C72.8709 45.4759 73.0755 45.3836 73.1481 45.3506C73.4781 45.2122 73.7223 45.166 74.1315 45.1792C74.3757 45.1858 74.5869 45.1792 74.6001 45.1528C74.6463 45.0803 75.9201 45.166 76.2171 45.2649ZM83.9061 47.8888C83.9061 47.9547 83.8665 48.0206 83.8269 48.0338C83.7741 48.0536 83.7411 48.0008 83.7411 47.8888C83.7411 47.7767 83.7741 47.7239 83.8269 47.7371C83.8665 47.7569 83.9061 47.8228 83.9061 47.8888ZM75.6891 55.4702C75.6891 55.5691 75.5703 55.668 75.5109 55.6153C75.4977 55.5955 75.4977 55.5164 75.5241 55.4439C75.5703 55.2922 75.6891 55.3186 75.6891 55.4702ZM76.4151 55.5691C76.4151 55.6021 76.3887 55.635 76.3491 55.635C76.3161 55.635 76.2831 55.6021 76.2831 55.5691C76.2831 55.5296 76.3161 55.5032 76.3491 55.5032C76.3887 55.5032 76.4151 55.5296 76.4151 55.5691ZM71.9535 59.0962C71.9733 59.1489 71.9601 59.195 71.9271 59.195C71.8875 59.195 71.8611 59.1489 71.8611 59.0962C71.8611 59.0434 71.8743 58.9973 71.8875 58.9973C71.9007 58.9973 71.9271 59.0434 71.9535 59.0962ZM26.1231 59.5906C26.1231 59.6631 26.0967 59.7225 26.0637 59.7225C25.9713 59.7225 25.9119 59.6038 25.9581 59.5247C26.0241 59.4126 26.1231 59.4522 26.1231 59.5906ZM70.0791 60.2499C70.0791 60.2828 70.0527 60.3158 70.0131 60.3158C69.9801 60.3158 69.9471 60.2828 69.9471 60.2499C69.9471 60.2103 69.9801 60.1839 70.0131 60.1839C70.0527 60.1839 70.0791 60.2103 70.0791 60.2499ZM65.6439 63.2033C65.6637 63.2627 65.6307 63.289 65.5515 63.2693C65.4921 63.2627 65.4261 63.2099 65.4063 63.1638C65.3865 63.1045 65.4195 63.0781 65.4987 63.0979C65.5581 63.1045 65.6241 63.1572 65.6439 63.2033ZM63.8091 64.7658C63.8091 64.8185 63.7827 64.8647 63.7431 64.8647C63.7101 64.8647 63.6771 64.8185 63.6771 64.7658C63.6771 64.713 63.7101 64.6669 63.7431 64.6669C63.7827 64.6669 63.8091 64.713 63.8091 64.7658ZM63.8751 65.2273C63.8751 65.28 63.8487 65.3262 63.8091 65.3262C63.7761 65.3262 63.7431 65.28 63.7431 65.2273C63.7431 65.1745 63.7761 65.1284 63.8091 65.1284C63.8487 65.1284 63.8751 65.1745 63.8751 65.2273ZM37.3431 68.2928C37.3431 68.3258 37.2969 68.3588 37.2375 68.3588C37.1847 68.3588 37.1583 68.3258 37.1781 68.2928C37.1979 68.2533 37.2441 68.2269 37.2837 68.2269C37.3167 68.2269 37.3431 68.2533 37.3431 68.2928ZM57.9351 69.0576C57.9351 69.1103 57.9021 69.1367 57.8691 69.1169C57.8295 69.0905 57.8163 69.0444 57.8361 69.0114C57.8955 68.9191 57.9351 68.9389 57.9351 69.0576ZM57.4071 69.4531C57.4071 69.5586 57.2355 69.5784 57.1761 69.4795C57.1497 69.4399 57.1497 69.3608 57.1695 69.3015C57.2025 69.2224 57.2289 69.2158 57.3081 69.2817C57.3609 69.3279 57.4071 69.407 57.4071 69.4531ZM57.0771 69.5454C57.0771 69.5784 57.0507 69.6113 57.0111 69.6113C56.9781 69.6113 56.9451 69.5784 56.9451 69.5454C56.9451 69.5059 56.9781 69.4795 57.0111 69.4795C57.0507 69.4795 57.0771 69.5059 57.0771 69.5454ZM56.4501 69.6113C56.4699 69.6443 56.4567 69.6773 56.4237 69.6773C56.3841 69.6773 56.3511 69.6443 56.3511 69.6113C56.3511 69.5718 56.3643 69.5454 56.3775 69.5454C56.3973 69.5454 56.4303 69.5718 56.4501 69.6113ZM56.7141 69.8091C56.7339 69.8421 56.7207 69.875 56.6877 69.875C56.6481 69.875 56.6151 69.8421 56.6151 69.8091C56.6151 69.7696 56.6283 69.7432 56.6415 69.7432C56.6613 69.7432 56.6943 69.7696 56.7141 69.8091ZM55.1631 70.1453C55.1631 70.1783 55.1367 70.2047 55.0971 70.2047C55.0641 70.2047 55.0311 70.1585 55.0311 70.0992C55.0311 70.0465 55.0641 70.0201 55.0971 70.0399C55.1367 70.0596 55.1631 70.1058 55.1631 70.1453ZM54.3579 71.4705C54.3381 71.5166 54.2853 71.5562 54.2391 71.5562C54.1929 71.5562 54.1401 71.5166 54.1269 71.4705C54.1071 71.4243 54.1533 71.3913 54.2391 71.3913C54.3249 71.3913 54.3711 71.4243 54.3579 71.4705ZM50.1471 74.1207C50.1471 74.1405 50.1207 74.1734 50.0811 74.1932C50.0481 74.213 50.0151 74.1998 50.0151 74.1668C50.0151 74.1273 50.0481 74.0943 50.0811 74.0943C50.1207 74.0943 50.1471 74.1075 50.1471 74.1207Z" fill="url(#paint2_linear_2468_94)"/>
<path d="M21.794 22.942C21.7742 22.975 21.6884 23.0013 21.596 23.0013C21.5036 23.0013 21.365 23.0343 21.2924 23.0738C21.101 23.1793 20.837 23.4694 20.8766 23.5353C20.8964 23.5617 20.8436 23.6078 20.7644 23.6276C20.5532 23.6935 20.3816 23.8584 20.3816 23.9902C20.3816 24.0561 20.3354 24.1287 20.276 24.1484C20.2232 24.1682 20.1902 24.2144 20.2166 24.2473C20.2364 24.2803 20.1968 24.3528 20.1374 24.399C19.9922 24.5044 19.5236 25.2098 19.5236 25.3219C19.5236 25.3681 19.4246 25.5988 19.3058 25.8361C19.0352 26.3833 18.9428 26.6536 18.89 27.0558C18.8636 27.2404 18.8042 27.4513 18.7514 27.537C18.6854 27.6491 18.6524 27.9524 18.6326 28.5721C18.6128 29.3434 18.626 29.4818 18.7382 29.6862C18.8042 29.8181 18.8636 29.9631 18.8636 30.0158C18.8636 30.1543 19.2596 30.5432 19.4972 30.6421C19.7546 30.7476 20.012 30.6355 20.4146 30.2466C20.5598 30.1081 20.7908 29.9038 20.9228 29.7917C21.0548 29.6796 21.1868 29.528 21.2066 29.4621C21.233 29.3895 21.332 29.2445 21.4442 29.139C21.5498 29.0335 21.6356 28.9017 21.6356 28.849C21.6356 28.7962 21.695 28.7039 21.7676 28.638C21.9458 28.4798 21.9392 28.0578 21.761 27.6557C21.6488 27.3986 21.629 27.247 21.6554 26.7525C21.6686 26.4295 21.662 26.1526 21.6422 26.1328C21.5696 26.0537 21.6488 24.8868 21.7412 24.7484C21.794 24.6692 21.8204 24.5572 21.8006 24.4978C21.7742 24.4451 21.7874 24.3792 21.827 24.3528C21.8666 24.333 21.8996 24.2078 21.8996 24.0825C21.8996 23.9441 21.9524 23.8056 22.0316 23.7265C22.1042 23.654 22.1636 23.5353 22.1636 23.4694C22.1636 23.4035 22.2098 23.331 22.2626 23.3046C22.3154 23.2848 22.3616 23.2057 22.3616 23.1332C22.3616 23.0607 22.3946 23.0013 22.4342 23.0013C22.4672 23.0013 22.487 22.975 22.4672 22.9486C22.421 22.8695 21.8402 22.8695 21.794 22.942ZM21.2396 27.2865C21.2396 27.3195 21.2132 27.3524 21.1736 27.3524C21.1406 27.3524 21.1076 27.3195 21.1076 27.2865C21.1076 27.247 21.1406 27.2206 21.1736 27.2206C21.2132 27.2206 21.2396 27.247 21.2396 27.2865Z" fill="#730630"/>
<path d="M23.3125 24.3035C23.3389 24.3958 23.3257 24.4617 23.2663 24.5013C23.1211 24.587 23.0221 24.8177 23.0683 24.9693C23.0881 25.0616 23.0749 25.1144 23.0221 25.1144C22.9693 25.1144 22.9561 25.1671 22.9759 25.2594C23.0023 25.3451 22.9759 25.4506 22.9231 25.5099C22.8109 25.6286 22.7317 26.3406 22.8175 26.3933C22.8505 26.4131 22.9231 26.3736 22.9825 26.3076C23.0551 26.2285 23.0683 26.1692 23.0287 26.1428C22.9891 26.1164 23.0419 25.9846 23.1541 25.8132C23.2663 25.6484 23.3323 25.4836 23.3125 25.4044C23.2927 25.3385 23.3389 25.1671 23.4115 25.0221C23.5105 24.8375 23.5303 24.732 23.4841 24.6463C23.4445 24.587 23.4379 24.4881 23.4511 24.4353C23.4709 24.3892 23.4379 24.3035 23.3785 24.2507C23.2795 24.1716 23.2729 24.1716 23.3125 24.3035Z" fill="#730630"/>
<defs>
<radialGradient id="paint0_radial_2468_94" cx="0" cy="0" r="1" gradientTransform="matrix(-2.1285 -48.6781 75.4423 -3.25281 50.4279 66.0191)" gradientUnits="userSpaceOnUse">
<stop stop-color="white"/>
<stop offset="0.9999" stop-color="#281515"/>
</radialGradient>
<radialGradient id="paint1_radial_2468_94" cx="0" cy="0" r="1" gradientTransform="matrix(1.2375 33.3256 -86.9382 3.16699 49.6858 18.2051)" gradientUnits="userSpaceOnUse">
<stop stop-color="white"/>
<stop offset="1" stop-color="#281515"/>
</radialGradient>
<linearGradient id="paint2_linear_2468_94" x1="45.651" y1="70.3449" x2="50.6146" y2="-8.07472" gradientUnits="userSpaceOnUse">
<stop stop-color="#970003"/>
<stop offset="0.168502" stop-color="#83031D"/>
<stop offset="0.805232" stop-color="#730630"/>
<stop offset="1" stop-color="#AE4F74"/>
</linearGradient>
</defs>
</svg>
