<svg width="95" height="75" viewBox="0 0 95 75" fill="none" xmlns="http://www.w3.org/2000/svg">
<ellipse cx="47.8097" cy="45.705" rx="30.38" ry="19.58" fill="url(#paint0_radial_2381_50)"/>
<path d="M90.2675 16.7196C83.4462 32.8495 40.3799 41.0457 46.102 39.0082C51.8241 36.9707 4.14868 38.5197 4.14844 16.7198C4.1482 -5.08021 42.0087 13.3452 47.2879 13.3247C52.5671 13.3041 97.0889 0.589742 90.2675 16.7196Z" fill="url(#paint1_radial_2381_50)"/>
<path d="M68.9661 0.0344203C68.94 0.0539759 68.6787 0.08005 68.3781 0.093087C67.6333 0.112643 66.8232 0.197383 66.784 0.262568C66.7644 0.295161 66.6403 0.321235 66.5096 0.321235C65.9739 0.321235 64.2752 0.614568 64.2752 0.712346C64.2752 0.73842 64.1511 0.777531 64.0008 0.797087C63.844 0.823161 63.4847 0.868791 63.1972 0.907902C62.6876 0.979606 62.1584 1.12301 62.0212 1.22731C61.9885 1.2599 61.8513 1.29901 61.7272 1.31857C61.4136 1.3642 60.9889 1.52716 60.9563 1.61842C60.9432 1.65753 60.8975 1.69012 60.8583 1.69012C60.7864 1.69012 60.0873 1.95738 59.7149 2.12035C59.5973 2.17901 59.4797 2.26375 59.4601 2.3159C59.4405 2.36805 59.336 2.40716 59.2053 2.40716C59.0289 2.40716 58.9636 2.43975 58.9048 2.56361C58.8656 2.65486 58.7741 2.73309 58.6957 2.74612C58.6108 2.75916 58.552 2.82435 58.5389 2.90909C58.5128 3.07205 58.3429 3.11116 58.2907 2.96775C58.258 2.88953 58.2319 2.88953 58.0816 2.96775C57.9836 3.0199 57.8725 3.05901 57.8268 3.05901C57.7876 3.05901 57.67 3.1242 57.5655 3.20894C57.4675 3.29368 57.2127 3.43057 57.0036 3.50879C56.7945 3.59353 56.5724 3.73042 56.5071 3.81516C56.4417 3.8999 56.3437 3.97161 56.2915 3.97161C56.2392 3.97161 56.1412 4.03027 56.0824 4.09546C56.0171 4.16716 55.8341 4.28449 55.6773 4.36272C55.5075 4.44094 55.3637 4.55827 55.3245 4.64953C55.2919 4.73427 55.1873 4.83205 55.0828 4.86464C54.9783 4.90375 54.6908 5.12538 54.4425 5.36657C54.1943 5.60124 53.9721 5.79679 53.946 5.79679C53.8676 5.79679 53.3776 6.24657 52.6001 7.03531C51.4764 8.17605 51.1955 8.4759 50.9472 8.82138C50.8231 8.99086 50.5879 9.27768 50.4311 9.45368C50.2743 9.62968 50.1632 9.8122 50.1828 9.86435C50.2024 9.91649 50.1567 9.98168 50.0717 10.0208C49.9411 10.0795 49.3923 10.8161 49.0199 11.4353C48.948 11.5526 48.7847 11.7808 48.654 11.9307C48.5299 12.0872 48.3731 12.3479 48.3143 12.5109C48.1771 12.8824 47.7263 13.3583 47.5172 13.3583C47.3343 13.3583 46.8573 12.8303 46.6156 12.3479C46.5241 12.1654 46.3216 11.846 46.1583 11.6309C46.0015 11.4158 45.8185 11.1355 45.7597 11.0116C45.7009 10.8878 45.3939 10.4836 45.0672 10.1121C44.7471 9.74701 44.4792 9.41457 44.4792 9.38198C44.4792 9.34938 44.3616 9.18642 44.2179 9.02346C44.0741 8.86049 43.9565 8.69753 43.9565 8.67146C43.9565 8.57368 42.8589 7.49161 42.7544 7.49161C42.7021 7.49161 42.6172 7.43294 42.5649 7.36124C42.5127 7.28953 42.4604 7.25042 42.4343 7.26998C42.4147 7.28953 42.4147 7.25042 42.4277 7.18524C42.4735 7.02227 42.2317 6.72894 41.9573 6.61161C41.8332 6.55946 41.7352 6.48775 41.7352 6.44864C41.7352 6.33131 41.1276 5.73161 40.8075 5.52953C40.6311 5.42524 40.4939 5.31442 40.4939 5.28183C40.4939 5.24924 40.4285 5.19709 40.3501 5.17101C40.2652 5.14494 40.1672 5.08627 40.1345 5.03412C40.0953 4.98198 39.9777 4.93635 39.8732 4.92983C39.7164 4.91679 39.6837 4.8842 39.6968 4.77338C39.7099 4.68212 39.6641 4.6039 39.5661 4.55175C39.4812 4.50612 39.3309 4.40183 39.2264 4.31709C39.1023 4.21279 38.9781 4.16716 38.8801 4.18672C38.7821 4.20627 38.7233 4.1802 38.6972 4.10198C38.6515 3.96509 38.0308 3.54138 37.7891 3.4762C37.7041 3.45664 37.6127 3.39798 37.5931 3.34583C37.5735 3.29368 37.384 3.16983 37.1815 3.07857C36.8156 2.90909 36.7633 2.89605 36.5935 2.87649C36.5477 2.86998 36.5085 2.82435 36.5085 2.77872C36.5085 2.73309 36.3256 2.60924 36.1035 2.50494C35.8748 2.40064 35.6396 2.27679 35.5808 2.22464C35.5155 2.17249 35.424 2.14642 35.3652 2.17249C35.3129 2.19205 35.0843 2.11383 34.8556 1.98998C34.6335 1.87264 34.3525 1.75531 34.2284 1.72924C34.1043 1.70968 33.9605 1.65101 33.9083 1.6119C33.7384 1.46849 33.3464 1.34464 33.0785 1.35116C32.9413 1.35116 32.7911 1.31205 32.7519 1.26642C32.6539 1.14257 31.9156 0.953531 31.6477 0.986124C31.5171 0.999161 31.4125 0.986124 31.4125 0.96005C31.4125 0.933976 31.3733 0.907902 31.3211 0.907902C31.2753 0.907902 31.1643 0.855754 31.0793 0.78405C30.9683 0.699309 30.8049 0.660198 30.5436 0.65368C30.3345 0.65368 30.1124 0.621087 30.0536 0.588494C29.9948 0.56242 29.7988 0.516791 29.6159 0.497235C29.4395 0.471161 29.1912 0.438568 29.0671 0.419013C28.9429 0.405976 28.7992 0.425531 28.7535 0.464643C28.6881 0.516791 28.6424 0.510272 28.5836 0.438568C28.5052 0.340791 28.3223 0.282124 27.9172 0.223457C27.8127 0.21042 27.6297 0.171309 27.5252 0.138717C27.4141 0.106124 27.2639 0.0996055 27.1789 0.132198C27.0875 0.164791 26.9764 0.164791 26.9111 0.132198C26.7608 0.0474574 23.4876 0.093087 22.8539 0.184346C22.2201 0.275606 22.0045 0.321235 22.0045 0.38642C22.0045 0.419013 21.8477 0.425531 21.6648 0.405976C21.3904 0.379902 20.6391 0.471161 20.0119 0.60805C19.9792 0.614568 19.7244 0.660198 19.4565 0.705828C19.1887 0.757976 18.764 0.855754 18.5092 0.940494C18.2609 1.01872 17.9343 1.0839 17.784 1.09042C17.6337 1.09042 17.3593 1.16864 17.1633 1.2599C16.8171 1.41635 16.6929 1.44894 16.1441 1.55324C15.9873 1.57931 15.8109 1.65101 15.7456 1.70968C15.6803 1.77486 15.5431 1.82049 15.4516 1.82049C15.3536 1.82049 15.2752 1.84005 15.2752 1.87264C15.2752 1.92479 14.8897 2.0682 14.6088 2.12686C14.5108 2.14642 14.3932 2.19857 14.354 2.25072C14.3148 2.30286 14.2299 2.34198 14.1645 2.34198C14.0665 2.34198 13.5439 2.56361 13.2499 2.72657C13.1976 2.75916 13.0212 2.83738 12.8579 2.90257C12.6945 2.96124 12.5181 3.07205 12.4528 3.13724C12.394 3.20242 12.2829 3.25457 12.2111 3.25457C12.1327 3.25457 11.9955 3.30672 11.904 3.36538C11.6688 3.51531 11.3879 3.67175 10.9371 3.91294C10.728 4.02375 10.5451 4.16064 10.5255 4.22583C10.4993 4.33664 10.2119 4.51264 9.94399 4.58435C9.85905 4.61042 9.81332 4.67561 9.81332 4.77338C9.81985 4.8842 9.78065 4.91679 9.65652 4.92331C9.36252 4.92983 9.32985 4.94938 9.32985 5.07975C9.32985 5.15798 9.29065 5.21012 9.24492 5.20361C9.07505 5.18405 9.00319 5.21664 9.00319 5.3079C9.00319 5.36005 8.94439 5.40568 8.87252 5.40568C8.70265 5.40568 7.82719 5.99235 7.82719 6.10316C7.82719 6.14879 7.79452 6.1879 7.76185 6.1879C7.72265 6.1879 7.65732 6.26612 7.61812 6.35738C7.57239 6.45516 7.46785 6.53338 7.36332 6.55946C7.26532 6.57901 7.08239 6.70286 6.96479 6.83324C6.84065 6.96361 6.60545 7.19175 6.43559 7.3482C6.26572 7.49812 6.12852 7.65457 6.12852 7.68716C6.12852 7.71975 6.04359 7.79146 5.93252 7.85012C5.82799 7.90879 5.73652 7.97398 5.73652 8.00657C5.73652 8.03916 5.53399 8.26731 5.29225 8.51501C5.04399 8.7562 4.74999 9.08864 4.63892 9.25161C4.43639 9.55146 3.93985 10.1577 3.71119 10.3923C3.63932 10.4706 3.58052 10.5488 3.58052 10.5749C3.58052 10.6009 3.47599 10.7704 3.35185 10.9464C3.22772 11.1224 3.12319 11.3245 3.12319 11.3832C3.12319 11.4483 3.06439 11.5396 2.99252 11.5787C2.82919 11.6895 2.64625 12.0415 2.68545 12.1849C2.70505 12.2566 2.67239 12.3153 2.60705 12.3349C2.47639 12.3675 2.01252 13.0389 2.01252 13.1888C2.01252 13.2409 1.92759 13.443 1.82305 13.6321C1.71852 13.8211 1.61399 14.0753 1.58785 14.1861C1.56825 14.3035 1.51599 14.4012 1.48332 14.4012C1.45065 14.4012 1.42452 14.4729 1.42452 14.5577C1.42452 14.6424 1.37879 14.7272 1.32652 14.7532C1.27425 14.7728 1.22852 14.8315 1.22852 14.8771C1.22852 14.9292 1.18279 15.0596 1.13052 15.1704C1.07172 15.2812 0.993319 15.555 0.954119 15.7832C0.921453 16.0113 0.862653 16.2199 0.829986 16.259C0.797319 16.2916 0.771186 16.435 0.771186 16.5849C0.771186 16.7349 0.745053 16.8783 0.712386 16.9109C0.614386 17.0152 0.509853 17.4519 0.379186 18.2798C0.313853 18.71 0.209319 19.2966 0.157053 19.5835C0.0982527 19.8703 0.0525193 20.1766 0.0590527 20.2679C0.0590527 20.3592 0.0394527 20.7438 0.0133193 21.1283C-0.012814 21.5586 0.000252657 22.1257 0.045986 22.595C0.085186 23.0187 0.130919 23.6054 0.143986 23.8922C0.157053 24.1855 0.202786 24.4854 0.241986 24.5636C0.287719 24.6418 0.300786 24.7592 0.281186 24.8243C0.261586 24.8895 0.281186 25.0264 0.320386 25.1307C0.359586 25.235 0.392253 25.4045 0.385719 25.5088C0.379186 25.6066 0.405319 25.7304 0.444519 25.776C0.483719 25.8217 0.503319 25.9586 0.496786 26.0759C0.483719 26.2128 0.509853 26.2975 0.562119 26.304C0.712386 26.3236 0.718919 26.3301 0.653586 26.4149C0.555586 26.5322 0.712386 27.8555 0.849586 28.1227C0.908386 28.227 0.973719 28.4812 0.999853 28.6768C1.02599 28.8723 1.07172 29.0614 1.09785 29.1005C1.12399 29.1331 1.16319 29.27 1.18279 29.3938C1.24812 29.8306 1.35265 30.1369 1.45065 30.1891C1.50945 30.2217 1.55519 30.3129 1.55519 30.3912C1.55519 30.7432 1.74465 31.408 1.89492 31.5775C1.92105 31.6101 1.94719 31.7014 1.94719 31.7796C1.94719 31.9621 2.11052 32.3467 2.23465 32.451C2.28692 32.4966 2.34572 32.6531 2.37185 32.803C2.41759 33.1355 2.65932 33.696 2.75732 33.696C2.79652 33.696 2.86839 33.7221 2.92065 33.7547C2.99905 33.8069 2.99905 33.8329 2.93372 33.9177C2.86185 34.0089 2.87492 34.0872 3.05132 34.4457C3.16239 34.6803 3.29305 34.8889 3.34532 34.9085C3.39759 34.928 3.46292 35.0649 3.48252 35.2083C3.55439 35.5995 4.06399 36.7272 4.37105 37.1639C4.44292 37.2552 4.49519 37.3855 4.49519 37.4442C4.49519 37.5094 4.59972 37.6984 4.72385 37.8679C4.84799 38.0374 4.95252 38.2199 4.95252 38.2655C4.95905 38.3177 5.04399 38.4741 5.14852 38.6175C5.25959 38.7609 5.39025 38.9826 5.44905 39.1064C5.50785 39.2303 5.68425 39.478 5.84759 39.654C6.00439 39.83 6.17425 40.0646 6.21999 40.1755C6.26572 40.2863 6.42905 40.5144 6.57932 40.6839C6.72305 40.8469 6.84719 41.0098 6.84719 41.0424C6.84719 41.075 6.93212 41.1989 7.03665 41.3292C7.14772 41.4596 7.25225 41.6486 7.27839 41.7529C7.29799 41.8572 7.41559 42.0463 7.53319 42.1701C7.64425 42.294 7.82065 42.5417 7.92519 42.7242C8.02319 42.9002 8.19305 43.1218 8.29759 43.2C8.39559 43.2848 8.53279 43.4478 8.59159 43.5586C8.65039 43.6759 8.82679 43.8845 8.98359 44.0344C9.13385 44.1843 9.26452 44.3343 9.26452 44.3669C9.26452 44.406 9.37559 44.5624 9.51932 44.7189C9.65652 44.8753 9.82639 45.0969 9.89172 45.2078C9.96359 45.3186 10.1073 45.488 10.2249 45.5858C10.3425 45.6836 10.4993 45.8726 10.5777 46.003C10.6627 46.1334 10.7868 46.2833 10.8587 46.3355C11.0285 46.4593 11.6165 47.046 11.6165 47.0981C11.6165 47.1307 12.0543 47.6913 12.296 47.9716C12.3417 48.0238 12.4789 48.1411 12.5965 48.2323C12.9167 48.467 13.1649 48.7473 13.2499 48.9559C13.2956 49.0537 13.3936 49.1515 13.4851 49.171C13.57 49.1971 13.6745 49.2753 13.7137 49.36C13.7595 49.4383 14.0012 49.7446 14.256 50.038C14.5827 50.416 14.7656 50.579 14.8701 50.579C14.9681 50.579 15.0139 50.6181 15.0139 50.7094C15.0139 50.7941 15.0596 50.8398 15.1445 50.8398C15.2164 50.8398 15.3013 50.8919 15.3275 50.9571C15.4124 51.1722 15.9416 51.8175 16.0331 51.8175C16.0788 51.8175 16.1572 51.8827 16.1964 51.9675C16.2813 52.1174 16.3271 52.1695 17.4377 53.1864C17.8036 53.5254 18.1825 53.8839 18.274 53.9817C18.3655 54.086 18.47 54.1642 18.5027 54.1642C18.5419 54.1642 18.7379 54.3337 18.9404 54.5358C19.5153 55.1289 20.0707 55.6374 20.2797 55.7678C20.3843 55.8329 20.5019 55.9242 20.5345 55.9698C20.5737 56.0155 20.8285 56.2371 21.1095 56.4652C21.5145 56.8042 21.6452 56.8759 21.7824 56.8498C21.9065 56.8303 21.9457 56.8433 21.9261 56.902C21.8804 57.0454 23.7163 58.7532 24.0495 58.8771C24.1083 58.8966 24.1605 58.9423 24.1605 58.9749C24.1605 59.027 25.1079 59.5224 25.3561 59.6006C25.4149 59.6202 25.4868 59.7245 25.5064 59.8353C25.5587 60.07 25.8919 60.3763 26.0487 60.3242C26.1205 60.3046 26.1989 60.3568 26.2708 60.4872C26.3361 60.598 26.4995 60.7414 26.6367 60.8131C26.7739 60.8783 26.9307 61.0086 26.996 61.0999C27.0548 61.1912 27.1332 61.2694 27.1724 61.2694C27.2116 61.2694 27.4076 61.4193 27.6101 61.5953C27.8127 61.7778 28.0479 61.9408 28.1263 61.9603C28.2047 61.9799 28.3157 62.0646 28.368 62.1494C28.4203 62.2276 28.6032 62.358 28.7796 62.4427C28.9495 62.5209 29.1912 62.6709 29.3023 62.7752C29.4199 62.8795 29.6747 63.062 29.8576 63.1793C30.0471 63.3032 30.2627 63.4661 30.328 63.5443C30.3999 63.616 30.5175 63.6812 30.5893 63.6812C30.6677 63.6812 30.8311 63.7855 30.9552 63.9159C31.0793 64.0463 31.4191 64.307 31.7131 64.5026C32.0071 64.6981 32.2815 64.9002 32.3272 64.9523C32.4448 65.0958 32.6081 65.0762 32.5689 64.9263C32.5493 64.835 32.5689 64.8155 32.6539 64.835C32.7257 64.8546 32.7715 64.9263 32.7715 65.024C32.7649 65.187 32.9479 65.4412 33.0655 65.4412C33.0981 65.4412 33.2745 65.5455 33.4444 65.6694C33.6208 65.7932 33.7907 65.8975 33.8168 65.8975C33.8495 65.8975 33.9867 65.9823 34.1304 66.0931C34.2676 66.1974 34.4309 66.2886 34.4832 66.2886C34.5355 66.2886 34.7119 66.406 34.8687 66.5494C35.0255 66.6928 35.2084 66.8232 35.2737 66.8427C35.3456 66.8688 35.3979 66.9079 35.3979 66.947C35.3979 66.9796 35.4959 67.0448 35.6135 67.0969C35.7245 67.1426 35.9597 67.3055 36.1296 67.4555C36.2929 67.5989 36.4497 67.7227 36.4693 67.7227C36.4955 67.7227 36.7111 67.8531 36.9528 68.003C38.0635 68.72 38.2464 68.8309 38.3379 68.8309C38.3901 68.8309 38.6123 68.9808 38.8279 69.1568C39.0435 69.3328 39.3179 69.5283 39.4355 69.587C39.5596 69.6457 39.7621 69.763 39.8863 69.8478C40.0235 69.939 40.1737 69.9912 40.2391 69.9716C40.3175 69.9455 40.3828 69.9781 40.4285 70.0629C40.4612 70.1346 40.5331 70.1802 40.5853 70.1606C40.6311 70.1411 40.7225 70.1998 40.7813 70.291C40.8401 70.3888 40.9447 70.4605 41.0165 70.4605C41.0884 70.4605 41.1733 70.5192 41.2125 70.5909C41.2517 70.6626 41.3497 70.7212 41.4281 70.7212C41.5065 70.7212 41.6111 70.7799 41.6568 70.8516C41.7025 70.9233 41.7875 70.982 41.8463 70.982C41.9051 70.982 42.0553 71.0602 42.1795 71.158C42.4669 71.3861 43.3097 71.9076 43.6952 72.1032C43.8585 72.1879 44.0284 72.3052 44.0741 72.3639C44.1199 72.4291 44.2048 72.4812 44.2571 72.4812C44.3812 72.4812 44.5903 72.5986 44.8516 72.8202C44.9627 72.9115 45.1456 73.0092 45.2567 73.0353C45.3677 73.0614 45.4592 73.107 45.4592 73.1396C45.4592 73.1722 45.5311 73.1983 45.616 73.1983C45.714 73.1983 45.7924 73.2439 45.8185 73.3221C45.8381 73.3873 45.9688 73.4916 46.1125 73.5568C46.3543 73.6676 46.3804 73.6676 46.4915 73.5698C46.6613 73.4134 46.7005 73.4329 46.6613 73.648C46.6287 73.811 46.6483 73.8566 46.8181 73.9414C46.9292 74 47.0795 74.0457 47.1448 74.0457C47.2167 74.0457 47.3147 74.1043 47.3604 74.1826C47.4127 74.2543 47.5695 74.339 47.7132 74.3716C47.9419 74.4238 48.0072 74.4107 48.2751 74.2347C48.4384 74.1304 48.6148 74.0457 48.6671 74.0457C48.7193 74.0457 48.8435 73.974 48.948 73.8827C49.0525 73.798 49.1963 73.7067 49.2747 73.6806C49.3465 73.6546 49.6536 73.4786 49.9476 73.2895C50.2416 73.094 50.5029 72.9375 50.5291 72.9375C50.5552 72.9375 50.7773 72.8072 51.0256 72.6442C51.2739 72.4812 51.5221 72.3248 51.5875 72.3052C51.6463 72.2792 51.7704 72.2075 51.8553 72.1423C51.9403 72.0771 52.0579 72.0249 52.1232 72.0249C52.182 72.0249 52.2996 71.9532 52.3845 71.862C52.4695 71.7707 52.5805 71.699 52.6263 71.699C52.672 71.699 52.7439 71.6273 52.7765 71.5426C52.8157 71.4252 52.868 71.3926 52.966 71.4187C53.0509 71.4383 53.1489 71.3926 53.2535 71.2818C53.3384 71.1906 53.4495 71.1123 53.4887 71.1123C53.5997 71.1123 53.9787 70.9168 54.0309 70.8255C54.0571 70.7864 54.0505 70.7408 54.0113 70.7147C53.9787 70.6952 53.9329 70.5974 53.9133 70.4996C53.8872 70.3432 53.8937 70.3301 54.0113 70.3953C54.0832 70.4279 54.1616 70.4931 54.1812 70.5257C54.24 70.6235 54.4556 70.6039 54.5013 70.4931C54.5209 70.4409 54.5797 70.3953 54.632 70.3953C54.6908 70.3953 54.7104 70.3497 54.6908 70.2715C54.6581 70.1411 54.8084 69.9977 54.8541 70.1215C54.8933 70.2454 55.0371 70.2128 55.2527 70.0303C55.3637 69.939 55.4813 69.8803 55.5205 69.9064C55.6251 69.9716 55.8472 69.8152 55.8472 69.6783C55.8472 69.587 55.8929 69.5479 56.004 69.5479C56.2523 69.5479 56.3633 69.4827 56.3241 69.3719C56.298 69.3132 56.3307 69.248 56.3895 69.2089C56.4548 69.1763 56.5005 69.0851 56.5005 69.0069C56.5071 68.8765 56.5136 68.8765 56.5724 68.9808C56.6051 69.0395 56.6181 69.1242 56.5985 69.1568C56.5136 69.2937 56.788 69.2155 57.0167 69.0329C57.2715 68.8309 57.7353 68.5701 57.8399 68.5701C57.9052 68.5636 58.2645 68.2768 58.2645 68.2246C58.2645 68.2051 58.2057 68.179 58.1273 68.1595C58.0163 68.1269 58.0032 68.1008 58.0685 67.99C58.16 67.8075 58.2515 67.8205 58.3037 68.016C58.3495 68.2116 58.4017 68.2181 58.5455 68.0617C58.6043 68.003 58.7611 67.8922 58.8983 67.8205C59.0355 67.7488 59.1988 67.638 59.2707 67.5793C59.336 67.5206 59.4863 67.4229 59.5973 67.3707C59.8587 67.2338 60.0285 67.1035 60.0285 67.0252C60.0285 66.9926 60.1461 66.9144 60.2964 66.8492C60.4401 66.784 60.5773 66.6928 60.5969 66.6406C60.6165 66.5885 60.6753 66.5494 60.7341 66.5494C60.8583 66.5494 61.5051 66.054 61.5573 65.9171C61.5769 65.8649 61.6423 65.8323 61.688 65.8519C61.7403 65.8715 61.8513 65.8389 61.9363 65.7737C62.0212 65.7085 62.1649 65.6368 62.2695 65.6107C62.3675 65.5912 62.4459 65.526 62.4459 65.4738C62.4459 65.4152 62.5177 65.3435 62.6092 65.3109C62.7007 65.2783 62.7725 65.2261 62.7725 65.1935C62.7725 65.1675 62.9489 65.0566 63.1645 64.9523C63.4912 64.7894 63.55 64.7307 63.5565 64.5808C63.5565 64.3657 63.6415 64.307 63.8179 64.3983C63.9355 64.4569 63.9812 64.4439 64.1315 64.2744C64.2229 64.1636 64.334 64.0723 64.3732 64.0723C64.4581 64.0723 64.7979 63.7203 64.9547 63.4661C65.0135 63.3683 65.118 63.2901 65.1768 63.2966C65.3401 63.3162 65.6407 63.2249 65.6995 63.1337C65.7648 63.0294 66.4639 62.5079 66.5423 62.5079C66.5749 62.5079 66.686 62.4166 66.7971 62.3058C66.9016 62.195 67.1237 62.0386 67.2871 61.9538C67.5876 61.7974 67.8032 61.5562 67.8032 61.3737C67.8032 61.315 67.8424 61.2889 67.8947 61.3085C67.9796 61.3411 68.8551 60.787 69.2079 60.4872C69.2797 60.422 69.4039 60.3503 69.4823 60.3242C69.5672 60.3046 69.6456 60.2199 69.6652 60.1417C69.6979 60.0178 69.8547 59.8875 70.2205 59.6789C70.2793 59.6463 70.3969 59.5224 70.4819 59.4051C70.5733 59.2878 70.6975 59.1835 70.7563 59.1835C70.8216 59.1835 70.9196 59.1118 70.9784 59.0205C71.0372 58.9292 71.1221 58.8575 71.1679 58.8575C71.2985 58.8575 71.9845 58.336 71.9845 58.2318C71.9845 58.1861 72.0107 58.1405 72.0433 58.1405C72.076 58.1405 72.1479 58.1014 72.1936 58.0558C72.2393 58.0166 72.3961 57.8928 72.5464 57.795C72.6967 57.6972 72.8469 57.5473 72.8927 57.4691C72.9384 57.3909 73.1017 57.254 73.2651 57.1692C73.4284 57.0845 73.7159 56.8433 73.9119 56.6282C74.1209 56.4066 74.3169 56.2501 74.3953 56.2501C74.4737 56.2501 74.5325 56.211 74.5325 56.1654C74.5391 56.0415 74.7677 55.7938 74.8788 55.7938C75.0029 55.7938 75.0552 55.6635 74.9833 55.52C74.9245 55.4027 74.9703 55.2072 75.0552 55.2072C75.1336 55.2072 75.1859 55.3897 75.1401 55.5135C75.1075 55.5918 75.1336 55.5852 75.2381 55.4809C75.3165 55.4027 75.408 55.3375 75.4407 55.3375C75.5191 55.3375 76.2247 54.6205 76.3488 54.4119C76.4076 54.3076 76.4925 54.2294 76.5383 54.2294C76.5905 54.2294 76.6428 54.1838 76.6624 54.1316C76.6885 54.0795 76.7408 54.0338 76.7865 54.0338C76.8976 54.0338 77.6032 53.3168 77.6032 53.1995C77.6032 53.1603 77.6489 53.1212 77.7077 53.1212C77.7665 53.1212 77.9037 53.0169 78.0148 52.8931C78.1259 52.7692 78.2435 52.6649 78.2761 52.6649C78.4199 52.6649 78.7792 52.3129 78.7792 52.1695C78.7792 52.0587 78.8249 52.0066 78.9621 51.974C79.0601 51.9479 79.2235 51.8371 79.3215 51.7263C79.4195 51.6155 79.7069 51.3026 79.9552 51.0353C80.2035 50.768 80.4713 50.4421 80.5563 50.3183C80.6412 50.1944 80.7784 50.0836 80.8568 50.0706C80.9352 50.0575 81.0332 49.9858 81.0724 49.9141C81.1116 49.8359 81.2292 49.6925 81.3337 49.5947C81.4383 49.4904 81.5232 49.3796 81.5232 49.3405C81.5232 49.3079 81.5689 49.2753 81.6212 49.2753C81.68 49.2753 81.7519 49.2036 81.7845 49.1123C81.8172 49.0211 81.9479 48.8516 82.072 48.7343C82.1961 48.6169 82.3072 48.454 82.3203 48.3627C82.3333 48.2715 82.3921 48.1932 82.4705 48.1672C82.6404 48.1215 83.2023 47.6 83.3199 47.3784C83.3721 47.2806 83.6465 46.9678 83.934 46.6744C84.2215 46.3811 84.4763 46.0878 84.4959 46.016C84.522 45.9443 84.5612 45.8857 84.5808 45.8857C84.6069 45.8857 84.6853 45.7749 84.7572 45.6445C84.8291 45.5141 85.1427 45.1491 85.4563 44.8297C85.7699 44.5103 86.0769 44.1583 86.1423 44.0409C86.2076 43.9301 86.3252 43.7802 86.4101 43.715C86.4885 43.6498 86.5539 43.5651 86.5539 43.526C86.5539 43.4608 86.7695 43.1675 87.2791 42.5417C87.3705 42.4243 87.462 42.2875 87.4881 42.2288C87.5077 42.1701 87.6515 41.9485 87.8148 41.7399C88.1741 41.2575 88.4485 40.7882 88.4485 40.6513C88.4485 40.5861 88.4812 40.5405 88.5204 40.5405C88.6445 40.5405 88.9712 40.1624 88.9712 40.0255C88.9712 39.9603 89.0169 39.8886 89.0627 39.8691C89.1149 39.8495 89.2129 39.7322 89.2717 39.6149C89.3305 39.4975 89.4024 39.3867 89.4285 39.3672C89.4547 39.3476 89.5396 39.1977 89.6115 39.0347C89.6899 38.8652 89.7944 38.7153 89.8532 38.6892C89.9055 38.6697 89.9512 38.598 89.9512 38.5328C89.9512 38.4676 90.0361 38.2981 90.1407 38.1547C90.402 37.7962 90.9769 36.7011 91.0227 36.4599C91.0488 36.3426 91.1272 36.1992 91.1991 36.134C91.2644 36.0753 91.3232 35.971 91.3232 35.9123C91.3232 35.8537 91.3493 35.782 91.382 35.7429C91.4669 35.6646 91.9765 34.6608 91.9765 34.5826C91.9765 34.55 92.0353 34.4587 92.1072 34.3805C92.1791 34.3088 92.2444 34.1263 92.2575 33.9894C92.2836 33.7026 92.4339 33.3766 92.5907 33.2463C92.6495 33.1941 92.6952 33.0703 92.6952 32.966C92.6952 32.8552 92.754 32.6922 92.8259 32.5879C92.8912 32.4901 92.9696 32.288 92.9957 32.1446C93.0219 31.9947 93.0807 31.8383 93.1264 31.7992C93.1787 31.76 93.2179 31.6362 93.2179 31.5319C93.2179 31.4276 93.2897 31.219 93.3747 31.0691C93.4596 30.9192 93.5511 30.691 93.5772 30.5672C93.6295 30.3064 93.7209 29.987 93.8385 29.6546C93.8843 29.5307 93.9627 29.2504 94.0084 29.0353C94.0541 28.8202 94.126 28.5986 94.1783 28.5399C94.224 28.4812 94.2501 28.39 94.2305 28.3378C94.2044 28.2792 94.2632 28.0184 94.3481 27.7512C94.4396 27.4839 94.4919 27.184 94.4788 27.0732C94.4592 26.9429 94.4984 26.7603 94.5899 26.5843C94.7009 26.3497 94.7271 26.1802 94.7336 25.6783C94.7336 25.3393 94.7597 25.0134 94.7859 24.9547C94.8185 24.9026 94.8643 24.4463 94.8904 23.9443C95.0276 21.0501 94.8316 17.5758 94.4984 17.2107C94.4265 17.1325 94.3808 16.9435 94.3612 16.6762C94.3285 16.2525 94.1521 15.6267 93.93 15.1443C93.8647 14.9944 93.8059 14.7923 93.8059 14.6946C93.8059 14.5903 93.7667 14.4599 93.7209 14.4078C93.6687 14.3491 93.5772 14.1405 93.5184 13.9319C93.4596 13.7298 93.3485 13.5147 93.2832 13.4561C93.2113 13.3909 93.1133 13.1888 93.0545 12.9998C93.0023 12.8107 92.9173 12.6412 92.8716 12.6217C92.8193 12.6021 92.7148 12.4196 92.6299 12.2045C92.4992 11.8851 92.1856 11.3897 92.0353 11.2723C92.0092 11.2528 91.9439 11.1289 91.8916 10.9921C91.8328 10.8617 91.7609 10.7509 91.7217 10.7509C91.6891 10.7509 91.5715 10.6075 91.4604 10.4249C91.3493 10.2489 91.1991 10.0664 91.1272 10.0208C91.0553 9.97516 90.9965 9.90346 90.9965 9.85783C90.9965 9.8122 90.9377 9.74701 90.8724 9.7079C90.8005 9.67531 90.6764 9.50583 90.5915 9.34286C90.5 9.16035 90.3301 8.96479 90.1668 8.84746C90.01 8.74316 89.8859 8.61279 89.8859 8.56064C89.8859 8.50198 89.8009 8.42375 89.6964 8.38464C89.5135 8.31946 89.3632 8.10435 89.3632 7.91531C89.3632 7.86968 89.2456 7.75886 89.1019 7.68064C88.9581 7.5959 88.7948 7.46553 88.7425 7.38079C88.6837 7.29605 88.6053 7.23086 88.5596 7.23086C88.5204 7.23086 88.3309 7.07442 88.1415 6.88538C87.5927 6.33783 87.462 6.22701 86.9459 5.86198C86.678 5.67294 86.384 5.45131 86.2925 5.37309C86.2011 5.28835 85.9528 5.1319 85.7372 5.01457C85.5216 4.89724 85.2864 4.74731 85.208 4.68212C85.1361 4.61042 85.0512 4.55827 85.012 4.55827C84.9793 4.55175 84.7899 4.42138 84.5939 4.26494C84.3979 4.10198 84.1496 3.93249 84.0385 3.88035C83.934 3.8282 83.7707 3.75649 83.6792 3.71738C83.3721 3.57398 83.2023 3.45664 83.1435 3.35886C83.1108 3.3002 83.0324 3.25457 82.9671 3.25457C82.9017 3.25457 82.8299 3.23501 82.8037 3.20894C82.7449 3.14375 82.2941 2.99383 82.17 2.99383C82.1112 2.99383 82.0459 2.9482 82.0263 2.89605C81.9805 2.78524 81.3403 2.45279 80.9352 2.33546C80.7719 2.28983 80.5759 2.19857 80.4975 2.12686C80.3929 2.03561 80.3276 2.02257 80.2427 2.0682C80.1577 2.11383 80.1055 2.10079 80.0271 2.00953C79.9683 1.93783 79.7265 1.84005 79.4848 1.78138C79.2365 1.72272 79.0405 1.64449 79.0405 1.61842C79.0405 1.58583 78.9687 1.55975 78.8772 1.55975C78.7857 1.55975 78.642 1.51412 78.5571 1.46198C78.4787 1.40983 78.3415 1.37072 78.25 1.37724C78.1651 1.38375 77.9233 1.30553 77.7208 1.20775C77.4987 1.10346 77.2896 1.04479 77.2177 1.07086C77.1524 1.09042 76.9956 1.05131 76.878 0.979606C76.7539 0.91442 76.5121 0.836198 76.3292 0.810124C76.1528 0.78405 75.8392 0.712346 75.6432 0.647161C75.4211 0.575457 74.9637 0.510272 74.4672 0.484198C74.0164 0.458124 73.5068 0.399457 73.3239 0.353828C73.1475 0.308198 72.8208 0.262568 72.6052 0.262568C72.3961 0.25605 72.1413 0.21042 72.0433 0.164791C71.9257 0.106124 71.8343 0.0996055 71.7559 0.145235C71.6775 0.184346 71.6252 0.184346 71.5925 0.12568C71.5533 0.0670129 71.4553 0.0539759 71.2789 0.0865685C71.1287 0.106124 70.998 0.0996055 70.9784 0.0735314C70.9392 0.00834626 69.0249 -0.0307649 68.9661 0.0344203ZM26.1859 0.282124C26.1859 0.30168 26.1597 0.334272 26.1205 0.353828C26.0879 0.373383 26.0552 0.360346 26.0552 0.327754C26.0552 0.288643 26.0879 0.25605 26.1205 0.25605C26.1597 0.25605 26.1859 0.269087 26.1859 0.282124ZM19.8485 0.777531C19.8485 0.810124 19.8159 0.842717 19.7767 0.842717C19.744 0.842717 19.7309 0.810124 19.7505 0.777531C19.7701 0.73842 19.8028 0.712346 19.8224 0.712346C19.8355 0.712346 19.8485 0.73842 19.8485 0.777531ZM29.8445 0.842717C29.8445 0.875309 29.8184 0.907902 29.7792 0.907902C29.7465 0.907902 29.7139 0.875309 29.7139 0.842717C29.7139 0.803606 29.7465 0.777531 29.7792 0.777531C29.8184 0.777531 29.8445 0.803606 29.8445 0.842717ZM31.1904 1.47501C31.1251 1.5402 31.0663 1.44242 31.1251 1.35768C31.1643 1.28598 31.1773 1.28598 31.2035 1.35768C31.2165 1.40331 31.21 1.45546 31.1904 1.47501ZM67.0192 1.49457C67.0192 1.52716 66.9931 1.55975 66.9539 1.55975C66.9212 1.55975 66.8885 1.52716 66.8885 1.49457C66.8885 1.45546 66.9212 1.42938 66.9539 1.42938C66.9931 1.42938 67.0192 1.45546 67.0192 1.49457ZM78.7139 1.98998C78.7139 2.04212 78.6877 2.0682 78.6485 2.04864C78.6159 2.02909 78.5832 1.98346 78.5832 1.94435C78.5832 1.91175 78.6159 1.88568 78.6485 1.88568C78.6877 1.88568 78.7139 1.93131 78.7139 1.98998ZM59.1792 2.83086C59.2837 2.96124 59.2445 3.00035 59.0616 2.9482C58.9832 2.92864 58.9179 2.86998 58.9179 2.82435C58.9179 2.70049 59.0747 2.70701 59.1792 2.83086ZM80.0859 4.03679C80.0859 4.06938 80.0532 4.10198 80.014 4.10198C79.9813 4.10198 79.9683 4.06938 79.9879 4.03679C80.0075 3.99768 80.0401 3.97161 80.0597 3.97161C80.0728 3.97161 80.0859 3.99768 80.0859 4.03679ZM14.8375 6.55946C15.0857 6.74849 15.1445 6.96361 14.9943 7.09398C14.942 7.13309 14.6937 7.1722 14.4389 7.18524C14.1841 7.19827 13.9293 7.2439 13.8771 7.28953C13.7333 7.40686 13.7464 7.60242 13.9032 7.7002C13.9751 7.74583 14.0339 7.83057 14.0339 7.88272C14.0339 7.94138 14.1711 8.0522 14.3475 8.13042C14.5173 8.20864 14.7264 8.31946 14.8179 8.36509C15.1315 8.54761 15.7195 8.74968 15.824 8.71057C15.8828 8.68449 15.9089 8.62583 15.8893 8.56716C15.8632 8.50198 15.8893 8.46938 15.9873 8.46938C16.1441 8.46938 16.1637 8.53457 16.0461 8.65842C15.9808 8.72361 15.9808 8.7562 16.0396 8.77575C16.0788 8.78879 16.1768 8.86049 16.2552 8.92568C16.3401 8.99738 16.51 9.06909 16.6407 9.08864C16.7713 9.1082 16.9673 9.16686 17.0719 9.21901C17.1829 9.27116 17.3724 9.33635 17.4965 9.3559C17.6207 9.38198 17.8232 9.45368 17.9343 9.52538C18.0911 9.61664 18.2871 9.65575 18.6529 9.66227C18.9535 9.66879 19.1887 9.7079 19.2279 9.75353C19.3389 9.8839 19.9596 10.086 20.1425 10.0534C20.2471 10.0273 20.3581 10.0599 20.4365 10.1316C20.5084 10.1968 20.6652 10.2424 20.8089 10.2424C20.9461 10.2424 21.1487 10.2946 21.2597 10.3663C21.4427 10.4771 22.0372 10.6075 22.9453 10.7313C23.0825 10.7509 23.2524 10.8226 23.3177 10.8878C23.3831 10.9529 23.5072 11.0181 23.5856 11.0377C23.6705 11.0507 23.9841 11.1094 24.2912 11.1681C24.5983 11.2267 24.9119 11.2723 24.9837 11.2723C25.0621 11.2723 25.1601 11.3115 25.1993 11.3636C25.2581 11.4353 25.6044 11.5201 26.0225 11.5592C26.0617 11.5657 26.1793 11.5983 26.2839 11.6439C26.3949 11.6895 26.8196 11.8003 27.2312 11.8916C27.6428 11.9829 28.0609 12.1067 28.1589 12.1589C28.2504 12.2045 28.4268 12.2501 28.5444 12.2501C28.6685 12.2501 28.956 12.3218 29.1912 12.4066C29.4264 12.4978 29.8511 12.6152 30.1385 12.6738C30.6547 12.7846 31.3145 12.9932 31.4452 13.091C31.4779 13.1236 31.7131 13.2149 31.9613 13.2996C32.2945 13.4169 32.4905 13.5343 32.7192 13.7689C33.0589 14.1014 33.1439 14.2904 33.2092 14.8706C33.2419 15.1965 33.2288 15.3008 33.0655 15.6528C32.7323 16.3959 32.0136 16.9109 31.7457 16.5915C31.7 16.5328 31.602 16.4872 31.5432 16.4872C31.4191 16.4872 31.0205 16.1352 31.0205 16.0243C31.0205 15.9918 30.9683 15.9657 30.9029 15.9657C30.8376 15.9657 30.6481 15.8744 30.4783 15.7701C30.3084 15.6593 30.132 15.5746 30.0863 15.5746C30.0405 15.5746 29.9752 15.5485 29.936 15.5224C29.9033 15.4898 29.7335 15.4116 29.5505 15.3529C29.3741 15.2878 29.0867 15.1704 28.9233 15.0857C28.7535 15.0075 28.4595 14.9162 28.27 14.8901C28.074 14.8706 27.7735 14.7793 27.5905 14.6946C26.8849 14.3556 26.6628 14.2709 26.4929 14.2709C26.4015 14.2709 26.2447 14.2383 26.1401 14.1992C26.0421 14.1601 25.8527 14.1144 25.7285 14.1014C25.6044 14.0883 25.3692 14.0036 25.2059 13.9189C25.0425 13.8341 24.7485 13.7494 24.546 13.7233C24.3435 13.7038 24.0952 13.6386 23.9907 13.5864C23.8861 13.5343 23.7424 13.4886 23.6705 13.4886C23.4941 13.4886 23.1152 13.3518 22.8996 13.2083C22.8081 13.1497 22.6775 13.0975 22.6187 13.0975C22.5533 13.0975 22.4161 13.0715 22.3051 13.0323C22.194 12.9998 21.9261 12.9215 21.7105 12.8629C21.4949 12.8107 21.0507 12.6543 20.7175 12.5304C20.3908 12.4066 20.0903 12.3153 20.0641 12.3349C20.0315 12.3544 19.9204 12.3349 19.8159 12.2827C19.4173 12.1132 18.8163 11.9242 18.6464 11.9242C18.5484 11.9242 18.3589 11.8525 18.2283 11.7612C18.0976 11.67 17.9016 11.5983 17.7971 11.5983C17.6925 11.5983 17.5423 11.5396 17.4639 11.4679C17.3855 11.3897 17.2025 11.3115 17.0653 11.2919C16.7191 11.2398 15.5561 10.6661 15.334 10.4445C15.2948 10.4054 15.2164 10.3858 15.1707 10.4054C15.1184 10.4249 15.0596 10.3923 15.04 10.3337C15.0008 10.2294 14.4651 9.84479 14.0927 9.65575C14.0012 9.60361 13.8379 9.48627 13.7268 9.39501C13.5308 9.21901 13.1192 8.63886 13.1192 8.54109C13.1192 8.50849 13.0735 8.44983 13.0212 8.4042C12.9493 8.34553 12.9232 8.19561 12.9232 7.8762C12.9232 7.45901 12.9689 7.28953 13.1584 7.03531C13.1976 6.98316 13.2499 6.85931 13.276 6.75501C13.3087 6.61161 13.3544 6.57901 13.5112 6.57901C13.6223 6.57901 13.7072 6.55294 13.7072 6.52035C13.7072 6.43561 13.8705 6.40301 14.2691 6.38998C14.5369 6.38346 14.648 6.41605 14.8375 6.55946ZM42.1925 7.1722C42.1925 7.19827 42.0619 7.15264 41.9051 7.07442C41.7483 7.00272 41.6307 6.91798 41.6437 6.8919C41.6764 6.83975 42.1925 7.10049 42.1925 7.1722ZM84.5416 14.2709C84.6788 14.5381 84.7899 14.7858 84.7899 14.8184C84.7899 14.851 84.8421 14.9423 84.9075 15.014C84.9793 15.0922 85.0969 15.3269 85.1819 15.542C85.2668 15.7571 85.4171 16.07 85.5216 16.2329C85.6196 16.3959 85.7372 16.6892 85.7699 16.8783C85.8091 17.0673 85.9071 17.3737 85.992 17.5627C86.188 17.9603 86.2664 18.7556 86.1945 19.5769C86.1553 20.0854 86.1292 20.1701 85.8875 20.5221C85.6915 20.8155 85.5673 20.9328 85.3844 20.9915C85.2537 21.0371 84.9597 21.1675 84.7245 21.2913C83.9405 21.6955 83.1369 21.6303 81.8695 21.0436C81.3795 20.822 81.3011 20.8872 81.4971 21.363C81.5885 21.5977 81.5885 21.6889 81.4905 22.3799C81.3925 23.0969 81.1704 23.7814 81.0071 23.8857C80.9679 23.9052 80.9352 23.9835 80.9352 24.0552C80.9352 24.1334 80.8568 24.2312 80.7327 24.2963C80.6216 24.355 80.4256 24.4854 80.3015 24.5832C80.0793 24.7526 80.0597 24.7592 79.2365 24.7396C78.5897 24.7266 78.3611 24.7005 78.2761 24.6223C78.2108 24.5701 77.9887 24.4528 77.7731 24.368C77.4856 24.2507 77.2504 24.0747 76.8453 23.6771C76.5448 23.3838 76.2965 23.1165 76.2965 23.0839C76.2965 23.0122 75.898 22.3799 75.7543 22.2235C75.5648 22.0149 75.3949 21.7215 75.3492 21.526C75.3296 21.4086 75.2773 21.2978 75.2447 21.2783C75.212 21.2522 75.1859 21.1544 75.1859 21.0501C75.1859 20.9458 75.1597 20.8415 75.1205 20.822C75.0879 20.8024 75.0552 20.7242 75.0552 20.659C75.0552 20.5482 74.9964 20.3461 74.7939 19.7008C74.7155 19.4661 74.6828 18.2406 74.7547 18.1298C74.7808 18.0907 74.7808 17.9864 74.7612 17.9017C74.7351 17.7974 74.7481 17.7322 74.8135 17.7061C74.8657 17.6866 74.9245 17.5366 74.9441 17.3672C75.0095 16.9174 75.408 16.2721 75.9633 15.7049C76.6232 15.0335 77.0021 14.7467 77.2765 14.7076C77.4007 14.6881 77.662 14.6359 77.858 14.5903C78.1259 14.5316 78.2369 14.5316 78.3284 14.5838C78.3937 14.6294 78.6093 14.662 78.7988 14.662C79.1124 14.662 79.1712 14.6881 79.3672 14.8901C79.4913 15.014 79.6285 15.1183 79.6743 15.1183C79.72 15.1183 79.8376 15.2812 79.9291 15.4768C80.0271 15.6789 80.1251 15.8549 80.1577 15.8744C80.2623 15.9331 80.2231 16.5523 80.1055 16.7609C79.9095 17.0869 79.1451 17.4649 78.6681 17.4649C78.4068 17.4649 78.2957 17.2824 78.2304 16.7479C78.1455 16.0635 77.7012 15.6593 77.1459 15.7441C76.9303 15.7766 76.8192 15.8549 76.5579 16.1482C76.2704 16.4741 76.2312 16.5393 76.2377 16.8066C76.2377 16.9695 76.2312 17.1781 76.2247 17.2694C76.2116 17.5497 76.3096 18.1429 76.3945 18.2472C76.4337 18.2993 76.5121 18.4883 76.5579 18.6709C76.6036 18.8469 76.682 19.0555 76.7343 19.1272C76.78 19.1989 76.8192 19.3097 76.8192 19.3814C76.8192 19.6161 76.9825 19.9746 77.1524 20.118C77.2439 20.1962 77.3549 20.3852 77.4072 20.5417C77.4529 20.6981 77.564 20.8937 77.6489 20.9915C77.7339 21.0827 77.7992 21.187 77.7992 21.2326C77.7992 21.2718 77.858 21.3369 77.9299 21.376C78.0017 21.4152 78.0605 21.4869 78.0605 21.539C78.0605 21.5912 78.1193 21.6629 78.1912 21.702C78.2631 21.7411 78.3415 21.8454 78.3611 21.9301C78.3807 22.0149 78.4591 22.1061 78.5244 22.1257C78.5897 22.1518 78.6747 22.2169 78.7139 22.2821C78.7465 22.3473 78.936 22.4842 79.132 22.582C79.4456 22.7384 79.5436 22.758 79.8637 22.7254C80.406 22.6667 80.5628 22.4972 80.5955 21.9171C80.6347 21.0762 80.6281 20.9654 80.5105 20.9002C80.4387 20.8611 80.4125 20.7959 80.4387 20.6851C80.4844 20.5221 80.21 19.6682 80.0597 19.4922C80.014 19.4335 79.9421 19.2901 79.9029 19.1728C79.8637 19.0555 79.7723 18.8795 79.7069 18.7817C79.3933 18.3319 79.4129 18.1298 79.8115 17.7452C80.0075 17.5562 80.0663 17.5366 80.6412 17.4975C81.4121 17.4389 81.68 17.5236 81.8891 17.8952C81.9675 18.0321 82.0981 18.1755 82.1831 18.2081C82.4052 18.2993 82.4117 18.3123 82.3072 18.3775C82.1504 18.4753 83.2153 19.4661 83.7576 19.7334C84.2541 19.9681 84.5285 19.9941 84.8487 19.8246C85.1884 19.6552 85.3452 19.4009 85.3321 19.062C85.3256 18.899 85.2995 18.7361 85.2733 18.6904C85.2407 18.6448 85.2145 18.5144 85.208 18.4101C85.1753 17.9278 85.0381 17.3737 84.9205 17.2238C84.8487 17.1325 84.7899 16.9761 84.7899 16.8783C84.7899 16.7805 84.7311 16.6501 84.6657 16.5915C84.5939 16.5263 84.5155 16.3829 84.4893 16.2786C84.4697 16.1678 84.3783 15.9592 84.2933 15.8092C84.2084 15.6658 84.0516 15.3529 83.9405 15.1183C83.8295 14.8901 83.7119 14.6815 83.6857 14.662C83.6531 14.6424 83.6073 14.5381 83.5877 14.4208C83.5485 14.2513 83.5747 14.1666 83.7184 13.9775C83.8621 13.782 83.934 13.7494 84.0973 13.7624C84.2672 13.782 84.3195 13.8406 84.5416 14.2709ZM20.7828 14.8445C20.8808 15.0075 20.8939 15.0792 20.8351 15.1378C20.7959 15.1769 20.7632 15.3334 20.7632 15.4833C20.7632 15.6463 20.724 15.7897 20.6652 15.8353C20.6129 15.8809 20.5672 15.9592 20.5672 16.0048C20.5672 16.1026 20.1687 16.8261 19.7244 17.5432C19.5807 17.7843 19.4565 18.019 19.4565 18.0646C19.4565 18.1103 19.352 18.2211 19.2279 18.3058C19.1037 18.3906 18.9992 18.4949 18.9992 18.534C18.9992 18.5731 18.8424 18.7752 18.6529 18.9772C18.2675 19.4009 17.7579 20.0463 17.7579 20.1049C17.7579 20.1636 17.2352 20.659 17.1699 20.659C17.1437 20.659 17.098 20.7372 17.0784 20.8285C17.0523 20.9263 16.8889 21.1349 16.706 21.2913C16.5296 21.4543 16.3859 21.6238 16.3859 21.6694C16.3859 21.7411 16.1311 22.1126 15.9024 22.3669C15.8436 22.432 15.7979 22.5103 15.7979 22.5494C15.7979 22.582 15.6933 22.6798 15.5692 22.758C15.4451 22.8427 15.3079 22.9796 15.2621 23.0709C15.1445 23.3055 14.844 23.6966 14.4455 24.1334C14.256 24.342 14.0535 24.6158 14.0012 24.7396C13.9293 24.9091 13.8705 24.9612 13.7464 24.9612C13.6092 24.9612 13.5765 24.9938 13.5765 25.1177C13.5765 25.2089 13.4981 25.3263 13.3805 25.4175C13.276 25.4958 13.1715 25.6131 13.1519 25.6718C13.1388 25.7304 13.0539 25.8086 12.9755 25.8412C12.8971 25.8803 12.7795 26.0107 12.7076 26.1346C12.6423 26.2584 12.5051 26.4344 12.4071 26.5257C12.3091 26.6169 12.1719 26.7864 12.1065 26.8972C12.0085 27.0667 11.9171 27.1189 11.6623 27.1775C11.4793 27.2166 11.3029 27.2166 11.2376 27.184C11.1788 27.158 10.9959 27.1123 10.8391 27.0928C10.6496 27.0667 10.4993 27.0015 10.4013 26.8907C10.3164 26.806 10.1465 26.6495 10.0159 26.5518C9.86559 26.4409 9.78719 26.3236 9.78719 26.2258C9.78719 26.1411 9.72839 26.0107 9.65652 25.939C9.58465 25.8673 9.52585 25.7565 9.52585 25.6913C9.52585 25.6261 9.50625 25.5479 9.48012 25.5218C9.38212 25.424 9.48012 24.9417 9.66305 24.5832C9.83945 24.2507 9.90479 24.1986 10.3164 24.003C10.5647 23.8792 10.8913 23.664 11.0416 23.5272C11.1853 23.3838 11.3487 23.2664 11.3944 23.2664C11.4401 23.2664 11.4989 23.1947 11.5251 23.11C11.5447 23.0187 11.6231 22.934 11.7145 22.9144C11.806 22.8883 11.9628 22.758 12.0804 22.6146C12.1915 22.4777 12.3679 22.3343 12.4724 22.2952C12.5769 22.2626 12.6619 22.1909 12.6619 22.1387C12.6619 22.0475 13.0604 21.6238 13.8575 20.8611C14.0992 20.6329 14.3148 20.3787 14.3344 20.294C14.354 20.2092 14.4128 20.1375 14.452 20.1375C14.5761 20.1375 15.138 19.5769 15.1772 19.4075C15.2033 19.3227 15.3144 19.2119 15.4255 19.1532C15.5431 19.0946 15.6345 18.9968 15.6345 18.9316C15.6345 18.8664 15.6803 18.8012 15.7325 18.7817C15.7848 18.7621 15.8763 18.7035 15.9351 18.6448C15.9873 18.5861 16.1311 18.4688 16.2421 18.3775C16.3597 18.2863 16.4512 18.195 16.4512 18.1689C16.4512 18.1429 16.5819 17.9799 16.7452 17.8104C16.9085 17.6475 17.0392 17.4715 17.0392 17.4323C17.0392 17.3932 17.1372 17.3085 17.2613 17.2498C17.4116 17.1781 17.5096 17.0738 17.5684 16.9174C17.6141 16.787 17.6729 16.6827 17.6991 16.6827C17.784 16.6827 18.4112 16.1352 18.4112 16.0569C18.4112 16.0113 18.4896 15.9135 18.5876 15.8353C18.6856 15.7571 18.9731 15.5029 19.2279 15.2617C19.9596 14.5642 20.5345 14.4143 20.7828 14.8445ZM63.2103 16.5328C63.5239 16.7153 63.5761 16.8066 63.8571 17.6279C63.942 17.8756 64.0727 18.1624 64.1511 18.2667C64.2229 18.371 64.2687 18.4883 64.2556 18.5405C64.236 18.5861 64.2621 18.6774 64.3079 18.7491C64.3536 18.8208 64.4516 19.0815 64.5104 19.3292C64.5757 19.5769 64.6933 19.8703 64.7783 19.9876C64.8632 20.0984 64.9285 20.2809 64.9285 20.3918C64.9285 20.4961 64.9612 20.6069 64.9939 20.6264C65.0331 20.646 65.0592 20.7698 65.0592 20.8937C65.0592 21.0175 65.1049 21.2261 65.1637 21.363C65.2225 21.4934 65.2748 21.6889 65.2813 21.7932C65.2879 21.8975 65.3467 22.0149 65.4055 22.0605C65.4643 22.1061 65.5165 22.2235 65.5165 22.3343C65.5165 22.4386 65.5623 22.582 65.6145 22.6537C65.6668 22.7189 65.7125 22.8427 65.7125 22.9209C65.7125 22.9992 65.7713 23.1621 65.8432 23.286C65.9673 23.488 66.0392 23.7553 66.1633 24.4202C66.2156 24.7135 66.4835 25.1568 66.6076 25.1568C66.6925 25.1568 66.784 24.9286 66.7317 24.8439C66.7121 24.8113 66.7187 24.518 66.7448 24.1855C66.7709 23.8596 66.7709 23.5532 66.7448 23.5076C66.7187 23.4685 66.7383 23.3903 66.784 23.3316C66.8363 23.2795 66.8885 23.1295 66.9147 22.9992C66.9735 22.6732 67.3981 21.8454 67.6725 21.526C67.9273 21.2326 68.5219 20.9198 68.8289 20.9198C69.2013 20.9198 69.7828 21.174 70.0703 21.4543C70.2271 21.6042 70.3512 21.7606 70.3512 21.8063C70.3512 21.8454 70.3969 21.9692 70.4492 22.067C70.6387 22.432 70.5407 22.608 70.1552 22.608C70.0311 22.608 69.7044 22.6211 69.4365 22.6472C69.1687 22.6667 68.7701 22.6863 68.5545 22.6863C67.96 22.6928 67.9339 22.7189 67.7052 23.5598C67.6464 23.7749 67.5745 24.0356 67.5419 24.1464C67.5092 24.2507 67.4896 24.544 67.5027 24.7983C67.5157 25.046 67.4961 25.3067 67.4569 25.3784C67.3785 25.5349 67.3524 26.3301 67.4243 26.4735C67.4569 26.5387 67.4504 26.7017 67.4177 26.8516C67.3851 27.0146 67.3851 27.2036 67.4243 27.36C67.4569 27.4904 67.5027 27.686 67.5223 27.7968C67.5419 27.9011 67.5941 28.038 67.6399 28.0901C67.6856 28.1423 67.7379 28.2661 67.764 28.3639C67.7836 28.4682 67.8228 28.6246 67.8424 28.7224C67.8685 28.8267 67.9208 28.9506 67.9665 29.0027C68.0841 29.1396 68.2932 29.6872 68.3912 30.0978C68.4304 30.2803 68.5219 30.5476 68.5872 30.6845C68.9008 31.3559 68.5545 32.1381 67.7967 32.4445C67.4112 32.6009 67.3916 32.6009 67.1499 32.4901C67.0127 32.4315 66.8689 32.3141 66.8297 32.2359C66.7905 32.1642 66.6991 32.0208 66.6272 31.9295C66.5488 31.8383 66.4639 31.6036 66.4312 31.408C66.4051 31.2125 66.3136 30.8931 66.2352 30.6975C66.1568 30.502 66.0653 30.2347 66.0261 30.1109C65.9935 29.987 65.9347 29.8566 65.902 29.824C65.8693 29.7849 65.8432 29.7132 65.8432 29.6546C65.8432 29.5959 65.7713 29.4003 65.6799 29.2243C65.5884 29.0483 65.5296 28.8658 65.5492 28.8202C65.5623 28.7746 65.5231 28.6898 65.4512 28.6312C65.3793 28.566 65.3205 28.4682 65.3205 28.403C65.3205 28.3443 65.2879 28.2726 65.2552 28.2531C65.216 28.227 65.1964 28.1358 65.2029 28.038C65.216 27.8815 64.824 26.7929 64.6607 26.5257C64.628 26.4735 64.5757 26.3562 64.5365 26.2649C64.5039 26.1737 64.432 26.0172 64.3732 25.9195C64.3209 25.8152 64.2752 25.6848 64.2752 25.6261C64.2752 25.5675 64.2295 25.4566 64.1772 25.3915C64.1249 25.3198 64.0792 25.2024 64.0792 25.1307C64.0792 25.059 64.0335 24.9547 63.9812 24.896C63.8897 24.7918 63.648 24.179 63.5761 23.8531C63.5565 23.7618 63.4977 23.6445 63.452 23.5923C63.3279 23.4489 63.0992 22.9275 63.0992 22.7906C63.0992 22.7189 63.0404 22.595 62.9685 22.5038C62.8967 22.4125 62.8379 22.2821 62.8379 22.2169C62.8379 22.1583 62.766 22.0475 62.6811 21.9758C62.57 21.891 62.5112 21.7606 62.4785 21.552C62.4459 21.3435 62.3675 21.174 62.2368 21.0371C62.1323 20.9263 62.0604 20.7959 62.08 20.7503C62.0996 20.7046 62.0277 20.5612 61.9232 20.4178C61.8187 20.2809 61.7272 20.1115 61.7272 20.0463C61.7272 19.8638 61.4659 19.3553 61.3809 19.3553C61.3352 19.3553 61.2437 19.2249 61.1784 19.075C61.1065 18.9251 61.0085 18.7686 60.9563 18.7295C60.8844 18.6774 60.8648 18.5601 60.8909 18.2732C60.9171 17.8952 61.1131 17.3346 61.2176 17.3346C61.2437 17.3346 61.2699 17.2759 61.2699 17.2107C61.2699 16.9891 61.3417 16.8783 61.492 16.8783C61.5704 16.8783 61.6815 16.8196 61.7468 16.7479C61.8056 16.6762 61.8971 16.6175 61.9428 16.6175C61.9951 16.6175 62.0865 16.5589 62.1519 16.4872C62.3348 16.2916 62.8313 16.3112 63.2103 16.5328ZM39.1219 18.6578C39.4485 18.7491 40.0496 19.2771 40.1345 19.5509C40.1607 19.6421 40.2195 19.7595 40.2717 19.8116C40.3828 19.942 40.3959 20.3461 40.2979 20.7438C40.2064 21.1088 40.2783 21.2457 40.5527 21.2457C40.7944 21.2457 41.5588 21.0827 41.7287 20.9915C41.9181 20.8872 42.6433 20.659 42.774 20.659C42.9308 20.659 43.2836 20.8937 43.4077 21.0762C43.5711 21.3304 43.4796 21.6433 43.1137 22.08C42.8263 22.419 42.7675 22.4581 42.4147 22.5298C42.2056 22.5755 41.7679 22.6276 41.4412 22.6537C41.1211 22.6798 40.8009 22.7319 40.7356 22.7775C40.6507 22.8362 40.5657 22.8427 40.4416 22.7971C40.324 22.7515 40.2064 22.7515 40.0953 22.7971C39.9451 22.8558 39.9124 22.9209 39.8405 23.3772C39.7883 23.6575 39.7425 24.016 39.736 24.179C39.7295 24.342 39.7099 24.5766 39.6837 24.7005C39.6641 24.8243 39.6315 25.1046 39.6119 25.3198C39.5988 25.5349 39.5727 25.7956 39.5531 25.9064C39.4877 26.2519 39.2721 28.1162 39.2721 28.3183C39.2656 28.7355 39.1807 30.0392 39.1284 30.5346C39.0957 30.8214 39.0892 31.0952 39.1153 31.1538C39.1807 31.2712 39.1611 32.0925 39.0892 32.3467C39.0631 32.451 39.0696 32.5618 39.1153 32.614C39.1545 32.6596 39.1741 32.7509 39.148 32.8095C39.1284 32.8682 39.1415 32.9529 39.1807 32.9986C39.2199 33.0442 39.2656 33.2593 39.2852 33.4744C39.3048 33.683 39.3571 33.9829 39.3963 34.1263C39.4812 34.4848 39.9124 34.902 40.2391 34.9541C40.52 34.9932 40.9577 34.8629 41.2191 34.6543C41.9835 34.0611 42.0684 33.9763 42.1076 33.8069C42.1272 33.7091 42.1991 33.5983 42.2644 33.5657C42.3297 33.5266 42.4016 33.4353 42.4277 33.3571C42.4539 33.2723 42.5388 33.1159 42.6237 33.0051C42.7087 32.8943 42.7805 32.7574 42.7805 32.7052C42.7805 32.5553 42.9765 32.1838 43.1529 31.9947C43.2444 31.8969 43.3097 31.7666 43.2967 31.7014C43.2836 31.5906 43.5384 30.9518 43.7736 30.5085C43.8193 30.4238 43.9696 30.3129 44.1068 30.2673C44.3289 30.1891 44.3812 30.1956 44.5249 30.2869C44.6621 30.3781 44.6817 30.4303 44.6491 30.6258C44.5707 31.1734 44.5249 31.3363 44.3747 31.6232C44.2832 31.7992 44.2309 31.9621 44.2505 32.0012C44.2701 32.0403 44.244 32.112 44.1917 32.1707C44.1329 32.2229 44.0872 32.3141 44.0872 32.3728C44.0872 32.4249 44.0023 32.5814 43.8912 32.7183C43.7867 32.8552 43.6952 33.0246 43.6952 33.0963C43.6952 33.1746 43.6691 33.2463 43.6364 33.2658C43.6037 33.2854 43.5123 33.4288 43.4339 33.5787C43.3555 33.7352 43.1791 33.9698 43.0353 34.1002C42.8981 34.2371 42.7805 34.3805 42.7805 34.4131C42.7805 34.4522 42.7087 34.5109 42.6237 34.5565C42.5323 34.5956 42.4539 34.6869 42.4408 34.7586C42.4277 34.8303 42.3624 34.9215 42.2971 34.9606C42.1664 35.0389 42.1076 35.078 41.7156 35.3974C41.5523 35.5408 41.2975 35.6451 40.8989 35.7494C40.4155 35.8732 40.2521 35.8863 39.7752 35.8472C39.4681 35.8146 39.1023 35.7494 38.9585 35.6907C38.8148 35.6386 38.6515 35.5929 38.5927 35.5864C38.4751 35.5864 37.8871 35.1562 37.6519 34.9085C37.5604 34.8107 37.4297 34.6086 37.3644 34.4587C37.2925 34.3088 37.1749 34.1263 37.1031 34.0611C37.0247 33.9894 36.9659 33.8981 36.9659 33.846C36.9659 33.7417 36.7633 33.1289 36.6 32.7509C36.5412 32.6075 36.4824 32.3337 36.4693 32.1446C36.4563 31.9556 36.3648 31.5645 36.2733 31.2777C36.1492 30.8996 36.1165 30.6845 36.1492 30.515C36.1819 30.3129 36.2276 29.9153 36.2537 29.5242C36.2603 29.472 36.2929 29.2178 36.3256 28.9701C36.4171 28.3183 36.4432 28.0706 36.4693 27.4057C36.4824 27.0798 36.5281 26.7343 36.5673 26.63C36.6065 26.5322 36.6588 26.1346 36.6784 25.75C36.698 25.3719 36.7372 25.0003 36.7699 24.9286C36.8483 24.7461 36.9659 23.9118 36.9659 23.5663C36.9659 23.3707 36.992 23.2664 37.0443 23.2664C37.09 23.2664 37.0639 23.2012 36.9855 23.123C36.8483 22.9926 36.8156 22.9861 36.5085 23.0578C36.3256 23.1035 36.0904 23.136 35.9859 23.136C35.8879 23.136 35.7703 23.1817 35.7245 23.2338C35.6069 23.3772 35.4436 23.3512 35.2933 23.1817C35.0843 22.947 35.0581 22.8101 35.1757 22.6211C35.4501 22.2104 35.8552 21.9627 36.2603 21.9627C36.6653 21.9627 37.2533 21.6629 37.2795 21.4412C37.3252 21.0892 37.3579 20.7372 37.384 20.3983C37.3971 20.2027 37.4232 19.9876 37.4559 19.9289C37.482 19.8638 37.4689 19.7203 37.4297 19.6095C37.3252 19.3032 37.3383 19.1467 37.5081 18.9512C37.776 18.6187 38.4947 18.4883 39.1219 18.6578ZM47.0729 19.8181C47.5825 19.9355 47.772 20.0593 48.0072 20.4178C48.4384 21.0762 48.4907 21.6955 48.1575 22.2495C47.968 22.5624 47.7916 22.6602 47.1252 22.8101C46.5437 22.9405 46.0799 22.9275 45.8708 22.771C45.6356 22.595 45.4592 21.9432 45.4396 21.1805C45.42 20.4309 45.518 20.2679 46.1779 19.9746C46.7659 19.7203 46.694 19.7269 47.0729 19.8181ZM21.9849 21.2131C22.3508 21.2522 22.4292 21.2913 22.6905 21.5325C23.0107 21.8389 23.0237 21.8715 22.8931 22.0605C22.7363 22.2886 22.7036 22.4842 22.8147 22.4842C22.8735 22.4842 22.9192 22.4581 22.9192 22.432C22.9192 22.3408 23.2785 22.2495 23.5725 22.2691C23.7359 22.2821 23.9907 22.3017 24.1475 22.3082C24.3239 22.3147 24.4611 22.3603 24.5133 22.432C24.5591 22.4907 24.6767 22.5624 24.7877 22.5885C24.8923 22.6146 25.0164 22.6602 25.0621 22.6993C25.1471 22.7645 25.4672 23.3968 25.4672 23.4946C25.4672 23.5272 25.5129 23.5989 25.5652 23.6575C25.6501 23.7488 25.6567 23.8466 25.6044 24.2116C25.5652 24.4919 25.5652 24.7005 25.6044 24.7722C25.6436 24.8439 25.6371 24.9026 25.5979 24.9286C25.5652 24.9482 25.5325 25.0199 25.5325 25.0786C25.5325 25.1372 25.4868 25.2741 25.428 25.3849C25.3757 25.4892 25.3235 25.7239 25.3104 25.9064C25.2973 26.1476 25.1928 26.4279 24.9184 26.982C24.4284 27.9532 24.3761 28.0445 24.2716 28.1227C24.2259 28.1553 24.0299 28.416 23.8404 28.6963C23.4484 29.2569 23.4419 29.4069 23.8077 29.5829C23.9123 29.6285 24.0756 29.7132 24.1736 29.7654C24.3304 29.8436 24.4023 29.8436 24.7093 29.7589C24.9053 29.7132 25.1536 29.6089 25.2581 29.5307C25.3692 29.4525 25.4737 29.3938 25.5064 29.3938C25.5979 29.3938 26.6432 28.2531 26.6824 28.1032C26.7347 27.9272 26.6301 27.7903 26.408 27.7381C26.2773 27.7055 26.2512 27.6664 26.2839 27.5817C26.31 27.523 26.3492 27.3992 26.3623 27.3079C26.3819 27.2166 26.4537 27.0276 26.5191 26.8777C26.5844 26.7343 26.6432 26.5713 26.6432 26.5192C26.6432 26.467 26.702 26.3888 26.7804 26.3432C26.8784 26.278 26.898 26.2323 26.8457 26.1737C26.8 26.115 26.8131 26.0629 26.898 25.9912C27.0809 25.8347 27.1463 25.1307 27.0091 24.8113C26.9568 24.6744 26.8653 24.5506 26.8065 24.531C26.7543 24.5115 26.7085 24.4593 26.7085 24.4267C26.7085 24.3876 26.6693 24.2703 26.6171 24.1595C26.4733 23.84 26.4407 23.4098 26.5517 23.299C26.6171 23.2403 26.6236 23.1621 26.5844 23.0578C26.5452 22.947 26.5713 22.8362 26.6824 22.6146C26.7673 22.4516 26.8523 22.2756 26.8784 22.2235C26.9699 22.0018 27.4207 21.7215 27.7604 21.6759C28.0479 21.6368 28.1132 21.6498 28.2243 21.7606C28.2896 21.8389 28.368 21.8975 28.4007 21.8975C28.4268 21.8975 28.5248 22.0931 28.6163 22.3343C28.9103 23.123 28.9364 23.2534 28.8711 23.3772C28.8384 23.4424 28.7731 23.664 28.7273 23.8792C28.6555 24.2181 28.6555 24.2638 28.7535 24.3224C28.8123 24.355 28.8645 24.4202 28.8645 24.4658C28.8645 24.518 28.9168 24.5766 28.9821 24.6027C29.1128 24.6614 30.5763 24.7787 31.0532 24.7722C31.2361 24.7657 31.5432 24.8178 31.7392 24.883C32.0463 24.9873 32.1247 25.0525 32.2815 25.3263C32.4971 25.6848 32.4971 25.9129 32.2749 26.3953C32.2031 26.5583 32.1181 26.7929 32.0985 26.9168C32.0724 27.0406 32.0136 27.2036 31.9679 27.2753C31.9287 27.347 31.8699 27.5426 31.8437 27.712C31.8176 27.8815 31.7719 28.038 31.7392 28.0575C31.7065 28.0771 31.6804 28.2205 31.6869 28.3769C31.6869 28.5269 31.6608 28.7094 31.6216 28.7811C31.5105 28.9766 31.406 29.446 31.3407 30C31.308 30.2803 31.2688 30.5346 31.2492 30.5672C31.2296 30.5998 31.2492 30.691 31.2884 30.7823C31.3472 30.9061 31.3341 30.9843 31.2492 31.1538C31.1839 31.2712 31.1381 31.5058 31.1447 31.6688C31.1447 31.8318 31.1512 32.0534 31.1512 32.1642C31.1577 32.2685 31.1512 32.5683 31.1447 32.8291C31.1316 33.3832 31.2819 33.7156 31.5497 33.7482C31.7653 33.7743 32.3011 33.4158 32.3533 33.2072C32.3795 33.1159 32.4252 33.0442 32.4579 33.0442C32.6147 33.0442 33.4379 31.936 33.4379 31.7144C33.4379 31.6623 33.4967 31.5971 33.5685 31.5775C33.6404 31.558 33.6992 31.4863 33.6992 31.4276C33.6992 31.3755 33.7515 31.2646 33.8233 31.1929C33.9475 31.0495 34.4309 30.15 34.542 29.8371C34.6465 29.5633 34.8883 29.4395 35.228 29.4851C35.3848 29.5112 35.5677 29.5894 35.6331 29.6611C35.7376 29.7719 35.7376 29.798 35.6461 29.8697C35.5873 29.9088 35.4959 30.1109 35.4305 30.3064C35.3717 30.502 35.2541 30.7823 35.1627 30.9257C35.0777 31.0691 34.9601 31.2777 34.9079 31.395C34.8556 31.5058 34.7837 31.6166 34.7445 31.6427C34.7053 31.6688 34.6335 31.7861 34.5812 31.9165C34.5289 32.0403 34.3068 32.3728 34.0912 32.6596C33.8756 32.9399 33.6992 33.1941 33.6992 33.2267C33.6992 33.2593 33.6273 33.318 33.5359 33.3571C33.4444 33.3962 33.3725 33.4744 33.3725 33.52C33.3725 33.5657 33.1439 33.8395 32.8695 34.1328C32.3533 34.6543 31.798 35.0063 31.3015 35.104C30.9552 35.1758 30.1189 34.9346 29.8576 34.6869C29.8119 34.6478 29.7335 34.6086 29.6943 34.6086C29.6485 34.6086 29.544 34.5369 29.4525 34.4457C29.3611 34.3609 29.2043 34.2045 29.0932 34.1067C28.9037 33.9242 28.6359 33.5983 28.3745 33.2072C28.1197 32.8356 28.0087 31.6427 28.1916 31.2125C28.2308 31.1212 28.2504 30.9126 28.2308 30.7432C28.2047 30.5476 28.2177 30.4368 28.2635 30.4368C28.3419 30.4368 28.5379 29.8175 28.5379 29.5763C28.5379 29.4916 28.6163 29.3091 28.7077 29.1722C28.7992 29.0353 28.8972 28.8006 28.9103 28.6507C28.9299 28.5073 28.9887 28.3052 29.0344 28.2075C29.0867 28.1097 29.1259 27.9858 29.1259 27.9206C29.1259 27.862 29.1977 27.6664 29.2892 27.4904C29.4068 27.2558 29.4329 27.1384 29.3872 27.0798C29.3415 27.0211 29.348 26.9755 29.4199 26.9168C29.4787 26.8712 29.5113 26.7929 29.4917 26.7473C29.4721 26.7017 29.5048 26.63 29.5571 26.5909C29.6093 26.5452 29.6485 26.4083 29.6485 26.2845C29.6485 26.0563 29.5767 25.9977 29.2957 25.9716C29.0671 25.9586 28.7339 25.8021 28.7339 25.7109C28.7339 25.6131 28.4595 25.5283 28.3157 25.587C28.2569 25.6066 28.2112 25.6652 28.2112 25.7109C28.2112 25.7565 28.1524 25.8086 28.0805 25.8282C28.0087 25.8478 27.9303 25.9129 27.9107 25.9846C27.8519 26.1672 27.7539 26.4083 27.6493 26.6104C27.5971 26.7147 27.5579 26.8386 27.5579 26.8842C27.5579 26.9363 27.4991 27.0146 27.4207 27.0667C27.3161 27.1449 27.29 27.2166 27.3096 27.4122C27.3292 27.6273 27.3619 27.6795 27.5905 27.7903C27.9237 27.9663 27.9629 28.1553 27.7081 28.416C27.29 28.8398 27.1071 29.0614 27.0091 29.2569C26.9437 29.3743 26.8065 29.4981 26.6759 29.5503C26.5517 29.6024 26.4472 29.6741 26.4472 29.7132C26.4472 29.7458 26.3231 29.8436 26.1728 29.9349C26.016 30.0261 25.8135 30.176 25.722 30.2673C25.624 30.352 25.4345 30.4498 25.2973 30.4759C25.1536 30.502 24.9837 30.5606 24.9119 30.6063C24.742 30.7301 24.1475 30.7236 23.5725 30.5932C23.2001 30.5085 23.0891 30.4563 23.0368 30.3325C22.9061 30.0587 22.4357 30.0913 22.0633 30.4107C21.9261 30.528 21.4753 30.7823 20.9657 31.0235C20.5607 31.2125 20.5019 31.219 19.8028 31.2125C19.2213 31.206 19.0123 31.1734 18.8359 31.0821C18.7117 31.0104 18.568 30.9583 18.5223 30.9583C18.4765 30.9583 18.4112 30.9061 18.372 30.8409C18.3328 30.7823 18.1499 30.6715 17.9604 30.5998C17.7775 30.528 17.6076 30.4238 17.588 30.3586C17.5684 30.2934 17.4247 30.15 17.2613 30.0457C17.1045 29.9349 16.9739 29.8045 16.9739 29.7589C16.9739 29.7132 16.9216 29.6285 16.8628 29.5698C16.7975 29.5112 16.6864 29.3547 16.6145 29.2178C16.5492 29.0809 16.4577 28.9245 16.412 28.8723C16.3205 28.755 16.2552 28.5269 16.216 28.2205C16.2029 28.0966 16.1572 27.875 16.1245 27.7316C16.0004 27.2558 16.0069 26.5257 16.1376 26.1672C16.2029 25.9846 16.2487 25.7956 16.2421 25.7435C16.2029 25.4762 16.5557 24.5245 16.9151 23.9183C16.9477 23.8661 17.0392 23.7097 17.1176 23.5663C17.3789 23.123 17.392 23.0969 17.5749 22.8883C17.6729 22.771 17.7775 22.6798 17.8101 22.6798C17.8493 22.6798 17.8885 22.6341 17.9147 22.582C17.9343 22.5298 17.98 22.4842 18.0192 22.4842C18.0519 22.4842 18.2413 22.3343 18.4308 22.1518C18.6137 21.9692 18.9469 21.7346 19.1625 21.6238C19.3781 21.5129 19.6003 21.3891 19.6525 21.3435C19.7048 21.2978 19.94 21.2392 20.1752 21.2131C20.4104 21.187 20.7632 21.1479 20.9592 21.1218C21.1552 21.0958 21.3773 21.0958 21.4492 21.1218C21.5211 21.1479 21.7628 21.187 21.9849 21.2131ZM75.2773 22.4255C75.408 22.5233 75.4472 22.6146 75.4341 22.7384C75.4276 22.8362 75.4537 22.9992 75.4929 23.1035C75.5387 23.2143 75.5844 23.6054 75.604 23.9835C75.6236 24.3615 75.6563 24.7983 75.6759 24.9612C75.7216 25.3067 75.7281 26.1411 75.6759 26.4605C75.6628 26.5843 75.6367 26.819 75.6171 26.982C75.5583 27.699 74.9768 28.9049 74.5979 29.1005C74.4999 29.1526 74.4019 29.2374 74.3823 29.296C74.3561 29.3482 74.2712 29.3938 74.1863 29.3938C74.1013 29.3938 73.9837 29.446 73.9249 29.5112C73.8335 29.6155 73.7616 29.622 73.4415 29.5763C73.2324 29.5438 72.9711 29.5242 72.8535 29.5242C72.6052 29.5307 72.2067 29.3743 72.0172 29.1983C71.9453 29.1331 71.7689 29.0483 71.6252 29.0092C71.4815 28.9701 71.2528 28.8658 71.1221 28.7746C70.9915 28.6833 70.8477 28.6116 70.8085 28.6116C70.7693 28.6116 70.6713 28.5464 70.5864 28.4617C70.3839 28.2726 70.1356 28.0836 69.6979 27.7903C69.5019 27.6534 69.3189 27.523 69.2993 27.4904C69.2797 27.4578 69.0772 27.3992 68.8485 27.3535C68.5088 27.2818 68.3977 27.2232 68.2475 27.0472C68.0711 26.832 68.0123 26.656 68.1168 26.656C68.1429 26.656 68.2148 26.5126 68.2801 26.3366C68.4304 25.8999 68.6264 25.7826 69.1033 25.8347C69.3059 25.8608 69.5803 25.9195 69.7175 25.9716C70.3055 26.2063 70.4819 26.291 70.4819 26.3432C70.4819 26.3692 70.5211 26.3953 70.5733 26.3953C70.6256 26.3953 70.7889 26.4996 70.9392 26.6235C71.0895 26.7473 71.2528 26.8516 71.2985 26.8516C71.3443 26.8516 71.4292 26.9233 71.488 27.0146C71.5468 27.0993 71.7755 27.2949 71.9976 27.4448C72.2263 27.6012 72.5333 27.8229 72.6836 27.9467C73.0168 28.214 73.644 28.3704 74.0033 28.2726C74.3496 28.1749 74.5979 27.888 74.5979 27.5882C74.5979 27.4448 74.6305 27.3014 74.6697 27.2623C74.7155 27.2166 74.7416 26.9559 74.7416 26.5843C74.7351 26.2389 74.7677 25.939 74.8069 25.8934C74.8461 25.8478 74.8527 25.763 74.82 25.6978C74.7939 25.6326 74.7612 25.2546 74.7547 24.8635C74.7481 24.4658 74.722 24.0747 74.6959 23.9835C74.6436 23.7683 74.4672 22.7971 74.4672 22.7123C74.4672 22.582 74.8004 22.2886 74.9507 22.2886C75.0356 22.2886 75.1793 22.3538 75.2773 22.4255ZM10.6104 23.1165C10.5451 23.1817 10.4863 23.0839 10.5451 22.9992C10.5843 22.9275 10.5973 22.9275 10.6235 22.9992C10.6365 23.0448 10.63 23.0969 10.6104 23.1165ZM58.5651 24.8765C58.7611 24.9612 58.9179 25.072 58.9179 25.1112C58.9244 25.1568 59.0093 25.2937 59.1139 25.4175C59.2249 25.5414 59.3099 25.6783 59.3099 25.7239C59.3099 25.7695 59.336 25.8086 59.3752 25.8086C59.4471 25.8086 59.7868 26.467 59.8587 26.7408C59.8783 26.8386 59.9305 26.9168 59.9632 26.9168C60.0024 26.9168 60.0285 27.0015 60.0285 27.1058C60.0285 27.2101 60.0743 27.3275 60.1265 27.3731C60.1788 27.4187 60.2245 27.51 60.2245 27.5817C60.2245 27.6469 60.2637 27.7707 60.316 27.8489C60.3617 27.9272 60.4532 28.227 60.5185 28.5138C60.5839 28.8006 60.6688 29.0809 60.7145 29.1331C60.7603 29.1852 60.8191 29.3743 60.8452 29.5568C60.9171 30.0913 61.002 30.3455 61.1392 30.4694C61.2176 30.5411 61.2568 30.6323 61.2372 30.704C61.2176 30.7692 61.2307 30.8735 61.2633 30.9387C61.296 31.0039 61.394 31.3168 61.4724 31.6362C61.6227 32.2294 61.9624 32.8095 62.1976 32.8682C62.3609 32.9138 62.8052 32.6726 62.8836 32.5032C62.9751 32.3011 63.2299 31.558 63.2952 31.2842C63.3279 31.1603 63.4193 30.8475 63.4977 30.5998C63.5892 30.2999 63.648 29.9218 63.6611 29.4916C63.6741 29.1331 63.7133 28.5529 63.746 28.1944C63.7852 27.8424 63.8113 27.536 63.8048 27.51C63.7917 27.3666 63.844 27.3014 64.0269 27.2232C64.2164 27.1449 64.2687 27.1515 64.4516 27.2623C64.6476 27.3731 64.7195 27.536 64.6607 27.7316C64.6541 27.7642 64.6411 27.8685 64.6345 27.9598C64.628 28.051 64.5953 28.3704 64.5692 28.6768C64.5431 28.9832 64.5169 29.3482 64.5039 29.4916C64.4908 29.635 64.4516 29.8827 64.4124 30.0457C64.3732 30.2086 64.3471 30.5085 64.3405 30.7171C64.3405 30.9322 64.3013 31.1799 64.2491 31.2712C64.0727 31.6101 63.8505 32.1577 63.8701 32.2098C63.8832 32.262 63.6284 32.8552 63.5565 32.9138C63.5369 32.9334 63.3671 33.1289 63.1711 33.3571C62.6876 33.9177 62.5047 34.0024 61.6619 34.0285C61.1065 34.0415 60.9301 34.0285 60.7145 33.9307C60.5708 33.8655 60.3879 33.7808 60.3095 33.7417C60.2376 33.7091 60.0743 33.5526 59.9567 33.3962C59.8391 33.2398 59.6757 33.0638 59.5908 33.0116C59.5059 32.9529 59.4405 32.8552 59.4405 32.7835C59.4405 32.7118 59.4144 32.6531 59.3817 32.6531C59.3491 32.6531 59.2903 32.5618 59.2511 32.4575C59.2184 32.3467 59.14 32.2098 59.0812 32.1577C59.0289 32.1055 58.9832 31.9817 58.9832 31.8839C58.9832 31.7861 58.9375 31.6492 58.8852 31.584C58.8329 31.5123 58.7872 31.3755 58.7872 31.2712C58.7872 31.1734 58.7611 31.0886 58.7219 31.0886C58.6892 31.0886 58.6565 31.0039 58.6565 30.9061C58.6565 30.8018 58.6108 30.6649 58.5585 30.5932C58.5063 30.528 58.4605 30.3455 58.4605 30.1956C58.4605 30.0457 58.4344 29.9023 58.3952 29.8827C58.3037 29.8306 58.1796 29.3352 58.1927 29.0679C58.1927 28.9375 58.1273 28.6963 58.0293 28.5138C57.9379 28.3313 57.8464 28.0575 57.8268 27.8946C57.8072 27.7316 57.768 27.5686 57.7353 27.536C57.7092 27.4969 57.6896 27.3405 57.6896 27.1775C57.6896 26.5452 57.0689 26.0172 56.6704 26.3106C56.4548 26.4735 56.1739 26.9103 56.1739 27.0928C56.1739 27.1775 56.1477 27.2949 56.1151 27.36C55.9844 27.6208 55.8472 28.1423 55.8472 28.39C55.8472 28.5334 55.8211 28.6768 55.7884 28.7159C55.6904 28.8072 55.5924 29.5698 55.6185 30.0131C55.6512 30.5085 55.7231 30.9583 55.7753 30.9583C55.7949 30.9583 55.8211 31.1408 55.8276 31.3689C55.8472 31.8643 55.8733 32.086 55.9256 32.1642C55.9909 32.275 56.1151 33.2072 56.102 33.4809C56.0889 33.6178 56.1085 33.7743 56.1347 33.8199C56.1935 33.9112 56.1935 34.8694 56.1347 35.0845C55.9909 35.6451 54.6189 35.8406 54.3511 35.3322C54.3119 35.2605 54.2335 34.8042 54.1812 34.3088C54.1224 33.8199 54.0636 33.3897 54.044 33.3571C54.0244 33.3245 53.9917 33.1746 53.9787 33.0246C53.9591 32.8747 53.8937 32.6205 53.8284 32.4575C53.7565 32.2946 53.6847 32.0143 53.6716 31.8383C53.6324 31.5058 53.4299 30.8083 53.3449 30.7236C53.3188 30.6975 53.2992 30.5802 53.2992 30.4629C53.2992 30.3455 53.2404 30.0652 53.1685 29.8371C53.0967 29.6155 53.0379 29.3612 53.0379 29.2895C53.0379 29.2113 52.9921 29.1135 52.9399 29.0679C52.8876 29.0223 52.8419 28.931 52.8419 28.8658C52.8419 28.8006 52.8157 28.7289 52.7765 28.7094C52.7439 28.6898 52.7112 28.6116 52.7112 28.5464C52.7112 28.4747 52.6655 28.2857 52.6067 28.1162C52.5479 27.9467 52.4891 27.7316 52.476 27.6403C52.4564 27.5491 52.3584 27.347 52.2539 27.1906C52.0905 26.9559 52.0579 26.8646 52.084 26.6169C52.1167 26.2975 52.1493 26.2389 52.6001 25.7956C52.8549 25.5414 52.9595 25.4827 53.1424 25.4827C53.4429 25.4827 53.8611 25.7043 53.9787 25.926C54.0309 26.0238 54.1485 26.1802 54.2335 26.2715C54.3445 26.3823 54.3837 26.4931 54.3641 26.5974C54.3445 26.7017 54.3837 26.806 54.4817 26.9038C54.5797 27.0146 54.632 27.1645 54.6451 27.3926C54.6843 27.9076 54.9979 28.4486 54.9979 27.9989C54.9979 27.9141 55.0436 27.8098 55.0959 27.7642C55.1743 27.699 55.1873 27.6078 55.1547 27.3992C55.122 27.1645 55.1416 27.0863 55.2919 26.8907C55.3833 26.7669 55.4944 26.5648 55.5271 26.4344C55.5597 26.3106 55.6643 26.115 55.7492 26.0107C55.8407 25.9064 55.9125 25.7826 55.9125 25.7304C55.9125 25.5935 56.5985 24.9612 56.9121 24.8048C57.2911 24.6158 58.0685 24.6483 58.5651 24.8765ZM26.9045 25.222C26.8653 25.2937 26.8065 25.3523 26.7739 25.3523C26.6824 25.3523 26.6955 25.1763 26.7935 25.1372C26.9437 25.072 26.9764 25.0916 26.9045 25.222ZM47.7589 26.2649C47.9745 26.4344 48.0595 27.0993 47.9092 27.4578C47.8439 27.6208 47.8308 27.7381 47.87 27.8489C47.9092 27.9402 47.8961 28.2531 47.8439 28.6833C47.7981 29.0549 47.7393 29.6089 47.7132 29.9153C47.6936 30.2217 47.6413 30.7823 47.6021 31.1669C47.5433 31.7796 47.5499 31.9035 47.6413 32.1381C47.7393 32.3793 47.7393 32.4184 47.6544 32.5162C47.5172 32.6726 47.5368 33.142 47.6936 33.3375C47.7981 33.4744 47.8112 33.5266 47.7459 33.5983C47.6936 33.6635 47.6805 33.7743 47.7197 33.9372C47.7459 34.0741 47.772 34.2501 47.7785 34.3349C47.7851 34.5174 48.2228 34.9085 48.4645 34.9541C48.7912 35.0193 49.0395 34.928 49.1963 34.6869C49.5164 34.1849 49.5621 34.1067 49.6079 33.9503C49.634 33.8655 49.732 33.7091 49.8169 33.6048C49.9019 33.5005 49.9607 33.3832 49.9411 33.3375C49.9019 33.2267 50.0521 32.803 50.1893 32.6466C50.2481 32.5749 50.2939 32.4901 50.2939 32.4445C50.2939 32.3206 50.4311 31.923 50.5683 31.6623C50.6401 31.5254 50.6728 31.382 50.6532 31.3494C50.614 31.2842 50.6663 31.0952 50.9733 30.176C51.0321 29.9935 51.0975 29.9349 51.2804 29.8892C51.6201 29.8045 51.9925 29.8892 51.9925 30.0457C51.9925 30.1109 51.9664 30.1826 51.9337 30.2021C51.9076 30.2217 51.8619 30.3781 51.8423 30.5476C51.7704 31.206 51.594 32.0338 51.5025 32.1316C51.4503 32.1903 51.3849 32.3858 51.3653 32.5618C51.3392 32.7378 51.2869 32.9269 51.2412 32.979C51.1171 33.1289 50.8819 33.6439 50.8819 33.7678C50.8819 33.8264 50.8231 33.9503 50.7512 34.0415C50.6793 34.1328 50.6205 34.2436 50.6205 34.2892C50.6205 34.3283 50.5225 34.4848 50.3984 34.6347C50.1567 34.9346 49.9672 35.2735 49.9672 35.4104C49.9672 35.4626 49.8431 35.5408 49.6928 35.5864C49.536 35.632 49.3661 35.7233 49.3073 35.7885C49.1375 35.971 48.8696 36.0492 48.4319 36.0427C47.7589 36.0297 47.5956 35.9971 47.0207 35.7624C46.5633 35.5799 46.3739 35.456 46.0537 35.1432C45.8381 34.928 45.6487 34.7129 45.6421 34.6608C45.6225 34.4652 45.5964 34.3805 45.3939 33.9242C45.126 33.3115 45.0476 32.0664 45.1913 30.7953C45.2371 30.3977 45.2828 29.8958 45.2959 29.6741C45.3155 29.4525 45.3808 29.0418 45.4527 28.7615C45.5441 28.39 45.5768 28.0771 45.5637 27.5817C45.5507 27.2166 45.5703 26.8972 45.5964 26.8777C45.6291 26.8646 45.6356 26.806 45.616 26.7538C45.5311 26.5387 46.5111 26.1476 47.1644 26.1411C47.5041 26.1346 47.6348 26.1606 47.7589 26.2649ZM55.0959 26.6495C55.1155 26.6821 55.1024 26.7278 55.0632 26.7538C55.0305 26.7734 54.9979 26.7473 54.9979 26.6952C54.9979 26.5778 55.0371 26.5583 55.0959 26.6495ZM28.9299 27.2427C28.9299 27.2753 28.9037 27.3079 28.8645 27.3079C28.8319 27.3079 28.7992 27.2753 28.7992 27.2427C28.7992 27.2036 28.8319 27.1775 28.8645 27.1775C28.9037 27.1775 28.9299 27.2036 28.9299 27.2427ZM48.0072 33.2332C48.0072 33.2658 47.9484 33.3049 47.8765 33.3245C47.7328 33.3636 47.6871 33.2072 47.8308 33.155C47.9223 33.1224 48.0072 33.1615 48.0072 33.2332ZM3.38452 34.6412C3.38452 34.6934 3.35839 34.739 3.32572 34.739C3.24079 34.739 3.18199 34.6347 3.23425 34.5826C3.30612 34.5109 3.38452 34.5435 3.38452 34.6412ZM48.2685 39.3932C48.3208 39.4454 48.4319 39.504 48.5103 39.5236C48.6017 39.5562 48.6736 39.6409 48.6932 39.7452C48.7193 39.843 48.7651 40.0255 48.8043 40.1624C48.8435 40.2928 48.8565 40.4818 48.8304 40.5861C48.8108 40.6839 48.7781 40.8273 48.7651 40.9055C48.7389 41.088 48.4253 41.427 48.2032 41.5183C47.9811 41.6095 47.8047 41.8507 47.87 41.9615C47.8961 42.0072 47.8961 42.1897 47.8765 42.3722C47.8439 42.6395 47.8569 42.7112 47.9484 42.7763C48.0791 42.8741 48.2685 43.2978 48.2685 43.5064C48.2685 43.5846 48.3273 43.728 48.3992 43.8193C48.4711 43.9106 48.5299 44.0018 48.5299 44.0279C48.5299 44.0605 48.5691 44.1126 48.6213 44.1518C48.6736 44.1909 48.7912 44.4125 48.8892 44.6472C49.0133 44.947 49.1571 45.1621 49.3923 45.3772C49.5752 45.5532 49.7581 45.6901 49.8039 45.6901C49.8431 45.6901 49.9084 45.7227 49.9541 45.7683C50.0521 45.8661 50.5095 45.8596 50.9276 45.7553C51.1824 45.6901 51.3653 45.5793 51.6397 45.3186C51.8488 45.1295 52.0383 44.9731 52.0579 44.9731C52.084 44.9731 52.2931 44.7515 52.5217 44.4777C53.1555 43.715 53.1293 43.7672 53.0379 43.526C52.9921 43.4086 52.8941 43.2522 52.8288 43.174C52.7635 43.1023 52.7308 43.024 52.7504 42.998C52.77 42.9784 52.7439 42.8937 52.6851 42.8089C52.5544 42.6264 52.5479 42.307 52.672 42.1375C52.7177 42.0658 52.7765 41.9029 52.8027 41.7725C52.8353 41.59 52.8941 41.5183 53.0705 41.4335C53.2012 41.3749 53.3449 41.3227 53.3972 41.3227C53.456 41.3227 53.554 41.2901 53.6193 41.2445C53.8088 41.1272 54.6189 41.3879 54.8345 41.6291C54.9195 41.7269 54.9979 41.8442 54.9979 41.8898C54.9979 41.9941 55.2135 42.4504 55.2788 42.5026C55.3115 42.5221 55.2788 42.5547 55.2069 42.5743C55.1285 42.6003 55.0697 42.6851 55.0436 42.8415C54.9913 43.1805 54.7692 43.3891 54.1681 43.6694C53.6063 43.9301 53.3776 44.1843 53.4625 44.4581C53.4887 44.5363 53.4691 44.6341 53.4103 44.6993C53.2861 44.8427 53.0836 45.5337 53.1359 45.6249C53.162 45.664 53.1293 45.7553 53.0705 45.8205C52.966 45.9378 52.9007 46.1399 52.7961 46.7005C52.7765 46.8048 52.7373 46.9221 52.7112 46.9612C52.6459 47.0525 52.574 47.3654 52.5479 47.7043C52.5348 47.8543 52.4825 48.0303 52.4303 48.0955C52.378 48.1541 52.2996 48.3366 52.2539 48.5061C52.2081 48.6756 52.1363 48.8516 52.084 48.8907C52.0383 48.9233 51.986 49.0406 51.9599 49.1384C51.9076 49.3926 51.5417 49.7772 51.3065 49.8359C51.202 49.862 51.0387 49.9272 50.9472 49.9858C50.7447 50.1162 50.2677 50.2466 49.9541 50.2531C49.8235 50.2531 49.5033 50.2987 49.2485 50.3509C48.8761 50.4291 47.6871 50.4878 47.2232 50.4552C47.1709 50.4486 46.8508 50.4617 46.5176 50.4878C46.0472 50.5203 45.8316 50.5073 45.5703 50.4291C45.3808 50.3704 45.0411 50.2922 44.8059 50.2596C44.3681 50.1879 44.3747 50.1944 43.7148 49.5491C43.46 49.3014 43.3685 49.1645 43.3685 49.0276C43.3685 48.9298 43.2967 48.7473 43.2052 48.6235C43.1072 48.4931 43.0419 48.3171 43.0419 48.1867C43.0419 48.0629 43.0027 47.8869 42.9504 47.7891C42.8981 47.6913 42.8393 47.4632 42.8132 47.2872C42.7871 47.1046 42.7217 46.9091 42.6695 46.8504C42.6172 46.7918 42.5911 46.7135 42.6107 46.6744C42.6368 46.6353 42.6107 46.5375 42.5519 46.4528C42.4996 46.368 42.4669 46.2442 42.4931 46.1855C42.5127 46.1269 42.5061 46.0421 42.4735 45.9965C42.4343 45.9574 42.3755 45.7683 42.3297 45.5923C42.186 44.96 41.6568 43.8323 41.4608 43.728C41.3759 43.6824 41.2125 43.6433 41.0949 43.6303C40.9708 43.6238 40.8271 43.5716 40.7683 43.5129C40.7029 43.4608 40.5788 43.3891 40.4808 43.35C40.2456 43.2587 39.9973 42.9067 39.9451 42.5808C39.9059 42.3135 39.932 42.2223 40.226 41.6486C40.2979 41.5118 40.6441 41.2836 40.9904 41.1532C41.2779 41.0424 41.2844 41.0424 41.6307 41.2184C42.0619 41.4335 42.1925 41.5769 42.4016 42.0398C42.5388 42.3526 42.5453 42.4178 42.4735 42.5612C42.4277 42.6525 42.3885 42.8024 42.3885 42.9002C42.3885 43.0045 42.3624 43.0827 42.3363 43.0827C42.3036 43.0827 42.2252 43.2 42.1599 43.3435C42.0553 43.5781 42.0553 43.6107 42.1468 43.7476C42.2971 43.9758 43.0223 44.6732 43.4665 45.0252C44.1329 45.5402 44.2701 45.6249 44.4792 45.6249C44.5903 45.6249 44.7471 45.6706 44.8255 45.7227C44.9888 45.827 45.2697 45.8075 45.616 45.664C45.8381 45.5728 45.8773 45.5076 45.8577 45.3186C45.8512 45.2795 45.9361 45.1817 46.0407 45.1035C46.2432 44.9666 46.3085 44.8623 46.6025 44.2756C46.694 44.0931 46.8116 43.904 46.8639 43.8649C46.9161 43.8193 46.9619 43.7085 46.9619 43.6172C46.9619 43.4347 47.0337 43.174 47.2297 42.659C47.4061 42.1962 47.3931 41.9159 47.184 41.6617C47.086 41.5443 46.9684 41.4531 46.9227 41.4531C46.8704 41.4531 46.8312 41.4335 46.8312 41.4009C46.8312 41.3749 46.7332 41.1989 46.6091 41.0163C46.4196 40.736 46.3869 40.6318 46.4065 40.3645C46.4261 39.9799 46.5437 39.7387 46.8769 39.4193C47.0599 39.2433 47.1905 39.1716 47.3865 39.1586C47.6675 39.139 48.1052 39.2498 48.2685 39.3932ZM75.4472 44.758C75.604 44.8101 75.7673 44.8753 75.8065 44.9014C75.8392 44.934 75.9503 44.9731 76.0417 44.9926C76.1332 45.0187 76.3749 45.1817 76.584 45.3642C76.7865 45.5402 76.9825 45.6901 77.0217 45.6901C77.0544 45.6901 77.0805 45.7423 77.0805 45.814C77.0805 45.8792 77.1328 46.003 77.1981 46.0878C77.6359 46.6744 77.7992 48.128 77.4725 48.5713C77.4007 48.6691 77.3419 48.832 77.3419 48.9298C77.3419 49.1971 76.9695 49.875 76.6101 50.2531C76.5252 50.3443 76.4076 50.4943 76.3423 50.592C76.2769 50.6963 76.1985 50.7746 76.1659 50.7746C76.0809 50.7746 75.6105 51.2439 75.5583 51.3808C75.5387 51.4395 75.4668 51.4916 75.4015 51.4916C75.3361 51.4916 75.1989 51.5959 75.1009 51.7198C75.0029 51.8436 74.8265 51.9935 74.7089 52.0457C74.3627 52.2086 74.2124 52.3129 74.0817 52.4563C74.0164 52.5346 73.9119 52.5998 73.8531 52.5998C73.7943 52.5998 73.7289 52.6389 73.7093 52.691C73.6897 52.7432 73.5591 52.8018 73.4219 52.8279C73.2847 52.854 73.1344 52.9126 73.0887 52.9648C73.0495 53.0169 72.9711 53.056 72.9188 53.056C72.8208 53.056 72.4419 53.2451 72.3765 53.3233C72.3177 53.395 71.8931 53.4993 71.5011 53.5384C71.292 53.5645 70.9392 53.6362 70.7171 53.7079C70.3708 53.8122 70.1683 53.8252 69.1425 53.8057C68.4957 53.7861 67.7836 53.7731 67.5615 53.7796C67.3393 53.7796 67.0192 53.734 66.8428 53.6688C66.5684 53.5775 65.412 53.4015 64.726 53.3494C64.5953 53.3363 64.3863 53.2972 64.2687 53.2646C64.1445 53.2255 63.8113 53.1408 63.5239 53.0821C63.2364 53.0235 62.9555 52.9518 62.9032 52.9192C62.766 52.854 61.9036 52.7171 61.5312 52.704C61.3679 52.6975 61.1 52.6323 60.9367 52.5476C60.6623 52.4172 60.5316 52.3977 59.6953 52.3977C59.1792 52.3912 58.3168 52.4042 57.7876 52.4238C56.9709 52.4433 56.8076 52.4694 56.7423 52.5606C56.6965 52.6258 56.4809 52.7171 56.2719 52.7627C55.8145 52.867 55.2396 53.0691 55.1155 53.1669C55.0697 53.206 54.9587 53.2581 54.8672 53.2842C54.7757 53.3103 54.5405 53.4798 54.338 53.6492C54.1355 53.8252 53.9329 53.9686 53.8872 53.9686C53.8415 53.9686 53.7304 54.0469 53.6389 54.1512C53.5409 54.2489 53.3841 54.3793 53.2796 54.4445C52.9268 54.6726 51.8357 55.8916 51.7769 56.1328C51.7508 56.2175 51.6593 56.3283 51.5613 56.374C51.4307 56.4326 51.398 56.4783 51.4307 56.5956C51.4568 56.6999 51.398 56.8498 51.2412 57.078C51.1171 57.267 50.9799 57.5408 50.9407 57.6972C50.8427 58.0688 50.7577 59.1378 50.8035 59.5094C50.8427 59.8875 51.1759 60.4872 51.3392 60.4872C51.4045 60.4872 51.4764 60.5458 51.5025 60.611C51.5417 60.7349 51.6528 60.774 52.3257 60.8457C52.6067 60.8783 52.7047 60.8718 52.77 60.787C52.8288 60.7153 52.8876 60.7023 52.966 60.7414C53.0901 60.8131 53.6455 60.6892 53.7696 60.5654C53.8153 60.5198 53.8741 60.4872 53.9068 60.4872C53.9395 60.4872 54.0767 60.4024 54.2073 60.2981C54.3445 60.1938 54.5275 60.083 54.6189 60.0635C54.9064 59.9918 55.5336 58.9553 55.4356 58.7076C55.4029 58.6229 55.2069 58.5186 54.5863 58.2448C54.1747 58.0623 54.0244 57.9189 53.848 57.5278C53.7369 57.2866 53.7369 57.2735 53.848 57.1953C53.9068 57.1497 54.142 57.078 54.3641 57.0389C54.7104 56.9802 54.8411 56.9867 55.2265 57.0975C55.9321 57.2866 56.1935 57.3778 56.3699 57.5082C56.6965 57.7429 57.2584 58.147 57.4479 58.2904C57.6831 58.4599 57.866 58.6555 58.0228 58.8771C58.0881 58.9814 58.1731 59.0335 58.2319 59.014C58.3037 58.9879 58.3299 59.0205 58.3299 59.1183C58.3299 59.1965 58.3821 59.3399 58.454 59.4312C58.5193 59.5289 58.5912 59.7115 58.6173 59.8418C58.6369 59.9722 58.7153 60.1286 58.7872 60.1938C58.8852 60.2786 58.8983 60.3307 58.846 60.3959C58.8068 60.448 58.8003 60.5198 58.8395 60.598C58.8721 60.6632 58.9375 60.8261 58.9832 60.963C59.0485 61.1716 59.042 61.2303 58.9636 61.3215C58.9113 61.3802 58.8329 61.5953 58.7872 61.7909C58.6435 62.4362 58.5389 62.5861 57.8529 63.2119C57.6112 63.427 57.3041 63.6421 57.1735 63.6878C57.0493 63.7269 56.8403 63.8312 56.7227 63.9094C56.6051 63.9876 56.396 64.0789 56.2588 64.1049C56.1216 64.131 55.9387 64.1897 55.8472 64.2418C55.5467 64.4048 54.6124 64.6525 53.8545 64.7633C53.75 64.7829 53.5736 64.822 53.4625 64.8546C53.358 64.8806 53.1359 64.9263 52.9791 64.9458C52.8223 64.9719 52.672 65.0045 52.6393 65.0175C52.5936 65.0501 51.7312 65.0892 49.7059 65.1544C48.2881 65.2 48.6605 65.2 46.6352 65.1544C44.0349 65.0958 43.6495 65.0697 43.0092 64.9523C42.6891 64.8872 42.1533 64.822 41.8267 64.7959C41.5 64.7763 41.1929 64.7242 41.1407 64.6916C41.0231 64.6003 40.6245 64.47 40.1737 64.3592C39.6315 64.2418 38.9781 64.0006 38.8148 63.8768C38.7299 63.8116 38.56 63.7399 38.4359 63.7203C38.2987 63.6943 38.168 63.6095 38.1027 63.5183C38.0439 63.4335 37.9393 63.3423 37.8609 63.3162C37.7368 63.2771 37.0704 62.6578 37.0573 62.5731C37.0443 62.4558 36.9397 62.0712 36.9005 61.9864C36.8156 61.8169 36.6261 61.2368 36.6261 61.1716C36.6327 61.0217 36.7568 60.6175 36.8613 60.422C36.9201 60.3046 36.9659 60.1547 36.9659 60.096C36.9659 59.8679 37.1684 59.5094 37.4559 59.216C37.6911 58.9749 37.7433 58.8771 37.7107 58.7532C37.678 58.6229 37.6976 58.5968 37.8087 58.5968C37.9001 58.5968 37.972 58.5381 38.0112 58.4338C38.0439 58.3426 38.1157 58.2709 38.1615 58.2709C38.2072 58.2709 38.3313 58.1796 38.4359 58.0753C38.5404 57.9645 38.6776 57.8798 38.7364 57.8798C38.8017 57.8798 38.8801 57.8406 38.9063 57.795C39.0043 57.6255 40.0561 57.1432 40.3959 57.1106C40.9512 57.0519 41.6045 57.0845 41.7156 57.1692C41.7875 57.2344 41.8071 57.3322 41.7809 57.5408C41.7417 57.8798 41.5653 58.0623 41.0361 58.3035C40.8532 58.3882 40.6833 58.4925 40.6572 58.5251C40.6376 58.5642 40.5461 58.5968 40.4612 58.5968C40.3044 58.5968 40.1019 58.8119 40.1019 58.9683C40.1019 59.014 40.2391 59.2486 40.4024 59.4898C40.6049 59.7962 40.814 60.0113 41.0688 60.1743C41.6111 60.5328 42.0684 60.7479 42.2775 60.7479C42.382 60.7479 42.5257 60.787 42.6041 60.8261C42.8393 60.9565 43.4927 60.9435 43.7213 60.8066C43.8324 60.7349 43.9827 60.6827 44.0545 60.6827C44.2048 60.6827 44.5903 60.2395 44.6752 59.9787C44.7079 59.8809 44.7732 59.6984 44.8189 59.568C44.8908 59.3725 44.8908 59.216 44.8255 58.688C44.6948 57.6125 44.6556 57.4821 44.3028 56.9541C44.1199 56.6803 43.95 56.387 43.9239 56.3023C43.8977 56.2175 43.7736 56.048 43.6495 55.9242C43.5253 55.8003 43.3555 55.6243 43.2705 55.5331C43.1791 55.4418 43.1072 55.331 43.1072 55.2854C43.1072 55.2398 43.0876 55.2072 43.0549 55.2072C43.0288 55.2072 42.7805 54.992 42.5061 54.7313C41.5 53.7731 41.3693 53.6688 40.9251 53.4211C40.4481 53.1669 39.7687 52.9322 39.0631 52.7823C38.8279 52.7366 38.6123 52.6649 38.5731 52.6258C38.4228 52.4824 38.2007 52.4629 36.6065 52.4629C35.0189 52.4629 34.6139 52.502 34.6139 52.678C34.6139 52.704 34.4767 52.7301 34.3068 52.7301C34.1304 52.7301 33.8103 52.7758 33.5816 52.8279C33.3595 52.88 33.1504 52.9192 33.1243 52.9126C33.0132 52.8866 32.4121 53.0104 32.2423 53.1017C32.1377 53.1538 32.0136 53.1799 31.9548 53.1603C31.9025 53.1408 31.7849 53.1603 31.6869 53.2125C31.5889 53.2581 31.3537 53.3168 31.1577 53.3363C30.9683 53.3624 30.7723 53.408 30.7331 53.4406C30.6873 53.4798 30.5632 53.5058 30.4587 53.5058C30.1973 53.4993 29.2043 53.6362 28.956 53.7144C28.8449 53.747 28.6685 53.7731 28.564 53.7731C28.4595 53.7731 28.1524 53.8252 27.8845 53.8904C27.6167 53.9491 27.192 53.9947 26.9372 53.9882C26.6889 53.9817 26.2055 53.9752 25.8723 53.9752C25.3169 53.9752 24.5525 53.8578 24.0625 53.7079C23.958 53.6753 23.7816 53.6297 23.6705 53.6166C23.37 53.5645 21.5407 52.7562 21.3055 52.5672C21.1879 52.4759 21.0311 52.3716 20.9461 52.339C20.6129 52.1891 20.1164 51.8371 19.8812 51.5698C19.744 51.4199 19.6003 51.296 19.5611 51.296C19.5219 51.296 19.3977 51.1657 19.2801 51.0158C19.1625 50.8658 18.96 50.6246 18.8359 50.4812C18.7052 50.3378 18.5484 50.1423 18.4896 50.038C18.4308 49.9402 18.3589 49.862 18.3328 49.862C18.3067 49.862 18.2805 49.8163 18.2805 49.7642C18.2805 49.712 18.1891 49.4969 18.0845 49.2883C17.9735 49.0732 17.8885 48.8516 17.8885 48.7929C17.8885 48.7343 17.8428 48.5909 17.784 48.48C17.6337 48.1867 17.6141 47.411 17.7579 47.0916C17.8232 46.9482 17.8951 46.7331 17.9147 46.6223C17.9539 46.3746 18.2217 45.9509 18.5288 45.6445C18.6529 45.5206 19.0449 45.2729 19.4108 45.0904L20.0772 44.758L21.2859 44.7645C22.5925 44.7775 22.7493 44.8036 23.4092 45.1491C23.8469 45.3772 24.1801 45.7032 24.4415 46.1595C24.6179 46.4593 24.6571 46.7266 24.5787 47.1177C24.5264 47.3654 24.4676 47.3719 24.3631 47.1372C24.3108 47.0395 24.252 46.9091 24.2193 46.8504C24.1867 46.7852 24.1605 46.694 24.1605 46.6483C24.1605 46.5636 23.6183 46.0747 23.2981 45.8661C22.9649 45.6575 22.5729 45.5728 21.9065 45.5728C21.5472 45.5728 21.2205 45.5989 21.1813 45.6315C21.1421 45.664 20.9069 45.7488 20.6587 45.827C20.3124 45.9313 20.136 46.0291 19.9008 46.2638C19.7244 46.4267 19.5872 46.6027 19.5872 46.6549C19.5872 46.707 19.5284 46.8309 19.45 46.9352C19.2736 47.1829 19.2083 48.0042 19.3324 48.4279C19.3781 48.5909 19.4239 48.7603 19.4304 48.8125C19.4696 49.0146 19.6068 49.2688 19.6917 49.3014C19.744 49.3209 19.7832 49.3796 19.7832 49.4318C19.7832 49.5882 20.2601 50.24 20.4104 50.2987C20.5803 50.3639 21.0245 50.7485 21.0245 50.8267C21.0245 50.9049 21.704 51.5372 22.1025 51.8306C22.2789 51.9609 22.5925 52.15 22.7885 52.2412C22.9845 52.339 23.2328 52.4563 23.3308 52.5085C23.4353 52.5606 23.5529 52.5998 23.5987 52.5998C23.6379 52.5998 23.7881 52.6584 23.9253 52.7301C24.0625 52.7953 24.3108 52.8735 24.4807 52.8996C24.644 52.9192 25.036 53.0104 25.3496 53.0886C25.8069 53.2125 26.0356 53.232 26.5648 53.2125C27.3161 53.1864 28.3353 53.0756 28.6685 52.9909C28.8776 52.9387 29.2043 52.8996 29.9621 52.8279C30.4783 52.7823 30.7331 52.7171 31.0989 52.528C31.1643 52.4955 31.3799 52.4694 31.5759 52.4694C31.7784 52.4694 32.0201 52.4303 32.1181 52.3781C32.2161 52.3325 32.5559 52.2608 32.876 52.2152C33.1961 52.1695 33.5163 52.1043 33.5816 52.0718C33.6992 52.0066 35.6331 51.811 36.0512 51.8175C36.1753 51.824 36.9071 51.824 37.678 51.824C39.0304 51.8175 39.1088 51.824 39.8667 52.0131C40.6899 52.2217 41.9704 52.7888 42.5911 53.2255C42.7544 53.3363 42.9765 53.4798 43.0811 53.5319C43.1856 53.584 43.4143 53.76 43.5776 53.9165C43.7409 54.0664 44.0415 54.3467 44.2375 54.5227C44.4335 54.7052 44.636 54.9399 44.6948 55.0442C44.7471 55.155 44.8581 55.2984 44.9365 55.3701C45.1391 55.5526 45.5245 56.1458 45.5245 56.2697C45.5245 56.3283 45.5964 56.4261 45.6879 56.4848C45.7793 56.5435 45.8512 56.6412 45.8512 56.6999C45.8512 56.7586 45.8904 56.8629 45.9361 56.9346C45.9819 57.0063 46.0603 57.1953 46.1125 57.3583C46.1583 57.5212 46.2236 57.6777 46.2563 57.7103C46.2824 57.7494 46.3085 57.8537 46.3085 57.9449C46.3085 58.0362 46.3543 58.1796 46.4131 58.2643C46.5764 58.4925 46.5764 59.9331 46.4196 60.435C46.3543 60.6436 46.2563 60.8522 46.204 60.9043C46.1517 60.9565 46.1125 61.0152 46.1125 61.0412C46.1125 61.1129 45.6944 61.4975 45.5245 61.5823C45.4331 61.6214 45.1587 61.7322 44.9169 61.8235C44.4988 61.9799 44.4139 61.9864 43.6756 61.9538C42.8263 61.9147 42.3755 61.83 42.2513 61.6866C42.2121 61.6344 42.0945 61.5953 41.9965 61.5953C41.7744 61.5953 41.3693 61.4323 41.2975 61.3085C41.2713 61.2629 41.1276 61.1586 40.9839 61.0869C40.7095 60.95 40.2783 60.5393 39.8405 59.9983C39.5661 59.6528 39.5335 59.5811 39.6511 59.4638C39.7817 59.3334 39.6576 59.1183 39.4485 59.1183C39.3048 59.1183 39.2199 59.1835 39.0631 59.3855C38.9585 59.5355 38.8083 59.6984 38.7364 59.7506C38.658 59.8027 38.5992 59.9135 38.5992 59.9983C38.5992 60.083 38.5665 60.1612 38.5208 60.1743C38.462 60.1938 38.462 60.272 38.5208 60.5002C38.5665 60.6697 38.5992 60.8848 38.5992 60.976C38.5992 61.0934 38.6384 61.1651 38.7299 61.1846C38.8017 61.2042 38.8605 61.2368 38.8605 61.2629C38.8605 61.2889 38.952 61.4323 39.0696 61.5823C39.2068 61.7583 39.3309 61.856 39.4289 61.856C39.5073 61.856 39.6053 61.9147 39.6445 61.9864C39.736 62.1559 40.618 62.5731 40.8728 62.5731C40.9839 62.5731 41.1537 62.6187 41.2517 62.6709C41.3563 62.723 41.5131 62.7686 41.6045 62.7686C41.696 62.7686 41.8332 62.8078 41.8985 62.8599C41.9704 62.912 42.2383 62.9707 42.4865 62.9968C42.7413 63.0229 43.0615 63.1011 43.2052 63.1598C43.3816 63.2315 43.5188 63.251 43.6103 63.2184C43.6952 63.1858 43.7736 63.1923 43.7932 63.2249C43.8193 63.264 43.9565 63.2901 44.1068 63.2901C44.2571 63.2966 44.4857 63.3488 44.6099 63.414C44.7863 63.5118 44.8647 63.5183 44.9888 63.4661C45.0999 63.414 45.1521 63.414 45.1913 63.4726C45.2175 63.5183 45.3743 63.5443 45.5637 63.5443C45.7401 63.5378 46.4065 63.5509 47.0468 63.5704C48.0203 63.603 48.2163 63.59 48.2489 63.5118C48.2947 63.3944 48.4645 63.3944 48.556 63.5183C48.6148 63.5965 48.6997 63.603 49.0199 63.5443C49.2355 63.5118 49.4707 63.4857 49.5425 63.4987C49.6144 63.5052 49.9019 63.5118 50.1828 63.5118C50.5683 63.5183 50.7185 63.4922 50.7708 63.4205C50.8231 63.3553 50.9995 63.3162 51.3065 63.2966C51.5613 63.2836 51.8553 63.2315 51.9599 63.1728C52.0709 63.1141 52.3061 63.062 52.4825 63.0555C52.9399 63.0359 53.946 62.912 54.0179 62.8664C54.0571 62.8469 54.0832 62.7686 54.0832 62.6969C54.0832 62.5926 54.1028 62.5861 54.2073 62.6513C54.3119 62.71 54.3837 62.7035 54.5993 62.6057C54.828 62.5079 54.8607 62.4688 54.828 62.3384C54.8019 62.2406 54.8149 62.182 54.8607 62.182C54.926 62.182 54.9652 62.3189 54.9391 62.4558C54.926 62.534 55.2461 62.5144 55.2919 62.4362C55.3311 62.3775 55.6055 62.2211 56.2131 61.9278C56.3568 61.856 56.5136 61.7192 56.5528 61.6279C56.592 61.5366 56.6704 61.4649 56.7161 61.4649C56.7619 61.4649 56.886 61.3737 56.9905 61.2694C57.1473 61.1064 57.1865 60.9956 57.2257 60.6175C57.2715 60.2003 57.2649 60.1352 57.1081 59.8549C56.9383 59.5485 56.5267 59.1183 56.4091 59.1183C56.3764 59.1183 56.298 59.0726 56.2327 59.014C56.0889 58.8836 55.9125 58.9358 55.9125 59.1118C55.9125 59.1835 55.8799 59.2617 55.8407 59.2878C55.8015 59.3073 55.7819 59.379 55.8015 59.4377C55.8145 59.5029 55.7884 59.6072 55.7427 59.6723C55.6904 59.7375 55.6512 59.8614 55.6512 59.9461C55.6512 60.0309 55.6251 60.096 55.5924 60.096C55.5597 60.096 55.5075 60.1612 55.4879 60.2395C55.4029 60.5067 54.6973 61.126 54.2008 61.3672C53.946 61.491 53.6847 61.5953 53.6193 61.5953C53.554 61.5953 53.3449 61.654 53.1555 61.7322C52.966 61.8039 52.672 61.8691 52.4956 61.8756C52.3257 61.8756 52.1689 61.9017 52.1559 61.9278C52.1363 61.9473 51.8423 61.9538 51.4895 61.9343C50.9472 61.9082 50.7969 61.8756 50.4964 61.7192C50.3004 61.6149 50.0979 61.5301 50.0391 61.5301C49.8823 61.5301 49.2485 60.8066 49.2485 60.6306C49.2485 60.598 49.1767 60.4024 49.0852 60.2003C49.0003 60.0048 48.9349 59.8027 48.9545 59.7571C48.9676 59.7115 48.9937 59.3855 49.0068 59.0335C49.0264 58.5772 49.0656 58.3686 49.1375 58.2839C49.1963 58.2252 49.2747 58.0232 49.3204 57.8472C49.3596 57.6646 49.4184 57.4691 49.4511 57.4104C49.4837 57.3452 49.5099 57.2475 49.5099 57.1888C49.5099 57.1366 49.5556 57.0454 49.6079 56.9932C49.6601 56.9346 49.7059 56.8433 49.7059 56.7781C49.7059 56.7129 49.7647 56.6086 49.8431 56.5369C49.9215 56.4718 50.0652 56.224 50.1697 56.0024C50.3527 55.5983 50.8296 54.9986 51.5156 54.3076C51.7051 54.1186 51.8619 53.936 51.8619 53.9035C51.8619 53.8709 51.9141 53.8318 51.9795 53.8122C52.0383 53.7926 52.1885 53.6883 52.3061 53.5775C52.4237 53.4732 52.5544 53.382 52.5871 53.382C52.6263 53.382 52.8157 53.2516 53.0183 53.0886C53.2143 52.9257 53.4103 52.7953 53.456 52.7953C53.5017 52.7953 53.6781 52.7236 53.8611 52.6389C54.5863 52.2869 54.926 52.1435 55.1677 52.0848C55.3115 52.0522 55.514 51.9935 55.6185 51.9544C56.1281 51.7849 56.7619 51.7393 58.3952 51.7849C60.8648 51.8501 61.0608 51.8632 61.6619 52.0457C61.8252 52.0978 62.1845 52.15 62.4655 52.163C62.7987 52.1826 63.0077 52.2217 63.0861 52.2869C63.1449 52.3455 63.3867 52.4107 63.6219 52.4368C63.8571 52.4563 64.2033 52.5346 64.3928 52.6063C64.5823 52.6715 64.8763 52.7301 65.0461 52.7301C65.216 52.7301 65.4643 52.7627 65.608 52.8018C65.7452 52.8409 66.0261 52.88 66.2287 52.8931C66.4312 52.9061 66.8885 52.9778 67.2544 53.0495C67.6137 53.1212 68.0841 53.1799 68.2997 53.1799C68.8812 53.1929 69.6587 53.1212 69.724 53.0495C69.7632 53.0169 69.8677 52.9909 69.9592 52.9909C70.0507 52.9909 70.1617 52.9583 70.2009 52.9192C70.2467 52.8735 70.4557 52.8344 70.6713 52.8344C70.8935 52.8279 71.1025 52.7888 71.1483 52.7432C71.194 52.6975 71.292 52.6649 71.3639 52.6649C71.5207 52.6649 71.8931 52.4955 71.9584 52.3977C71.978 52.3651 72.0499 52.352 72.1152 52.3716C72.1871 52.3977 72.2851 52.3586 72.3569 52.2869C72.4223 52.2152 72.5856 52.1239 72.7163 52.0848C72.8535 52.0392 72.9776 51.974 73.0037 51.9414C73.0233 51.9088 73.1605 51.8045 73.3108 51.7132C73.6179 51.5242 73.742 51.4134 74.3169 50.8463C74.5391 50.6312 74.7416 50.4486 74.7743 50.4486C74.8265 50.4421 75.114 50.0966 75.5452 49.5165C75.6693 49.347 75.8196 49.0406 75.8719 48.832C75.9241 48.63 76.0352 48.3366 76.1136 48.1867C76.2573 47.9129 76.2639 47.9064 76.1397 47.6848C76.0744 47.5609 76.0417 47.4306 76.0679 47.3849C76.1267 47.2937 75.996 46.9743 75.7608 46.6223C75.6628 46.4723 75.5779 46.3355 75.5779 46.3094C75.5779 46.2442 75.2251 45.9574 75.1467 45.9509C75.1009 45.9509 75.0552 45.9052 75.0291 45.8531C75.0095 45.8009 74.9376 45.7553 74.8723 45.7553C74.8069 45.7553 74.6632 45.7097 74.5521 45.6575C74.1732 45.4685 73.0037 45.4229 72.4288 45.5793C72.2197 45.638 71.9192 45.7749 71.7559 45.8857C71.4488 46.0943 70.9392 46.7983 70.9392 47.0134C70.9392 47.0786 70.9065 47.1242 70.8608 47.1046C70.7693 47.0786 70.7563 46.4593 70.8347 46.1008C70.8935 45.8335 71.5533 45.2143 71.9519 45.0383C72.1348 44.9666 72.3373 44.8753 72.4092 44.8427C72.7359 44.7058 72.9776 44.6602 73.3827 44.6732C73.6244 44.6798 73.8335 44.6732 73.8465 44.6472C73.8923 44.5755 75.1532 44.6602 75.4472 44.758ZM83.0585 47.3523C83.0585 47.4175 83.0193 47.4827 82.9801 47.4958C82.9279 47.5153 82.8952 47.4632 82.8952 47.3523C82.8952 47.2415 82.9279 47.1894 82.9801 47.2024C83.0193 47.222 83.0585 47.2872 83.0585 47.3523ZM74.9245 54.8486C74.9245 54.9464 74.8069 55.0442 74.7481 54.992C74.7351 54.9725 74.7351 54.8943 74.7612 54.8226C74.8069 54.6726 74.9245 54.6987 74.9245 54.8486ZM75.6432 54.9464C75.6432 54.979 75.6171 55.0116 75.5779 55.0116C75.5452 55.0116 75.5125 54.979 75.5125 54.9464C75.5125 54.9073 75.5452 54.8812 75.5779 54.8812C75.6171 54.8812 75.6432 54.9073 75.6432 54.9464ZM71.2267 58.4338C71.2463 58.486 71.2332 58.5316 71.2005 58.5316C71.1613 58.5316 71.1352 58.486 71.1352 58.4338C71.1352 58.3817 71.1483 58.336 71.1613 58.336C71.1744 58.336 71.2005 58.3817 71.2267 58.4338ZM25.8592 58.9227C25.8592 58.9944 25.8331 59.0531 25.8004 59.0531C25.7089 59.0531 25.6501 58.9358 25.6959 58.8575C25.7612 58.7467 25.8592 58.7858 25.8592 58.9227ZM69.3712 59.5746C69.3712 59.6072 69.3451 59.6398 69.3059 59.6398C69.2732 59.6398 69.2405 59.6072 69.2405 59.5746C69.2405 59.5355 69.2732 59.5094 69.3059 59.5094C69.3451 59.5094 69.3712 59.5355 69.3712 59.5746ZM64.9808 62.4949C65.0004 62.5535 64.9677 62.5796 64.8893 62.56C64.8305 62.5535 64.7652 62.5014 64.7456 62.4558C64.726 62.3971 64.7587 62.371 64.8371 62.3906C64.8959 62.3971 64.9612 62.4492 64.9808 62.4949ZM63.1645 64.0398C63.1645 64.0919 63.1384 64.1375 63.0992 64.1375C63.0665 64.1375 63.0339 64.0919 63.0339 64.0398C63.0339 63.9876 63.0665 63.942 63.0992 63.942C63.1384 63.942 63.1645 63.9876 63.1645 64.0398ZM63.2299 64.496C63.2299 64.5482 63.2037 64.5938 63.1645 64.5938C63.1319 64.5938 63.0992 64.5482 63.0992 64.496C63.0992 64.4439 63.1319 64.3983 63.1645 64.3983C63.2037 64.3983 63.2299 64.4439 63.2299 64.496ZM36.9659 67.5272C36.9659 67.5598 36.9201 67.5923 36.8613 67.5923C36.8091 67.5923 36.7829 67.5598 36.8025 67.5272C36.8221 67.488 36.8679 67.462 36.9071 67.462C36.9397 67.462 36.9659 67.488 36.9659 67.5272ZM57.3499 68.2833C57.3499 68.3355 57.3172 68.3615 57.2845 68.342C57.2453 68.3159 57.2323 68.2703 57.2519 68.2377C57.3107 68.1464 57.3499 68.166 57.3499 68.2833ZM56.8272 68.6744C56.8272 68.7787 56.6573 68.7983 56.5985 68.7005C56.5724 68.6614 56.5724 68.5832 56.592 68.5245C56.6247 68.4463 56.6508 68.4398 56.7292 68.5049C56.7815 68.5506 56.8272 68.6288 56.8272 68.6744ZM56.5005 68.7657C56.5005 68.7983 56.4744 68.8309 56.4352 68.8309C56.4025 68.8309 56.3699 68.7983 56.3699 68.7657C56.3699 68.7266 56.4025 68.7005 56.4352 68.7005C56.4744 68.7005 56.5005 68.7266 56.5005 68.7657ZM55.8799 68.8309C55.8995 68.8635 55.8864 68.896 55.8537 68.896C55.8145 68.896 55.7819 68.8635 55.7819 68.8309C55.7819 68.7918 55.7949 68.7657 55.808 68.7657C55.8276 68.7657 55.8603 68.7918 55.8799 68.8309ZM56.1412 69.0264C56.1608 69.059 56.1477 69.0916 56.1151 69.0916C56.0759 69.0916 56.0432 69.059 56.0432 69.0264C56.0432 68.9873 56.0563 68.9612 56.0693 68.9612C56.0889 68.9612 56.1216 68.9873 56.1412 69.0264ZM54.6059 69.3589C54.6059 69.3915 54.5797 69.4175 54.5405 69.4175C54.5079 69.4175 54.4752 69.3719 54.4752 69.3132C54.4752 69.2611 54.5079 69.235 54.5405 69.2546C54.5797 69.2741 54.6059 69.3198 54.6059 69.3589ZM53.8088 70.6691C53.7892 70.7147 53.7369 70.7538 53.6912 70.7538C53.6455 70.7538 53.5932 70.7147 53.5801 70.6691C53.5605 70.6235 53.6063 70.5909 53.6912 70.5909C53.7761 70.5909 53.8219 70.6235 53.8088 70.6691ZM49.6405 73.2895C49.6405 73.3091 49.6144 73.3417 49.5752 73.3612C49.5425 73.3808 49.5099 73.3678 49.5099 73.3352C49.5099 73.296 49.5425 73.2635 49.5752 73.2635C49.6144 73.2635 49.6405 73.2765 49.6405 73.2895Z" fill="url(#paint2_linear_2381_50)"/>
<path d="M21.5745 22.6852C21.5549 22.7178 21.47 22.7438 21.3785 22.7438C21.2871 22.7438 21.1499 22.7764 21.078 22.8155C20.8885 22.9198 20.6272 23.2067 20.6664 23.2718C20.686 23.2979 20.6337 23.3435 20.5553 23.3631C20.3463 23.4283 20.1764 23.5913 20.1764 23.7216C20.1764 23.7868 20.1307 23.8585 20.0719 23.8781C20.0196 23.8976 19.9869 23.9433 20.0131 23.9758C20.0327 24.0084 19.9935 24.0801 19.9347 24.1258C19.7909 24.2301 19.3271 24.9275 19.3271 25.0384C19.3271 25.084 19.2291 25.3121 19.1115 25.5468C18.8436 26.0878 18.7521 26.3551 18.6999 26.7527C18.6737 26.9353 18.6149 27.1438 18.5627 27.2286C18.4973 27.3394 18.4647 27.6393 18.4451 28.252C18.4255 29.0147 18.4385 29.1515 18.5496 29.3536C18.6149 29.484 18.6737 29.6274 18.6737 29.6795C18.6737 29.8164 19.0657 30.201 19.3009 30.2988C19.5557 30.4031 19.8105 30.2923 20.2091 29.9077C20.3528 29.7708 20.5815 29.5687 20.7121 29.4579C20.8428 29.3471 20.9735 29.1972 20.9931 29.132C21.0192 29.0603 21.1172 28.9169 21.2283 28.8126C21.3328 28.7083 21.4177 28.5779 21.4177 28.5258C21.4177 28.4736 21.4765 28.3824 21.5484 28.3172C21.7248 28.1607 21.7183 27.7435 21.5419 27.3459C21.4308 27.0917 21.4112 26.9418 21.4373 26.4529C21.4504 26.1335 21.4439 25.8597 21.4243 25.8401C21.3524 25.7619 21.4308 24.6081 21.5223 24.4713C21.5745 24.393 21.6007 24.2822 21.5811 24.2235C21.5549 24.1714 21.568 24.1062 21.6072 24.0801C21.6464 24.0606 21.6791 23.9367 21.6791 23.8129C21.6791 23.676 21.7313 23.5391 21.8097 23.4609C21.8816 23.3892 21.9404 23.2718 21.9404 23.2067C21.9404 23.1415 21.9861 23.0698 22.0384 23.0437C22.0907 23.0241 22.1364 22.9459 22.1364 22.8742C22.1364 22.8025 22.1691 22.7438 22.2083 22.7438C22.2409 22.7438 22.2605 22.7178 22.2409 22.6917C22.1952 22.6135 21.6203 22.6135 21.5745 22.6852ZM21.0257 26.9809C21.0257 27.0135 20.9996 27.0461 20.9604 27.0461C20.9277 27.0461 20.8951 27.0135 20.8951 26.9809C20.8951 26.9418 20.9277 26.9157 20.9604 26.9157C20.9996 26.9157 21.0257 26.9418 21.0257 26.9809Z" fill="#55005D"/>
<path d="M23.0728 24.0301C23.0989 24.1214 23.0858 24.1866 23.027 24.2257C22.8833 24.3104 22.7853 24.5386 22.831 24.6885C22.8506 24.7798 22.8376 24.8319 22.7853 24.8319C22.733 24.8319 22.72 24.8841 22.7396 24.9753C22.7657 25.0601 22.7396 25.1644 22.6873 25.223C22.5762 25.3404 22.4978 26.0444 22.5828 26.0965C22.6154 26.1161 22.6873 26.077 22.7461 26.0118C22.818 25.9335 22.831 25.8749 22.7918 25.8488C22.7526 25.8227 22.8049 25.6924 22.916 25.5229C23.027 25.3599 23.0924 25.197 23.0728 25.1187C23.0532 25.0535 23.0989 24.8841 23.1708 24.7407C23.2688 24.5581 23.2884 24.4538 23.2426 24.3691C23.2034 24.3104 23.1969 24.2127 23.21 24.1605C23.2296 24.1149 23.1969 24.0301 23.1381 23.978C23.0401 23.8998 23.0336 23.8998 23.0728 24.0301Z" fill="#5F0168"/>
<defs>
<radialGradient id="paint0_radial_2381_50" cx="0" cy="0" r="1" gradientTransform="matrix(-2.107 -48.1311 74.6802 -3.21626 49.9167 65.285)" gradientUnits="userSpaceOnUse">
<stop stop-color="white"/>
<stop offset="0.9999" stop-color="#281515"/>
</radialGradient>
<radialGradient id="paint1_radial_2381_50" cx="0" cy="0" r="1" gradientTransform="matrix(1.225 32.9511 -86.06 3.1314 49.1794 17.9992)" gradientUnits="userSpaceOnUse">
<stop stop-color="white"/>
<stop offset="1" stop-color="#281515"/>
</radialGradient>
<linearGradient id="paint2_linear_2381_50" x1="45.1899" y1="69.5561" x2="48.7263" y2="-9.69346" gradientUnits="userSpaceOnUse">
<stop stop-color="#29002D"/>
<stop offset="0.826923" stop-color="#70007B"/>
<stop offset="1" stop-color="#F200FF"/>
</linearGradient>
</defs>
</svg>
