<svg width="181" height="180" viewBox="0 0 181 180" fill="none" xmlns="http://www.w3.org/2000/svg">
<g clip-path="url(#clip0_2372_39)">
<ellipse cx="91.4406" cy="113.732" rx="55.8" ry="36.045" fill="url(#paint0_radial_2372_39)"/>
<path d="M169.428 60.3935C156.899 90.0872 77.7976 105.176 88.3075 101.425C98.8175 97.674 11.2504 100.525 11.25 60.3937C11.2496 20.262 80.7893 54.1815 90.4858 54.1437C100.182 54.1059 181.957 30.6998 169.428 60.3935Z" fill="url(#paint1_radial_2372_39)"/>
<g filter="url(#filter0_d_2372_39)">
<g filter="url(#filter1_d_2372_39)">
<path d="M130.297 29.6729C130.249 29.7089 129.769 29.7569 129.217 29.7809C127.849 29.8169 126.361 29.9729 126.289 30.0929C126.253 30.1529 126.025 30.2009 125.785 30.2009C124.801 30.2009 121.681 30.7409 121.681 30.9209C121.681 30.9689 121.453 31.0409 121.177 31.0769C120.889 31.1249 120.229 31.2089 119.701 31.2809C118.765 31.4129 117.793 31.6769 117.541 31.8689C117.481 31.9289 117.229 32.0009 117.001 32.0369C116.425 32.1209 115.645 32.4209 115.585 32.5889C115.561 32.6609 115.477 32.7209 115.405 32.7209C115.273 32.7209 113.989 33.2129 113.305 33.5129C113.089 33.6209 112.873 33.7769 112.837 33.8729C112.801 33.9689 112.609 34.0409 112.369 34.0409C112.045 34.0409 111.925 34.1009 111.817 34.3289C111.745 34.4969 111.577 34.6409 111.433 34.6649C111.277 34.6889 111.169 34.8089 111.145 34.9649C111.097 35.2649 110.785 35.3369 110.689 35.0729C110.629 34.9289 110.581 34.9289 110.305 35.0729C110.125 35.1689 109.921 35.2409 109.837 35.2409C109.765 35.2409 109.549 35.3609 109.357 35.5169C109.177 35.6729 108.709 35.9249 108.325 36.0689C107.941 36.2249 107.533 36.4769 107.413 36.6329C107.293 36.7889 107.113 36.9209 107.017 36.9209C106.921 36.9209 106.741 37.0289 106.633 37.1489C106.513 37.2809 106.177 37.4969 105.889 37.6409C105.577 37.7849 105.313 38.0009 105.241 38.1689C105.181 38.3249 104.989 38.5049 104.797 38.5649C104.605 38.6369 104.077 39.0449 103.621 39.4889C103.165 39.9209 102.757 40.2809 102.709 40.2809C102.565 40.2809 101.665 41.1089 100.237 42.5609C98.1735 44.6609 97.6575 45.2129 97.2015 45.8489C96.9735 46.1609 96.5415 46.6889 96.2535 47.0129C95.9655 47.3369 95.7615 47.6729 95.7975 47.7689C95.8335 47.8649 95.7495 47.9849 95.5935 48.0569C95.3535 48.1649 94.3455 49.5209 93.6615 50.6609C93.5295 50.8769 93.2295 51.2969 92.9895 51.5729C92.7615 51.8609 92.4735 52.3409 92.3655 52.6409C92.1135 53.3249 91.2855 54.2009 90.9015 54.2009C90.5655 54.2009 89.6895 53.2289 89.2455 52.3409C89.0775 52.0049 88.7055 51.4169 88.4055 51.0209C88.1175 50.6249 87.7815 50.1089 87.6735 49.8809C87.5655 49.6529 87.0015 48.9089 86.4015 48.2249C85.8135 47.5529 85.3215 46.9409 85.3215 46.8809C85.3215 46.8209 85.1055 46.5209 84.8415 46.2209C84.5775 45.9209 84.3615 45.6209 84.3615 45.5729C84.3615 45.3929 82.3455 43.4009 82.1535 43.4009C82.0575 43.4009 81.9015 43.2929 81.8055 43.1609C81.7095 43.0289 81.6135 42.9569 81.5655 42.9929C81.5295 43.0289 81.5295 42.9569 81.5535 42.8369C81.6375 42.5369 81.1935 41.9969 80.6895 41.7809C80.4615 41.6849 80.2815 41.5529 80.2815 41.4809C80.2815 41.2649 79.1655 40.1609 78.5775 39.7889C78.2535 39.5969 78.0015 39.3929 78.0015 39.3329C78.0015 39.2729 77.8815 39.1769 77.7375 39.1289C77.5815 39.0809 77.4015 38.9729 77.3415 38.8769C77.2695 38.7809 77.0535 38.6969 76.8615 38.6849C76.5735 38.6609 76.5135 38.6009 76.5375 38.3969C76.5615 38.2289 76.4775 38.0849 76.2975 37.9889C76.1415 37.9049 75.8655 37.7129 75.6735 37.5569C75.4455 37.3649 75.2175 37.2809 75.0375 37.3169C74.8575 37.3529 74.7495 37.3049 74.7015 37.1609C74.6175 36.9089 73.4775 36.1289 73.0335 36.0089C72.8775 35.9729 72.7095 35.8649 72.6735 35.7689C72.6375 35.6729 72.2895 35.4449 71.9175 35.2769C71.2455 34.9649 71.1495 34.9409 70.8375 34.9049C70.7535 34.8929 70.6815 34.8089 70.6815 34.7249C70.6815 34.6409 70.3455 34.4129 69.9375 34.2209C69.5175 34.0289 69.0855 33.8009 68.9775 33.7049C68.8575 33.6089 68.6895 33.5609 68.5815 33.6089C68.4855 33.6449 68.0655 33.5009 67.6455 33.2729C67.2375 33.0569 66.7215 32.8409 66.4935 32.7929C66.2655 32.7569 66.0015 32.6489 65.9055 32.5769C65.5935 32.3129 64.8735 32.0849 64.3815 32.0969C64.1295 32.0969 63.8535 32.0249 63.7815 31.9409C63.6015 31.7129 62.2455 31.3649 61.7535 31.4249C61.5135 31.4489 61.3215 31.4249 61.3215 31.3769C61.3215 31.3289 61.2495 31.2809 61.1535 31.2809C61.0695 31.2809 60.8655 31.1849 60.7095 31.0529C60.5055 30.8969 60.2055 30.8249 59.7255 30.8129C59.3415 30.8129 58.9335 30.7529 58.8255 30.6929C58.7175 30.6449 58.3575 30.5609 58.0215 30.5249C57.6975 30.4769 57.2415 30.4169 57.0135 30.3809C56.7855 30.3569 56.5215 30.3929 56.4375 30.4649C56.3175 30.5609 56.2335 30.5489 56.1255 30.4169C55.9815 30.2369 55.6455 30.1289 54.9015 30.0209C54.7095 29.9969 54.3735 29.9249 54.1815 29.8649C53.9775 29.8049 53.7015 29.7929 53.5455 29.8529C53.3775 29.9129 53.1735 29.9129 53.0535 29.8529C52.7775 29.6969 46.7655 29.7809 45.6015 29.9489C44.4375 30.1169 44.0415 30.2009 44.0415 30.3209C44.0415 30.3809 43.7535 30.3929 43.4175 30.3569C42.9135 30.3089 41.5335 30.4769 40.3815 30.7289C40.3215 30.7409 39.8535 30.8249 39.3615 30.9089C38.8695 31.0049 38.0895 31.1849 37.6215 31.3409C37.1655 31.4849 36.5655 31.6049 36.2895 31.6169C36.0135 31.6169 35.5095 31.7609 35.1495 31.9289C34.5135 32.2169 34.2855 32.2769 33.2775 32.4689C32.9895 32.5169 32.6655 32.6489 32.5455 32.7569C32.4255 32.8769 32.1735 32.9609 32.0055 32.9609C31.8255 32.9609 31.6815 32.9969 31.6815 33.0569C31.6815 33.1529 30.9735 33.4169 30.4575 33.5249C30.2775 33.5609 30.0615 33.6569 29.9895 33.7529C29.9175 33.8489 29.7615 33.9209 29.6415 33.9209C29.4615 33.9209 28.5015 34.3289 27.9615 34.6289C27.8655 34.6889 27.5415 34.8329 27.2415 34.9529C26.9415 35.0609 26.6175 35.2649 26.4975 35.3849C26.3895 35.5049 26.1855 35.6009 26.0535 35.6009C25.9095 35.6009 25.6575 35.6969 25.4895 35.8049C25.0575 36.0809 24.5415 36.3689 23.7135 36.8129C23.3295 37.0169 22.9935 37.2689 22.9575 37.3889C22.9095 37.5929 22.3815 37.9169 21.8895 38.0489C21.7335 38.0969 21.6495 38.2169 21.6495 38.3969C21.6615 38.6009 21.5895 38.6609 21.3615 38.6729C20.8215 38.6849 20.7615 38.7209 20.7615 38.9609C20.7615 39.1049 20.6895 39.2009 20.6055 39.1889C20.2935 39.1529 20.1615 39.2129 20.1615 39.3809C20.1615 39.4769 20.0535 39.5609 19.9215 39.5609C19.6095 39.5609 18.0015 40.6409 18.0015 40.8449C18.0015 40.9289 17.9415 41.0009 17.8815 41.0009C17.8095 41.0009 17.6895 41.1449 17.6175 41.3129C17.5335 41.4929 17.3415 41.6369 17.1495 41.6849C16.9695 41.7209 16.6335 41.9489 16.4175 42.1889C16.1895 42.4289 15.7575 42.8489 15.4455 43.1369C15.1335 43.4129 14.8815 43.7009 14.8815 43.7609C14.8815 43.8209 14.7255 43.9529 14.5215 44.0609C14.3295 44.1689 14.1615 44.2889 14.1615 44.3489C14.1615 44.4089 13.7895 44.8289 13.3455 45.2849C12.8895 45.7289 12.3495 46.3409 12.1455 46.6409C11.7735 47.1929 10.8615 48.3089 10.4415 48.7409C10.3095 48.8849 10.2015 49.0289 10.2015 49.0769C10.2015 49.1249 10.0095 49.4369 9.78146 49.7609C9.55346 50.0849 9.36146 50.4569 9.36146 50.5649C9.36146 50.6849 9.25346 50.8529 9.12146 50.9249C8.82146 51.1289 8.48546 51.7769 8.55746 52.0409C8.59346 52.1729 8.53346 52.2809 8.41346 52.3169C8.17346 52.3769 7.32146 53.6129 7.32146 53.8889C7.32146 53.9849 7.16546 54.3569 6.97346 54.7049C6.78146 55.0529 6.58946 55.5209 6.54146 55.7249C6.50546 55.9409 6.40946 56.1209 6.34946 56.1209C6.28946 56.1209 6.24146 56.2529 6.24146 56.4089C6.24146 56.5649 6.15746 56.7209 6.06146 56.7689C5.96546 56.8049 5.88146 56.9129 5.88146 56.9969C5.88146 57.0929 5.79746 57.3329 5.70146 57.5369C5.59346 57.7409 5.44946 58.2449 5.37746 58.6649C5.31746 59.0849 5.20946 59.4689 5.14946 59.5409C5.08946 59.6009 5.04146 59.8649 5.04146 60.1409C5.04146 60.4169 4.99346 60.6809 4.93346 60.7409C4.75346 60.9329 4.56146 61.7369 4.32146 63.2609C4.20146 64.0529 4.00946 65.1329 3.91346 65.6609C3.80546 66.1889 3.72146 66.7529 3.73346 66.9209C3.73346 67.0889 3.69746 67.7969 3.64946 68.5049C3.60146 69.2969 3.62546 70.3409 3.70946 71.2049C3.78146 71.9849 3.86546 73.0649 3.88946 73.5929C3.91346 74.1329 3.99746 74.6849 4.06946 74.8289C4.15346 74.9729 4.17746 75.1889 4.14146 75.3089C4.10546 75.4289 4.14146 75.6809 4.21346 75.8729C4.28546 76.0649 4.34546 76.3769 4.33346 76.5689C4.32146 76.7489 4.36946 76.9769 4.44146 77.0609C4.51346 77.1449 4.54946 77.3969 4.53746 77.6129C4.51346 77.8649 4.56146 78.0209 4.65746 78.0329C4.93346 78.0689 4.94546 78.0809 4.82546 78.2369C4.64546 78.4529 4.93346 80.8889 5.18546 81.3809C5.29346 81.5729 5.41346 82.0409 5.46146 82.4009C5.50946 82.7609 5.59346 83.1089 5.64146 83.1809C5.68946 83.2409 5.76146 83.4929 5.79746 83.7209C5.91746 84.5249 6.10946 85.0889 6.28946 85.1849C6.39746 85.2449 6.48146 85.4129 6.48146 85.5569C6.48146 86.2049 6.82946 87.4289 7.10546 87.7409C7.15346 87.8009 7.20146 87.9689 7.20146 88.1129C7.20146 88.4489 7.50146 89.1569 7.72946 89.3489C7.82546 89.4329 7.93346 89.7209 7.98146 89.9969C8.06546 90.6089 8.50946 91.6409 8.68946 91.6409C8.76146 91.6409 8.89346 91.6889 8.98946 91.7489C9.13346 91.8449 9.13346 91.8929 9.01346 92.0489C8.88146 92.2169 8.90546 92.3609 9.22946 93.0209C9.43346 93.4529 9.67346 93.8369 9.76946 93.8729C9.86546 93.9089 9.98546 94.1609 10.0215 94.4249C10.1535 95.1449 11.0895 97.2209 11.6535 98.0249C11.7855 98.1929 11.8815 98.4329 11.8815 98.5409C11.8815 98.6609 12.0735 99.0089 12.3015 99.3209C12.5295 99.6329 12.7215 99.9689 12.7215 100.053C12.7335 100.149 12.8895 100.437 13.0815 100.701C13.2855 100.965 13.5255 101.373 13.6335 101.601C13.7415 101.829 14.0655 102.285 14.3655 102.609C14.6535 102.933 14.9655 103.365 15.0495 103.569C15.1335 103.773 15.4335 104.193 15.7095 104.505C15.9735 104.805 16.2015 105.105 16.2015 105.165C16.2015 105.225 16.3575 105.453 16.5495 105.693C16.7535 105.933 16.9455 106.281 16.9935 106.473C17.0295 106.665 17.2455 107.013 17.4615 107.241C17.6655 107.469 17.9895 107.925 18.1815 108.261C18.3615 108.585 18.6735 108.993 18.8655 109.137C19.0455 109.293 19.2975 109.593 19.4055 109.797C19.5135 110.013 19.8375 110.397 20.1255 110.673C20.4015 110.949 20.6415 111.225 20.6415 111.285C20.6415 111.357 20.8455 111.645 21.1095 111.933C21.3615 112.221 21.6735 112.629 21.7935 112.833C21.9255 113.037 22.1895 113.349 22.4055 113.529C22.6215 113.709 22.9095 114.057 23.0535 114.297C23.2095 114.537 23.4375 114.813 23.5695 114.909C23.8815 115.137 24.9615 116.217 24.9615 116.313C24.9615 116.373 25.7655 117.405 26.2095 117.921C26.2935 118.017 26.5455 118.233 26.7615 118.401C27.3495 118.833 27.8055 119.349 27.9615 119.733C28.0455 119.913 28.2255 120.093 28.3935 120.129C28.5495 120.177 28.7415 120.321 28.8135 120.477C28.8975 120.621 29.3415 121.185 29.8095 121.725C30.4095 122.421 30.7455 122.721 30.9375 122.721C31.1175 122.721 31.2015 122.793 31.2015 122.961C31.2015 123.117 31.2855 123.201 31.4415 123.201C31.5735 123.201 31.7295 123.297 31.7775 123.417C31.9335 123.813 32.9055 125.001 33.0735 125.001C33.1575 125.001 33.3015 125.121 33.3735 125.277C33.5295 125.553 33.6135 125.649 35.6535 127.521C36.3255 128.145 37.0215 128.805 37.1895 128.985C37.3575 129.177 37.5495 129.321 37.6095 129.321C37.6815 129.321 38.0415 129.633 38.4135 130.005C39.4695 131.097 40.4895 132.033 40.8735 132.273C41.0655 132.393 41.2815 132.561 41.3415 132.645C41.4135 132.729 41.8815 133.137 42.3975 133.557C43.1415 134.181 43.3815 134.313 43.6335 134.265C43.8615 134.229 43.9335 134.253 43.8975 134.361C43.8135 134.625 47.1855 137.769 47.7975 137.997C47.9055 138.033 48.0015 138.117 48.0015 138.177C48.0015 138.273 49.7415 139.185 50.1975 139.329C50.3055 139.365 50.4375 139.557 50.4735 139.761C50.5695 140.193 51.1815 140.757 51.4695 140.661C51.6015 140.625 51.7455 140.721 51.8775 140.961C51.9975 141.165 52.2975 141.429 52.5495 141.561C52.8015 141.681 53.0895 141.921 53.2095 142.089C53.3175 142.257 53.4615 142.401 53.5335 142.401C53.6055 142.401 53.9655 142.677 54.3375 143.001C54.7095 143.337 55.1415 143.637 55.2855 143.673C55.4295 143.709 55.6335 143.865 55.7295 144.021C55.8255 144.165 56.1615 144.405 56.4855 144.561C56.7975 144.705 57.2415 144.981 57.4455 145.173C57.6615 145.365 58.1295 145.701 58.4655 145.917C58.8135 146.145 59.2095 146.445 59.3295 146.589C59.4615 146.721 59.6775 146.841 59.8095 146.841C59.9535 146.841 60.2535 147.033 60.4815 147.273C60.7095 147.513 61.3335 147.993 61.8735 148.353C62.4135 148.713 62.9175 149.085 63.0015 149.181C63.2175 149.445 63.5175 149.409 63.4455 149.133C63.4095 148.965 63.4455 148.929 63.6015 148.965C63.7335 149.001 63.8175 149.133 63.8175 149.313C63.8055 149.613 64.1415 150.081 64.3575 150.081C64.4175 150.081 64.7415 150.273 65.0535 150.501C65.3775 150.729 65.6895 150.921 65.7375 150.921C65.7975 150.921 66.0495 151.077 66.3135 151.281C66.5655 151.473 66.8655 151.641 66.9615 151.641C67.0575 151.641 67.3815 151.857 67.6695 152.121C67.9575 152.385 68.2935 152.625 68.4135 152.661C68.5455 152.709 68.6415 152.781 68.6415 152.853C68.6415 152.913 68.8215 153.033 69.0375 153.129C69.2415 153.213 69.6735 153.513 69.9855 153.789C70.2855 154.053 70.5735 154.281 70.6095 154.281C70.6575 154.281 71.0535 154.521 71.4975 154.797C73.5375 156.117 73.8735 156.321 74.0415 156.321C74.1375 156.321 74.5455 156.597 74.9415 156.921C75.3375 157.245 75.8415 157.605 76.0575 157.713C76.2855 157.821 76.6575 158.037 76.8855 158.193C77.1375 158.361 77.4135 158.457 77.5335 158.421C77.6775 158.373 77.7975 158.433 77.8815 158.589C77.9415 158.721 78.0735 158.805 78.1695 158.769C78.2535 158.733 78.4215 158.841 78.5295 159.009C78.6375 159.189 78.8295 159.321 78.9615 159.321C79.0935 159.321 79.2495 159.429 79.3215 159.561C79.3935 159.693 79.5735 159.801 79.7175 159.801C79.8615 159.801 80.0535 159.909 80.1375 160.041C80.2215 160.173 80.3775 160.281 80.4855 160.281C80.5935 160.281 80.8695 160.425 81.0975 160.605C81.6255 161.025 83.1735 161.985 83.8815 162.345C84.1815 162.501 84.4935 162.717 84.5775 162.825C84.6615 162.945 84.8175 163.041 84.9135 163.041C85.1415 163.041 85.5255 163.257 86.0055 163.665C86.2095 163.833 86.5455 164.013 86.7495 164.061C86.9535 164.109 87.1215 164.193 87.1215 164.253C87.1215 164.313 87.2535 164.361 87.4095 164.361C87.5895 164.361 87.7335 164.445 87.7815 164.589C87.8175 164.709 88.0575 164.901 88.3215 165.021C88.7655 165.225 88.8135 165.225 89.0175 165.045C89.3295 164.757 89.4015 164.793 89.3295 165.189C89.2695 165.489 89.3055 165.573 89.6175 165.729C89.8215 165.837 90.0975 165.921 90.2175 165.921C90.3495 165.921 90.5295 166.029 90.6135 166.173C90.7095 166.305 90.9975 166.461 91.2615 166.521C91.6815 166.617 91.8015 166.593 92.2935 166.269C92.5935 166.077 92.9175 165.921 93.0135 165.921C93.1095 165.921 93.3375 165.789 93.5295 165.621C93.7215 165.465 93.9855 165.297 94.1295 165.249C94.2615 165.201 94.8255 164.877 95.3655 164.529C95.9055 164.169 96.3855 163.881 96.4335 163.881C96.4815 163.881 96.8895 163.641 97.3455 163.341C97.8015 163.041 98.2575 162.753 98.3775 162.717C98.4855 162.669 98.7135 162.537 98.8695 162.417C99.0255 162.297 99.2415 162.201 99.3615 162.201C99.4695 162.201 99.6855 162.069 99.8415 161.901C99.9975 161.733 100.201 161.601 100.285 161.601C100.369 161.601 100.501 161.469 100.561 161.313C100.633 161.097 100.729 161.037 100.909 161.085C101.065 161.121 101.245 161.037 101.437 160.833C101.593 160.665 101.797 160.521 101.869 160.521C102.073 160.521 102.769 160.161 102.865 159.993C102.913 159.921 102.901 159.837 102.829 159.789C102.769 159.753 102.685 159.573 102.649 159.393C102.601 159.105 102.613 159.081 102.829 159.201C102.961 159.261 103.105 159.381 103.141 159.441C103.249 159.621 103.645 159.585 103.729 159.381C103.765 159.285 103.873 159.201 103.969 159.201C104.077 159.201 104.113 159.117 104.077 158.973C104.017 158.733 104.293 158.469 104.377 158.697C104.449 158.925 104.713 158.865 105.109 158.529C105.313 158.361 105.529 158.253 105.601 158.301C105.793 158.421 106.201 158.133 106.201 157.881C106.201 157.713 106.285 157.641 106.489 157.641C106.945 157.641 107.149 157.521 107.077 157.317C107.029 157.209 107.089 157.089 107.197 157.017C107.317 156.957 107.401 156.789 107.401 156.645C107.413 156.405 107.425 156.405 107.533 156.597C107.593 156.705 107.617 156.861 107.581 156.921C107.425 157.173 107.929 157.029 108.349 156.693C108.817 156.321 109.669 155.841 109.861 155.841C109.981 155.829 110.641 155.301 110.641 155.205C110.641 155.169 110.533 155.121 110.389 155.085C110.185 155.025 110.161 154.977 110.281 154.773C110.449 154.437 110.617 154.461 110.713 154.821C110.797 155.181 110.893 155.193 111.157 154.905C111.265 154.797 111.553 154.593 111.805 154.461C112.057 154.329 112.357 154.125 112.489 154.017C112.609 153.909 112.885 153.729 113.089 153.633C113.569 153.381 113.881 153.141 113.881 152.997C113.881 152.937 114.097 152.793 114.373 152.673C114.637 152.553 114.889 152.385 114.925 152.289C114.961 152.193 115.069 152.121 115.177 152.121C115.405 152.121 116.593 151.209 116.689 150.957C116.725 150.861 116.845 150.801 116.929 150.837C117.025 150.873 117.229 150.813 117.385 150.693C117.541 150.573 117.805 150.441 117.997 150.393C118.177 150.357 118.321 150.237 118.321 150.141C118.321 150.033 118.453 149.901 118.621 149.841C118.789 149.781 118.921 149.685 118.921 149.625C118.921 149.577 119.245 149.373 119.641 149.181C120.241 148.881 120.349 148.773 120.361 148.497C120.361 148.101 120.517 147.993 120.841 148.161C121.057 148.269 121.141 148.245 121.417 147.933C121.585 147.729 121.789 147.561 121.861 147.561C122.017 147.561 122.641 146.913 122.929 146.445C123.037 146.265 123.229 146.121 123.337 146.133C123.637 146.169 124.189 146.001 124.297 145.833C124.417 145.641 125.701 144.681 125.845 144.681C125.905 144.681 126.109 144.513 126.313 144.309C126.505 144.105 126.913 143.817 127.213 143.661C127.765 143.373 128.161 142.929 128.161 142.593C128.161 142.485 128.233 142.437 128.329 142.473C128.485 142.533 130.093 141.513 130.741 140.961C130.873 140.841 131.101 140.709 131.245 140.661C131.401 140.625 131.545 140.469 131.581 140.325C131.641 140.097 131.929 139.857 132.601 139.473C132.709 139.413 132.925 139.185 133.081 138.969C133.249 138.753 133.477 138.561 133.585 138.561C133.705 138.561 133.885 138.429 133.993 138.261C134.101 138.093 134.257 137.961 134.341 137.961C134.581 137.961 135.841 137.001 135.841 136.809C135.841 136.725 135.889 136.641 135.949 136.641C136.009 136.641 136.141 136.569 136.225 136.485C136.309 136.413 136.597 136.185 136.873 136.005C137.149 135.825 137.425 135.549 137.509 135.405C137.593 135.261 137.893 135.009 138.193 134.853C138.493 134.697 139.021 134.253 139.381 133.857C139.765 133.449 140.125 133.161 140.269 133.161C140.413 133.161 140.521 133.089 140.521 133.005C140.533 132.777 140.953 132.321 141.157 132.321C141.385 132.321 141.481 132.081 141.349 131.817C141.241 131.601 141.325 131.241 141.481 131.241C141.625 131.241 141.721 131.577 141.637 131.805C141.577 131.949 141.625 131.937 141.817 131.745C141.961 131.601 142.129 131.481 142.189 131.481C142.333 131.481 143.629 130.161 143.857 129.777C143.965 129.585 144.121 129.441 144.205 129.441C144.301 129.441 144.397 129.357 144.433 129.261C144.481 129.165 144.577 129.081 144.661 129.081C144.865 129.081 146.161 127.761 146.161 127.545C146.161 127.473 146.245 127.401 146.353 127.401C146.461 127.401 146.713 127.209 146.917 126.981C147.121 126.753 147.337 126.561 147.397 126.561C147.661 126.561 148.321 125.913 148.321 125.649C148.321 125.445 148.405 125.349 148.657 125.289C148.837 125.241 149.137 125.037 149.317 124.833C149.497 124.629 150.025 124.053 150.481 123.561C150.937 123.069 151.429 122.469 151.585 122.241C151.741 122.013 151.993 121.809 152.137 121.785C152.281 121.761 152.461 121.629 152.533 121.497C152.605 121.353 152.821 121.089 153.013 120.909C153.205 120.717 153.361 120.513 153.361 120.441C153.361 120.381 153.445 120.321 153.541 120.321C153.649 120.321 153.781 120.189 153.841 120.021C153.901 119.853 154.141 119.541 154.369 119.325C154.597 119.109 154.801 118.809 154.825 118.641C154.849 118.473 154.957 118.329 155.101 118.281C155.413 118.197 156.445 117.237 156.661 116.829C156.757 116.649 157.261 116.073 157.789 115.533C158.317 114.993 158.785 114.453 158.821 114.321C158.869 114.189 158.941 114.081 158.977 114.081C159.025 114.081 159.169 113.877 159.301 113.637C159.433 113.397 160.009 112.725 160.585 112.137C161.161 111.549 161.725 110.901 161.845 110.685C161.965 110.481 162.181 110.205 162.337 110.085C162.481 109.965 162.601 109.809 162.601 109.737C162.601 109.617 162.997 109.077 163.933 107.925C164.101 107.709 164.269 107.457 164.317 107.349C164.353 107.241 164.617 106.833 164.917 106.449C165.577 105.561 166.081 104.697 166.081 104.445C166.081 104.325 166.141 104.241 166.213 104.241C166.441 104.241 167.041 103.545 167.041 103.293C167.041 103.173 167.125 103.041 167.209 103.005C167.305 102.969 167.485 102.753 167.593 102.537C167.701 102.321 167.833 102.117 167.881 102.081C167.929 102.045 168.085 101.769 168.217 101.469C168.361 101.157 168.553 100.881 168.661 100.833C168.757 100.797 168.841 100.665 168.841 100.545C168.841 100.425 168.997 100.113 169.189 99.8489C169.669 99.1889 170.725 97.1729 170.809 96.7289C170.857 96.5129 171.001 96.2489 171.133 96.1289C171.253 96.0209 171.361 95.8289 171.361 95.7209C171.361 95.6129 171.409 95.4809 171.469 95.4089C171.625 95.2649 172.561 93.4169 172.561 93.2729C172.561 93.2129 172.669 93.0449 172.801 92.9009C172.933 92.7689 173.053 92.4329 173.077 92.1809C173.125 91.6529 173.401 91.0529 173.689 90.8129C173.797 90.7169 173.881 90.4889 173.881 90.2969C173.881 90.0929 173.989 89.7929 174.121 89.6009C174.241 89.4209 174.385 89.0489 174.433 88.7849C174.481 88.5089 174.589 88.2209 174.673 88.1489C174.769 88.0769 174.841 87.8489 174.841 87.6569C174.841 87.4649 174.973 87.0809 175.129 86.8049C175.285 86.5289 175.453 86.1089 175.501 85.8809C175.597 85.4009 175.765 84.8129 175.981 84.2009C176.065 83.9729 176.209 83.4569 176.293 83.0609C176.377 82.6649 176.509 82.2569 176.605 82.1489C176.689 82.0409 176.737 81.8729 176.701 81.7769C176.653 81.6689 176.761 81.1889 176.917 80.6969C177.085 80.2049 177.181 79.6529 177.157 79.4489C177.121 79.2089 177.193 78.8729 177.361 78.5489C177.565 78.1169 177.613 77.8049 177.625 76.8809C177.625 76.2569 177.673 75.6569 177.721 75.5489C177.781 75.4529 177.865 74.6129 177.913 73.6889C178.165 68.3609 177.805 61.9649 177.193 61.2929C177.061 61.1489 176.977 60.8009 176.941 60.3089C176.881 59.5289 176.557 58.3769 176.149 57.4889C176.029 57.2129 175.921 56.8409 175.921 56.6609C175.921 56.4689 175.849 56.2289 175.765 56.1329C175.669 56.0249 175.501 55.6409 175.393 55.2569C175.285 54.8849 175.081 54.4889 174.961 54.3809C174.829 54.2609 174.649 53.8889 174.541 53.5409C174.445 53.1929 174.289 52.8809 174.205 52.8449C174.109 52.8089 173.917 52.4729 173.761 52.0769C173.521 51.4889 172.945 50.5769 172.669 50.3609C172.621 50.3249 172.501 50.0969 172.405 49.8449C172.297 49.6049 172.165 49.4009 172.093 49.4009C172.033 49.4009 171.817 49.1369 171.613 48.8009C171.409 48.4769 171.133 48.1409 171.001 48.0569C170.869 47.9729 170.761 47.8409 170.761 47.7569C170.761 47.6729 170.653 47.5529 170.533 47.4809C170.401 47.4209 170.173 47.1089 170.017 46.8089C169.849 46.4729 169.537 46.1129 169.237 45.8969C168.949 45.7049 168.721 45.4649 168.721 45.3689C168.721 45.2609 168.565 45.1169 168.373 45.0449C168.037 44.9249 167.761 44.5289 167.761 44.1809C167.761 44.0969 167.545 43.8929 167.281 43.7489C167.017 43.5929 166.717 43.3529 166.621 43.1969C166.513 43.0409 166.369 42.9209 166.285 42.9209C166.213 42.9209 165.865 42.6329 165.517 42.2849C164.509 41.2769 164.269 41.0729 163.321 40.4009C162.829 40.0529 162.289 39.6449 162.121 39.5009C161.953 39.3449 161.497 39.0569 161.101 38.8409C160.705 38.6249 160.273 38.3489 160.129 38.2289C159.997 38.0969 159.841 38.0009 159.769 38.0009C159.709 37.9889 159.361 37.7489 159.001 37.4609C158.641 37.1609 158.185 36.8489 157.981 36.7529C157.789 36.6569 157.489 36.5249 157.321 36.4529C156.757 36.1889 156.445 35.9729 156.337 35.7929C156.277 35.6849 156.133 35.6009 156.013 35.6009C155.893 35.6009 155.761 35.5649 155.713 35.5169C155.605 35.3969 154.777 35.1209 154.549 35.1209C154.441 35.1209 154.321 35.0369 154.285 34.9409C154.201 34.7369 153.025 34.1249 152.281 33.9089C151.981 33.8249 151.621 33.6569 151.477 33.5249C151.285 33.3569 151.165 33.3329 151.009 33.4169C150.853 33.5009 150.757 33.4769 150.613 33.3089C150.505 33.1769 150.061 32.9969 149.617 32.8889C149.161 32.7809 148.801 32.6369 148.801 32.5889C148.801 32.5289 148.669 32.4809 148.501 32.4809C148.333 32.4809 148.069 32.3969 147.913 32.3009C147.769 32.2049 147.517 32.1329 147.349 32.1449C147.193 32.1569 146.749 32.0129 146.377 31.8329C145.969 31.6409 145.585 31.5329 145.453 31.5809C145.333 31.6169 145.045 31.5449 144.829 31.4129C144.601 31.2929 144.157 31.1489 143.821 31.1009C143.497 31.0529 142.921 30.9209 142.561 30.8009C142.153 30.6689 141.313 30.5489 140.401 30.5009C139.573 30.4529 138.637 30.3449 138.301 30.2609C137.977 30.1769 137.377 30.0929 136.981 30.0929C136.597 30.0809 136.129 29.9969 135.949 29.9129C135.733 29.8049 135.565 29.7929 135.421 29.8769C135.277 29.9489 135.181 29.9489 135.121 29.8409C135.049 29.7329 134.869 29.7089 134.545 29.7689C134.269 29.8049 134.029 29.7929 133.993 29.7449C133.921 29.6249 130.405 29.5529 130.297 29.6729ZM51.7215 30.1289C51.7215 30.1649 51.6735 30.2249 51.6015 30.2609C51.5415 30.2969 51.4815 30.2729 51.4815 30.2129C51.4815 30.1409 51.5415 30.0809 51.6015 30.0809C51.6735 30.0809 51.7215 30.1049 51.7215 30.1289ZM40.0815 31.0409C40.0815 31.1009 40.0215 31.1609 39.9495 31.1609C39.8895 31.1609 39.8655 31.1009 39.9015 31.0409C39.9375 30.9689 39.9975 30.9209 40.0335 30.9209C40.0575 30.9209 40.0815 30.9689 40.0815 31.0409ZM58.4415 31.1609C58.4415 31.2209 58.3935 31.2809 58.3215 31.2809C58.2615 31.2809 58.2015 31.2209 58.2015 31.1609C58.2015 31.0889 58.2615 31.0409 58.3215 31.0409C58.3935 31.0409 58.4415 31.0889 58.4415 31.1609ZM60.9135 32.3249C60.7935 32.4449 60.6855 32.2649 60.7935 32.1089C60.8655 31.9769 60.8895 31.9769 60.9375 32.1089C60.9615 32.1929 60.9495 32.2889 60.9135 32.3249ZM126.721 32.3609C126.721 32.4209 126.673 32.4809 126.601 32.4809C126.541 32.4809 126.481 32.4209 126.481 32.3609C126.481 32.2889 126.541 32.2409 126.601 32.2409C126.673 32.2409 126.721 32.2889 126.721 32.3609ZM148.201 33.2729C148.201 33.3689 148.153 33.4169 148.081 33.3809C148.021 33.3449 147.961 33.2609 147.961 33.1889C147.961 33.1289 148.021 33.0809 148.081 33.0809C148.153 33.0809 148.201 33.1649 148.201 33.2729ZM112.321 34.8209C112.513 35.0609 112.441 35.1329 112.105 35.0369C111.961 35.0009 111.841 34.8929 111.841 34.8089C111.841 34.5809 112.129 34.5929 112.321 34.8209ZM150.721 37.0409C150.721 37.1009 150.661 37.1609 150.589 37.1609C150.529 37.1609 150.505 37.1009 150.541 37.0409C150.577 36.9689 150.637 36.9209 150.673 36.9209C150.697 36.9209 150.721 36.9689 150.721 37.0409ZM30.8775 41.6849C31.3335 42.0329 31.4415 42.4289 31.1655 42.6689C31.0695 42.7409 30.6135 42.8129 30.1455 42.8369C29.6775 42.8609 29.2095 42.9449 29.1135 43.0289C28.8495 43.2449 28.8735 43.6049 29.1615 43.7849C29.2935 43.8689 29.4015 44.0249 29.4015 44.1209C29.4015 44.2289 29.6535 44.4329 29.9775 44.5769C30.2895 44.7209 30.6735 44.9249 30.8415 45.0089C31.4175 45.3449 32.4975 45.7169 32.6895 45.6449C32.7975 45.5969 32.8455 45.4889 32.8095 45.3809C32.7615 45.2609 32.8095 45.2009 32.9895 45.2009C33.2775 45.2009 33.3135 45.3209 33.0975 45.5489C32.9775 45.6689 32.9775 45.7289 33.0855 45.7649C33.1575 45.7889 33.3375 45.9209 33.4815 46.0409C33.6375 46.1729 33.9495 46.3049 34.1895 46.3409C34.4295 46.3769 34.7895 46.4849 34.9815 46.5809C35.1855 46.6769 35.5335 46.7969 35.7615 46.8329C35.9895 46.8809 36.3615 47.0129 36.5655 47.1449C36.8535 47.3129 37.2135 47.3849 37.8855 47.3969C38.4375 47.4089 38.8695 47.4809 38.9415 47.5649C39.1455 47.8049 40.2855 48.1769 40.6215 48.1169C40.8135 48.0689 41.0175 48.1289 41.1615 48.2609C41.2935 48.3809 41.5815 48.4649 41.8455 48.4649C42.0975 48.4649 42.4695 48.5609 42.6735 48.6929C43.0095 48.8969 44.1015 49.1369 45.7695 49.3649C46.0215 49.4009 46.3335 49.5329 46.4535 49.6529C46.5735 49.7729 46.8015 49.8929 46.9455 49.9289C47.1015 49.9529 47.6775 50.0609 48.2415 50.1689C48.8055 50.2769 49.3815 50.3609 49.5135 50.3609C49.6575 50.3609 49.8375 50.4329 49.9095 50.5289C50.0175 50.6609 50.6535 50.8169 51.4215 50.8889C51.4935 50.9009 51.7095 50.9609 51.9015 51.0449C52.1055 51.1289 52.8855 51.3329 53.6415 51.5009C54.3975 51.6689 55.1655 51.8969 55.3455 51.9929C55.5135 52.0769 55.8375 52.1609 56.0535 52.1609C56.2815 52.1609 56.8095 52.2929 57.2415 52.4489C57.6735 52.6169 58.4535 52.8329 58.9815 52.9409C59.9295 53.1449 61.1415 53.5289 61.3815 53.7089C61.4415 53.7689 61.8735 53.9369 62.3295 54.0929C62.9415 54.3089 63.3015 54.5249 63.7215 54.9569C64.3455 55.5689 64.5015 55.9169 64.6215 56.9849C64.6815 57.5849 64.6575 57.7769 64.3575 58.4249C63.7455 59.7929 62.4255 60.7409 61.9335 60.1529C61.8495 60.0449 61.6695 59.9609 61.5615 59.9609C61.3335 59.9609 60.6015 59.3129 60.6015 59.1089C60.6015 59.0489 60.5055 59.0009 60.3855 59.0009C60.2655 59.0009 59.9175 58.8329 59.6055 58.6409C59.2935 58.4369 58.9695 58.2809 58.8855 58.2809C58.8015 58.2809 58.6815 58.2329 58.6095 58.1849C58.5495 58.1249 58.2375 57.9809 57.9015 57.8729C57.5775 57.7529 57.0495 57.5369 56.7495 57.3809C56.4375 57.2369 55.8975 57.0689 55.5495 57.0209C55.1895 56.9849 54.6375 56.8169 54.3015 56.6609C53.0055 56.0369 52.5975 55.8809 52.2855 55.8809C52.1175 55.8809 51.8295 55.8209 51.6375 55.7489C51.4575 55.6769 51.1095 55.5929 50.8815 55.5689C50.6535 55.5449 50.2215 55.3889 49.9215 55.2329C49.6215 55.0769 49.0815 54.9209 48.7095 54.8729C48.3375 54.8369 47.8815 54.7169 47.6895 54.6209C47.4975 54.5249 47.2335 54.4409 47.1015 54.4409C46.7775 54.4409 46.0815 54.1889 45.6855 53.9249C45.5175 53.8169 45.2775 53.7209 45.1695 53.7209C45.0495 53.7209 44.7975 53.6729 44.5935 53.6009C44.3895 53.5409 43.8975 53.3969 43.5015 53.2889C43.1055 53.1929 42.2895 52.9049 41.6775 52.6769C41.0775 52.4489 40.5255 52.2809 40.4775 52.3169C40.4175 52.3529 40.2135 52.3169 40.0215 52.2209C39.2895 51.9089 38.1855 51.5609 37.8735 51.5609C37.6935 51.5609 37.3455 51.4289 37.1055 51.2609C36.8655 51.0929 36.5055 50.9609 36.3135 50.9609C36.1215 50.9609 35.8455 50.8529 35.7015 50.7209C35.5575 50.5769 35.2215 50.4329 34.9695 50.3969C34.3335 50.3009 32.1975 49.2449 31.7895 48.8369C31.7175 48.7649 31.5735 48.7289 31.4895 48.7649C31.3935 48.8009 31.2855 48.7409 31.2495 48.6329C31.1775 48.4409 30.1935 47.7329 29.5095 47.3849C29.3415 47.2889 29.0415 47.0729 28.8375 46.9049C28.4775 46.5809 27.7215 45.5129 27.7215 45.3329C27.7215 45.2729 27.6375 45.1649 27.5415 45.0809C27.4095 44.9729 27.3615 44.6969 27.3615 44.1089C27.3615 43.3409 27.4455 43.0289 27.7935 42.5609C27.8655 42.4649 27.9615 42.2369 28.0095 42.0449C28.0695 41.7809 28.1535 41.7209 28.4415 41.7209C28.6455 41.7209 28.8015 41.6729 28.8015 41.6129C28.8015 41.4569 29.1015 41.3969 29.8335 41.3729C30.3255 41.3609 30.5295 41.4209 30.8775 41.6849ZM81.1215 42.8129C81.1215 42.8609 80.8815 42.7769 80.5935 42.6329C80.3055 42.5009 80.0895 42.3449 80.1135 42.2969C80.1735 42.2009 81.1215 42.6809 81.1215 42.8129ZM158.905 55.8809C159.157 56.3729 159.361 56.8289 159.361 56.8889C159.361 56.9489 159.457 57.1169 159.577 57.2489C159.709 57.3929 159.925 57.8249 160.081 58.2209C160.237 58.6169 160.513 59.1929 160.705 59.4929C160.885 59.7929 161.101 60.3329 161.161 60.6809C161.233 61.0289 161.413 61.5929 161.569 61.9409C161.929 62.6729 162.073 64.1369 161.941 65.6489C161.869 66.5849 161.821 66.7409 161.377 67.3889C161.017 67.9289 160.789 68.1449 160.453 68.2529C160.213 68.3369 159.673 68.5769 159.241 68.8049C157.801 69.5489 156.325 69.4289 153.997 68.3489C153.097 67.9409 152.953 68.0609 153.313 68.9369C153.481 69.3689 153.481 69.5369 153.301 70.8089C153.121 72.1289 152.713 73.3889 152.413 73.5809C152.341 73.6169 152.281 73.7609 152.281 73.8929C152.281 74.0369 152.137 74.2169 151.909 74.3369C151.705 74.4449 151.345 74.6849 151.117 74.8649C150.709 75.1769 150.673 75.1889 149.161 75.1529C147.973 75.1289 147.553 75.0809 147.397 74.9369C147.277 74.8409 146.869 74.6249 146.473 74.4689C145.945 74.2529 145.513 73.9289 144.769 73.1969C144.217 72.6569 143.761 72.1649 143.761 72.1049C143.761 71.9729 143.029 70.8089 142.765 70.5209C142.417 70.1369 142.105 69.5969 142.021 69.2369C141.985 69.0209 141.889 68.8169 141.829 68.7809C141.769 68.7329 141.721 68.5529 141.721 68.3609C141.721 68.1689 141.673 67.9769 141.601 67.9409C141.541 67.9049 141.481 67.7609 141.481 67.6409C141.481 67.4369 141.373 67.0649 141.001 65.8769C140.857 65.4449 140.797 63.1889 140.929 62.9849C140.977 62.9129 140.977 62.7209 140.941 62.5649C140.893 62.3729 140.917 62.2529 141.037 62.2049C141.133 62.1689 141.241 61.8929 141.277 61.5809C141.397 60.7529 142.129 59.5649 143.149 58.5209C144.361 57.2849 145.057 56.7569 145.561 56.6849C145.789 56.6489 146.269 56.5529 146.629 56.4689C147.121 56.3609 147.325 56.3609 147.493 56.4569C147.613 56.5409 148.009 56.6009 148.357 56.6009C148.933 56.6009 149.041 56.6489 149.401 57.0209C149.629 57.2489 149.881 57.4409 149.965 57.4409C150.049 57.4409 150.265 57.7409 150.433 58.1009C150.613 58.4729 150.793 58.7969 150.853 58.8329C151.045 58.9409 150.973 60.0809 150.757 60.4649C150.397 61.0649 148.993 61.7609 148.117 61.7609C147.637 61.7609 147.433 61.4249 147.313 60.4409C147.157 59.1809 146.341 58.4369 145.321 58.5929C144.925 58.6529 144.721 58.7969 144.241 59.3369C143.713 59.9369 143.641 60.0569 143.653 60.5489C143.653 60.8489 143.641 61.2329 143.629 61.4009C143.605 61.9169 143.785 63.0089 143.941 63.2009C144.013 63.2969 144.157 63.6449 144.241 63.9809C144.325 64.3049 144.469 64.6889 144.565 64.8209C144.649 64.9529 144.721 65.1569 144.721 65.2889C144.721 65.7209 145.021 66.3809 145.333 66.6449C145.501 66.7889 145.705 67.1369 145.801 67.4249C145.885 67.7129 146.089 68.0729 146.245 68.2529C146.401 68.4209 146.521 68.6129 146.521 68.6969C146.521 68.7689 146.629 68.8889 146.761 68.9609C146.893 69.0329 147.001 69.1649 147.001 69.2609C147.001 69.3569 147.109 69.4889 147.241 69.5609C147.373 69.6329 147.517 69.8249 147.553 69.9809C147.589 70.1369 147.733 70.3049 147.853 70.3409C147.973 70.3889 148.129 70.5089 148.201 70.6289C148.261 70.7489 148.609 71.0009 148.969 71.1809C149.545 71.4689 149.725 71.5049 150.313 71.4449C151.309 71.3369 151.597 71.0249 151.657 69.9569C151.729 68.4089 151.717 68.2049 151.501 68.0849C151.369 68.0129 151.321 67.8929 151.369 67.6889C151.453 67.3889 150.949 65.8169 150.673 65.4929C150.589 65.3849 150.457 65.1209 150.385 64.9049C150.313 64.6889 150.145 64.3649 150.025 64.1849C149.449 63.3569 149.485 62.9849 150.217 62.2769C150.577 61.9289 150.685 61.8929 151.741 61.8209C153.157 61.7129 153.649 61.8689 154.033 62.5529C154.177 62.8049 154.417 63.0689 154.573 63.1289C154.981 63.2969 154.993 63.3209 154.801 63.4409C154.513 63.6209 156.469 65.4449 157.465 65.9369C158.377 66.3689 158.881 66.4169 159.469 66.1049C160.093 65.7929 160.381 65.3249 160.357 64.7009C160.345 64.4009 160.297 64.1009 160.249 64.0169C160.189 63.9329 160.141 63.6929 160.129 63.5009C160.069 62.6129 159.817 61.5929 159.601 61.3169C159.469 61.1489 159.361 60.8609 159.361 60.6809C159.361 60.5009 159.253 60.2609 159.133 60.1529C159.001 60.0329 158.857 59.7689 158.809 59.5769C158.773 59.3729 158.605 58.9889 158.449 58.7129C158.293 58.4489 158.005 57.8729 157.801 57.4409C157.597 57.0209 157.381 56.6369 157.333 56.6009C157.273 56.5649 157.189 56.3729 157.153 56.1569C157.081 55.8449 157.129 55.6889 157.393 55.3409C157.657 54.9809 157.789 54.9209 158.089 54.9449C158.401 54.9809 158.497 55.0889 158.905 55.8809ZM41.7975 56.9369C41.9775 57.2369 42.0015 57.3689 41.8935 57.4769C41.8215 57.5489 41.7615 57.8369 41.7615 58.1129C41.7615 58.4129 41.6895 58.6769 41.5815 58.7609C41.4855 58.8449 41.4015 58.9889 41.4015 59.0729C41.4015 59.2529 40.6695 60.5849 39.8535 61.9049C39.5895 62.3489 39.3615 62.7809 39.3615 62.8649C39.3615 62.9489 39.1695 63.1529 38.9415 63.3089C38.7135 63.4649 38.5215 63.6569 38.5215 63.7289C38.5215 63.8009 38.2335 64.1729 37.8855 64.5449C37.1775 65.3249 36.2415 66.5129 36.2415 66.6209C36.2415 66.7289 35.2815 67.6409 35.1615 67.6409C35.1135 67.6409 35.0295 67.7849 34.9935 67.9529C34.9455 68.1329 34.6455 68.5169 34.3095 68.8049C33.9855 69.1049 33.7215 69.4169 33.7215 69.5009C33.7215 69.6329 33.2535 70.3169 32.8335 70.7849C32.7255 70.9049 32.6415 71.0489 32.6415 71.1209C32.6415 71.1809 32.4495 71.3609 32.2215 71.5049C31.9935 71.6609 31.7415 71.9129 31.6575 72.0809C31.4415 72.5129 30.8895 73.2329 30.1575 74.0369C29.8095 74.4209 29.4375 74.9249 29.3415 75.1529C29.2095 75.4649 29.1015 75.5609 28.8735 75.5609C28.6215 75.5609 28.5615 75.6209 28.5615 75.8489C28.5615 76.0169 28.4175 76.2329 28.2015 76.4009C28.0095 76.5449 27.8175 76.7609 27.7815 76.8689C27.7575 76.9769 27.6015 77.1209 27.4575 77.1809C27.3135 77.2529 27.0975 77.4929 26.9655 77.7209C26.8455 77.9489 26.5935 78.2729 26.4135 78.4409C26.2335 78.6089 25.9815 78.9209 25.8615 79.1249C25.6815 79.4369 25.5135 79.5329 25.0455 79.6409C24.7095 79.7129 24.3855 79.7129 24.2655 79.6529C24.1575 79.6049 23.8215 79.5209 23.5335 79.4849C23.1855 79.4369 22.9095 79.3169 22.7295 79.1129C22.5735 78.9569 22.2615 78.6689 22.0215 78.4889C21.7455 78.2849 21.6015 78.0689 21.6015 77.8889C21.6015 77.7329 21.4935 77.4929 21.3615 77.3609C21.2295 77.2289 21.1215 77.0249 21.1215 76.9049C21.1215 76.7849 21.0855 76.6409 21.0375 76.5929C20.8575 76.4129 21.0375 75.5249 21.3735 74.8649C21.6975 74.2529 21.8175 74.1569 22.5735 73.7969C23.0295 73.5689 23.6295 73.1729 23.9055 72.9209C24.1695 72.6569 24.4695 72.4409 24.5535 72.4409C24.6375 72.4409 24.7455 72.3089 24.7935 72.1529C24.8295 71.9849 24.9735 71.8289 25.1415 71.7929C25.3095 71.7449 25.5975 71.5049 25.8135 71.2409C26.0175 70.9889 26.3415 70.7249 26.5335 70.6529C26.7255 70.5929 26.8815 70.4609 26.8815 70.3649C26.8815 70.1969 27.6135 69.4169 29.0775 68.0129C29.5215 67.5929 29.9175 67.1249 29.9535 66.9689C29.9895 66.8129 30.0975 66.6809 30.1695 66.6809C30.3975 66.6809 31.4295 65.6489 31.5015 65.3369C31.5495 65.1809 31.7535 64.9769 31.9575 64.8689C32.1735 64.7609 32.3415 64.5809 32.3415 64.4609C32.3415 64.3409 32.4255 64.2209 32.5215 64.1849C32.6175 64.1489 32.7855 64.0409 32.8935 63.9329C32.9895 63.8249 33.2535 63.6089 33.4575 63.4409C33.6735 63.2729 33.8415 63.1049 33.8415 63.0569C33.8415 63.0089 34.0815 62.7089 34.3815 62.3969C34.6815 62.0969 34.9215 61.7729 34.9215 61.7009C34.9215 61.6289 35.1015 61.4729 35.3295 61.3649C35.6055 61.2329 35.7855 61.0409 35.8935 60.7529C35.9775 60.5129 36.0855 60.3209 36.1335 60.3209C36.2895 60.3209 37.4415 59.3129 37.4415 59.1689C37.4415 59.0849 37.5855 58.9049 37.7655 58.7609C37.9455 58.6169 38.4735 58.1489 38.9415 57.7049C40.2855 56.4209 41.3415 56.1449 41.7975 56.9369ZM119.725 60.0449C120.301 60.3809 120.397 60.5489 120.913 62.0609C121.069 62.5169 121.309 63.0449 121.453 63.2369C121.585 63.4289 121.669 63.6449 121.645 63.7409C121.609 63.8249 121.657 63.9929 121.741 64.1249C121.825 64.2569 122.005 64.7369 122.113 65.1929C122.233 65.6489 122.449 66.1889 122.605 66.4049C122.761 66.6089 122.881 66.9449 122.881 67.1489C122.881 67.3409 122.941 67.5449 123.001 67.5809C123.073 67.6169 123.121 67.8449 123.121 68.0729C123.121 68.3009 123.205 68.6849 123.313 68.9369C123.421 69.1769 123.517 69.5369 123.529 69.7289C123.541 69.9209 123.649 70.1369 123.757 70.2209C123.865 70.3049 123.961 70.5209 123.961 70.7249C123.961 70.9169 124.045 71.1809 124.141 71.3129C124.237 71.4329 124.321 71.6609 124.321 71.8049C124.321 71.9489 124.429 72.2489 124.561 72.4769C124.789 72.8489 124.921 73.3409 125.149 74.5649C125.245 75.1049 125.737 75.9209 125.965 75.9209C126.121 75.9209 126.289 75.5009 126.193 75.3449C126.157 75.2849 126.169 74.7449 126.217 74.1329C126.265 73.5329 126.265 72.9689 126.217 72.8849C126.169 72.8129 126.205 72.6689 126.289 72.5609C126.385 72.4649 126.481 72.1889 126.529 71.9489C126.637 71.3489 127.417 69.8249 127.921 69.2369C128.389 68.6969 129.481 68.1209 130.045 68.1209C130.729 68.1209 131.797 68.5889 132.325 69.1049C132.613 69.3809 132.841 69.6689 132.841 69.7529C132.841 69.8249 132.925 70.0529 133.021 70.2329C133.369 70.9049 133.189 71.2289 132.481 71.2289C132.253 71.2289 131.653 71.2529 131.161 71.3009C130.669 71.3369 129.937 71.3729 129.541 71.3729C128.449 71.3849 128.401 71.4329 127.981 72.9809C127.873 73.3769 127.741 73.8569 127.681 74.0609C127.621 74.2529 127.585 74.7929 127.609 75.2609C127.633 75.7169 127.597 76.1969 127.525 76.3289C127.381 76.6169 127.333 78.0809 127.465 78.3449C127.525 78.4649 127.513 78.7649 127.453 79.0409C127.393 79.3409 127.393 79.6889 127.465 79.9769C127.525 80.2169 127.609 80.5769 127.645 80.7809C127.681 80.9729 127.777 81.2249 127.861 81.3209C127.945 81.4169 128.041 81.6449 128.089 81.8249C128.125 82.0169 128.197 82.3049 128.233 82.4849C128.281 82.6769 128.377 82.9049 128.461 83.0009C128.677 83.2529 129.061 84.2609 129.241 85.0169C129.313 85.3529 129.481 85.8449 129.601 86.0969C130.177 87.3329 129.541 88.7729 128.149 89.3369C127.441 89.6249 127.405 89.6249 126.961 89.4209C126.709 89.3129 126.445 89.0969 126.373 88.9529C126.301 88.8209 126.133 88.5569 126.001 88.3889C125.857 88.2209 125.701 87.7889 125.641 87.4289C125.593 87.0689 125.425 86.4809 125.281 86.1209C125.137 85.7609 124.969 85.2689 124.897 85.0409C124.837 84.8129 124.729 84.5729 124.669 84.5129C124.609 84.4409 124.561 84.3089 124.561 84.2009C124.561 84.0929 124.429 83.7329 124.261 83.4089C124.093 83.0849 123.985 82.7489 124.021 82.6649C124.045 82.5809 123.973 82.4249 123.841 82.3169C123.709 82.1969 123.601 82.0169 123.601 81.8969C123.601 81.7889 123.541 81.6569 123.481 81.6209C123.409 81.5729 123.373 81.4049 123.385 81.2249C123.409 80.9369 122.689 78.9329 122.389 78.4409C122.329 78.3449 122.233 78.1289 122.161 77.9609C122.101 77.7929 121.969 77.5049 121.861 77.3249C121.765 77.1329 121.681 76.8929 121.681 76.7849C121.681 76.6769 121.597 76.4729 121.501 76.3529C121.405 76.2209 121.321 76.0049 121.321 75.8729C121.321 75.7409 121.237 75.5489 121.141 75.4409C120.973 75.2489 120.529 74.1209 120.397 73.5209C120.361 73.3529 120.253 73.1369 120.169 73.0409C119.941 72.7769 119.521 71.8169 119.521 71.5649C119.521 71.4329 119.413 71.2049 119.281 71.0369C119.149 70.8689 119.041 70.6289 119.041 70.5089C119.041 70.4009 118.909 70.1969 118.753 70.0649C118.549 69.9089 118.441 69.6689 118.381 69.2849C118.321 68.9009 118.177 68.5889 117.937 68.3369C117.745 68.1329 117.613 67.8929 117.649 67.8089C117.685 67.7249 117.553 67.4609 117.361 67.1969C117.169 66.9449 117.001 66.6329 117.001 66.5129C117.001 66.1769 116.521 65.2409 116.365 65.2409C116.281 65.2409 116.113 65.0009 115.993 64.7249C115.861 64.4489 115.681 64.1609 115.585 64.0889C115.453 63.9929 115.417 63.7769 115.465 63.2489C115.513 62.5529 115.873 61.5209 116.065 61.5209C116.113 61.5209 116.161 61.4129 116.161 61.2929C116.161 60.8849 116.293 60.6809 116.569 60.6809C116.713 60.6809 116.917 60.5729 117.037 60.4409C117.145 60.3089 117.313 60.2009 117.397 60.2009C117.493 60.2009 117.661 60.0929 117.781 59.9609C118.117 59.6009 119.029 59.6369 119.725 60.0449ZM75.4815 63.9569C76.0815 64.1249 77.1855 65.0969 77.3415 65.6009C77.3895 65.7689 77.4975 65.9849 77.5935 66.0809C77.7975 66.3209 77.8215 67.0649 77.6415 67.7969C77.4735 68.4689 77.6055 68.7209 78.1095 68.7209C78.5535 68.7209 79.9575 68.4209 80.2695 68.2529C80.6175 68.0609 81.9495 67.6409 82.1895 67.6409C82.4775 67.6409 83.1255 68.0729 83.3535 68.4089C83.6535 68.8769 83.4855 69.4529 82.8135 70.2569C82.2855 70.8809 82.1775 70.9529 81.5295 71.0849C81.1455 71.1689 80.3415 71.2649 79.7415 71.3129C79.1535 71.3609 78.5655 71.4569 78.4455 71.5409C78.2895 71.6489 78.1335 71.6609 77.9055 71.5769C77.6895 71.4929 77.4735 71.4929 77.2695 71.5769C76.9935 71.6849 76.9335 71.8049 76.8015 72.6449C76.7055 73.1609 76.6215 73.8209 76.6095 74.1209C76.5975 74.4209 76.5615 74.8529 76.5135 75.0809C76.4775 75.3089 76.4175 75.8249 76.3815 76.2209C76.3575 76.6169 76.3095 77.0969 76.2735 77.3009C76.1535 77.9369 75.7575 81.3689 75.7575 81.7409C75.7455 82.5089 75.5895 84.9089 75.4935 85.8209C75.4335 86.3489 75.4215 86.8529 75.4695 86.9609C75.5895 87.1769 75.5535 88.6889 75.4215 89.1569C75.3735 89.3489 75.3855 89.5529 75.4695 89.6489C75.5415 89.7329 75.5775 89.9009 75.5295 90.0089C75.4935 90.1169 75.5175 90.2729 75.5895 90.3569C75.6615 90.4409 75.7455 90.8369 75.7815 91.2329C75.8175 91.6169 75.9135 92.1689 75.9855 92.4329C76.1415 93.0929 76.9335 93.8609 77.5335 93.9569C78.0495 94.0289 78.8535 93.7889 79.3335 93.4049C80.7375 92.3129 80.8935 92.1569 80.9655 91.8449C81.0015 91.6649 81.1335 91.4609 81.2535 91.4009C81.3735 91.3289 81.5055 91.1609 81.5535 91.0169C81.6015 90.8609 81.7575 90.5729 81.9135 90.3689C82.0695 90.1649 82.2015 89.9129 82.2015 89.8169C82.2015 89.5409 82.5615 88.8569 82.8855 88.5089C83.0535 88.3289 83.1735 88.0889 83.1495 87.9689C83.1255 87.7649 83.5935 86.5889 84.0255 85.7729C84.1095 85.6169 84.3855 85.4129 84.6375 85.3289C85.0455 85.1849 85.1415 85.1969 85.4055 85.3649C85.6575 85.5329 85.6935 85.6289 85.6335 85.9889C85.4895 86.9969 85.4055 87.2969 85.1295 87.8249C84.9615 88.1489 84.8655 88.4489 84.9015 88.5209C84.9375 88.5929 84.8895 88.7249 84.7935 88.8329C84.6855 88.9289 84.6015 89.0969 84.6015 89.2049C84.6015 89.3009 84.4455 89.5889 84.2415 89.8409C84.0495 90.0929 83.8815 90.4049 83.8815 90.5369C83.8815 90.6809 83.8335 90.8129 83.7735 90.8489C83.7135 90.8849 83.5455 91.1489 83.4015 91.4249C83.2575 91.7129 82.9335 92.1449 82.6695 92.3849C82.4175 92.6369 82.2015 92.9009 82.2015 92.9609C82.2015 93.0329 82.0695 93.1409 81.9135 93.2249C81.7455 93.2969 81.6015 93.4649 81.5775 93.5969C81.5535 93.7289 81.4335 93.8969 81.3135 93.9689C81.0735 94.1129 80.9655 94.1849 80.2455 94.7729C79.9455 95.0369 79.4775 95.2289 78.7455 95.4209C77.8575 95.6489 77.5575 95.6729 76.6815 95.6009C76.1175 95.5409 75.4455 95.4209 75.1815 95.3129C74.9175 95.2169 74.6175 95.1329 74.5095 95.1209C74.2935 95.1209 73.2135 94.3289 72.7815 93.8729C72.6135 93.6929 72.3735 93.3209 72.2535 93.0449C72.1215 92.7689 71.9055 92.4329 71.7735 92.3129C71.6295 92.1809 71.5215 92.0129 71.5215 91.9169C71.5215 91.7249 71.1495 90.5969 70.8495 89.9009C70.7415 89.6369 70.6335 89.1329 70.6095 88.7849C70.5855 88.4369 70.4175 87.7169 70.2495 87.1889C70.0215 86.4929 69.9615 86.0969 70.0215 85.7849C70.0815 85.4129 70.1655 84.6809 70.2135 83.9609C70.2255 83.8649 70.2855 83.3969 70.3455 82.9409C70.5135 81.7409 70.5615 81.2849 70.6095 80.0609C70.6335 79.4609 70.7175 78.8249 70.7895 78.6329C70.8615 78.4529 70.9575 77.7209 70.9935 77.0129C71.0295 76.3169 71.1015 75.6329 71.1615 75.5009C71.3055 75.1649 71.5215 73.6289 71.5215 72.9929C71.5215 72.6329 71.5695 72.4409 71.6655 72.4409C71.7495 72.4409 71.7015 72.3209 71.5575 72.1769C71.3055 71.9369 71.2455 71.9249 70.6815 72.0569C70.3455 72.1409 69.9135 72.2009 69.7215 72.2009C69.5415 72.2009 69.3255 72.2849 69.2415 72.3809C69.0255 72.6449 68.7255 72.5969 68.4495 72.2849C68.0655 71.8529 68.0175 71.6009 68.2335 71.2529C68.7375 70.4969 69.4815 70.0409 70.2255 70.0409C70.9695 70.0409 72.0495 69.4889 72.0975 69.0809C72.1815 68.4329 72.2415 67.7849 72.2895 67.1609C72.3135 66.8009 72.3615 66.4049 72.4215 66.2969C72.4695 66.1769 72.4455 65.9129 72.3735 65.7089C72.1815 65.1449 72.2055 64.8569 72.5175 64.4969C73.0095 63.8849 74.3295 63.6449 75.4815 63.9569ZM90.0855 66.0929C91.0215 66.3089 91.3695 66.5369 91.8015 67.1969C92.5935 68.4089 92.6895 69.5489 92.0775 70.5689C91.7295 71.1449 91.4055 71.3249 90.1815 71.6009C89.1135 71.8409 88.2615 71.8169 87.8775 71.5289C87.4455 71.2049 87.1215 70.0049 87.0855 68.6009C87.0495 67.2209 87.2295 66.9209 88.4415 66.3809C89.5215 65.9129 89.3895 65.9249 90.0855 66.0929ZM44.0055 68.6609C44.6775 68.7329 44.8215 68.8049 45.3015 69.2489C45.8895 69.8129 45.9135 69.8729 45.6735 70.2209C45.3855 70.6409 45.3255 71.0009 45.5295 71.0009C45.6375 71.0009 45.7215 70.9529 45.7215 70.9049C45.7215 70.7369 46.3815 70.5689 46.9215 70.6049C47.2215 70.6289 47.6895 70.6649 47.9775 70.6769C48.3015 70.6889 48.5535 70.7729 48.6495 70.9049C48.7335 71.0129 48.9495 71.1449 49.1535 71.1929C49.3455 71.2409 49.5735 71.3249 49.6575 71.3969C49.8135 71.5169 50.4015 72.6809 50.4015 72.8609C50.4015 72.9209 50.4855 73.0529 50.5815 73.1609C50.7375 73.3289 50.7495 73.5089 50.6535 74.1809C50.5815 74.6969 50.5815 75.0809 50.6535 75.2129C50.7255 75.3449 50.7135 75.4529 50.6415 75.5009C50.5815 75.5369 50.5215 75.6689 50.5215 75.7769C50.5215 75.8849 50.4375 76.1369 50.3295 76.3409C50.2335 76.5329 50.1375 76.9649 50.1135 77.3009C50.0895 77.7449 49.8975 78.2609 49.3935 79.2809C48.4935 81.0689 48.3975 81.2369 48.2055 81.3809C48.1215 81.4409 47.7615 81.9209 47.4135 82.4369C46.6935 83.4689 46.6815 83.7449 47.3535 84.0689C47.5455 84.1529 47.8455 84.3089 48.0255 84.4049C48.3135 84.5489 48.4455 84.5489 49.0095 84.3929C49.3695 84.3089 49.8255 84.1169 50.0175 83.9729C50.2215 83.8289 50.4135 83.7209 50.4735 83.7209C50.6415 83.7209 52.5615 81.6209 52.6335 81.3449C52.7295 81.0209 52.5375 80.7689 52.1295 80.6729C51.8895 80.6129 51.8415 80.5409 51.9015 80.3849C51.9495 80.2769 52.0215 80.0489 52.0455 79.8809C52.0815 79.7129 52.2135 79.3649 52.3335 79.0889C52.4535 78.8249 52.5615 78.5249 52.5615 78.4289C52.5615 78.3329 52.6695 78.1889 52.8135 78.1049C52.9935 77.9849 53.0295 77.9009 52.9335 77.7929C52.8495 77.6849 52.8735 77.5889 53.0295 77.4569C53.3655 77.1689 53.4855 75.8729 53.2335 75.2849C53.1375 75.0329 52.9695 74.8049 52.8615 74.7689C52.7655 74.7329 52.6815 74.6369 52.6815 74.5769C52.6815 74.5049 52.6095 74.2889 52.5135 74.0849C52.2495 73.4969 52.1895 72.7049 52.3935 72.5009C52.5135 72.3929 52.5255 72.2489 52.4535 72.0569C52.3815 71.8529 52.4295 71.6489 52.6335 71.2409C52.7895 70.9409 52.9455 70.6169 52.9935 70.5209C53.1615 70.1129 53.9895 69.5969 54.6135 69.5129C55.1415 69.4409 55.2615 69.4649 55.4655 69.6689C55.5855 69.8129 55.7295 69.9209 55.7895 69.9209C55.8375 69.9209 56.0175 70.2809 56.1855 70.7249C56.7255 72.1769 56.7735 72.4169 56.6535 72.6449C56.5935 72.7649 56.4735 73.1729 56.3895 73.5689C56.2575 74.1929 56.2575 74.2769 56.4375 74.3849C56.5455 74.4449 56.6415 74.5649 56.6415 74.6489C56.6415 74.7449 56.7375 74.8529 56.8575 74.9009C57.0975 75.0089 59.7855 75.2249 60.6615 75.2129C60.9975 75.2009 61.5615 75.2969 61.9215 75.4169C62.4855 75.6089 62.6295 75.7289 62.9175 76.2329C63.3135 76.8929 63.3135 77.3129 62.9055 78.2009C62.7735 78.5009 62.6175 78.9329 62.5815 79.1609C62.5335 79.3889 62.4255 79.6889 62.3415 79.8209C62.2695 79.9529 62.1615 80.3129 62.1135 80.6249C62.0655 80.9369 61.9815 81.2249 61.9215 81.2609C61.8615 81.2969 61.8135 81.5609 61.8255 81.8489C61.8255 82.1249 61.7775 82.4609 61.7055 82.5929C61.5015 82.9529 61.3095 83.8169 61.1895 84.8369C61.1295 85.3529 61.0575 85.8209 61.0215 85.8809C60.9855 85.9409 61.0215 86.1089 61.0935 86.2769C61.2015 86.5049 61.1775 86.6489 61.0215 86.9609C60.9015 87.1769 60.8175 87.6089 60.8295 87.9089C60.8295 88.2089 60.8415 88.6169 60.8415 88.8209C60.8535 89.0129 60.8415 89.5649 60.8295 90.0449C60.8055 91.0649 61.0815 91.6769 61.5735 91.7369C61.9695 91.7849 62.9535 91.1249 63.0495 90.7409C63.0975 90.5729 63.1815 90.4409 63.2415 90.4409C63.5295 90.4409 65.0415 88.4009 65.0415 87.9929C65.0415 87.8969 65.1495 87.7769 65.2815 87.7409C65.4135 87.7049 65.5215 87.5729 65.5215 87.4649C65.5215 87.3689 65.6175 87.1649 65.7495 87.0329C65.9775 86.7689 66.8655 85.1129 67.0695 84.5369C67.2615 84.0329 67.7055 83.8049 68.3295 83.8889C68.6175 83.9369 68.9535 84.0809 69.0735 84.2129C69.2655 84.4169 69.2655 84.4649 69.0975 84.5969C68.9895 84.6689 68.8215 85.0409 68.7015 85.4009C68.5935 85.7609 68.3775 86.2769 68.2095 86.5409C68.0535 86.8049 67.8375 87.1889 67.7415 87.4049C67.6455 87.6089 67.5135 87.8129 67.4415 87.8609C67.3695 87.9089 67.2375 88.1249 67.1415 88.3649C67.0455 88.5929 66.6375 89.2049 66.2415 89.7329C65.8455 90.2489 65.5215 90.7169 65.5215 90.7769C65.5215 90.8369 65.3895 90.9449 65.2215 91.0169C65.0535 91.0889 64.9215 91.2329 64.9215 91.3169C64.9215 91.4009 64.5015 91.9049 63.9975 92.4449C63.0495 93.4049 62.0295 94.0529 61.1175 94.2329C60.4815 94.3649 58.9455 93.9209 58.4655 93.4649C58.3815 93.3929 58.2375 93.3209 58.1655 93.3209C58.0815 93.3209 57.8895 93.1889 57.7215 93.0209C57.5535 92.8649 57.2655 92.5769 57.0615 92.3969C56.7135 92.0609 56.2215 91.4609 55.7415 90.7409C55.2735 90.0569 55.0695 87.8609 55.4055 87.0689C55.4775 86.9009 55.5135 86.5169 55.4775 86.2049C55.4295 85.8449 55.4535 85.6409 55.5375 85.6409C55.6815 85.6409 56.0415 84.5009 56.0415 84.0569C56.0415 83.9009 56.1855 83.5649 56.3535 83.3129C56.5215 83.0609 56.7015 82.6289 56.7255 82.3529C56.7615 82.0889 56.8695 81.7169 56.9535 81.5369C57.0495 81.3569 57.1215 81.1289 57.1215 81.0089C57.1215 80.9009 57.2535 80.5409 57.4215 80.2169C57.6375 79.7849 57.6855 79.5689 57.6015 79.4609C57.5175 79.3529 57.5295 79.2689 57.6615 79.1609C57.7695 79.0769 57.8295 78.9329 57.7935 78.8489C57.7575 78.7649 57.8175 78.6329 57.9135 78.5609C58.0095 78.4769 58.0815 78.2249 58.0815 77.9969C58.0815 77.5769 57.9495 77.4689 57.4335 77.4209C57.0135 77.3969 56.4015 77.1089 56.4015 76.9409C56.4015 76.7609 55.8975 76.6049 55.6335 76.7129C55.5255 76.7489 55.4415 76.8569 55.4415 76.9409C55.4415 77.0249 55.3335 77.1209 55.2015 77.1569C55.0695 77.1929 54.9255 77.3129 54.8895 77.4449C54.7815 77.7809 54.6015 78.2249 54.4095 78.5969C54.3135 78.7889 54.2415 79.0169 54.2415 79.1009C54.2415 79.1969 54.1335 79.3409 53.9895 79.4369C53.7975 79.5809 53.7495 79.7129 53.7855 80.0729C53.8215 80.4689 53.8815 80.5649 54.3015 80.7689C54.9135 81.0929 54.9855 81.4409 54.5175 81.9209C53.7495 82.7009 53.4135 83.1089 53.2335 83.4689C53.1135 83.6849 52.8615 83.9129 52.6215 84.0089C52.3935 84.1049 52.2015 84.2369 52.2015 84.3089C52.2015 84.3689 51.9735 84.5489 51.6975 84.7169C51.4095 84.8849 51.0375 85.1609 50.8695 85.3289C50.6895 85.4849 50.3415 85.6649 50.0895 85.7129C49.8255 85.7609 49.5135 85.8689 49.3815 85.9529C49.0695 86.1809 47.9775 86.1689 46.9215 85.9289C46.2375 85.7729 46.0335 85.6769 45.9375 85.4489C45.6975 84.9449 44.8335 85.0049 44.1495 85.5929C43.8975 85.8089 43.0695 86.2769 42.1335 86.7209C41.3895 87.0689 41.2815 87.0809 39.9975 87.0689C38.9295 87.0569 38.5455 86.9969 38.2215 86.8289C37.9935 86.6969 37.7295 86.6009 37.6455 86.6009C37.5615 86.6009 37.4415 86.5049 37.3695 86.3849C37.2975 86.2769 36.9615 86.0729 36.6135 85.9409C36.2775 85.8089 35.9655 85.6169 35.9295 85.4969C35.8935 85.3769 35.6295 85.1129 35.3295 84.9209C35.0415 84.7169 34.8015 84.4769 34.8015 84.3929C34.8015 84.3089 34.7055 84.1529 34.5975 84.0449C34.4775 83.9369 34.2735 83.6489 34.1415 83.3969C34.0215 83.1449 33.8535 82.8569 33.7695 82.7609C33.6015 82.5449 33.4815 82.1249 33.4095 81.5609C33.3855 81.3329 33.3015 80.9249 33.2415 80.6609C33.0135 79.7849 33.0255 78.4409 33.2655 77.7809C33.3855 77.4449 33.4695 77.0969 33.4575 77.0009C33.3855 76.5089 34.0335 74.7569 34.6935 73.6409C34.7535 73.5449 34.9215 73.2569 35.0655 72.9929C35.5455 72.1769 35.5695 72.1289 35.9055 71.7449C36.0855 71.5289 36.2775 71.3609 36.3375 71.3609C36.4095 71.3609 36.4815 71.2769 36.5295 71.1809C36.5655 71.0849 36.6495 71.0009 36.7215 71.0009C36.7815 71.0009 37.1295 70.7249 37.4775 70.3889C37.8135 70.0529 38.4255 69.6209 38.8215 69.4169C39.2175 69.2129 39.6255 68.9849 39.7215 68.9009C39.8175 68.8169 40.2495 68.7089 40.6815 68.6609C41.1135 68.6129 41.7615 68.5409 42.1215 68.4929C42.4815 68.4449 42.8895 68.4449 43.0215 68.4929C43.1535 68.5409 43.5975 68.6129 44.0055 68.6609ZM141.889 70.8929C142.129 71.0729 142.201 71.2409 142.177 71.4689C142.165 71.6489 142.213 71.9489 142.285 72.1409C142.369 72.3449 142.453 73.0649 142.489 73.7609C142.525 74.4569 142.585 75.2609 142.621 75.5609C142.705 76.1969 142.717 77.7329 142.621 78.3209C142.597 78.5489 142.549 78.9809 142.513 79.2809C142.405 80.6009 141.337 82.8209 140.641 83.1809C140.461 83.2769 140.281 83.4329 140.245 83.5409C140.197 83.6369 140.041 83.7209 139.885 83.7209C139.729 83.7209 139.513 83.8169 139.405 83.9369C139.237 84.1289 139.105 84.1409 138.517 84.0569C138.133 83.9969 137.653 83.9609 137.437 83.9609C136.981 83.9729 136.249 83.6849 135.901 83.3609C135.769 83.2409 135.445 83.0849 135.181 83.0129C134.917 82.9409 134.497 82.7489 134.257 82.5809C134.017 82.4129 133.753 82.2809 133.681 82.2809C133.609 82.2809 133.429 82.1609 133.273 82.0049C132.901 81.6569 132.445 81.3089 131.641 80.7689C131.281 80.5169 130.945 80.2769 130.909 80.2169C130.873 80.1569 130.501 80.0489 130.081 79.9649C129.457 79.8329 129.253 79.7249 128.977 79.4009C128.653 79.0049 128.545 78.6809 128.737 78.6809C128.785 78.6809 128.917 78.4169 129.037 78.0929C129.313 77.2889 129.673 77.0729 130.549 77.1689C130.921 77.2169 131.425 77.3249 131.677 77.4209C132.757 77.8529 133.081 78.0089 133.081 78.1049C133.081 78.1529 133.153 78.2009 133.249 78.2009C133.345 78.2009 133.645 78.3929 133.921 78.6209C134.197 78.8489 134.497 79.0409 134.581 79.0409C134.665 79.0409 134.821 79.1729 134.929 79.3409C135.037 79.4969 135.457 79.8569 135.865 80.1329C136.285 80.4209 136.849 80.8289 137.125 81.0569C137.737 81.5489 138.889 81.8369 139.549 81.6569C140.185 81.4769 140.641 80.9489 140.641 80.3969C140.641 80.1329 140.701 79.8689 140.773 79.7969C140.857 79.7129 140.905 79.2329 140.905 78.5489C140.893 77.9129 140.953 77.3609 141.025 77.2769C141.097 77.1929 141.109 77.0369 141.049 76.9169C141.001 76.7969 140.941 76.1009 140.929 75.3809C140.917 74.6489 140.869 73.9289 140.821 73.7609C140.725 73.3649 140.401 71.5769 140.401 71.4209C140.401 71.1809 141.013 70.6409 141.289 70.6409C141.445 70.6409 141.709 70.7609 141.889 70.8929ZM23.1135 72.1649C22.9935 72.2849 22.8855 72.1049 22.9935 71.9489C23.0655 71.8169 23.0895 71.8169 23.1375 71.9489C23.1615 72.0329 23.1495 72.1289 23.1135 72.1649ZM111.193 75.4049C111.553 75.5609 111.841 75.7649 111.841 75.8369C111.853 75.9209 112.009 76.1729 112.201 76.4009C112.405 76.6289 112.561 76.8809 112.561 76.9649C112.561 77.0489 112.609 77.1209 112.681 77.1209C112.813 77.1209 113.437 78.3329 113.569 78.8369C113.605 79.0169 113.701 79.1609 113.761 79.1609C113.833 79.1609 113.881 79.3169 113.881 79.5089C113.881 79.7009 113.965 79.9169 114.061 80.0009C114.157 80.0849 114.241 80.2529 114.241 80.3849C114.241 80.5049 114.313 80.7329 114.409 80.8769C114.493 81.0209 114.661 81.5729 114.781 82.1009C114.901 82.6289 115.057 83.1449 115.141 83.2409C115.225 83.3369 115.333 83.6849 115.381 84.0209C115.513 85.0049 115.669 85.4729 115.921 85.7009C116.065 85.8329 116.137 86.0009 116.101 86.1329C116.065 86.2529 116.089 86.4449 116.149 86.5649C116.209 86.6849 116.389 87.2609 116.533 87.8489C116.809 88.9409 117.433 90.0089 117.865 90.1169C118.165 90.2009 118.981 89.7569 119.125 89.4449C119.293 89.0729 119.761 87.7049 119.881 87.2009C119.941 86.9729 120.109 86.3969 120.253 85.9409C120.421 85.3889 120.529 84.6929 120.553 83.9009C120.577 83.2409 120.649 82.1729 120.709 81.5129C120.781 80.8649 120.829 80.3009 120.817 80.2529C120.793 79.9889 120.889 79.8689 121.225 79.7249C121.573 79.5809 121.669 79.5929 122.005 79.7969C122.365 80.0009 122.497 80.3009 122.389 80.6609C122.377 80.7209 122.353 80.9129 122.341 81.0809C122.329 81.2489 122.269 81.8369 122.221 82.4009C122.173 82.9649 122.125 83.6369 122.101 83.9009C122.077 84.1649 122.005 84.6209 121.933 84.9209C121.861 85.2209 121.813 85.7729 121.801 86.1569C121.801 86.5529 121.729 87.0089 121.633 87.1769C121.309 87.8009 120.901 88.8089 120.937 88.9049C120.961 89.0009 120.493 90.0929 120.361 90.2009C120.325 90.2369 120.013 90.5969 119.653 91.0169C118.765 92.0489 118.429 92.2049 116.881 92.2529C115.861 92.2769 115.537 92.2529 115.141 92.0729C114.877 91.9529 114.541 91.7969 114.397 91.7249C114.265 91.6649 113.965 91.3769 113.749 91.0889C113.533 90.8009 113.233 90.4769 113.077 90.3809C112.921 90.2729 112.801 90.0929 112.801 89.9609C112.801 89.8289 112.753 89.7209 112.693 89.7209C112.633 89.7209 112.525 89.5529 112.453 89.3609C112.393 89.1569 112.249 88.9049 112.141 88.8089C112.045 88.7129 111.961 88.4849 111.961 88.3049C111.961 88.1249 111.877 87.8729 111.781 87.7529C111.685 87.6209 111.601 87.3689 111.601 87.1769C111.601 86.9969 111.553 86.8409 111.481 86.8409C111.421 86.8409 111.361 86.6849 111.361 86.5049C111.361 86.3129 111.277 86.0609 111.181 85.9289C111.085 85.8089 111.001 85.4729 111.001 85.1969C111.001 84.9209 110.953 84.6569 110.881 84.6209C110.713 84.5249 110.485 83.6129 110.509 83.1209C110.509 82.8809 110.389 82.4369 110.209 82.1009C110.041 81.7649 109.873 81.2609 109.837 80.9609C109.801 80.6609 109.729 80.3609 109.669 80.3009C109.621 80.2289 109.585 79.9409 109.585 79.6409C109.585 78.4769 108.445 77.5049 107.713 78.0449C107.317 78.3449 106.801 79.1489 106.801 79.4849C106.801 79.6409 106.753 79.8569 106.693 79.9769C106.453 80.4569 106.201 81.4169 106.201 81.8729C106.201 82.1369 106.153 82.4009 106.093 82.4729C105.913 82.6409 105.733 84.0449 105.781 84.8609C105.841 85.7729 105.973 86.6009 106.069 86.6009C106.105 86.6009 106.153 86.9369 106.165 87.3569C106.201 88.2689 106.249 88.6769 106.345 88.8209C106.465 89.0249 106.693 90.7409 106.669 91.2449C106.645 91.4969 106.681 91.7849 106.729 91.8689C106.837 92.0369 106.837 93.8009 106.729 94.1969C106.465 95.2289 103.945 95.5889 103.453 94.6529C103.381 94.5209 103.237 93.6809 103.141 92.7689C103.033 91.8689 102.925 91.0769 102.889 91.0169C102.853 90.9569 102.793 90.6809 102.769 90.4049C102.733 90.1289 102.613 89.6609 102.493 89.3609C102.361 89.0609 102.229 88.5449 102.205 88.2209C102.133 87.6089 101.761 86.3249 101.605 86.1689C101.557 86.1209 101.521 85.9049 101.521 85.6889C101.521 85.4729 101.413 84.9569 101.281 84.5369C101.149 84.1289 101.041 83.6609 101.041 83.5289C101.041 83.3849 100.957 83.2049 100.861 83.1209C100.765 83.0369 100.681 82.8689 100.681 82.7489C100.681 82.6289 100.633 82.4969 100.561 82.4609C100.501 82.4249 100.441 82.2809 100.441 82.1609C100.441 82.0289 100.357 81.6809 100.249 81.3689C100.141 81.0569 100.033 80.6609 100.009 80.4929C99.9735 80.3249 99.7935 79.9529 99.6015 79.6649C99.3015 79.2329 99.2415 79.0649 99.2895 78.6089C99.3495 78.0209 99.4095 77.9129 100.237 77.0969C100.705 76.6289 100.897 76.5209 101.233 76.5209C101.785 76.5209 102.553 76.9289 102.769 77.3369C102.865 77.5169 103.081 77.8049 103.237 77.9729C103.441 78.1769 103.513 78.3809 103.477 78.5729C103.441 78.7649 103.513 78.9569 103.693 79.1369C103.873 79.3409 103.969 79.6169 103.993 80.0369C104.065 80.9849 104.641 81.9809 104.641 81.1529C104.641 80.9969 104.725 80.8049 104.821 80.7209C104.965 80.6009 104.989 80.4329 104.929 80.0489C104.869 79.6169 104.905 79.4729 105.181 79.1129C105.349 78.8849 105.553 78.5129 105.613 78.2729C105.673 78.0449 105.865 77.6849 106.021 77.4929C106.189 77.3009 106.321 77.0729 106.321 76.9769C106.321 76.7249 107.581 75.5609 108.157 75.2729C108.853 74.9249 110.281 74.9849 111.193 75.4049ZM53.0415 76.0409C52.9695 76.1729 52.8615 76.2809 52.8015 76.2809C52.6335 76.2809 52.6575 75.9569 52.8375 75.8849C53.1135 75.7649 53.1735 75.8009 53.0415 76.0409ZM91.3455 77.9609C91.7415 78.2729 91.8975 79.4969 91.6215 80.1569C91.5015 80.4569 91.4775 80.6729 91.5495 80.8769C91.6215 81.0449 91.5975 81.6209 91.5015 82.4129C91.4175 83.0969 91.3095 84.1169 91.2615 84.6809C91.2255 85.2449 91.1295 86.2769 91.0575 86.9849C90.9495 88.1129 90.9615 88.3409 91.1295 88.7729C91.3095 89.2169 91.3095 89.2889 91.1535 89.4689C90.9015 89.7569 90.9375 90.6209 91.2255 90.9809C91.4175 91.2329 91.4415 91.3289 91.3215 91.4609C91.2255 91.5809 91.2015 91.7849 91.2735 92.0849C91.3215 92.3369 91.3695 92.6609 91.3815 92.8169C91.3935 93.1529 92.1975 93.8729 92.6415 93.9569C93.2415 94.0769 93.6975 93.9089 93.9855 93.4649C94.5735 92.5409 94.6575 92.3969 94.7415 92.1089C94.7895 91.9529 94.9695 91.6649 95.1255 91.4729C95.2815 91.2809 95.3895 91.0649 95.3535 90.9809C95.2815 90.7769 95.5575 89.9969 95.8095 89.7089C95.9175 89.5769 96.0015 89.4209 96.0015 89.3369C96.0015 89.1089 96.2535 88.3769 96.5055 87.8969C96.6375 87.6449 96.6975 87.3809 96.6615 87.3209C96.5895 87.2009 96.6855 86.8529 97.2495 85.1609C97.3575 84.8249 97.4775 84.7169 97.8135 84.6329C98.4375 84.4769 99.1215 84.6329 99.1215 84.9209C99.1215 85.0409 99.0735 85.1729 99.0135 85.2089C98.9655 85.2449 98.8815 85.5329 98.8455 85.8449C98.7135 87.0569 98.3895 88.5809 98.2215 88.7609C98.1255 88.8689 98.0055 89.2289 97.9695 89.5529C97.9215 89.8769 97.8255 90.2249 97.7415 90.3209C97.5135 90.5969 97.0815 91.5449 97.0815 91.7729C97.0815 91.8809 96.9735 92.1089 96.8415 92.2769C96.7095 92.4449 96.6015 92.6489 96.6015 92.7329C96.6015 92.8049 96.4215 93.0929 96.1935 93.3689C95.7495 93.9209 95.4015 94.5449 95.4015 94.7969C95.4015 94.8929 95.1735 95.0369 94.8975 95.1209C94.6095 95.2049 94.2975 95.3729 94.1895 95.4929C93.8775 95.8289 93.3855 95.9729 92.5815 95.9609C91.3455 95.9369 91.0455 95.8769 89.9895 95.4449C89.1495 95.1089 88.8015 94.8809 88.2135 94.3049C87.8175 93.9089 87.4695 93.5129 87.4575 93.4169C87.4215 93.0569 87.3735 92.9009 87.0015 92.0609C86.5095 90.9329 86.3655 88.6409 86.6295 86.3009C86.7135 85.5689 86.7975 84.6449 86.8215 84.2369C86.8575 83.8289 86.9775 83.0729 87.1095 82.5569C87.2775 81.8729 87.3375 81.2969 87.3135 80.3849C87.2895 79.7129 87.3255 79.1249 87.3735 79.0889C87.4335 79.0649 87.4455 78.9569 87.4095 78.8609C87.2535 78.4649 89.0535 77.7449 90.2535 77.7329C90.8775 77.7209 91.1175 77.7689 91.3455 77.9609ZM104.821 78.6689C104.857 78.7289 104.833 78.8129 104.761 78.8609C104.701 78.8969 104.641 78.8489 104.641 78.7529C104.641 78.5369 104.713 78.5009 104.821 78.6689ZM56.7615 79.7609C56.7615 79.8209 56.7135 79.8809 56.6415 79.8809C56.5815 79.8809 56.5215 79.8209 56.5215 79.7609C56.5215 79.6889 56.5815 79.6409 56.6415 79.6409C56.7135 79.6409 56.7615 79.6889 56.7615 79.7609ZM91.8015 90.7889C91.8015 90.8489 91.6935 90.9209 91.5615 90.9569C91.2975 91.0289 91.2135 90.7409 91.4775 90.6449C91.6455 90.5849 91.8015 90.6569 91.8015 90.7889ZM9.84146 93.3809C9.84146 93.4769 9.79346 93.5609 9.73346 93.5609C9.57746 93.5609 9.46946 93.3689 9.56546 93.2729C9.69746 93.1409 9.84146 93.2009 9.84146 93.3809ZM92.2815 102.129C92.3775 102.225 92.5815 102.333 92.7255 102.369C92.8935 102.429 93.0255 102.585 93.0615 102.777C93.1095 102.957 93.1935 103.293 93.2655 103.545C93.3375 103.785 93.3615 104.133 93.3135 104.325C93.2775 104.505 93.2175 104.769 93.1935 104.913C93.1455 105.249 92.5695 105.873 92.1615 106.041C91.7535 106.209 91.4295 106.653 91.5495 106.857C91.5975 106.941 91.5975 107.277 91.5615 107.613C91.5015 108.105 91.5255 108.237 91.6935 108.357C91.9335 108.537 92.2815 109.317 92.2815 109.701C92.2815 109.845 92.3895 110.109 92.5215 110.277C92.6535 110.445 92.7615 110.613 92.7615 110.661C92.7615 110.721 92.8335 110.817 92.9295 110.889C93.0255 110.961 93.2415 111.369 93.4215 111.801C93.6495 112.353 93.9135 112.749 94.3455 113.145C94.6815 113.469 95.0175 113.721 95.1015 113.721C95.1735 113.721 95.2935 113.781 95.3775 113.865C95.5575 114.045 96.3975 114.033 97.1655 113.841C97.6335 113.721 97.9695 113.517 98.4735 113.037C98.8575 112.689 99.2055 112.401 99.2415 112.401C99.2895 112.401 99.6735 111.993 100.093 111.489C101.257 110.085 101.209 110.181 101.041 109.737C100.957 109.521 100.777 109.233 100.657 109.089C100.537 108.957 100.477 108.813 100.513 108.765C100.549 108.729 100.501 108.573 100.393 108.417C100.153 108.081 100.141 107.493 100.369 107.181C100.453 107.049 100.561 106.749 100.609 106.509C100.669 106.173 100.777 106.041 101.101 105.885C101.341 105.777 101.605 105.681 101.701 105.681C101.809 105.681 101.989 105.621 102.109 105.537C102.457 105.321 103.945 105.801 104.341 106.245C104.497 106.425 104.641 106.641 104.641 106.725C104.641 106.917 105.037 107.757 105.157 107.853C105.217 107.889 105.157 107.949 105.025 107.985C104.881 108.033 104.773 108.189 104.725 108.477C104.629 109.101 104.221 109.485 103.117 110.001C102.085 110.481 101.665 110.949 101.821 111.453C101.869 111.597 101.833 111.777 101.725 111.897C101.497 112.161 101.125 113.433 101.221 113.601C101.269 113.673 101.209 113.841 101.101 113.961C100.909 114.177 100.789 114.549 100.597 115.581C100.561 115.773 100.489 115.989 100.441 116.061C100.321 116.229 100.189 116.805 100.141 117.429C100.117 117.705 100.021 118.029 99.9255 118.149C99.8295 118.257 99.6855 118.593 99.6015 118.905C99.5175 119.217 99.3855 119.541 99.2895 119.613C99.2055 119.673 99.1095 119.889 99.0615 120.069C98.9655 120.537 98.2935 121.245 97.8615 121.353C97.6695 121.401 97.3695 121.521 97.2015 121.629C96.8295 121.869 95.9535 122.109 95.3775 122.121C95.1375 122.121 94.5495 122.205 94.0815 122.301C93.3975 122.445 91.2135 122.553 90.3615 122.493C90.2655 122.481 89.6775 122.505 89.0655 122.553C88.2015 122.613 87.8055 122.589 87.3255 122.445C86.9775 122.337 86.3535 122.193 85.9215 122.133C85.1175 122.001 85.1295 122.013 83.9175 120.825C83.4495 120.369 83.2815 120.117 83.2815 119.865C83.2815 119.685 83.1495 119.349 82.9815 119.121C82.8015 118.881 82.6815 118.557 82.6815 118.317C82.6815 118.089 82.6095 117.765 82.5135 117.585C82.4175 117.405 82.3095 116.985 82.2615 116.661C82.2135 116.325 82.0935 115.965 81.9975 115.857C81.9015 115.749 81.8535 115.605 81.8895 115.533C81.9375 115.461 81.8895 115.281 81.7815 115.125C81.6855 114.969 81.6255 114.741 81.6735 114.633C81.7095 114.525 81.6975 114.369 81.6375 114.285C81.5655 114.213 81.4575 113.865 81.3735 113.541C81.1095 112.377 80.1375 110.301 79.7775 110.109C79.6215 110.025 79.3215 109.953 79.1055 109.929C78.8775 109.917 78.6135 109.821 78.5055 109.713C78.3855 109.617 78.1575 109.485 77.9775 109.413C77.5455 109.245 77.0895 108.597 76.9935 107.997C76.9215 107.505 76.9695 107.337 77.5095 106.281C77.6415 106.029 78.2775 105.609 78.9135 105.369C79.4415 105.165 79.4535 105.165 80.0895 105.489C80.8815 105.885 81.1215 106.149 81.5055 107.001C81.7575 107.577 81.7695 107.697 81.6375 107.961C81.5535 108.129 81.4815 108.405 81.4815 108.585C81.4815 108.777 81.4335 108.921 81.3855 108.921C81.3255 108.921 81.1815 109.137 81.0615 109.401C80.8695 109.833 80.8695 109.893 81.0375 110.145C81.3135 110.565 82.6455 111.849 83.4615 112.497C84.6855 113.445 84.9375 113.601 85.3215 113.601C85.5255 113.601 85.8135 113.685 85.9575 113.781C86.2575 113.973 86.7735 113.937 87.4095 113.673C87.8175 113.505 87.8895 113.385 87.8535 113.037C87.8415 112.965 87.9975 112.785 88.1895 112.641C88.5615 112.389 88.6815 112.197 89.2215 111.117C89.3895 110.781 89.6055 110.433 89.7015 110.361C89.7975 110.277 89.8815 110.073 89.8815 109.905C89.8815 109.569 90.0135 109.089 90.3735 108.141C90.6975 107.289 90.6735 106.773 90.2895 106.305C90.1095 106.089 89.8935 105.921 89.8095 105.921C89.7135 105.921 89.6415 105.885 89.6415 105.825C89.6415 105.777 89.4615 105.453 89.2335 105.117C88.8855 104.601 88.8255 104.409 88.8615 103.917C88.8975 103.209 89.1135 102.765 89.7255 102.177C90.0615 101.853 90.3015 101.721 90.6615 101.697C91.1775 101.661 91.9815 101.865 92.2815 102.129ZM142.201 112.005C142.489 112.101 142.789 112.221 142.861 112.269C142.921 112.329 143.125 112.401 143.293 112.437C143.461 112.485 143.905 112.785 144.289 113.121C144.661 113.445 145.021 113.721 145.093 113.721C145.153 113.721 145.201 113.817 145.201 113.949C145.201 114.069 145.297 114.297 145.417 114.453C146.221 115.533 146.521 118.209 145.921 119.025C145.789 119.205 145.681 119.505 145.681 119.685C145.681 120.177 144.997 121.425 144.337 122.121C144.181 122.289 143.965 122.565 143.845 122.745C143.725 122.937 143.581 123.081 143.521 123.081C143.365 123.081 142.501 123.945 142.405 124.197C142.369 124.305 142.237 124.401 142.117 124.401C141.997 124.401 141.745 124.593 141.565 124.821C141.385 125.049 141.061 125.325 140.845 125.421C140.209 125.721 139.933 125.913 139.693 126.177C139.573 126.321 139.381 126.441 139.273 126.441C139.165 126.441 139.045 126.513 139.009 126.609C138.973 126.705 138.733 126.813 138.481 126.861C138.229 126.909 137.953 127.017 137.869 127.113C137.797 127.209 137.653 127.281 137.557 127.281C137.377 127.281 136.681 127.629 136.561 127.773C136.453 127.905 135.673 128.097 134.953 128.169C134.569 128.217 133.921 128.349 133.513 128.481C132.877 128.673 132.505 128.697 130.621 128.661C129.433 128.625 128.125 128.601 127.717 128.613C127.309 128.613 126.721 128.529 126.397 128.409C125.893 128.241 123.769 127.917 122.509 127.821C122.269 127.797 121.885 127.725 121.669 127.665C121.441 127.593 120.829 127.437 120.301 127.329C119.773 127.221 119.257 127.089 119.161 127.029C118.909 126.909 117.325 126.657 116.641 126.633C116.341 126.621 115.849 126.501 115.549 126.345C115.045 126.105 114.805 126.069 113.269 126.069C112.321 126.057 110.737 126.081 109.765 126.117C108.265 126.153 107.965 126.201 107.845 126.369C107.761 126.489 107.365 126.657 106.981 126.741C106.141 126.933 105.085 127.305 104.857 127.485C104.773 127.557 104.569 127.653 104.401 127.701C104.233 127.749 103.801 128.061 103.429 128.373C103.057 128.697 102.685 128.961 102.601 128.961C102.517 128.961 102.313 129.105 102.145 129.297C101.965 129.477 101.677 129.717 101.485 129.837C100.837 130.257 98.8335 132.501 98.7255 132.945C98.6775 133.101 98.5095 133.305 98.3295 133.389C98.0895 133.497 98.0295 133.581 98.0895 133.797C98.1375 133.989 98.0295 134.265 97.7415 134.685C97.5135 135.033 97.2615 135.537 97.1895 135.825C97.0095 136.509 96.8535 138.477 96.9375 139.161C97.0095 139.857 97.6215 140.961 97.9215 140.961C98.0415 140.961 98.1735 141.069 98.2215 141.189C98.2935 141.417 98.4975 141.489 99.7335 141.621C100.249 141.681 100.429 141.669 100.549 141.513C100.657 141.381 100.765 141.357 100.909 141.429C101.137 141.561 102.157 141.333 102.385 141.105C102.469 141.021 102.577 140.961 102.637 140.961C102.697 140.961 102.949 140.805 103.189 140.613C103.441 140.421 103.777 140.217 103.945 140.181C104.473 140.049 105.625 138.141 105.445 137.685C105.385 137.529 105.025 137.337 103.885 136.833C103.129 136.497 102.853 136.233 102.529 135.513C102.325 135.069 102.325 135.045 102.529 134.901C102.637 134.817 103.069 134.685 103.477 134.613C104.113 134.505 104.353 134.517 105.061 134.721C106.357 135.069 106.837 135.237 107.161 135.477C107.761 135.909 108.793 136.653 109.141 136.917C109.573 137.229 109.909 137.589 110.197 137.997C110.317 138.189 110.473 138.285 110.581 138.249C110.713 138.201 110.761 138.261 110.761 138.441C110.761 138.585 110.857 138.849 110.989 139.017C111.109 139.197 111.241 139.533 111.289 139.773C111.325 140.013 111.469 140.301 111.601 140.421C111.781 140.577 111.805 140.673 111.709 140.793C111.637 140.889 111.625 141.021 111.697 141.165C111.757 141.285 111.877 141.585 111.961 141.837C112.081 142.221 112.069 142.329 111.925 142.497C111.829 142.605 111.685 143.001 111.601 143.361C111.337 144.549 111.145 144.825 109.885 145.977C109.441 146.373 108.877 146.769 108.637 146.853C108.409 146.925 108.025 147.117 107.809 147.261C107.593 147.405 107.209 147.573 106.957 147.621C106.705 147.669 106.369 147.777 106.201 147.873C105.649 148.173 103.933 148.629 102.541 148.833C102.349 148.869 102.025 148.941 101.821 149.001C101.629 149.049 101.221 149.133 100.933 149.169C100.645 149.217 100.369 149.277 100.309 149.301C100.225 149.361 98.6415 149.433 94.9215 149.553C92.3175 149.637 93.0015 149.637 89.2815 149.553C84.5055 149.445 83.7975 149.397 82.6215 149.181C82.0335 149.061 81.0495 148.941 80.4495 148.893C79.8495 148.857 79.2855 148.761 79.1895 148.701C78.9735 148.533 78.2415 148.293 77.4135 148.089C76.4175 147.873 75.2175 147.429 74.9175 147.201C74.7615 147.081 74.4495 146.949 74.2215 146.913C73.9695 146.865 73.7295 146.709 73.6095 146.541C73.5015 146.385 73.3095 146.217 73.1655 146.169C72.9375 146.097 71.7135 144.957 71.6895 144.801C71.6655 144.585 71.4735 143.877 71.4015 143.721C71.2455 143.409 70.8975 142.341 70.8975 142.221C70.9095 141.945 71.1375 141.201 71.3295 140.841C71.4375 140.625 71.5215 140.349 71.5215 140.241C71.5215 139.821 71.8935 139.161 72.4215 138.621C72.8535 138.177 72.9495 137.997 72.8895 137.769C72.8295 137.529 72.8655 137.481 73.0695 137.481C73.2375 137.481 73.3695 137.373 73.4415 137.181C73.5015 137.013 73.6335 136.881 73.7175 136.881C73.8015 136.881 74.0295 136.713 74.2215 136.521C74.4135 136.317 74.6655 136.161 74.7735 136.161C74.8935 136.161 75.0375 136.089 75.0855 136.005C75.2655 135.693 77.1975 134.805 77.8215 134.745C78.8415 134.637 80.0415 134.697 80.2455 134.853C80.3775 134.973 80.4135 135.153 80.3655 135.537C80.2935 136.161 79.9695 136.497 78.9975 136.941C78.6615 137.097 78.3495 137.289 78.3015 137.349C78.2655 137.421 78.0975 137.481 77.9415 137.481C77.6535 137.481 77.2815 137.877 77.2815 138.165C77.2815 138.249 77.5335 138.681 77.8335 139.125C78.2055 139.689 78.5895 140.085 79.0575 140.385C80.0535 141.045 80.8935 141.441 81.2775 141.441C81.4695 141.441 81.7335 141.513 81.8775 141.585C82.3095 141.825 83.5095 141.801 83.9295 141.549C84.1335 141.417 84.4095 141.321 84.5415 141.321C84.8175 141.321 85.5255 140.505 85.6815 140.025C85.7415 139.845 85.8615 139.509 85.9455 139.269C86.0775 138.909 86.0775 138.621 85.9575 137.649C85.7175 135.669 85.6455 135.429 84.9975 134.457C84.6615 133.953 84.3495 133.413 84.3015 133.257C84.2535 133.101 84.0255 132.789 83.7975 132.561C83.5695 132.333 83.2575 132.009 83.1015 131.841C82.9335 131.673 82.8015 131.469 82.8015 131.385C82.8015 131.301 82.7655 131.241 82.7055 131.241C82.6575 131.241 82.2015 130.845 81.6975 130.365C79.8495 128.601 79.6095 128.409 78.7935 127.953C77.9175 127.485 76.6695 127.053 75.3735 126.777C74.9415 126.693 74.5455 126.561 74.4735 126.489C74.1975 126.225 73.7895 126.189 70.8615 126.189C67.9455 126.189 67.2015 126.261 67.2015 126.585C67.2015 126.633 66.9495 126.681 66.6375 126.681C66.3135 126.681 65.7255 126.765 65.3055 126.861C64.8975 126.957 64.5135 127.029 64.4655 127.017C64.2615 126.969 63.1575 127.197 62.8455 127.365C62.6535 127.461 62.4255 127.509 62.3175 127.473C62.2215 127.437 62.0055 127.473 61.8255 127.569C61.6455 127.653 61.2135 127.761 60.8535 127.797C60.5055 127.845 60.1455 127.929 60.0735 127.989C59.9895 128.061 59.7615 128.109 59.5695 128.109C59.0895 128.097 57.2655 128.349 56.8095 128.493C56.6055 128.553 56.2815 128.601 56.0895 128.601C55.8975 128.601 55.3335 128.697 54.8415 128.817C54.3495 128.925 53.5695 129.009 53.1015 128.997C52.6455 128.985 51.7575 128.973 51.1455 128.973C50.1255 128.973 48.7215 128.757 47.8215 128.481C47.6295 128.421 47.3055 128.337 47.1015 128.313C46.5495 128.217 43.1895 126.729 42.7575 126.381C42.5415 126.213 42.2535 126.021 42.0975 125.961C41.4855 125.685 40.5735 125.037 40.1415 124.545C39.8895 124.269 39.6255 124.041 39.5535 124.041C39.4815 124.041 39.2535 123.801 39.0375 123.525C38.8215 123.249 38.4495 122.805 38.2215 122.541C37.9815 122.277 37.6935 121.917 37.5855 121.725C37.4775 121.545 37.3455 121.401 37.2975 121.401C37.2495 121.401 37.2015 121.317 37.2015 121.221C37.2015 121.125 37.0335 120.729 36.8415 120.345C36.6375 119.949 36.4815 119.541 36.4815 119.433C36.4815 119.325 36.3975 119.061 36.2895 118.857C36.0135 118.317 35.9775 116.889 36.2415 116.301C36.3615 116.037 36.4935 115.641 36.5295 115.437C36.6015 114.981 37.0935 114.201 37.6575 113.637C37.8855 113.409 38.6055 112.953 39.2775 112.617L40.5015 112.005L42.7215 112.017C45.1215 112.041 45.4095 112.089 46.6215 112.725C47.4255 113.145 48.0375 113.745 48.5175 114.585C48.8415 115.137 48.9135 115.629 48.7695 116.349C48.6735 116.805 48.5655 116.817 48.3735 116.385C48.2775 116.205 48.1695 115.965 48.1095 115.857C48.0495 115.737 48.0015 115.569 48.0015 115.485C48.0015 115.329 47.0055 114.429 46.4175 114.045C45.8055 113.661 45.0855 113.505 43.8615 113.505C43.2015 113.505 42.6015 113.553 42.5295 113.613C42.4575 113.673 42.0255 113.829 41.5695 113.973C40.9335 114.165 40.6095 114.345 40.1775 114.777C39.8535 115.077 39.6015 115.401 39.6015 115.497C39.6015 115.593 39.4935 115.821 39.3495 116.013C39.0255 116.469 38.9055 117.981 39.1335 118.761C39.2175 119.061 39.3015 119.373 39.3135 119.469C39.3855 119.841 39.6375 120.309 39.7935 120.369C39.8895 120.405 39.9615 120.513 39.9615 120.609C39.9615 120.897 40.8375 122.097 41.1135 122.205C41.4255 122.325 42.2415 123.033 42.2415 123.177C42.2415 123.321 43.4895 124.485 44.2215 125.025C44.5455 125.265 45.1215 125.613 45.4815 125.781C45.8415 125.961 46.2975 126.177 46.4775 126.273C46.6695 126.369 46.8855 126.441 46.9695 126.441C47.0415 126.441 47.3175 126.549 47.5695 126.681C47.8215 126.801 48.2775 126.945 48.5895 126.993C48.8895 127.029 49.6095 127.197 50.1855 127.341C51.0255 127.569 51.4455 127.605 52.4175 127.569C53.7975 127.521 55.6695 127.317 56.2815 127.161C56.6655 127.065 57.2655 126.993 58.6575 126.861C59.6055 126.777 60.0735 126.657 60.7455 126.309C60.8655 126.249 61.2615 126.201 61.6215 126.201C61.9935 126.201 62.4375 126.129 62.6175 126.033C62.7975 125.949 63.4215 125.817 64.0095 125.733C64.5975 125.649 65.1855 125.529 65.3055 125.469C65.5215 125.349 69.0735 124.989 69.8415 125.001C70.0695 125.013 71.4135 125.013 72.8295 125.013C75.3135 125.001 75.4575 125.013 76.8495 125.361C78.3615 125.745 80.7135 126.789 81.8535 127.593C82.1535 127.797 82.5615 128.061 82.7535 128.157C82.9455 128.253 83.3655 128.577 83.6655 128.865C83.9655 129.141 84.5175 129.657 84.8775 129.981C85.2375 130.317 85.6095 130.749 85.7175 130.941C85.8135 131.145 86.0175 131.409 86.1615 131.541C86.5335 131.877 87.2415 132.969 87.2415 133.197C87.2415 133.305 87.3735 133.485 87.5415 133.593C87.7095 133.701 87.8415 133.881 87.8415 133.989C87.8415 134.097 87.9135 134.289 87.9975 134.421C88.0815 134.553 88.2255 134.901 88.3215 135.201C88.4055 135.501 88.5255 135.789 88.5855 135.849C88.6335 135.921 88.6815 136.113 88.6815 136.281C88.6815 136.449 88.7655 136.713 88.8735 136.869C89.1735 137.289 89.1735 139.941 88.8855 140.865C88.7655 141.249 88.5855 141.633 88.4895 141.729C88.3935 141.825 88.3215 141.933 88.3215 141.981C88.3215 142.113 87.5535 142.821 87.2415 142.977C87.0735 143.049 86.5695 143.253 86.1255 143.421C85.3575 143.709 85.2015 143.721 83.8455 143.661C82.2855 143.589 81.4575 143.433 81.2295 143.169C81.1575 143.073 80.9415 143.001 80.7615 143.001C80.3535 143.001 79.6095 142.701 79.4775 142.473C79.4295 142.389 79.1655 142.197 78.9015 142.065C78.3975 141.813 77.6055 141.057 76.8015 140.061C76.2975 139.425 76.2375 139.293 76.4535 139.077C76.6935 138.837 76.4655 138.441 76.0815 138.441C75.8175 138.441 75.6615 138.561 75.3735 138.933C75.1815 139.209 74.9055 139.509 74.7735 139.605C74.6295 139.701 74.5215 139.905 74.5215 140.061C74.5215 140.217 74.4615 140.361 74.3775 140.385C74.2695 140.421 74.2695 140.565 74.3775 140.985C74.4615 141.297 74.5215 141.693 74.5215 141.861C74.5215 142.077 74.5935 142.209 74.7615 142.245C74.8935 142.281 75.0015 142.341 75.0015 142.389C75.0015 142.437 75.1695 142.701 75.3855 142.977C75.6375 143.301 75.8655 143.481 76.0455 143.481C76.1895 143.481 76.3695 143.589 76.4415 143.721C76.6095 144.033 78.2295 144.801 78.6975 144.801C78.9015 144.801 79.2135 144.885 79.3935 144.981C79.5855 145.077 79.8735 145.161 80.0415 145.161C80.2095 145.161 80.4615 145.233 80.5815 145.329C80.7135 145.425 81.2055 145.533 81.6615 145.581C82.1295 145.629 82.7175 145.773 82.9815 145.881C83.3055 146.013 83.5575 146.049 83.7255 145.989C83.8815 145.929 84.0255 145.941 84.0615 146.001C84.1095 146.073 84.3615 146.121 84.6375 146.121C84.9135 146.133 85.3335 146.229 85.5615 146.349C85.8855 146.529 86.0295 146.541 86.2575 146.445C86.4615 146.349 86.5575 146.349 86.6295 146.457C86.6775 146.541 86.9655 146.589 87.3135 146.589C87.6375 146.577 88.8615 146.601 90.0375 146.637C91.8255 146.697 92.1855 146.673 92.2455 146.529C92.3295 146.313 92.6415 146.313 92.8095 146.541C92.9175 146.685 93.0735 146.697 93.6615 146.589C94.0575 146.529 94.4895 146.481 94.6215 146.505C94.7535 146.517 95.2815 146.529 95.7975 146.529C96.5055 146.541 96.7815 146.493 96.8775 146.361C96.9735 146.241 97.2975 146.169 97.8615 146.133C98.3295 146.109 98.8695 146.013 99.0615 145.905C99.2655 145.797 99.6975 145.701 100.021 145.689C100.861 145.653 102.709 145.425 102.841 145.341C102.913 145.305 102.961 145.161 102.961 145.029C102.961 144.837 102.997 144.825 103.189 144.945C103.381 145.053 103.513 145.041 103.909 144.861C104.329 144.681 104.389 144.609 104.329 144.369C104.281 144.189 104.305 144.081 104.389 144.081C104.509 144.081 104.581 144.333 104.533 144.585C104.509 144.729 105.097 144.693 105.181 144.549C105.253 144.441 105.757 144.153 106.873 143.613C107.137 143.481 107.425 143.229 107.497 143.061C107.569 142.893 107.713 142.761 107.797 142.761C107.881 142.761 108.109 142.593 108.301 142.401C108.589 142.101 108.661 141.897 108.733 141.201C108.817 140.433 108.805 140.313 108.517 139.797C108.205 139.233 107.449 138.441 107.233 138.441C107.173 138.441 107.029 138.357 106.909 138.249C106.645 138.009 106.321 138.105 106.321 138.429C106.321 138.561 106.261 138.705 106.189 138.753C106.117 138.789 106.081 138.921 106.117 139.029C106.141 139.149 106.093 139.341 106.009 139.461C105.913 139.581 105.841 139.809 105.841 139.965C105.841 140.121 105.793 140.241 105.733 140.241C105.673 140.241 105.577 140.361 105.541 140.505C105.385 140.997 104.089 142.137 103.177 142.581C102.709 142.809 102.229 143.001 102.109 143.001C101.989 143.001 101.605 143.109 101.257 143.253C100.909 143.385 100.369 143.505 100.045 143.517C99.7335 143.517 99.4455 143.565 99.4215 143.613C99.3855 143.649 98.8455 143.661 98.1975 143.625C97.2015 143.577 96.9255 143.517 96.3735 143.229C96.0135 143.037 95.6415 142.881 95.5335 142.881C95.2455 142.881 94.0815 141.549 94.0815 141.225C94.0815 141.165 93.9495 140.805 93.7815 140.433C93.6255 140.073 93.5055 139.701 93.5415 139.617C93.5655 139.533 93.6135 138.933 93.6375 138.285C93.6735 137.445 93.7455 137.061 93.8775 136.905C93.9855 136.797 94.1295 136.425 94.2135 136.101C94.2855 135.765 94.3935 135.405 94.4535 135.297C94.5135 135.177 94.5615 134.997 94.5615 134.889C94.5615 134.793 94.6455 134.625 94.7415 134.529C94.8375 134.421 94.9215 134.253 94.9215 134.133C94.9215 134.013 95.0295 133.821 95.1735 133.689C95.3175 133.569 95.5815 133.113 95.7735 132.705C96.1095 131.961 96.9855 130.857 98.2455 129.585C98.5935 129.237 98.8815 128.901 98.8815 128.841C98.8815 128.781 98.9775 128.709 99.0975 128.673C99.2055 128.637 99.4815 128.445 99.6975 128.241C99.9135 128.049 100.153 127.881 100.213 127.881C100.285 127.881 100.633 127.641 101.005 127.341C101.365 127.041 101.725 126.801 101.809 126.801C101.893 126.801 102.217 126.669 102.553 126.513C103.885 125.865 104.509 125.601 104.953 125.493C105.217 125.433 105.589 125.325 105.781 125.253C106.717 124.941 107.881 124.857 110.881 124.941C115.417 125.061 115.777 125.085 116.881 125.421C117.181 125.517 117.841 125.613 118.357 125.637C118.969 125.673 119.353 125.745 119.497 125.865C119.605 125.973 120.049 126.093 120.481 126.141C120.913 126.177 121.549 126.321 121.897 126.453C122.245 126.573 122.785 126.681 123.097 126.681C123.409 126.681 123.865 126.741 124.129 126.813C124.381 126.885 124.897 126.957 125.269 126.981C125.641 127.005 126.481 127.137 127.153 127.269C127.813 127.401 128.677 127.509 129.073 127.509C130.141 127.533 131.569 127.401 131.689 127.269C131.761 127.209 131.953 127.161 132.121 127.161C132.289 127.161 132.493 127.101 132.565 127.029C132.649 126.945 133.033 126.873 133.429 126.873C133.837 126.861 134.221 126.789 134.305 126.705C134.389 126.621 134.569 126.561 134.701 126.561C134.989 126.561 135.673 126.249 135.793 126.069C135.829 126.009 135.961 125.985 136.081 126.021C136.213 126.069 136.393 125.997 136.525 125.865C136.645 125.733 136.945 125.565 137.185 125.493C137.437 125.409 137.665 125.289 137.713 125.229C137.749 125.169 138.001 124.977 138.277 124.809C138.841 124.461 139.069 124.257 140.125 123.213C140.533 122.817 140.905 122.481 140.965 122.481C141.061 122.469 141.589 121.833 142.381 120.765C142.609 120.453 142.885 119.889 142.981 119.505C143.077 119.133 143.281 118.593 143.425 118.317C143.689 117.813 143.701 117.801 143.473 117.393C143.353 117.165 143.293 116.925 143.341 116.841C143.449 116.673 143.209 116.085 142.777 115.437C142.597 115.161 142.441 114.909 142.441 114.861C142.441 114.741 141.793 114.213 141.649 114.201C141.565 114.201 141.481 114.117 141.433 114.021C141.397 113.925 141.265 113.841 141.145 113.841C141.025 113.841 140.761 113.757 140.557 113.661C139.861 113.313 137.713 113.229 136.657 113.517C136.273 113.625 135.721 113.877 135.421 114.081C134.857 114.465 133.921 115.761 133.921 116.157C133.921 116.277 133.861 116.361 133.777 116.325C133.609 116.277 133.585 115.137 133.729 114.477C133.837 113.985 135.049 112.845 135.781 112.521C136.117 112.389 136.489 112.221 136.621 112.161C137.221 111.909 137.665 111.825 138.409 111.849C138.853 111.861 139.237 111.849 139.261 111.801C139.345 111.669 141.661 111.825 142.201 112.005ZM156.181 116.781C156.181 116.901 156.109 117.021 156.037 117.045C155.941 117.081 155.881 116.985 155.881 116.781C155.881 116.577 155.941 116.481 156.037 116.505C156.109 116.541 156.181 116.661 156.181 116.781ZM141.241 130.581C141.241 130.761 141.025 130.941 140.917 130.845C140.893 130.809 140.893 130.665 140.941 130.533C141.025 130.257 141.241 130.305 141.241 130.581ZM142.561 130.761C142.561 130.821 142.513 130.881 142.441 130.881C142.381 130.881 142.321 130.821 142.321 130.761C142.321 130.689 142.381 130.641 142.441 130.641C142.513 130.641 142.561 130.689 142.561 130.761ZM134.449 137.181C134.485 137.277 134.461 137.361 134.401 137.361C134.329 137.361 134.281 137.277 134.281 137.181C134.281 137.085 134.305 137.001 134.329 137.001C134.353 137.001 134.401 137.085 134.449 137.181ZM51.1215 138.081C51.1215 138.213 51.0735 138.321 51.0135 138.321C50.8455 138.321 50.7375 138.105 50.8215 137.961C50.9415 137.757 51.1215 137.829 51.1215 138.081ZM131.041 139.281C131.041 139.341 130.993 139.401 130.921 139.401C130.861 139.401 130.801 139.341 130.801 139.281C130.801 139.209 130.861 139.161 130.921 139.161C130.993 139.161 131.041 139.209 131.041 139.281ZM122.977 144.657C123.013 144.765 122.953 144.813 122.809 144.777C122.701 144.765 122.581 144.669 122.545 144.585C122.509 144.477 122.569 144.429 122.713 144.465C122.821 144.477 122.941 144.573 122.977 144.657ZM119.641 147.501C119.641 147.597 119.593 147.681 119.521 147.681C119.461 147.681 119.401 147.597 119.401 147.501C119.401 147.405 119.461 147.321 119.521 147.321C119.593 147.321 119.641 147.405 119.641 147.501ZM119.761 148.341C119.761 148.437 119.713 148.521 119.641 148.521C119.581 148.521 119.521 148.437 119.521 148.341C119.521 148.245 119.581 148.161 119.641 148.161C119.713 148.161 119.761 148.245 119.761 148.341ZM71.5215 153.921C71.5215 153.981 71.4375 154.041 71.3295 154.041C71.2335 154.041 71.1855 153.981 71.2215 153.921C71.2575 153.849 71.3415 153.801 71.4135 153.801C71.4735 153.801 71.5215 153.849 71.5215 153.921ZM108.961 155.313C108.961 155.409 108.901 155.457 108.841 155.421C108.769 155.373 108.745 155.289 108.781 155.229C108.889 155.061 108.961 155.097 108.961 155.313ZM108.001 156.033C108.001 156.225 107.689 156.261 107.581 156.081C107.533 156.009 107.533 155.865 107.569 155.757C107.629 155.613 107.677 155.601 107.821 155.721C107.917 155.805 108.001 155.949 108.001 156.033ZM107.401 156.201C107.401 156.261 107.353 156.321 107.281 156.321C107.221 156.321 107.161 156.261 107.161 156.201C107.161 156.129 107.221 156.081 107.281 156.081C107.353 156.081 107.401 156.129 107.401 156.201ZM106.261 156.321C106.297 156.381 106.273 156.441 106.213 156.441C106.141 156.441 106.081 156.381 106.081 156.321C106.081 156.249 106.105 156.201 106.129 156.201C106.165 156.201 106.225 156.249 106.261 156.321ZM106.741 156.681C106.777 156.741 106.753 156.801 106.693 156.801C106.621 156.801 106.561 156.741 106.561 156.681C106.561 156.609 106.585 156.561 106.609 156.561C106.645 156.561 106.705 156.609 106.741 156.681ZM103.921 157.293C103.921 157.353 103.873 157.401 103.801 157.401C103.741 157.401 103.681 157.317 103.681 157.209C103.681 157.113 103.741 157.065 103.801 157.101C103.873 157.137 103.921 157.221 103.921 157.293ZM102.457 159.705C102.421 159.789 102.325 159.861 102.241 159.861C102.157 159.861 102.061 159.789 102.037 159.705C102.001 159.621 102.085 159.561 102.241 159.561C102.397 159.561 102.481 159.621 102.457 159.705ZM94.8015 164.529C94.8015 164.565 94.7535 164.625 94.6815 164.661C94.6215 164.697 94.5615 164.673 94.5615 164.613C94.5615 164.541 94.6215 164.481 94.6815 164.481C94.7535 164.481 94.8015 164.505 94.8015 164.529Z" fill="url(#paint2_linear_2372_39)"/>
</g>
<path d="M43.2463 71.3766C43.2103 71.4366 43.0543 71.4846 42.8863 71.4846C42.7183 71.4846 42.4663 71.5446 42.3343 71.6166C41.9863 71.8086 41.5063 72.3366 41.5783 72.4566C41.6143 72.5046 41.5183 72.5886 41.3743 72.6246C40.9903 72.7446 40.6783 73.0446 40.6783 73.2846C40.6783 73.4046 40.5943 73.5366 40.4863 73.5726C40.3903 73.6086 40.3303 73.6926 40.3783 73.7526C40.4143 73.8126 40.3423 73.9446 40.2343 74.0286C39.9703 74.2206 39.1183 75.5046 39.1183 75.7086C39.1183 75.7926 38.9383 76.2126 38.7223 76.6446C38.2303 77.6406 38.0623 78.1326 37.9663 78.8646C37.9183 79.2006 37.8103 79.5846 37.7143 79.7406C37.5943 79.9446 37.5343 80.4966 37.4983 81.6246C37.4623 83.0286 37.4863 83.2806 37.6903 83.6526C37.8103 83.8926 37.9183 84.1566 37.9183 84.2526C37.9183 84.5046 38.6383 85.2126 39.0703 85.3926C39.5383 85.5846 40.0063 85.3806 40.7383 84.6726C41.0023 84.4206 41.4223 84.0486 41.6623 83.8446C41.9023 83.6406 42.1423 83.3646 42.1783 83.2446C42.2263 83.1126 42.4063 82.8486 42.6103 82.6566C42.8023 82.4646 42.9583 82.2246 42.9583 82.1286C42.9583 82.0326 43.0663 81.8646 43.1983 81.7446C43.5223 81.4566 43.5103 80.6886 43.1863 79.9566C42.9823 79.4886 42.9463 79.2126 42.9943 78.3126C43.0183 77.7246 43.0063 77.2206 42.9703 77.1846C42.8383 77.0406 42.9823 74.9166 43.1503 74.6646C43.2463 74.5206 43.2943 74.3166 43.2583 74.2086C43.2103 74.1126 43.2343 73.9926 43.3063 73.9446C43.3783 73.9086 43.4383 73.6806 43.4383 73.4526C43.4383 73.2006 43.5343 72.9486 43.6783 72.8046C43.8103 72.6726 43.9183 72.4566 43.9183 72.3366C43.9183 72.2166 44.0023 72.0846 44.0983 72.0366C44.1943 72.0006 44.2783 71.8566 44.2783 71.7246C44.2783 71.5926 44.3383 71.4846 44.4103 71.4846C44.4703 71.4846 44.5063 71.4366 44.4703 71.3886C44.3863 71.2446 43.3303 71.2446 43.2463 71.3766ZM42.2383 79.2846C42.2383 79.3446 42.1903 79.4046 42.1183 79.4046C42.0583 79.4046 41.9983 79.3446 41.9983 79.2846C41.9983 79.2126 42.0583 79.1646 42.1183 79.1646C42.1903 79.1646 42.2383 79.2126 42.2383 79.2846Z" fill="#55005D"/>
<path d="M46.0128 73.843C46.0608 74.011 46.0368 74.131 45.9288 74.203C45.6648 74.359 45.4848 74.779 45.5688 75.055C45.6048 75.223 45.5808 75.319 45.4848 75.319C45.3888 75.319 45.3648 75.415 45.4008 75.583C45.4488 75.739 45.4008 75.931 45.3048 76.039C45.1008 76.255 44.9568 77.551 45.1128 77.647C45.1728 77.683 45.3048 77.611 45.4128 77.491C45.5448 77.347 45.5688 77.239 45.4968 77.191C45.4248 77.143 45.5208 76.903 45.7248 76.591C45.9288 76.291 46.0488 75.991 46.0128 75.847C45.9768 75.727 46.0608 75.415 46.1928 75.151C46.3728 74.815 46.4088 74.623 46.3248 74.467C46.2528 74.359 46.2408 74.179 46.2648 74.083C46.3008 73.999 46.2408 73.843 46.1328 73.747C45.9528 73.603 45.9408 73.603 46.0128 73.843Z" fill="#730630"/>
</g>
</g>
<defs>
<filter id="filter0_d_2372_39" x="-0.375" y="29.6094" width="182.367" height="144.961" filterUnits="userSpaceOnUse" color-interpolation-filters="sRGB">
<feFlood flood-opacity="0" result="BackgroundImageFix"/>
<feColorMatrix in="SourceAlpha" type="matrix" values="0 0 0 0 0 0 0 0 0 0 0 0 0 0 0 0 0 0 127 0" result="hardAlpha"/>
<feOffset dy="4"/>
<feGaussianBlur stdDeviation="2"/>
<feComposite in2="hardAlpha" operator="out"/>
<feColorMatrix type="matrix" values="0 0 0 0 0 0 0 0 0 0 0 0 0 0 0 0 0 0 0.25 0"/>
<feBlend mode="normal" in2="BackgroundImageFix" result="effect1_dropShadow_2372_39"/>
<feBlend mode="normal" in="SourceGraphic" in2="effect1_dropShadow_2372_39" result="shape"/>
</filter>
<filter id="filter1_d_2372_39" x="-96.375" y="-66.3906" width="374.367" height="336.961" filterUnits="userSpaceOnUse" color-interpolation-filters="sRGB">
<feFlood flood-opacity="0" result="BackgroundImageFix"/>
<feColorMatrix in="SourceAlpha" type="matrix" values="0 0 0 0 0 0 0 0 0 0 0 0 0 0 0 0 0 0 127 0" result="hardAlpha"/>
<feOffset dy="4"/>
<feGaussianBlur stdDeviation="50"/>
<feComposite in2="hardAlpha" operator="out"/>
<feColorMatrix type="matrix" values="0 0 0 0 0.054902 0 0 0 0 0.0470588 0 0 0 0 0.0470588 0 0 0 0.33 0"/>
<feBlend mode="normal" in2="BackgroundImageFix" result="effect1_dropShadow_2372_39"/>
<feBlend mode="normal" in="SourceGraphic" in2="effect1_dropShadow_2372_39" result="shape"/>
</filter>
<radialGradient id="paint0_radial_2372_39" cx="0" cy="0" r="1" gradientTransform="matrix(-3.87 -88.605 137.168 -5.92084 95.3106 149.777)" gradientUnits="userSpaceOnUse">
<stop stop-color="white"/>
<stop offset="0.9999" stop-color="#281515"/>
</radialGradient>
<radialGradient id="paint1_radial_2372_39" cx="0" cy="0" r="1" gradientTransform="matrix(2.25 60.66 -158.069 5.76463 93.96 62.7491)" gradientUnits="userSpaceOnUse">
<stop stop-color="white"/>
<stop offset="1" stop-color="#281515"/>
</radialGradient>
<linearGradient id="paint2_linear_2372_39" x1="86.6268" y1="157.656" x2="93.1518" y2="11.7661" gradientUnits="userSpaceOnUse">
<stop stop-color="#29002D"/>
<stop offset="0.826923" stop-color="#70007B"/>
<stop offset="1" stop-color="#F200FF"/>
</linearGradient>
<clipPath id="clip0_2372_39">
<rect width="180" height="162" fill="white" transform="translate(0 11)"/>
</clipPath>
</defs>
</svg>
