<svg xmlns="http://www.w3.org/2000/svg">
	<symbol id="base-icon" viewBox="0 0 21 19">
		<path fill-rule="evenodd" clip-rule="evenodd" d="M1.43784 8.26325C7.07383 5.73103 10.8258 4.04844 12.7098 3.23213C18.0721 0.916484 19.1992 0.516659 19.9239 0.5C20.0849 0.5 20.4392 0.533319 20.6807 0.733231C20.8739 0.899824 20.9222 1.1164 20.9545 1.28299C20.9867 1.44958 21.0189 1.79943 20.9867 2.06598C20.6968 5.23125 19.4408 12.9112 18.7967 16.443C18.5229 17.9423 17.9915 18.4421 17.4762 18.4921C16.349 18.592 15.4956 17.7258 14.4167 16.9927C12.7098 15.8433 11.7597 15.1269 10.1012 13.9941C8.18492 12.6946 9.42484 11.9783 10.5198 10.8121C10.8097 10.5123 15.7532 5.84765 15.8499 5.43117C15.866 5.38119 15.866 5.18127 15.7532 5.08132C15.6405 4.98136 15.4795 5.01468 15.3507 5.048C15.1735 5.08132 12.4683 6.94716 7.20265 10.6289C6.42972 11.1786 5.73729 11.4452 5.10928 11.4285C4.41686 11.4119 3.09643 11.0287 2.09806 10.6955C0.890347 10.2957 -0.0758222 10.0791 0.0046919 9.37943C0.0530003 9.01292 0.536085 8.64642 1.43784 8.26325Z"/>
	</symbol>

	<symbol id="arrow-left" viewBox="0 0 32 22">
		<path fill-rule="evenodd" clip-rule="evenodd" d="M5.30566 12.1656L12.7399 19.5998L10.7799 21.5598L-7.01935e-06 10.7799L10.7799 7.63025e-06L12.7399 1.95999L5.30566 9.3942L31.3597 9.3942V12.1656L5.30566 12.1656Z" />
	</symbol>

	<symbol id="arrow-right" viewBox="0 0 32 22">
		<path fill-rule="evenodd" clip-rule="evenodd" d="M26.054 9.3942L18.6198 1.95999L20.5798 7.63025e-06L31.3597 10.7799L20.5798 21.5598L18.6198 19.5998L26.054 12.1656L-5.07949e-06 12.1656V9.3942L26.054 9.3942Z" fill="white"/>
	</symbol>

	<symbol id="close-circle-icon" viewBox="0 0 24 24">
		<path d="M15 9.00004L9 15M15 15L9 9.00004M12 21C16.9706 21 21 16.9706 21 12C21 7.02944 16.9706 3 12 3C7.02944 3 3 7.02944 3 12C3 16.9706 7.02944 21 12 21Z" stroke="#870395" stroke-width="2" stroke-linecap="round" stroke-linejoin="round"/>
	</symbol>

	<symbol id="cake-button" viewBox="0 0 296 296" >
		<g>
			<path d="m245.328,256.334c-14.999,0-22.952-6.559-29.342-11.828-5.753-4.744-9.909-8.172-19.162-8.172-9.251,0-13.407,3.428-19.159,8.172-6.389,5.27-14.341,11.828-29.339,11.828-14.998,0-22.95-6.559-29.34-11.828-5.753-4.744-9.908-8.172-19.16-8.172-9.25,0-13.406,3.428-19.157,8.172-6.39,5.27-14.342,11.828-29.34,11.828-14.998,0-23.366-6.559-29.755-11.828-1.932-1.594-3.574-3.032-5.574-4.249v55.743h264v-56.015c-2,1.271-3.669,2.808-5.747,4.521-6.389,5.269-13.926,11.828-28.925,11.828z" fill="#61260d"/>
			<path d="m16,181v41.599c7,2.378 11.709,6.227 15.755,9.563 5.751,4.744 10.115,8.172 19.365,8.172 9.251,0 13.511-3.428 19.263-8.172 6.389-5.27 14.393-11.828 29.39-11.828 14.998,0 22.976,6.559 29.366,11.828 5.753,4.744 9.921,8.172 19.173,8.172 9.251,0 13.414-3.428 19.166-8.172 6.389-5.27 14.344-11.828 29.342-11.828 14.999,0 22.954,6.559 29.343,11.828 5.753,4.744 9.91,8.172 19.163,8.172 9.252,0 12.993-3.428 18.746-8.172 4.216-3.477 8.926-7.502 15.926-9.848v-41.314h-263.998z" fill="#ae4f74"/>
			<rect width="198" x="49" y="99" height="65" fill="#66066f"/>
			<path d="M90,47.426c5-2.816,8.665-8.219,8.665-14.426c0-9.112-16.417-33-16.417-33S65.624,23.888,65.624,33   c0,6.209,3.376,11.611,8.376,14.427V82h16V47.426z" fill="#870395"/>
			<path d="M156,47.123c5-2.889,8.167-8.124,8.167-14.123c0-9.112-16.417-33-16.417-33s-16.625,23.888-16.625,33   c0,6.408,3.874,11.951,8.874,14.684V82h16V47.123z" fill="#870395"/>
			<path d="M222,47.426c5-2.816,8.665-8.219,8.665-14.426c0-9.112-16.417-33-16.417-33s-16.625,23.888-16.625,33   c0,6.209,3.376,11.611,8.376,14.427V82h16V47.426z" fill="#870395"/>
		</g>
	</symbol>
</svg> 

