<svg xmlns="http://www.w3.org/2000/svg">
	<symbol id="base-icon" viewBox="0 0 21 19">
		<path fill-rule="evenodd" clip-rule="evenodd" d="M1.43784 8.26325C7.07383 5.73103 10.8258 4.04844 12.7098 3.23213C18.0721 0.916484 19.1992 0.516659 19.9239 0.5C20.0849 0.5 20.4392 0.533319 20.6807 0.733231C20.8739 0.899824 20.9222 1.1164 20.9545 1.28299C20.9867 1.44958 21.0189 1.79943 20.9867 2.06598C20.6968 5.23125 19.4408 12.9112 18.7967 16.443C18.5229 17.9423 17.9915 18.4421 17.4762 18.4921C16.349 18.592 15.4956 17.7258 14.4167 16.9927C12.7098 15.8433 11.7597 15.1269 10.1012 13.9941C8.18492 12.6946 9.42484 11.9783 10.5198 10.8121C10.8097 10.5123 15.7532 5.84765 15.8499 5.43117C15.866 5.38119 15.866 5.18127 15.7532 5.08132C15.6405 4.98136 15.4795 5.01468 15.3507 5.048C15.1735 5.08132 12.4683 6.94716 7.20265 10.6289C6.42972 11.1786 5.73729 11.4452 5.10928 11.4285C4.41686 11.4119 3.09643 11.0287 2.09806 10.6955C0.890347 10.2957 -0.0758222 10.0791 0.0046919 9.37943C0.0530003 9.01292 0.536085 8.64642 1.43784 8.26325Z"/>
	</symbol>

	<symbol id="arrow-left" viewBox="0 0 32 22">
		<path fill-rule="evenodd" clip-rule="evenodd" d="M5.30566 12.1656L12.7399 19.5998L10.7799 21.5598L-7.01935e-06 10.7799L10.7799 7.63025e-06L12.7399 1.95999L5.30566 9.3942L31.3597 9.3942V12.1656L5.30566 12.1656Z" />
	</symbol>

	<symbol id="arrow-right" viewBox="0 0 32 22">
		<path fill-rule="evenodd" clip-rule="evenodd" d="M26.054 9.3942L18.6198 1.95999L20.5798 7.63025e-06L31.3597 10.7799L20.5798 21.5598L18.6198 19.5998L26.054 12.1656L-5.07949e-06 12.1656V9.3942L26.054 9.3942Z" fill="white"/>
	</symbol>

	<symbol id="close-circle-icon" viewBox="0 0 24 24">
		<path d="M15 9.00004L9 15M15 15L9 9.00004M12 21C16.9706 21 21 16.9706 21 12C21 7.02944 16.9706 3 12 3C7.02944 3 3 7.02944 3 12C3 16.9706 7.02944 21 12 21Z" stroke="#870395" stroke-width="2" stroke-linecap="round" stroke-linejoin="round"/>
	</symbol>

	<symbol id="cake-button" viewBox="0 0 296 296" >
		<g>
			<path d="m245.328,256.334c-14.999,0-22.952-6.559-29.342-11.828-5.753-4.744-9.909-8.172-19.162-8.172-9.251,0-13.407,3.428-19.159,8.172-6.389,5.27-14.341,11.828-29.339,11.828-14.998,0-22.95-6.559-29.34-11.828-5.753-4.744-9.908-8.172-19.16-8.172-9.25,0-13.406,3.428-19.157,8.172-6.39,5.27-14.342,11.828-29.34,11.828-14.998,0-23.366-6.559-29.755-11.828-1.932-1.594-3.574-3.032-5.574-4.249v55.743h264v-56.015c-2,1.271-3.669,2.808-5.747,4.521-6.389,5.269-13.926,11.828-28.925,11.828z" fill="#61260d"/>
			<path d="m16,181v41.599c7,2.378 11.709,6.227 15.755,9.563 5.751,4.744 10.115,8.172 19.365,8.172 9.251,0 13.511-3.428 19.263-8.172 6.389-5.27 14.393-11.828 29.39-11.828 14.998,0 22.976,6.559 29.366,11.828 5.753,4.744 9.921,8.172 19.173,8.172 9.251,0 13.414-3.428 19.166-8.172 6.389-5.27 14.344-11.828 29.342-11.828 14.999,0 22.954,6.559 29.343,11.828 5.753,4.744 9.91,8.172 19.163,8.172 9.252,0 12.993-3.428 18.746-8.172 4.216-3.477 8.926-7.502 15.926-9.848v-41.314h-263.998z" fill="#ae4f74"/>
			<rect width="198" x="49" y="99" height="65" fill="#66066f"/>
			<path d="M90,47.426c5-2.816,8.665-8.219,8.665-14.426c0-9.112-16.417-33-16.417-33S65.624,23.888,65.624,33   c0,6.209,3.376,11.611,8.376,14.427V82h16V47.426z" fill="#870395"/>
			<path d="M156,47.123c5-2.889,8.167-8.124,8.167-14.123c0-9.112-16.417-33-16.417-33s-16.625,23.888-16.625,33   c0,6.408,3.874,11.951,8.874,14.684V82h16V47.123z" fill="#870395"/>
			<path d="M222,47.426c5-2.816,8.665-8.219,8.665-14.426c0-9.112-16.417-33-16.417-33s-16.625,23.888-16.625,33   c0,6.209,3.376,11.611,8.376,14.427V82h16V47.426z" fill="#870395"/>
		</g>
	</symbol>

	<symbol id="location-point" viewBox="0 0 24 24">
		<path d="M12 21C15.5 17.4 19 14.1764 19 10.2C19 6.22355 15.866 3 12 3C8.13401 3 5 6.22355 5 10.2C5 14.1764 8.5 17.4 12 21Z"  stroke-width="2" stroke-linecap="round" stroke-linejoin="round"/>
		<path d="M12 12C13.1046 12 14 11.1046 14 10C14 8.89543 13.1046 8 12 8C10.8954 8 10 8.89543 10 10C10 11.1046 10.8954 12 12 12Z"  stroke-width="2" stroke-linecap="round" stroke-linejoin="round"/>
	</symbol>

	<symbol id="phone-icon" viewBox="0 0 24 24">
		<path d="M3 6.5C3 14.5081 9.49187 21 17.5 21C18.166 21 18.8216 20.9551 19.4637 20.8682C20.3747 20.7448 21 19.9292 21 19.01V16.4415C21 15.5807 20.4491 14.8164 19.6325 14.5442L16.4841 13.4947C15.6836 13.2279 14.8252 13.699 14.6206 14.5177C14.3475 15.6102 12.987 15.987 12.1907 15.1907L8.80926 11.8093C8.01301 11.013 8.38984 9.65254 9.48229 9.37943C10.301 9.17476 10.7721 8.31644 10.5053 7.51586L9.45585 4.36754C9.18362 3.55086 8.41934 3 7.55848 3H4.99004C4.0708 3 3.25518 3.62533 3.13185 4.53627C3.0449 5.17845 3 5.83398 3 6.5Z" stroke-width="2" stroke-linejoin="round"/>
		<path d="M21 3L15.5 8.5" stroke-width="2" stroke-linecap="round" stroke-linejoin="round"/>
		<path d="M15 5V8.5V8.5C15 8.77614 15.2239 9 15.5 9V9H19" stroke-width="2" stroke-linecap="round" stroke-linejoin="round"/>
	</symbol>

	<symbol id="work-time" viewBox="0 0 512 512">
		<g>
			<path class="st0" d="M184.488,220.595l51.016,39.35c1.966,15.861,15.336,28.191,31.73,28.191c17.754,0,32.14-14.394,32.14-32.14
				c0-0.68-0.156-1.327-0.205-1.999l74.758-88.44c5.21-5.85,5.309-14.28,0.213-18.802c-5.088-4.531-13.436-3.45-18.647,2.408
				l-73.447,78.47c-4.457-2.335-9.438-3.777-14.813-3.777c-5.742,0-11.06,1.63-15.73,4.277l-48.026-33.443
				c-6.194-4.563-15.484-2.45-20.736,4.712C177.508,206.544,178.278,216.04,184.488,220.595z"/>
			<path class="st0" d="M440.314,82.925c-44.2-44.257-105.58-71.703-173.08-71.686V70.57c51.303,0.017,97.469,20.712,131.124,54.31
				c33.59,33.647,54.285,79.821,54.302,131.116c-0.017,51.294-20.712,97.468-54.302,131.116
				c-33.655,33.606-79.821,54.301-131.124,54.309c-51.294-0.008-97.468-20.703-131.116-54.309
				c-33.598-33.648-54.293-79.822-54.309-131.116c0.008-16.82,2.302-33.017,6.464-48.444l24.046,14.977
				c3.187,1.975,7.062,2.393,10.241,1.09c3.203-1.319,5.3-4.162,5.546-7.57l10.356-135.614c0.278-3.884-1.852-7.8-5.472-10.077
				c-3.654-2.244-8.119-2.45-11.47-0.459L4.372,138.971c-2.957,1.729-4.58,4.858-4.35,8.299c0.229,3.458,2.302,6.743,5.497,8.725
				l30.698,19.122c-8.872,25.357-13.747,52.59-13.747,80.879c-0.016,67.491,27.446,128.871,71.687,173.079
				c44.207,44.241,105.579,71.703,173.078,71.686c67.492,0.017,128.88-27.445,173.08-71.686
				c44.24-44.208,71.703-105.588,71.686-173.079C512.017,188.497,484.554,127.117,440.314,82.925z"/>
		</g>
	</symbol>

	<symbol id="document" viewBox="0 0 512.582 512.582">
		<g>
			<g>
				<path d="M477.382,0H35.2C15.418,0,0.291,15.127,0.291,34.909v302.545c0,19.782,15.127,34.909,34.909,34.909h197.818
					c6.982,0,11.636-4.655,11.636-11.636s-4.655-11.636-11.636-11.636H35.2c-6.982,0-11.636-4.655-11.636-11.636V34.909
					c0-6.982,4.655-11.636,11.636-11.636h442.182c6.982,0,11.636,4.655,11.636,11.636v302.545c0,6.982-4.655,11.636-11.636,11.636
					h-18.618l3.491-3.491c3.491-4.655,3.491-11.636,0-15.127l-13.964-16.291l4.655-20.945c1.164-5.818-2.327-11.636-8.146-13.964
					l-19.782-6.982l-5.818-18.618c-2.327-5.818-8.146-9.309-13.964-8.145l-20.945,4.655l-15.127-13.964
					c-4.655-3.491-11.636-3.491-15.127,0l-16.291,13.964l-20.945-4.655c-5.818-1.164-11.636,2.327-13.964,8.145l-6.982,19.782
					l-18.618,5.818c-5.818,2.327-9.309,8.146-8.145,13.964l4.655,20.945l-13.964,15.127c-3.491,4.655-3.491,11.636,0,15.127
					l13.964,15.127l-4.655,20.945c-1.164,5.818,2.327,11.636,8.145,13.964l19.782,6.982L304,421.236
					c2.327,5.818,8.145,9.309,13.964,8.145l20.945-4.655l15.127,13.964c4.655,3.491,11.636,3.491,15.127,0l15.127-13.964l11.636,2.327
					v53.527l-30.255-15.127c-3.491-1.164-6.982-1.164-10.473,0l-29.091,16.291v-27.927c0-6.982-4.655-11.636-11.636-11.636
					s-11.636,4.655-11.636,11.636v46.545c0,3.491,2.327,8.145,5.818,10.473c3.491,2.327,8.145,2.327,11.636,0l41.891-20.945
					l41.891,20.945c0,1.164,1.164,1.164,3.491,1.164c2.327,0,4.655-1.164,5.818-1.164c3.491-2.327,5.818-5.818,5.818-10.473v-82.618
					c0-5.818-3.491-10.473-9.309-11.636l-26.764-5.818c-3.491-1.164-6.982,0-10.473,2.327l-12.8,11.636l-12.8-11.636
					c-2.327-2.327-6.982-3.491-10.473-2.327l-16.291,3.491l-4.655-16.291c-1.164-3.491-3.491-5.818-6.982-6.982l-16.291-4.655
					l3.491-16.291c1.164-3.491,0-6.982-2.327-10.473l-11.636-12.8l11.636-12.8c2.327-2.327,3.491-6.982,2.327-10.473l-3.491-16.291
					l16.291-4.655c3.491-1.164,5.818-3.491,6.982-6.982l4.655-16.291l16.291,3.491c3.491,1.164,6.982,0,10.473-2.327l12.8-11.636
					l12.8,11.636c2.327,2.327,6.982,3.491,10.473,2.327l16.291-3.491l4.655,16.291c1.164,3.491,3.491,5.818,6.982,6.982l16.291,4.655
					l-3.491,16.291c-1.164,3.491,0,6.982,2.327,10.473l11.636,12.8l-11.636,12.8c-2.327,2.327-3.491,6.982-2.327,10.473l5.818,26.764
					c1.164,5.818,6.982,10.473,13.964,9.309c5.818-1.164,10.473-6.982,9.309-13.964l-2.327-9.309h26.764
					c19.782,0,34.909-15.127,34.909-34.909V34.909C512.291,15.127,497.164,0,477.382,0z"/>
			</g>
		</g>
		<g>
			<g>
				<path d="M361.018,290.909c-25.6,0-46.545,20.945-46.545,46.545c0,25.6,20.945,46.545,46.545,46.545
					c25.6,0,46.545-20.945,46.545-46.545C407.564,311.855,386.618,290.909,361.018,290.909z M361.018,360.727
					c-12.8,0-23.273-10.473-23.273-23.273c0-12.8,10.473-23.273,23.273-23.273s23.273,10.473,23.273,23.273
					C384.291,350.255,373.818,360.727,361.018,360.727z"/>
			</g>
		</g>
		<g>
			<g>
				<path d="M326.109,46.545H186.473c-6.982,0-11.636,4.655-11.636,11.636s4.655,11.636,11.636,11.636h139.636
					c6.982,0,11.636-4.655,11.636-11.636S333.091,46.545,326.109,46.545z"/>
			</g>
		</g>
		<g>
			<g>
				<path d="M256.291,162.909H81.745c-6.982,0-11.636,4.655-11.636,11.636s4.655,11.636,11.636,11.636h174.545
					c6.982,0,11.636-4.655,11.636-11.636S263.273,162.909,256.291,162.909z"/>
			</g>
		</g>
		<g>
			<g>
				<path d="M209.745,209.455h-128c-6.982,0-11.636,4.655-11.636,11.636c0,6.982,4.655,11.636,11.636,11.636h128
					c6.982,0,11.636-4.655,11.636-11.636C221.382,214.109,216.727,209.455,209.745,209.455z"/>
			</g>
		</g>
		<g>
			<g>
				<path d="M291.2,93.091h-69.818c-6.982,0-11.636,4.655-11.636,11.636s4.655,11.636,11.636,11.636H291.2
					c6.982,0,11.636-4.655,11.636-11.636S298.182,93.091,291.2,93.091z"/>
			</g>
		</g>
		<g>
			<g>
				<path d="M372.655,162.909h-69.818c-6.982,0-11.636,4.655-11.636,11.636s4.655,11.636,11.636,11.636h69.818
					c6.982,0,11.636-4.655,11.636-11.636S379.636,162.909,372.655,162.909z"/>
			</g>
		</g>
		<g>
			<g>
				<path d="M174.836,290.909h-25.6c-3.491,0-5.818-1.164-8.145-3.491l-11.636-11.636c-13.964-13.964-36.073-13.964-48.873,0
					l-6.982,6.982c-4.655,4.655-4.655,11.636,0,16.291s11.636,4.655,16.291,0l6.982-6.982c4.655-4.655,11.636-4.655,16.291,0
					l11.636,11.636c6.982,6.982,15.127,10.473,24.436,10.473h25.6c6.982,0,11.636-4.655,11.636-11.636
					S181.818,290.909,174.836,290.909z"/>
			</g>
		</g>
		<g>
			<g>
				<path d="M291.2,209.455h-34.909c-6.982,0-11.636,4.655-11.636,11.636c0,6.982,4.655,11.636,11.636,11.636H291.2
					c6.982,0,11.636-4.655,11.636-11.636C302.836,214.109,298.182,209.455,291.2,209.455z"/>
			</g>
		</g>
	</symbol>
</svg> 



