<svg xmlns="http://www.w3.org/2000/svg">
	<symbol id="base-icon" viewBox="0 0 21 19">
		<path fill-rule="evenodd" clip-rule="evenodd" d="M1.43784 8.26325C7.07383 5.73103 10.8258 4.04844 12.7098 3.23213C18.0721 0.916484 19.1992 0.516659 19.9239 0.5C20.0849 0.5 20.4392 0.533319 20.6807 0.733231C20.8739 0.899824 20.9222 1.1164 20.9545 1.28299C20.9867 1.44958 21.0189 1.79943 20.9867 2.06598C20.6968 5.23125 19.4408 12.9112 18.7967 16.443C18.5229 17.9423 17.9915 18.4421 17.4762 18.4921C16.349 18.592 15.4956 17.7258 14.4167 16.9927C12.7098 15.8433 11.7597 15.1269 10.1012 13.9941C8.18492 12.6946 9.42484 11.9783 10.5198 10.8121C10.8097 10.5123 15.7532 5.84765 15.8499 5.43117C15.866 5.38119 15.866 5.18127 15.7532 5.08132C15.6405 4.98136 15.4795 5.01468 15.3507 5.048C15.1735 5.08132 12.4683 6.94716 7.20265 10.6289C6.42972 11.1786 5.73729 11.4452 5.10928 11.4285C4.41686 11.4119 3.09643 11.0287 2.09806 10.6955C0.890347 10.2957 -0.0758222 10.0791 0.0046919 9.37943C0.0530003 9.01292 0.536085 8.64642 1.43784 8.26325Z"/>
	</symbol>

	<symbol id="arrow-left" viewBox="0 0 32 22">
		<path fill-rule="evenodd" clip-rule="evenodd" d="M5.30566 12.1656L12.7399 19.5998L10.7799 21.5598L-7.01935e-06 10.7799L10.7799 7.63025e-06L12.7399 1.95999L5.30566 9.3942L31.3597 9.3942V12.1656L5.30566 12.1656Z" />
	</symbol>

	<symbol id="arrow-right" viewBox="0 0 32 22">
		<path fill-rule="evenodd" clip-rule="evenodd" d="M26.054 9.3942L18.6198 1.95999L20.5798 7.63025e-06L31.3597 10.7799L20.5798 21.5598L18.6198 19.5998L26.054 12.1656L-5.07949e-06 12.1656V9.3942L26.054 9.3942Z" fill="white"/>
	</symbol>

	<symbol id="close-circle-icon" viewBox="0 0 24 24">
		<path d="M15 9.00004L9 15M15 15L9 9.00004M12 21C16.9706 21 21 16.9706 21 12C21 7.02944 16.9706 3 12 3C7.02944 3 3 7.02944 3 12C3 16.9706 7.02944 21 12 21Z" stroke-width="2.5" stroke-linecap="round" stroke-linejoin="round"/>
	</symbol>

	<symbol id="cake-button" viewBox="0 0 296 296" >
		<g>
			<path d="m245.328,256.334c-14.999,0-22.952-6.559-29.342-11.828-5.753-4.744-9.909-8.172-19.162-8.172-9.251,0-13.407,3.428-19.159,8.172-6.389,5.27-14.341,11.828-29.339,11.828-14.998,0-22.95-6.559-29.34-11.828-5.753-4.744-9.908-8.172-19.16-8.172-9.25,0-13.406,3.428-19.157,8.172-6.39,5.27-14.342,11.828-29.34,11.828-14.998,0-23.366-6.559-29.755-11.828-1.932-1.594-3.574-3.032-5.574-4.249v55.743h264v-56.015c-2,1.271-3.669,2.808-5.747,4.521-6.389,5.269-13.926,11.828-28.925,11.828z" fill="#61260d"/>
			<path d="m16,181v41.599c7,2.378 11.709,6.227 15.755,9.563 5.751,4.744 10.115,8.172 19.365,8.172 9.251,0 13.511-3.428 19.263-8.172 6.389-5.27 14.393-11.828 29.39-11.828 14.998,0 22.976,6.559 29.366,11.828 5.753,4.744 9.921,8.172 19.173,8.172 9.251,0 13.414-3.428 19.166-8.172 6.389-5.27 14.344-11.828 29.342-11.828 14.999,0 22.954,6.559 29.343,11.828 5.753,4.744 9.91,8.172 19.163,8.172 9.252,0 12.993-3.428 18.746-8.172 4.216-3.477 8.926-7.502 15.926-9.848v-41.314h-263.998z" fill="#ae4f74"/>
			<rect width="198" x="49" y="99" height="65" fill="#66066f"/>
			<path d="M90,47.426c5-2.816,8.665-8.219,8.665-14.426c0-9.112-16.417-33-16.417-33S65.624,23.888,65.624,33   c0,6.209,3.376,11.611,8.376,14.427V82h16V47.426z" fill="#870395"/>
			<path d="M156,47.123c5-2.889,8.167-8.124,8.167-14.123c0-9.112-16.417-33-16.417-33s-16.625,23.888-16.625,33   c0,6.408,3.874,11.951,8.874,14.684V82h16V47.123z" fill="#870395"/>
			<path d="M222,47.426c5-2.816,8.665-8.219,8.665-14.426c0-9.112-16.417-33-16.417-33s-16.625,23.888-16.625,33   c0,6.209,3.376,11.611,8.376,14.427V82h16V47.426z" fill="#870395"/>
		</g>
	</symbol>

	<symbol id="location-point" viewBox="0 0 24 24">
		<path d="M12 21C15.5 17.4 19 14.1764 19 10.2C19 6.22355 15.866 3 12 3C8.13401 3 5 6.22355 5 10.2C5 14.1764 8.5 17.4 12 21Z"  stroke-width="2" stroke-linecap="round" stroke-linejoin="round"/>
		<path d="M12 12C13.1046 12 14 11.1046 14 10C14 8.89543 13.1046 8 12 8C10.8954 8 10 8.89543 10 10C10 11.1046 10.8954 12 12 12Z"  stroke-width="2" stroke-linecap="round" stroke-linejoin="round"/>
	</symbol>

	<symbol id="phone-icon" viewBox="0 0 24 24">
		<path d="M3 6.5C3 14.5081 9.49187 21 17.5 21C18.166 21 18.8216 20.9551 19.4637 20.8682C20.3747 20.7448 21 19.9292 21 19.01V16.4415C21 15.5807 20.4491 14.8164 19.6325 14.5442L16.4841 13.4947C15.6836 13.2279 14.8252 13.699 14.6206 14.5177C14.3475 15.6102 12.987 15.987 12.1907 15.1907L8.80926 11.8093C8.01301 11.013 8.38984 9.65254 9.48229 9.37943C10.301 9.17476 10.7721 8.31644 10.5053 7.51586L9.45585 4.36754C9.18362 3.55086 8.41934 3 7.55848 3H4.99004C4.0708 3 3.25518 3.62533 3.13185 4.53627C3.0449 5.17845 3 5.83398 3 6.5Z" stroke-width="2" stroke-linejoin="round"/>
		<path d="M21 3L15.5 8.5" stroke-width="2" stroke-linecap="round" stroke-linejoin="round"/>
		<path d="M15 5V8.5V8.5C15 8.77614 15.2239 9 15.5 9V9H19" stroke-width="2" stroke-linecap="round" stroke-linejoin="round"/>
	</symbol>

	<symbol id="work-time" viewBox="0 0 512 512">
		<g>
			<path class="st0" d="M184.488,220.595l51.016,39.35c1.966,15.861,15.336,28.191,31.73,28.191c17.754,0,32.14-14.394,32.14-32.14
				c0-0.68-0.156-1.327-0.205-1.999l74.758-88.44c5.21-5.85,5.309-14.28,0.213-18.802c-5.088-4.531-13.436-3.45-18.647,2.408
				l-73.447,78.47c-4.457-2.335-9.438-3.777-14.813-3.777c-5.742,0-11.06,1.63-15.73,4.277l-48.026-33.443
				c-6.194-4.563-15.484-2.45-20.736,4.712C177.508,206.544,178.278,216.04,184.488,220.595z"/>
			<path class="st0" d="M440.314,82.925c-44.2-44.257-105.58-71.703-173.08-71.686V70.57c51.303,0.017,97.469,20.712,131.124,54.31
				c33.59,33.647,54.285,79.821,54.302,131.116c-0.017,51.294-20.712,97.468-54.302,131.116
				c-33.655,33.606-79.821,54.301-131.124,54.309c-51.294-0.008-97.468-20.703-131.116-54.309
				c-33.598-33.648-54.293-79.822-54.309-131.116c0.008-16.82,2.302-33.017,6.464-48.444l24.046,14.977
				c3.187,1.975,7.062,2.393,10.241,1.09c3.203-1.319,5.3-4.162,5.546-7.57l10.356-135.614c0.278-3.884-1.852-7.8-5.472-10.077
				c-3.654-2.244-8.119-2.45-11.47-0.459L4.372,138.971c-2.957,1.729-4.58,4.858-4.35,8.299c0.229,3.458,2.302,6.743,5.497,8.725
				l30.698,19.122c-8.872,25.357-13.747,52.59-13.747,80.879c-0.016,67.491,27.446,128.871,71.687,173.079
				c44.207,44.241,105.579,71.703,173.078,71.686c67.492,0.017,128.88-27.445,173.08-71.686
				c44.24-44.208,71.703-105.588,71.686-173.079C512.017,188.497,484.554,127.117,440.314,82.925z"/>
		</g>
	</symbol>

	<symbol id="document" viewBox="0 0 512.582 512.582">
		<g>
			<g>
				<path d="M477.382,0H35.2C15.418,0,0.291,15.127,0.291,34.909v302.545c0,19.782,15.127,34.909,34.909,34.909h197.818
					c6.982,0,11.636-4.655,11.636-11.636s-4.655-11.636-11.636-11.636H35.2c-6.982,0-11.636-4.655-11.636-11.636V34.909
					c0-6.982,4.655-11.636,11.636-11.636h442.182c6.982,0,11.636,4.655,11.636,11.636v302.545c0,6.982-4.655,11.636-11.636,11.636
					h-18.618l3.491-3.491c3.491-4.655,3.491-11.636,0-15.127l-13.964-16.291l4.655-20.945c1.164-5.818-2.327-11.636-8.146-13.964
					l-19.782-6.982l-5.818-18.618c-2.327-5.818-8.146-9.309-13.964-8.145l-20.945,4.655l-15.127-13.964
					c-4.655-3.491-11.636-3.491-15.127,0l-16.291,13.964l-20.945-4.655c-5.818-1.164-11.636,2.327-13.964,8.145l-6.982,19.782
					l-18.618,5.818c-5.818,2.327-9.309,8.146-8.145,13.964l4.655,20.945l-13.964,15.127c-3.491,4.655-3.491,11.636,0,15.127
					l13.964,15.127l-4.655,20.945c-1.164,5.818,2.327,11.636,8.145,13.964l19.782,6.982L304,421.236
					c2.327,5.818,8.145,9.309,13.964,8.145l20.945-4.655l15.127,13.964c4.655,3.491,11.636,3.491,15.127,0l15.127-13.964l11.636,2.327
					v53.527l-30.255-15.127c-3.491-1.164-6.982-1.164-10.473,0l-29.091,16.291v-27.927c0-6.982-4.655-11.636-11.636-11.636
					s-11.636,4.655-11.636,11.636v46.545c0,3.491,2.327,8.145,5.818,10.473c3.491,2.327,8.145,2.327,11.636,0l41.891-20.945
					l41.891,20.945c0,1.164,1.164,1.164,3.491,1.164c2.327,0,4.655-1.164,5.818-1.164c3.491-2.327,5.818-5.818,5.818-10.473v-82.618
					c0-5.818-3.491-10.473-9.309-11.636l-26.764-5.818c-3.491-1.164-6.982,0-10.473,2.327l-12.8,11.636l-12.8-11.636
					c-2.327-2.327-6.982-3.491-10.473-2.327l-16.291,3.491l-4.655-16.291c-1.164-3.491-3.491-5.818-6.982-6.982l-16.291-4.655
					l3.491-16.291c1.164-3.491,0-6.982-2.327-10.473l-11.636-12.8l11.636-12.8c2.327-2.327,3.491-6.982,2.327-10.473l-3.491-16.291
					l16.291-4.655c3.491-1.164,5.818-3.491,6.982-6.982l4.655-16.291l16.291,3.491c3.491,1.164,6.982,0,10.473-2.327l12.8-11.636
					l12.8,11.636c2.327,2.327,6.982,3.491,10.473,2.327l16.291-3.491l4.655,16.291c1.164,3.491,3.491,5.818,6.982,6.982l16.291,4.655
					l-3.491,16.291c-1.164,3.491,0,6.982,2.327,10.473l11.636,12.8l-11.636,12.8c-2.327,2.327-3.491,6.982-2.327,10.473l5.818,26.764
					c1.164,5.818,6.982,10.473,13.964,9.309c5.818-1.164,10.473-6.982,9.309-13.964l-2.327-9.309h26.764
					c19.782,0,34.909-15.127,34.909-34.909V34.909C512.291,15.127,497.164,0,477.382,0z"/>
			</g>
		</g>
		<g>
			<g>
				<path d="M361.018,290.909c-25.6,0-46.545,20.945-46.545,46.545c0,25.6,20.945,46.545,46.545,46.545
					c25.6,0,46.545-20.945,46.545-46.545C407.564,311.855,386.618,290.909,361.018,290.909z M361.018,360.727
					c-12.8,0-23.273-10.473-23.273-23.273c0-12.8,10.473-23.273,23.273-23.273s23.273,10.473,23.273,23.273
					C384.291,350.255,373.818,360.727,361.018,360.727z"/>
			</g>
		</g>
		<g>
			<g>
				<path d="M326.109,46.545H186.473c-6.982,0-11.636,4.655-11.636,11.636s4.655,11.636,11.636,11.636h139.636
					c6.982,0,11.636-4.655,11.636-11.636S333.091,46.545,326.109,46.545z"/>
			</g>
		</g>
		<g>
			<g>
				<path d="M256.291,162.909H81.745c-6.982,0-11.636,4.655-11.636,11.636s4.655,11.636,11.636,11.636h174.545
					c6.982,0,11.636-4.655,11.636-11.636S263.273,162.909,256.291,162.909z"/>
			</g>
		</g>
		<g>
			<g>
				<path d="M209.745,209.455h-128c-6.982,0-11.636,4.655-11.636,11.636c0,6.982,4.655,11.636,11.636,11.636h128
					c6.982,0,11.636-4.655,11.636-11.636C221.382,214.109,216.727,209.455,209.745,209.455z"/>
			</g>
		</g>
		<g>
			<g>
				<path d="M291.2,93.091h-69.818c-6.982,0-11.636,4.655-11.636,11.636s4.655,11.636,11.636,11.636H291.2
					c6.982,0,11.636-4.655,11.636-11.636S298.182,93.091,291.2,93.091z"/>
			</g>
		</g>
		<g>
			<g>
				<path d="M372.655,162.909h-69.818c-6.982,0-11.636,4.655-11.636,11.636s4.655,11.636,11.636,11.636h69.818
					c6.982,0,11.636-4.655,11.636-11.636S379.636,162.909,372.655,162.909z"/>
			</g>
		</g>
		<g>
			<g>
				<path d="M174.836,290.909h-25.6c-3.491,0-5.818-1.164-8.145-3.491l-11.636-11.636c-13.964-13.964-36.073-13.964-48.873,0
					l-6.982,6.982c-4.655,4.655-4.655,11.636,0,16.291s11.636,4.655,16.291,0l6.982-6.982c4.655-4.655,11.636-4.655,16.291,0
					l11.636,11.636c6.982,6.982,15.127,10.473,24.436,10.473h25.6c6.982,0,11.636-4.655,11.636-11.636
					S181.818,290.909,174.836,290.909z"/>
			</g>
		</g>
		<g>
			<g>
				<path d="M291.2,209.455h-34.909c-6.982,0-11.636,4.655-11.636,11.636c0,6.982,4.655,11.636,11.636,11.636H291.2
					c6.982,0,11.636-4.655,11.636-11.636C302.836,214.109,298.182,209.455,291.2,209.455z"/>
			</g>
		</g>
	</symbol>

	<symbol id="text-divider" viewBox="0 0 24 24">
		<g>
				<path style="opacity:0.973" d="M 287.5,-0.5 C 321.167,-0.5 354.833,-0.5 388.5,-0.5C 455.074,3.44489 521.408,10.9449 587.5,22C 691.655,39.8036 795.655,58.4703 899.5,78C 988.402,94.7568 1078.07,104.257 1168.5,106.5C 1186.85,106.053 1205.19,105.219 1223.5,104C 1209.28,95.9872 1197.78,85.1539 1189,71.5C 1178.66,49.0506 1183.83,31.2173 1204.5,18C 1219.31,13.4506 1233.31,15.1173 1246.5,23C 1249.43,25.4233 1251.77,28.2566 1253.5,31.5C 1253.17,33.8333 1251.83,35.1667 1249.5,35.5C 1236.53,30.5386 1223.53,30.3719 1210.5,35C 1202.94,42.0636 1200.78,50.5636 1204,60.5C 1221.26,84.3939 1244.76,97.8939 1274.5,101C 1308.29,103.23 1341.95,101.897 1375.5,97C 1397.67,91.3726 1420.01,86.5393 1442.5,82.5C 1443.48,80.0891 1444.15,77.5891 1444.5,75C 1443.42,67.0126 1442.42,59.0126 1441.5,51C 1441.78,45.9411 1442.94,41.1078 1445,36.5C 1449.67,29.3507 1455.17,22.8507 1461.5,17C 1481.7,7.83662 1500.03,10.8366 1516.5,26C 1505.74,30.7907 1495.91,36.9574 1487,44.5C 1479.54,53.0843 1475.71,63.0843 1475.5,74.5C 1565.26,53.8113 1654.92,32.6446 1744.5,11C 1822.33,-2.21565 1899.67,0.11768 1976.5,18C 2006.25,26.2121 2034.92,37.2121 2062.5,51C 2081.84,54.7926 2101,59.2926 2120,64.5C 2121.47,63.3722 2123.13,62.7055 2125,62.5C 2127.81,63.3863 2130.64,63.553 2133.5,63C 2147.43,59.3515 2161.43,56.0182 2175.5,53C 2212.5,36.8886 2250.5,23.5552 2289.5,13C 2343.03,1.26377 2397.03,-1.4029 2451.5,5C 2499.18,10.8702 2546.18,20.2036 2592.5,33C 2650.21,49.4702 2708.38,63.9702 2767,76.5C 2768.51,74.9826 2769.34,73.1493 2769.5,71C 2768.52,64.728 2766.35,58.8947 2763,53.5C 2752.75,43.2498 2740.92,35.4165 2727.5,30C 2746.67,14.0417 2767,12.3751 2788.5,25C 2802.06,38.1406 2806.56,53.9739 2802,72.5C 2801.14,76.5962 2799.98,80.5962 2798.5,84.5C 2798.83,84.8333 2799.17,85.1667 2799.5,85.5C 2830.1,91.1003 2860.76,96.6003 2891.5,102C 2920.42,107.015 2949.42,107.681 2978.5,104C 2994.89,101.133 3010.23,95.4662 3024.5,87C 3031.87,80.2954 3037.71,72.4621 3042,63.5C 3044.93,49.5271 3039.43,41.0271 3025.5,38C 3015.16,37.4649 3005,38.6316 2995,41.5C 2989.55,39.7758 2989.05,36.9424 2993.5,33C 3005.08,24.3603 3018.08,20.3603 3032.5,21C 3054.08,26.99 3063.58,41.1567 3061,63.5C 3058.43,73.3042 3053.76,81.9708 3047,89.5C 3039.07,96.7667 3030.57,103.267 3021.5,109C 3022.5,110 3023.5,111 3024.5,112C 3115.57,112.866 3206.23,106.866 3296.5,94C 3329.24,89.0994 3361.9,83.7661 3394.5,78C 3470.86,63.4618 3547.19,48.7952 3623.5,34C 3720.45,15.0048 3818.12,3.50476 3916.5,-0.5C 3933.83,-0.5 3951.17,-0.5 3968.5,-0.5C 4011.89,0.894574 4055.23,4.72791 4098.5,11C 4132.86,17.5387 4167.19,24.2054 4201.5,31C 4218.46,34.5722 4235.13,39.0722 4251.5,44.5C 4251.5,46.5 4251.5,48.5 4251.5,50.5C 4250.54,52.2646 4250.21,54.2646 4250.5,56.5C 4164.59,38.9656 4077.93,26.799 3990.5,20C 3963.52,18.4651 3936.52,17.7984 3909.5,18C 3814.73,23.9291 3720.73,35.9291 3627.5,54C 3541.23,70.6566 3454.89,86.9899 3368.5,103C 3276.88,119.827 3184.55,130.16 3091.5,134C 3023.03,137.036 2955.03,132.703 2887.5,121C 2854.7,115.922 2822.03,110.089 2789.5,103.5C 2788.5,103.667 2787.5,103.833 2786.5,104C 2756.7,127.434 2722.7,138.601 2684.5,137.5C 2645.79,137.057 2608.79,128.891 2573.5,113C 2545.14,97.6538 2516.14,83.6538 2486.5,71C 2480.3,68.6992 2473.96,66.8658 2467.5,65.5C 2466.5,65.8333 2465.5,66.1667 2464.5,66.5C 2473.74,78.9237 2480.58,92.5903 2485,107.5C 2486.97,117.842 2486.97,128.175 2485,138.5C 2481.91,152.854 2475.08,165.021 2464.5,175C 2442.84,188.917 2422.34,187.417 2403,170.5C 2396.82,163.625 2394.49,155.625 2396,146.5C 2397.51,140.788 2399.18,135.121 2401,129.5C 2402.39,127.773 2404.06,126.439 2406,125.5C 2411.77,131.267 2417.6,137.1 2423.5,143C 2435.99,149.085 2446.49,146.585 2455,135.5C 2462.92,122.219 2463.59,108.552 2457,94.5C 2454.84,89.5076 2452.17,84.8409 2449,80.5C 2425.5,59.8764 2398,48.3764 2366.5,46C 2355.86,44.9013 2345.19,44.4013 2334.5,44.5C 2334.5,45.5 2334.5,46.5 2334.5,47.5C 2320.59,47.5964 2306.92,49.0964 2293.5,52C 2322.27,70.366 2335.43,96.5327 2333,130.5C 2327.62,158.052 2311.12,173.719 2283.5,177.5C 2271.12,177.543 2260.62,173.21 2252,164.5C 2248.15,158.022 2246.65,151.022 2247.5,143.5C 2240.1,143.277 2232.77,142.444 2225.5,141C 2215.12,138.487 2204.79,136.154 2194.5,134C 2169.54,150.636 2145.54,168.469 2122.5,187.5C 2121.83,187.5 2121.17,187.5 2120.5,187.5C 2097.1,169.288 2073.1,151.788 2048.5,135C 2047.17,134.333 2045.83,134.333 2044.5,135C 2028.87,141.825 2012.54,145.325 1995.5,145.5C 1994.58,161.89 1986.24,172.056 1970.5,176C 1945.58,179.12 1927.74,169.287 1917,146.5C 1909.58,129.804 1907.58,112.471 1911,94.5C 1919.67,76.1604 1932.84,61.9937 1950.5,52C 1940.56,50.4147 1930.56,49.5814 1920.5,49.5C 1920.33,48.1779 1920.66,47.0113 1921.5,46C 1926.49,45.2514 1931.49,44.5847 1936.5,44C 1908.67,42.4 1881.01,43.7333 1853.5,48C 1827.49,52.2404 1806.66,64.7404 1791,85.5C 1779.02,102.32 1778.69,119.32 1790,136.5C 1800.57,147.754 1812.07,148.92 1824.5,140C 1829.07,135.599 1833.4,131.099 1837.5,126.5C 1839.26,127.128 1840.76,128.128 1842,129.5C 1853.5,156.666 1845,174.166 1816.5,182C 1785.66,185.157 1766.49,171.657 1759,141.5C 1754.3,122.755 1756.3,104.755 1765,87.5C 1769.38,79.1247 1774.55,71.2913 1780.5,64C 1766.18,67.4404 1752.18,72.107 1738.5,78C 1703.83,94.8898 1668.49,110.223 1632.5,124C 1587.45,139.243 1542.45,139.243 1497.5,124C 1483.04,118.356 1470.54,109.856 1460,98.5C 1331.95,127.705 1202.45,136.538 1071.5,125C 1045.77,122.575 1020.1,119.575 994.5,116C 938.124,107.613 881.79,98.9462 825.5,90C 736.095,69.5856 646.095,52.2522 555.5,38C 467.696,24.0995 379.362,17.4329 290.5,18C 232.124,20.3381 174.124,26.3381 116.5,36C 78.5446,42.1912 40.7113,49.0245 3,56.5C 1.40088,55.9293 0.234212,54.9293 -0.5,53.5C -0.5,50.5 -0.5,47.5 -0.5,44.5C 94.0288,19.2357 190.029,4.2357 287.5,-0.5 Z M 1992.5,58.5 C 2018.36,63.729 2043.69,70.8957 2068.5,80C 2023.61,93.7225 1978.28,104.889 1932.5,113.5C 1929.87,103.841 1931.71,95.1741 1938,87.5C 1943.5,82 1949,76.5 1954.5,71C 1966.47,64.287 1979.14,60.1203 1992.5,58.5 Z M 2246.5,60.5 C 2272.65,61.8212 2293.15,73.1545 2308,94.5C 2311.62,101.219 2312.62,108.219 2311,115.5C 2268.37,104.718 2225.87,93.385 2183.5,81.5C 2204.26,73.4679 2225.26,66.4679 2246.5,60.5 Z"></path>
			</g>
	</symbol>
</svg> 



