<svg width="258" height="205" viewBox="0 0 258 205" fill="none" xmlns="http://www.w3.org/2000/svg">
<ellipse cx="130.296" cy="120.999" rx="80.2252" ry="51.8425" fill="url(#paint0_linear_2447_89)"/>
<g filter="url(#filter0_d_2447_89)">
<path d="M242.598 44.3834C224.784 86.463 112.315 107.845 127.259 102.53C142.202 97.2143 17.6959 101.255 17.6953 44.3837C17.6947 -12.4878 116.569 35.5803 130.356 35.5267C144.142 35.4731 260.413 2.3039 242.598 44.3834Z" fill="url(#paint1_radial_2447_89)"/>
</g>
<g filter="url(#filter1_d_2447_89)">
<path d="M186.268 0.0887451C186.199 0.140523 185.508 0.209561 184.714 0.24408C182.745 0.295857 180.604 0.520233 180.501 0.692825C180.449 0.779122 180.121 0.84816 179.775 0.84816C178.359 0.84816 173.87 1.62482 173.87 1.88371C173.87 1.95275 173.542 2.0563 173.145 2.10808C172.731 2.17712 171.781 2.29793 171.021 2.40149C169.674 2.59134 168.276 2.97104 167.913 3.24719C167.827 3.33349 167.464 3.43704 167.136 3.48882C166.307 3.60963 165.185 4.04112 165.099 4.28275C165.064 4.3863 164.943 4.4726 164.84 4.4726C164.65 4.4726 162.802 5.18023 161.818 5.61171C161.507 5.76704 161.196 5.99141 161.145 6.12949C161.093 6.26756 160.817 6.37111 160.471 6.37111C160.005 6.37111 159.832 6.45741 159.677 6.78534C159.573 7.02697 159.332 7.23408 159.124 7.2686C158.9 7.30312 158.745 7.4757 158.71 7.70007C158.641 8.13155 158.192 8.23511 158.054 7.85541C157.968 7.6483 157.898 7.6483 157.501 7.85541C157.242 7.99348 156.949 8.09705 156.828 8.09705C156.724 8.09705 156.414 8.26963 156.137 8.494C155.878 8.71837 155.205 9.08082 154.652 9.28793C154.1 9.5123 153.513 9.87475 153.34 10.0991C153.167 10.3235 152.908 10.5133 152.77 10.5133C152.632 10.5133 152.373 10.6687 152.218 10.8413C152.045 11.0311 151.562 11.3418 151.147 11.5489C150.698 11.756 150.318 12.0667 150.215 12.3083C150.129 12.5327 149.852 12.7916 149.576 12.8779C149.3 12.9814 148.54 13.5682 147.884 14.2068C147.228 14.8282 146.641 15.3459 146.572 15.3459C146.364 15.3459 145.069 16.5368 143.015 18.6252C140.045 21.6456 139.302 22.4395 138.646 23.3542C138.318 23.803 137.696 24.5624 137.282 25.0284C136.868 25.4944 136.574 25.9776 136.626 26.1157C136.678 26.2538 136.557 26.4264 136.332 26.5299C135.987 26.6853 134.537 28.6356 133.552 30.2752C133.363 30.5859 132.931 31.1899 132.586 31.5869C132.257 32.0011 131.843 32.6915 131.688 33.123C131.325 34.1067 130.134 35.3667 129.581 35.3667C129.098 35.3667 127.837 33.9687 127.198 32.6915C126.957 32.2082 126.421 31.3625 125.99 30.793C125.575 30.2234 125.092 29.4813 124.936 29.1533C124.781 28.8254 123.969 27.7553 123.106 26.7716C122.26 25.805 121.552 24.9248 121.552 24.8385C121.552 24.7522 121.241 24.3207 120.861 23.8893C120.482 23.4578 120.171 23.0263 120.171 22.9573C120.171 22.6984 117.27 19.8333 116.994 19.8333C116.856 19.8333 116.631 19.678 116.493 19.4882C116.355 19.2983 116.217 19.1947 116.148 19.2465C116.096 19.2983 116.096 19.1947 116.13 19.0222C116.251 18.5907 115.612 17.814 114.887 17.5033C114.559 17.3653 114.3 17.1754 114.3 17.0719C114.3 16.7612 112.694 15.1733 111.848 14.6383C111.382 14.3622 111.019 14.0687 111.019 13.9825C111.019 13.8962 110.847 13.7581 110.64 13.689C110.415 13.62 110.156 13.4647 110.07 13.3266C109.966 13.1885 109.655 13.0677 109.379 13.0504C108.965 13.0159 108.878 12.9296 108.913 12.6362C108.947 12.3946 108.827 12.1875 108.568 12.0494C108.343 11.9286 107.946 11.6525 107.67 11.4281C107.342 11.1519 107.014 11.0311 106.755 11.0829C106.496 11.1347 106.34 11.0656 106.271 10.8585C106.15 10.4961 104.51 9.37422 103.871 9.20163C103.647 9.14985 103.405 8.99452 103.353 8.85645C103.301 8.71837 102.801 8.39045 102.265 8.14882C101.298 7.70008 101.16 7.66556 100.711 7.61378C100.59 7.59653 100.487 7.4757 100.487 7.35489C100.487 7.23407 100.003 6.90615 99.4163 6.63C98.8119 6.35386 98.1903 6.02594 98.0349 5.88786C97.8623 5.74979 97.6205 5.68075 97.4651 5.74979C97.327 5.80156 96.7227 5.59445 96.1183 5.26653C95.5313 4.95586 94.7888 4.64519 94.4607 4.57616C94.1327 4.52438 93.7528 4.36904 93.6147 4.26549C93.1657 3.88578 92.1297 3.55786 91.4218 3.57512C91.0592 3.57512 90.6621 3.47155 90.5585 3.35074C90.2995 3.02281 88.3483 2.5223 87.6404 2.6086C87.2951 2.64312 87.0188 2.6086 87.0188 2.53957C87.0188 2.47053 86.9152 2.40149 86.7771 2.40149C86.6562 2.40149 86.3627 2.26341 86.1382 2.07356C85.8447 1.84919 85.413 1.74564 84.7223 1.72838C84.1698 1.72838 83.5827 1.64208 83.4273 1.55579C83.2719 1.48675 82.7539 1.36593 82.2705 1.31415C81.8043 1.24511 81.1481 1.15882 80.8201 1.10704C80.492 1.07252 80.1121 1.1243 79.9913 1.22786C79.8186 1.36593 79.6977 1.34867 79.5423 1.15881C79.3351 0.899925 78.8517 0.744597 77.7811 0.589264C77.5049 0.554745 77.0214 0.451195 76.7451 0.364899C76.4516 0.278602 76.0545 0.261345 75.83 0.347641C75.5883 0.433937 75.2947 0.433937 75.1221 0.347641C74.7249 0.123271 66.0743 0.244073 64.3995 0.485703C62.7246 0.727332 62.1548 0.848159 62.1548 1.02075C62.1548 1.10705 61.7404 1.1243 61.2569 1.07253C60.5317 1.00349 58.5461 1.24511 56.8885 1.60756C56.8021 1.62482 56.1287 1.74564 55.4208 1.86646C54.7129 2.00453 53.5905 2.26341 52.9171 2.48778C52.261 2.69489 51.3977 2.86749 51.0005 2.88475C50.6034 2.88475 49.8782 3.09185 49.3602 3.33348C48.4451 3.7477 48.117 3.83401 46.6666 4.11015C46.2522 4.17919 45.786 4.36903 45.6133 4.52437C45.4407 4.69696 45.0781 4.81778 44.8363 4.81778C44.5773 4.81778 44.3701 4.86956 44.3701 4.95586C44.3701 5.09393 43.3514 5.47363 42.6089 5.62897C42.3499 5.68075 42.0391 5.81882 41.9355 5.95689C41.8319 6.09497 41.6075 6.19852 41.4348 6.19852C41.1758 6.19852 39.7945 6.78533 39.0175 7.21681C38.8793 7.30311 38.4131 7.51022 37.9815 7.68282C37.5498 7.83815 37.0836 8.13156 36.9109 8.30415C36.7555 8.47675 36.462 8.61482 36.2721 8.61482C36.0649 8.61482 35.7023 8.7529 35.4605 8.90823C34.8389 9.3052 34.0965 9.71941 32.9051 10.358C32.3525 10.6514 31.8691 11.0139 31.8173 11.1864C31.7482 11.4799 30.9885 11.9459 30.2805 12.1357C30.0561 12.2047 29.9352 12.3773 29.9352 12.6362C29.9525 12.9296 29.8489 13.0159 29.5208 13.0332C28.7438 13.0504 28.6575 13.1022 28.6575 13.4474C28.6575 13.6545 28.5539 13.7926 28.433 13.7753C27.9841 13.7236 27.7941 13.8099 27.7941 14.0515C27.7941 14.1896 27.6387 14.3104 27.4488 14.3104C26.9999 14.3104 24.6861 15.8637 24.6861 16.1571C24.6861 16.2779 24.5998 16.3815 24.5135 16.3815C24.4099 16.3815 24.2372 16.5886 24.1336 16.8302C24.0127 17.0891 23.7365 17.2962 23.4602 17.3653C23.2012 17.417 22.7177 17.745 22.4069 18.0901C22.0789 18.4353 21.4573 19.0394 21.0083 19.4536C20.5594 19.8506 20.1968 20.2648 20.1968 20.3511C20.1968 20.4374 19.9723 20.6273 19.6788 20.7826C19.4025 20.9379 19.1608 21.1105 19.1608 21.1968C19.1608 21.2831 18.6255 21.8872 17.9867 22.543C17.3305 23.1816 16.5535 24.0619 16.26 24.4933C15.7247 25.2873 14.4125 26.8924 13.8081 27.5137C13.6182 27.7208 13.4628 27.9279 13.4628 27.997C13.4628 28.066 13.1865 28.5147 12.8585 28.9807C12.5304 29.4467 12.2541 29.9818 12.2541 30.1371C12.2541 30.3097 12.0987 30.5513 11.9088 30.6549C11.4771 30.9483 10.9937 31.8803 11.0973 32.26C11.1491 32.4499 11.0627 32.6052 10.8901 32.657C10.5447 32.7433 9.3188 34.521 9.3188 34.9179C9.3188 35.056 9.09433 35.591 8.81807 36.0916C8.5418 36.5921 8.26553 37.2652 8.19647 37.5586C8.14467 37.8693 8.00653 38.1282 7.9202 38.1282C7.83387 38.1282 7.7648 38.318 7.7648 38.5424C7.7648 38.7667 7.64393 38.9911 7.5058 39.0602C7.36767 39.1119 7.2468 39.2673 7.2468 39.3881C7.2468 39.5262 7.12593 39.8713 6.9878 40.1647C6.8324 40.4582 6.6252 41.183 6.5216 41.7871C6.43527 42.3912 6.27987 42.9435 6.19353 43.047C6.1072 43.1333 6.03813 43.513 6.03813 43.91C6.03813 44.307 5.96907 44.6867 5.88273 44.773C5.62373 45.0491 5.34747 46.2055 5.00213 48.3974C4.82947 49.5365 4.5532 51.0899 4.41507 51.8493C4.25967 52.6087 4.1388 53.4199 4.15607 53.6615C4.15607 53.9031 4.10427 54.9214 4.0352 55.9397C3.96613 57.0788 4.00067 58.5804 4.12153 59.823C4.22513 60.9449 4.346 62.4982 4.38053 63.2576C4.41507 64.0343 4.53593 64.8282 4.63953 65.0353C4.7604 65.2424 4.79493 65.5531 4.74313 65.7257C4.69133 65.8983 4.74313 66.2607 4.84673 66.5369C4.95033 66.813 5.03667 67.2618 5.0194 67.5379C5.00213 67.7968 5.0712 68.1247 5.1748 68.2455C5.2784 68.3664 5.3302 68.7288 5.31293 69.0395C5.2784 69.4019 5.34747 69.6263 5.4856 69.6435C5.88273 69.6953 5.9 69.7126 5.72733 69.937C5.46833 70.2476 5.88273 73.7513 6.24533 74.4589C6.40073 74.735 6.5734 75.4081 6.64247 75.9259C6.71153 76.4437 6.8324 76.9442 6.90147 77.0478C6.97053 77.1341 7.07413 77.4965 7.12593 77.8244C7.2986 78.9808 7.57487 79.792 7.83387 79.9301C7.98927 80.0164 8.11013 80.258 8.11013 80.4651C8.11013 81.3971 8.61087 83.1576 9.008 83.6063C9.07707 83.6926 9.14614 83.9342 9.14614 84.1413C9.14614 84.6246 9.5778 85.6429 9.90587 85.919C10.044 86.0398 10.1994 86.4541 10.2685 86.851C10.3893 87.7313 11.0282 89.2155 11.2872 89.2155C11.3908 89.2155 11.5807 89.2846 11.7189 89.3709C11.9261 89.509 11.9261 89.578 11.7534 89.8024C11.5635 90.044 11.598 90.2511 12.0642 91.2004C12.3577 91.8217 12.7031 92.374 12.8412 92.4258C12.9793 92.4776 13.152 92.84 13.2038 93.2197C13.3937 94.2553 14.7405 97.2411 15.5521 98.3975C15.742 98.6391 15.8801 98.9843 15.8801 99.1396C15.8801 99.3122 16.1564 99.8127 16.4845 100.261C16.8125 100.71 17.0888 101.193 17.0888 101.314C17.1061 101.452 17.3305 101.867 17.6068 102.246C17.9003 102.626 18.2457 103.213 18.4011 103.541C18.5565 103.869 19.0227 104.525 19.4543 104.991C19.8687 105.457 20.3177 106.078 20.4385 106.371C20.5594 106.665 20.9911 107.269 21.3882 107.717C21.7681 108.149 22.0961 108.58 22.0961 108.667C22.0961 108.753 22.3206 109.081 22.5969 109.426C22.8904 109.771 23.1667 110.272 23.2357 110.548C23.2875 110.824 23.5983 111.325 23.9091 111.653C24.2027 111.981 24.6689 112.636 24.9451 113.12C25.2041 113.586 25.6531 114.172 25.9293 114.38C26.1883 114.604 26.5509 115.035 26.7063 115.329C26.8617 115.639 27.3279 116.192 27.7423 116.589C28.1395 116.986 28.4848 117.383 28.4848 117.469C28.4848 117.573 28.7783 117.987 29.1582 118.401C29.5208 118.815 29.9697 119.402 30.1424 119.695C30.3323 119.989 30.7122 120.438 31.023 120.696C31.3338 120.955 31.7482 121.456 31.9554 121.801C32.1799 122.146 32.5079 122.543 32.6979 122.681C33.1468 123.009 34.7008 124.563 34.7008 124.701C34.7008 124.787 35.8577 126.271 36.4965 127.013C36.6174 127.151 36.98 127.462 37.2908 127.704C38.1369 128.325 38.793 129.067 39.0175 129.619C39.1383 129.878 39.3973 130.137 39.6391 130.189C39.8635 130.258 40.1398 130.465 40.2434 130.69C40.3643 130.897 41.0031 131.708 41.6765 132.485C42.5399 133.486 43.0233 133.917 43.2996 133.917C43.5586 133.917 43.6795 134.021 43.6795 134.262C43.6795 134.487 43.8003 134.607 44.0248 134.607C44.2147 134.607 44.4392 134.745 44.5083 134.918C44.7327 135.488 46.1313 137.196 46.3731 137.196C46.4939 137.196 46.7011 137.369 46.8047 137.593C47.0292 137.99 47.1501 138.128 50.0854 140.821C51.0523 141.718 52.0538 142.667 52.2955 142.926C52.5373 143.203 52.8135 143.41 52.8999 143.41C53.0035 143.41 53.5215 143.858 54.0567 144.393C55.5762 145.964 57.0439 147.31 57.5964 147.655C57.8727 147.828 58.1835 148.07 58.2698 148.19C58.3734 148.311 59.0468 148.898 59.7893 149.502C60.8598 150.4 61.2051 150.589 61.5677 150.52C61.8958 150.469 61.9994 150.503 61.9476 150.659C61.8267 151.038 66.6787 155.56 67.5593 155.888C67.7147 155.94 67.8528 156.061 67.8528 156.147C67.8528 156.285 70.3565 157.597 71.0126 157.804C71.168 157.856 71.3579 158.132 71.4097 158.425C71.5479 159.047 72.4285 159.858 72.8429 159.72C73.0328 159.668 73.24 159.806 73.4299 160.151C73.6026 160.445 74.0343 160.824 74.3969 161.014C74.7595 161.187 75.1739 161.532 75.3465 161.773C75.5019 162.015 75.7091 162.222 75.8127 162.222C75.9163 162.222 76.4343 162.619 76.9696 163.085C77.5049 163.568 78.1265 164 78.3337 164.052C78.5409 164.103 78.8344 164.328 78.9725 164.552C79.1107 164.759 79.5941 165.105 80.0603 165.329C80.5093 165.536 81.1481 165.933 81.4417 166.209C81.7525 166.485 82.4259 166.969 82.9093 167.279C83.4101 167.607 83.9799 168.039 84.1525 168.246C84.3425 168.436 84.6533 168.608 84.8432 168.608C85.0504 168.608 85.4821 168.884 85.8101 169.229C86.1382 169.575 87.0361 170.265 87.8131 170.783C88.5901 171.301 89.3153 171.836 89.4361 171.974C89.7469 172.353 90.1786 172.302 90.075 171.905C90.0232 171.663 90.075 171.611 90.2995 171.663C90.4894 171.715 90.6103 171.905 90.6103 172.164C90.593 172.595 91.0765 173.268 91.3873 173.268C91.4736 173.268 91.9398 173.544 92.3887 173.872C92.8549 174.2 93.3039 174.476 93.3729 174.476C93.4593 174.476 93.8219 174.701 94.2017 174.994C94.5643 175.27 94.996 175.512 95.1341 175.512C95.2723 175.512 95.7385 175.823 96.1529 176.202C96.5673 176.582 97.0507 176.927 97.2234 176.979C97.4133 177.048 97.5515 177.151 97.5515 177.255C97.5515 177.341 97.8105 177.514 98.1213 177.652C98.4148 177.773 99.0364 178.204 99.4853 178.601C99.917 178.981 100.331 179.309 100.383 179.309C100.452 179.309 101.022 179.654 101.661 180.051C104.596 181.95 105.08 182.243 105.321 182.243C105.46 182.243 106.047 182.64 106.616 183.106C107.186 183.572 107.911 184.09 108.222 184.245C108.55 184.4 109.086 184.711 109.414 184.935C109.776 185.177 110.173 185.315 110.346 185.263C110.553 185.194 110.726 185.281 110.847 185.505C110.933 185.695 111.123 185.816 111.261 185.764C111.382 185.712 111.624 185.867 111.779 186.109C111.935 186.368 112.211 186.558 112.401 186.558C112.591 186.558 112.815 186.713 112.919 186.903C113.022 187.093 113.281 187.248 113.489 187.248C113.696 187.248 113.972 187.403 114.093 187.593C114.214 187.783 114.438 187.939 114.594 187.939C114.749 187.939 115.146 188.146 115.474 188.405C116.234 189.009 118.461 190.389 119.48 190.907C119.912 191.131 120.361 191.442 120.482 191.597C120.602 191.77 120.827 191.908 120.965 191.908C121.293 191.908 121.846 192.219 122.536 192.806C122.83 193.047 123.313 193.306 123.607 193.375C123.9 193.444 124.142 193.565 124.142 193.651C124.142 193.738 124.332 193.807 124.557 193.807C124.816 193.807 125.023 193.927 125.092 194.135C125.144 194.307 125.489 194.583 125.869 194.756C126.508 195.049 126.577 195.049 126.87 194.79C127.319 194.376 127.423 194.428 127.319 194.998C127.233 195.429 127.285 195.55 127.734 195.774C128.027 195.93 128.424 196.05 128.597 196.05C128.787 196.05 129.046 196.206 129.167 196.413C129.305 196.603 129.719 196.827 130.099 196.913C130.703 197.051 130.876 197.017 131.584 196.551C132.016 196.275 132.482 196.05 132.62 196.05C132.758 196.05 133.086 195.861 133.363 195.619C133.639 195.395 134.019 195.153 134.226 195.084C134.416 195.015 135.227 194.549 136.004 194.048C136.781 193.531 137.472 193.116 137.541 193.116C137.61 193.116 138.197 192.771 138.853 192.34C139.509 191.908 140.166 191.494 140.338 191.442C140.494 191.373 140.822 191.183 141.046 191.011C141.271 190.838 141.581 190.7 141.754 190.7C141.91 190.7 142.22 190.51 142.445 190.269C142.669 190.027 142.963 189.837 143.084 189.837C143.205 189.837 143.394 189.647 143.481 189.423C143.584 189.112 143.723 189.026 143.982 189.095C144.206 189.147 144.465 189.026 144.741 188.732C144.966 188.491 145.259 188.284 145.363 188.284C145.656 188.284 146.658 187.766 146.796 187.524C146.865 187.421 146.848 187.3 146.744 187.231C146.658 187.179 146.537 186.92 146.485 186.661C146.416 186.247 146.433 186.213 146.744 186.385C146.934 186.471 147.141 186.644 147.193 186.73C147.349 186.989 147.918 186.937 148.039 186.644C148.091 186.506 148.246 186.385 148.385 186.385C148.54 186.385 148.592 186.264 148.54 186.057C148.454 185.712 148.851 185.332 148.972 185.66C149.075 185.988 149.455 185.902 150.025 185.419C150.318 185.177 150.629 185.022 150.733 185.091C151.009 185.263 151.596 184.849 151.596 184.487C151.596 184.245 151.717 184.141 152.011 184.141C152.667 184.141 152.96 183.969 152.857 183.675C152.788 183.52 152.874 183.348 153.029 183.244C153.202 183.158 153.323 182.916 153.323 182.709C153.34 182.364 153.357 182.364 153.513 182.64C153.599 182.795 153.634 183.02 153.582 183.106C153.357 183.468 154.083 183.261 154.687 182.778C155.36 182.243 156.586 181.553 156.862 181.553C157.035 181.535 157.985 180.776 157.985 180.638C157.985 180.586 157.829 180.517 157.622 180.465C157.329 180.379 157.294 180.31 157.467 180.017C157.709 179.533 157.95 179.568 158.088 180.086C158.209 180.603 158.347 180.621 158.727 180.206C158.883 180.051 159.297 179.758 159.66 179.568C160.022 179.378 160.454 179.085 160.644 178.929C160.817 178.774 161.214 178.515 161.507 178.377C162.198 178.014 162.647 177.669 162.647 177.462C162.647 177.376 162.958 177.169 163.355 176.996C163.735 176.824 164.097 176.582 164.149 176.444C164.201 176.306 164.356 176.202 164.512 176.202C164.84 176.202 166.549 174.891 166.687 174.528C166.739 174.39 166.912 174.304 167.033 174.355C167.171 174.407 167.464 174.321 167.689 174.148C167.913 173.976 168.293 173.786 168.569 173.717C168.828 173.665 169.035 173.493 169.035 173.354C169.035 173.199 169.225 173.009 169.467 172.923C169.709 172.837 169.899 172.699 169.899 172.612C169.899 172.543 170.365 172.25 170.935 171.974C171.798 171.542 171.954 171.387 171.971 170.99C171.971 170.42 172.195 170.265 172.662 170.507C172.972 170.662 173.093 170.627 173.49 170.179C173.732 169.885 174.026 169.644 174.129 169.644C174.354 169.644 175.251 168.712 175.666 168.039C175.821 167.78 176.098 167.573 176.253 167.59C176.685 167.642 177.479 167.4 177.634 167.158C177.807 166.882 179.654 165.501 179.862 165.501C179.948 165.501 180.242 165.26 180.535 164.966C180.811 164.673 181.398 164.259 181.83 164.034C182.624 163.62 183.194 162.982 183.194 162.498C183.194 162.343 183.298 162.274 183.436 162.326C183.66 162.412 185.974 160.945 186.906 160.151C187.096 159.979 187.425 159.789 187.632 159.72C187.856 159.668 188.063 159.443 188.115 159.236C188.201 158.908 188.616 158.563 189.583 158.011C189.738 157.925 190.049 157.597 190.274 157.286C190.515 156.975 190.843 156.699 190.999 156.699C191.171 156.699 191.43 156.509 191.586 156.268C191.741 156.026 191.966 155.836 192.087 155.836C192.432 155.836 194.245 154.456 194.245 154.179C194.245 154.059 194.314 153.938 194.4 153.938C194.487 153.938 194.677 153.834 194.797 153.713C194.918 153.61 195.333 153.282 195.73 153.023C196.127 152.764 196.524 152.367 196.645 152.16C196.766 151.953 197.197 151.591 197.629 151.366C198.061 151.142 198.821 150.503 199.339 149.934C199.891 149.347 200.409 148.933 200.616 148.933C200.823 148.933 200.979 148.829 200.979 148.708C200.996 148.38 201.6 147.724 201.894 147.724C202.222 147.724 202.36 147.379 202.17 147C202.015 146.689 202.136 146.171 202.36 146.171C202.567 146.171 202.706 146.654 202.585 146.982C202.498 147.189 202.567 147.172 202.844 146.896C203.051 146.689 203.293 146.516 203.379 146.516C203.586 146.516 205.451 144.618 205.779 144.065C205.934 143.789 206.159 143.582 206.28 143.582C206.418 143.582 206.556 143.461 206.608 143.323C206.677 143.185 206.815 143.064 206.936 143.064C207.229 143.064 209.094 141.166 209.094 140.855C209.094 140.752 209.215 140.648 209.37 140.648C209.526 140.648 209.888 140.372 210.182 140.044C210.475 139.716 210.786 139.44 210.873 139.44C211.253 139.44 212.202 138.508 212.202 138.128C212.202 137.835 212.323 137.697 212.686 137.611C212.945 137.541 213.376 137.248 213.635 136.955C213.894 136.661 214.654 135.833 215.31 135.125C215.966 134.418 216.674 133.555 216.899 133.227C217.123 132.899 217.486 132.605 217.693 132.571C217.9 132.536 218.159 132.346 218.263 132.157C218.366 131.949 218.677 131.57 218.953 131.311C219.23 131.035 219.454 130.741 219.454 130.638C219.454 130.551 219.575 130.465 219.713 130.465C219.869 130.465 220.059 130.275 220.145 130.034C220.231 129.792 220.577 129.343 220.905 129.033C221.233 128.722 221.526 128.291 221.561 128.049C221.595 127.807 221.751 127.6 221.958 127.531C222.407 127.41 223.892 126.03 224.203 125.443C224.341 125.184 225.066 124.355 225.826 123.579C226.585 122.802 227.259 122.025 227.311 121.836C227.38 121.646 227.483 121.49 227.535 121.49C227.604 121.49 227.811 121.197 228.001 120.852C228.191 120.507 229.02 119.54 229.849 118.694C230.678 117.849 231.489 116.917 231.662 116.606C231.834 116.313 232.145 115.916 232.37 115.743C232.577 115.57 232.75 115.346 232.75 115.243C232.75 115.07 233.319 114.293 234.666 112.636C234.908 112.326 235.15 111.963 235.219 111.808C235.27 111.653 235.65 111.066 236.082 110.513C237.032 109.236 237.757 107.994 237.757 107.631C237.757 107.459 237.843 107.338 237.947 107.338C238.275 107.338 239.138 106.337 239.138 105.974C239.138 105.802 239.259 105.612 239.38 105.56C239.518 105.508 239.777 105.198 239.932 104.887C240.088 104.576 240.278 104.283 240.347 104.231C240.416 104.179 240.64 103.782 240.83 103.351C241.038 102.902 241.314 102.505 241.469 102.436C241.607 102.384 241.728 102.195 241.728 102.022C241.728 101.849 241.953 101.401 242.229 101.021C242.92 100.072 244.439 97.1721 244.56 96.5335C244.629 96.2228 244.836 95.8431 245.026 95.6705C245.199 95.5152 245.354 95.239 245.354 95.0837C245.354 94.9284 245.423 94.7385 245.51 94.635C245.734 94.4278 247.081 91.7699 247.081 91.5628C247.081 91.4765 247.236 91.2349 247.426 91.0278C247.616 90.8379 247.789 90.3547 247.823 89.9922C247.892 89.2328 248.29 88.3698 248.704 88.0247C248.859 87.8866 248.98 87.5587 248.98 87.2825C248.98 86.9891 249.136 86.5576 249.326 86.2815C249.498 86.0226 249.705 85.4876 249.774 85.1078C249.844 84.7109 249.999 84.2967 250.12 84.1931C250.258 84.0896 250.362 83.7616 250.362 83.4855C250.362 83.2093 250.551 82.657 250.776 82.2601C251 81.8631 251.242 81.259 251.311 80.9311C251.449 80.2407 251.691 79.395 252.002 78.5148C252.123 78.1869 252.33 77.4447 252.451 76.8752C252.572 76.3056 252.762 75.7188 252.9 75.5635C253.021 75.4081 253.09 75.1665 253.038 75.0284C252.969 74.8731 253.124 74.1827 253.349 73.4751C253.59 72.7675 253.729 71.9736 253.694 71.6801C253.642 71.335 253.746 70.8517 253.988 70.3857C254.281 69.7644 254.35 69.3156 254.367 67.9867C254.367 67.0892 254.436 66.2262 254.506 66.0709C254.592 65.9328 254.713 64.7247 254.782 63.3957C255.144 55.7326 254.626 46.5334 253.746 45.5669C253.556 45.3598 253.435 44.8593 253.383 44.1516C253.297 43.0298 252.831 41.3729 252.244 40.0957C252.071 39.6987 251.916 39.1637 251.916 38.9048C251.916 38.6287 251.812 38.2835 251.691 38.1454C251.553 37.9901 251.311 37.4378 251.156 36.8855C251 36.3504 250.707 35.7809 250.534 35.6256C250.344 35.453 250.085 34.9179 249.93 34.4174C249.792 33.9169 249.567 33.4681 249.446 33.4164C249.308 33.3646 249.032 32.8813 248.808 32.3118C248.462 31.4661 247.633 30.1544 247.236 29.8437C247.167 29.7919 246.995 29.464 246.856 29.1016C246.701 28.7564 246.511 28.463 246.407 28.463C246.321 28.463 246.01 28.0833 245.717 27.6C245.423 27.134 245.026 26.6507 244.836 26.5299C244.646 26.4091 244.491 26.2193 244.491 26.0984C244.491 25.9776 244.335 25.805 244.163 25.7015C243.973 25.6152 243.645 25.1665 243.42 24.735C243.179 24.2517 242.73 23.7339 242.298 23.4233C241.884 23.1471 241.556 22.8019 241.556 22.6638C241.556 22.5085 241.331 22.3014 241.055 22.1979C240.571 22.0253 240.174 21.4557 240.174 20.9552C240.174 20.8344 239.863 20.541 239.484 20.3339C239.104 20.1095 238.672 19.7643 238.534 19.5399C238.378 19.3156 238.171 19.143 238.05 19.143C237.947 19.143 237.446 18.7287 236.945 18.2282C235.495 16.7784 235.15 16.485 233.786 15.5185C233.078 15.018 232.301 14.4312 232.059 14.2241C231.817 13.9997 231.161 13.5855 230.591 13.2748C230.021 12.9642 229.4 12.5672 229.193 12.3946C229.003 12.2047 228.778 12.0667 228.675 12.0667C228.588 12.0494 228.088 11.7042 227.57 11.29C227.052 10.8585 226.395 10.4098 226.102 10.2717C225.826 10.1336 225.394 9.94378 225.152 9.84023C224.341 9.46052 223.892 9.14985 223.736 8.89096C223.65 8.73563 223.443 8.61482 223.27 8.61482C223.097 8.61482 222.908 8.56304 222.838 8.494C222.683 8.32141 221.492 7.92445 221.164 7.92445C221.008 7.92445 220.836 7.80363 220.784 7.66556C220.663 7.37215 218.971 6.49193 217.9 6.18126C217.469 6.06044 216.951 5.81882 216.743 5.62897C216.467 5.38734 216.294 5.35282 216.07 5.47363C215.845 5.59445 215.707 5.55993 215.5 5.3183C215.345 5.12845 214.706 4.86957 214.067 4.71423C213.411 4.5589 212.893 4.35178 212.893 4.28275C212.893 4.19645 212.703 4.12741 212.461 4.12741C212.219 4.12741 211.84 4.0066 211.615 3.86853C211.408 3.73046 211.045 3.62689 210.804 3.64415C210.579 3.66141 209.94 3.45431 209.405 3.19542C208.818 2.91927 208.265 2.76393 208.075 2.83296C207.903 2.88474 207.488 2.78119 207.178 2.59134C206.85 2.41875 206.211 2.21163 205.727 2.14259C205.261 2.07356 204.432 1.88371 203.914 1.71112C203.327 1.52127 202.118 1.34867 200.806 1.27963C199.615 1.2106 198.268 1.05526 197.785 0.934448C197.318 0.813633 196.455 0.692825 195.885 0.692825C195.333 0.675566 194.659 0.554744 194.4 0.433929C194.089 0.278596 193.848 0.261342 193.641 0.382156C193.433 0.485712 193.295 0.485701 193.209 0.330368C193.105 0.175035 192.846 0.140526 192.38 0.226822C191.983 0.2786 191.638 0.261344 191.586 0.192307C191.482 0.0197139 186.423 -0.0838475 186.268 0.0887451ZM73.2055 0.744598C73.2055 0.796376 73.1364 0.88267 73.0328 0.934448C72.9465 0.986226 72.8601 0.951714 72.8601 0.865417C72.8601 0.761862 72.9465 0.675552 73.0328 0.675552C73.1364 0.675552 73.2055 0.71008 73.2055 0.744598ZM56.4568 2.0563C56.4568 2.1426 56.3705 2.2289 56.2669 2.2289C56.1805 2.2289 56.146 2.1426 56.1978 2.0563C56.2496 1.95275 56.3359 1.88371 56.3877 1.88371C56.4223 1.88371 56.4568 1.95275 56.4568 2.0563ZM82.8748 2.2289C82.8748 2.31519 82.8057 2.40149 82.7021 2.40149C82.6158 2.40149 82.5295 2.31519 82.5295 2.2289C82.5295 2.12534 82.6158 2.0563 82.7021 2.0563C82.8057 2.0563 82.8748 2.12534 82.8748 2.2289ZM86.4317 3.90305C86.2591 4.07564 86.1037 3.81675 86.2591 3.59238C86.3627 3.40252 86.3972 3.40252 86.4663 3.59238C86.5008 3.71319 86.4835 3.85127 86.4317 3.90305ZM181.122 3.95482C181.122 4.04112 181.053 4.12741 180.949 4.12741C180.863 4.12741 180.777 4.04112 180.777 3.95482C180.777 3.85126 180.863 3.78223 180.949 3.78223C181.053 3.78223 181.122 3.85126 181.122 3.95482ZM212.029 5.26653C212.029 5.4046 211.96 5.47364 211.857 5.42186C211.771 5.37008 211.684 5.24926 211.684 5.14571C211.684 5.05941 211.771 4.99037 211.857 4.99037C211.96 4.99037 212.029 5.11119 212.029 5.26653ZM160.402 7.49297C160.678 7.83815 160.575 7.94171 160.091 7.80363C159.884 7.75186 159.711 7.59652 159.711 7.47571C159.711 7.14778 160.126 7.16504 160.402 7.49297ZM215.656 10.6859C215.656 10.7722 215.569 10.8585 215.466 10.8585C215.379 10.8585 215.345 10.7722 215.397 10.6859C215.448 10.5824 215.535 10.5133 215.586 10.5133C215.621 10.5133 215.656 10.5824 215.656 10.6859ZM43.2133 17.3653C43.8694 17.8658 44.0248 18.4353 43.6277 18.7805C43.4895 18.8841 42.8334 18.9876 42.16 19.0222C41.4866 19.0567 40.8132 19.1775 40.6751 19.2983C40.2952 19.609 40.3297 20.1267 40.7441 20.3856C40.9341 20.5065 41.0895 20.7308 41.0895 20.8689C41.0895 21.0242 41.4521 21.3176 41.9183 21.5247C42.3672 21.7319 42.9197 22.0253 43.1615 22.1461C43.9903 22.6293 45.5443 23.1644 45.8205 23.0608C45.9759 22.9918 46.045 22.8365 45.9932 22.6811C45.9241 22.5085 45.9932 22.4222 46.2522 22.4222C46.6666 22.4222 46.7184 22.5948 46.4076 22.9227C46.2349 23.0953 46.2349 23.1816 46.3903 23.2334C46.4939 23.2679 46.7529 23.4578 46.9601 23.6304C47.1846 23.8202 47.6335 24.0101 47.9789 24.0619C48.3242 24.1136 48.8422 24.269 49.1185 24.407C49.412 24.5451 49.9127 24.7177 50.2408 24.7695C50.5689 24.8385 51.1041 25.0284 51.3977 25.2182C51.8121 25.4599 52.3301 25.5634 53.297 25.5807C54.0913 25.5979 54.7129 25.7015 54.8165 25.8223C55.11 26.1675 56.7503 26.7025 57.2338 26.6162C57.5101 26.5472 57.8036 26.6335 58.0108 26.8233C58.2007 26.9959 58.6151 27.1167 58.995 27.1167C59.3576 27.1167 59.8929 27.2548 60.1864 27.4447C60.6699 27.7381 62.2411 28.0833 64.6412 28.4112C65.0038 28.463 65.4527 28.6528 65.6254 28.8254C65.7981 28.998 66.1261 29.1706 66.3333 29.2224C66.5578 29.2569 67.3866 29.4122 68.1981 29.5676C69.0097 29.7229 69.8385 29.8437 70.0284 29.8437C70.2356 29.8437 70.4946 29.9473 70.5982 30.0853C70.7536 30.2752 71.6687 30.4996 72.7738 30.6031C72.8774 30.6204 73.1882 30.7067 73.4645 30.8275C73.758 30.9483 74.8803 31.2417 75.9681 31.4833C77.0559 31.725 78.161 32.0529 78.42 32.191C78.6617 32.3118 79.1279 32.4326 79.4387 32.4326C79.7668 32.4326 80.5265 32.6224 81.1481 32.8468C81.7697 33.0884 82.8921 33.3991 83.6518 33.5544C85.0159 33.8479 86.7598 34.4002 87.1051 34.659C87.1915 34.7453 87.8131 34.987 88.4692 35.2113C89.3498 35.522 89.8678 35.8327 90.4721 36.454C91.37 37.3342 91.5945 37.8347 91.7671 39.3708C91.8535 40.2338 91.8189 40.5099 91.3873 41.4419C90.5067 43.4095 88.6073 44.773 87.8994 43.9273C87.7785 43.7719 87.5195 43.6511 87.3641 43.6511C87.0361 43.6511 85.9828 42.7191 85.9828 42.4257C85.9828 42.3394 85.8447 42.2704 85.672 42.2704C85.4993 42.2704 84.9986 42.0287 84.5497 41.7526C84.1007 41.4592 83.6345 41.2348 83.5137 41.2348C83.3928 41.2348 83.2201 41.1658 83.1165 41.0967C83.0302 41.0104 82.5813 40.8033 82.0978 40.648C81.6316 40.4754 80.8719 40.1647 80.4402 39.9404C79.9913 39.7333 79.2143 39.4916 78.7135 39.4226C78.1955 39.3708 77.4013 39.1292 76.9178 38.9048C75.053 38.0073 74.4659 37.783 74.017 37.783C73.7753 37.783 73.3609 37.6967 73.0846 37.5931C72.8256 37.4896 72.3249 37.3687 71.9968 37.3342C71.6687 37.2997 71.0471 37.0753 70.6155 36.851C70.1838 36.6266 69.4068 36.4022 68.8715 36.3332C68.3363 36.2814 67.6801 36.1088 67.4039 35.9707C67.1276 35.8327 66.7477 35.7119 66.5578 35.7119C66.0916 35.7119 65.0901 35.3494 64.5203 34.9697C64.2786 34.8144 63.9333 34.6763 63.7779 34.6763C63.6052 34.6763 63.2426 34.6073 62.9491 34.5037C62.6555 34.4174 61.9476 34.2103 61.3778 34.055C60.808 33.9169 59.6339 33.5027 58.7533 33.1747C57.8899 32.8468 57.0957 32.6052 57.0266 32.657C56.9403 32.7087 56.6467 32.657 56.3705 32.5189C55.3172 32.0701 53.7287 31.5696 53.2797 31.5696C53.0207 31.5696 52.52 31.3798 52.1747 31.1382C51.8293 30.8965 51.3113 30.7067 51.0351 30.7067C50.7588 30.7067 50.3617 30.5513 50.1545 30.3615C49.9473 30.1544 49.4638 29.9473 49.1012 29.8955C48.1861 29.7574 45.1126 28.2386 44.5255 27.6518C44.4219 27.5482 44.2147 27.4965 44.0939 27.5482C43.9557 27.6 43.8003 27.5137 43.7485 27.3584C43.6449 27.0822 42.2291 26.0639 41.2449 25.5634C41.0031 25.4253 40.5715 25.1147 40.2779 24.873C39.7599 24.407 38.6721 22.871 38.6721 22.6121C38.6721 22.5258 38.5513 22.3704 38.4131 22.2496C38.2232 22.0943 38.1541 21.6973 38.1541 20.8516C38.1541 19.747 38.275 19.2983 38.7757 18.6252C38.8793 18.4871 39.0175 18.1592 39.0865 17.883C39.1729 17.5033 39.2937 17.417 39.7081 17.417C40.0017 17.417 40.2261 17.348 40.2261 17.2617C40.2261 17.0373 40.6578 16.951 41.7111 16.9165C42.419 16.8993 42.7125 16.9856 43.2133 17.3653ZM115.509 18.9876C115.509 19.0567 115.163 18.9359 114.749 18.7287C114.335 18.5389 114.024 18.3145 114.058 18.2455C114.145 18.1074 115.509 18.7978 115.509 18.9876ZM227.431 37.783C227.794 38.4906 228.088 39.1464 228.088 39.2327C228.088 39.319 228.226 39.5607 228.398 39.7505C228.588 39.9576 228.899 40.579 229.124 41.1485C229.348 41.7181 229.745 42.5465 230.021 42.978C230.28 43.4095 230.591 44.1862 230.678 44.6867C230.781 45.1872 231.04 45.9984 231.265 46.4989C231.783 47.5517 231.99 49.6573 231.8 51.832C231.696 53.1782 231.627 53.4026 230.988 54.3346C230.47 55.1113 230.142 55.4219 229.659 55.5773C229.313 55.6981 228.536 56.0433 227.915 56.3712C225.843 57.4413 223.719 57.2687 220.369 55.7153C219.074 55.1285 218.867 55.3011 219.385 56.561C219.627 57.1824 219.627 57.424 219.368 59.2535C219.109 61.152 218.522 62.9642 218.09 63.2404C217.987 63.2921 217.9 63.4993 217.9 63.6891C217.9 63.8962 217.693 64.1551 217.365 64.3277C217.071 64.483 216.553 64.8282 216.225 65.0871C215.638 65.5359 215.586 65.5531 213.411 65.5013C211.701 65.4668 211.097 65.3978 210.873 65.1907C210.7 65.0526 210.113 64.7419 209.543 64.5175C208.783 64.2069 208.162 63.7409 207.091 62.6881C206.297 61.9114 205.641 61.2038 205.641 61.1175C205.641 60.9276 204.588 59.2535 204.208 58.8392C203.707 58.287 203.258 57.5103 203.137 56.9925C203.085 56.6818 202.947 56.3884 202.861 56.3367C202.775 56.2676 202.706 56.0087 202.706 55.7326C202.706 55.4564 202.636 55.1803 202.533 55.1285C202.447 55.0767 202.36 54.8696 202.36 54.697C202.36 54.4036 202.205 53.8686 201.669 52.1599C201.462 51.5386 201.376 48.2938 201.566 48.0004C201.635 47.8969 201.635 47.6207 201.583 47.3964C201.514 47.1202 201.549 46.9476 201.721 46.8786C201.859 46.8268 202.015 46.4299 202.067 45.9811C202.239 44.7902 203.293 43.0816 204.76 41.58C206.504 39.8023 207.506 39.0429 208.231 38.9393C208.559 38.8876 209.25 38.7495 209.768 38.6287C210.475 38.4733 210.769 38.4733 211.011 38.6114C211.183 38.7322 211.753 38.8185 212.254 38.8185C213.083 38.8185 213.238 38.8876 213.756 39.4226C214.084 39.7505 214.447 40.0267 214.568 40.0267C214.689 40.0267 214.999 40.4581 215.241 40.9759C215.5 41.511 215.759 41.977 215.845 42.0287C216.122 42.1841 216.018 43.8237 215.707 44.376C215.189 45.239 213.169 46.24 211.909 46.24C211.218 46.24 210.924 45.7568 210.752 44.3415C210.527 42.5293 209.353 41.4592 207.886 41.6836C207.316 41.7699 207.022 41.977 206.332 42.7536C205.572 43.6166 205.468 43.7892 205.485 44.4968C205.485 44.9283 205.468 45.4806 205.451 45.7222C205.416 46.4644 205.675 48.035 205.9 48.3111C206.003 48.4492 206.211 48.9497 206.332 49.433C206.452 49.899 206.66 50.4513 206.798 50.6411C206.919 50.831 207.022 51.1244 207.022 51.3142C207.022 51.9356 207.454 52.8848 207.903 53.2645C208.145 53.4716 208.438 53.9721 208.576 54.3864C208.697 54.8006 208.991 55.3184 209.215 55.5773C209.44 55.8189 209.612 56.095 209.612 56.2159C209.612 56.3194 209.768 56.492 209.958 56.5956C210.147 56.6991 210.303 56.889 210.303 57.027C210.303 57.1651 210.458 57.355 210.648 57.4585C210.838 57.5621 211.045 57.8382 211.097 58.0626C211.149 58.287 211.356 58.5286 211.529 58.5804C211.701 58.6494 211.926 58.822 212.029 58.9946C212.116 59.1672 212.617 59.5296 213.135 59.7885C213.963 60.2027 214.222 60.2545 215.068 60.1682C216.502 60.0129 216.916 59.5641 217.002 58.0281C217.106 55.8016 217.089 55.5082 216.778 55.3356C216.588 55.2321 216.519 55.0595 216.588 54.7661C216.709 54.3346 215.984 52.0736 215.586 51.6076C215.466 51.4523 215.276 51.0726 215.172 50.7619C215.068 50.4513 214.827 49.9853 214.654 49.7264C213.825 48.5355 213.877 48.0004 214.93 46.9821C215.448 46.4816 215.604 46.4298 217.123 46.3263C219.161 46.171 219.869 46.3953 220.421 47.3791C220.628 47.7416 220.974 48.1213 221.198 48.2076C221.785 48.4492 221.802 48.4837 221.526 48.6563C221.112 48.9152 223.926 51.5386 225.359 52.2462C226.672 52.8676 227.397 52.9366 228.243 52.4879C229.141 52.0391 229.555 51.366 229.521 50.4685C229.503 50.037 229.434 49.6056 229.365 49.4847C229.279 49.3639 229.21 49.0187 229.193 48.7426C229.106 47.4654 228.744 45.9984 228.433 45.6014C228.243 45.3598 228.088 44.9456 228.088 44.6867C228.088 44.4278 227.932 44.0826 227.759 43.9273C227.57 43.7547 227.362 43.375 227.293 43.0988C227.241 42.8054 227 42.2531 226.775 41.8562C226.551 41.4765 226.136 40.648 225.843 40.0267C225.549 39.4226 225.239 38.8703 225.169 38.8185C225.083 38.7667 224.962 38.4906 224.91 38.1799C224.807 37.7312 224.876 37.5068 225.256 37.0063C225.636 36.4885 225.826 36.4022 226.257 36.4367C226.706 36.4885 226.844 36.6438 227.431 37.783ZM58.9259 39.3018C59.1849 39.7333 59.2195 39.9231 59.0641 40.0784C58.9605 40.182 58.8741 40.5962 58.8741 40.9932C58.8741 41.4247 58.7705 41.8044 58.6151 41.9252C58.477 42.046 58.3561 42.2531 58.3561 42.3739C58.3561 42.6328 57.3029 44.5486 56.1287 46.4471C55.7489 47.0857 55.4208 47.707 55.4208 47.8279C55.4208 47.9487 55.1445 48.2421 54.8165 48.4664C54.4884 48.6908 54.2121 48.967 54.2121 49.0705C54.2121 49.1741 53.7977 49.7091 53.297 50.2442C52.2783 51.366 50.9315 53.0747 50.9315 53.23C50.9315 53.3853 49.5501 54.697 49.3775 54.697C49.3084 54.697 49.1875 54.9042 49.1357 55.1458C49.0667 55.4047 48.635 55.957 48.1515 56.3712C47.6853 56.8027 47.3055 57.2514 47.3055 57.3722C47.3055 57.5621 46.6321 58.5459 46.0277 59.219C45.8723 59.3916 45.7515 59.5987 45.7515 59.7022C45.7515 59.7885 45.4752 60.0474 45.1471 60.2545C44.8191 60.4789 44.4565 60.8413 44.3356 61.083C44.0248 61.7043 43.2305 62.7398 42.1773 63.8962C41.6765 64.4485 41.1413 65.1734 41.0031 65.5013C40.8132 65.9501 40.6578 66.0881 40.3297 66.0881C39.9671 66.0881 39.8808 66.1744 39.8808 66.5024C39.8808 66.744 39.6736 67.0547 39.3628 67.2963C39.0865 67.5034 38.8103 67.8141 38.7585 67.9694C38.7239 68.1247 38.4995 68.3318 38.2923 68.4181C38.0851 68.5217 37.7743 68.8669 37.5843 69.1948C37.4117 69.5227 37.0491 69.9887 36.7901 70.2304C36.5311 70.472 36.1685 70.9207 35.9958 71.2141C35.7368 71.6629 35.4951 71.801 34.8217 71.9563C34.3382 72.0598 33.872 72.0598 33.6993 71.9735C33.5439 71.9045 33.0605 71.7837 32.6461 71.7319C32.1453 71.6629 31.7482 71.4903 31.4892 71.1969C31.2647 70.9725 30.8158 70.5583 30.4705 70.2994C30.0733 70.006 29.8661 69.6953 29.8661 69.4364C29.8661 69.2121 29.7107 68.8669 29.5208 68.677C29.3309 68.4872 29.1755 68.1938 29.1755 68.0212C29.1755 67.8486 29.1237 67.6415 29.0546 67.5724C28.7956 67.3135 29.0546 66.0364 29.5381 65.0871C30.0043 64.2069 30.1769 64.0688 31.2647 63.551C31.9209 63.2231 32.7842 62.6536 33.1813 62.2911C33.5612 61.9114 33.9929 61.6007 34.1137 61.6007C34.2346 61.6007 34.39 61.4109 34.4591 61.1865C34.5109 60.9449 34.7181 60.7205 34.9598 60.6687C35.2015 60.5997 35.6159 60.2545 35.9267 59.8748C36.2203 59.5124 36.6865 59.1327 36.9627 59.0291C37.239 58.9428 37.4635 58.753 37.4635 58.6149C37.4635 58.3733 38.5167 57.2514 40.6233 55.2321C41.2621 54.628 41.8319 53.9549 41.8837 53.7305C41.9355 53.5061 42.0909 53.3163 42.1945 53.3163C42.5226 53.3163 44.0075 51.832 44.1111 51.3833C44.1802 51.1589 44.4737 50.8655 44.7673 50.7101C45.0781 50.5548 45.3198 50.2959 45.3198 50.1233C45.3198 49.9507 45.4407 49.7782 45.5788 49.7264C45.7169 49.6746 45.9587 49.5193 46.1141 49.3639C46.2522 49.2086 46.6321 48.8979 46.9256 48.6563C47.2364 48.4147 47.4781 48.173 47.4781 48.104C47.4781 48.035 47.8235 47.6035 48.2551 47.1547C48.6868 46.7233 49.0321 46.2573 49.0321 46.1537C49.0321 46.0501 49.2911 45.8258 49.6192 45.6704C50.0163 45.4806 50.2753 45.2044 50.4307 44.7902C50.5516 44.445 50.707 44.1689 50.7761 44.1689C51.0005 44.1689 52.6581 42.7191 52.6581 42.512C52.6581 42.3912 52.8653 42.1323 53.1243 41.9252C53.3833 41.7181 54.1431 41.045 54.8165 40.4064C56.7503 38.5596 58.2698 38.1627 58.9259 39.3018ZM171.056 43.7719C171.885 44.2552 172.023 44.4968 172.765 46.6715C172.99 47.3273 173.335 48.0867 173.542 48.3629C173.732 48.639 173.853 48.9497 173.818 49.0878C173.767 49.2086 173.836 49.4502 173.957 49.6401C174.077 49.8299 174.336 50.5203 174.492 51.1761C174.664 51.832 174.975 52.6087 175.2 52.9193C175.424 53.2127 175.597 53.696 175.597 53.9894C175.597 54.2656 175.683 54.559 175.77 54.6107C175.873 54.6625 175.942 54.9904 175.942 55.3184C175.942 55.6463 176.063 56.1986 176.218 56.561C176.374 56.9062 176.512 57.424 176.529 57.7001C176.547 57.9763 176.702 58.287 176.857 58.4078C177.013 58.5286 177.151 58.8393 177.151 59.1327C177.151 59.4088 177.272 59.7885 177.41 59.9784C177.548 60.151 177.669 60.4789 177.669 60.686C177.669 60.8931 177.824 61.3246 178.014 61.6525C178.342 62.1875 178.532 62.8952 178.86 64.6556C178.998 65.4323 179.706 66.6059 180.034 66.6059C180.259 66.6059 180.501 66.0019 180.362 65.7775C180.311 65.6912 180.328 64.9145 180.397 64.0343C180.466 63.1713 180.466 62.3601 180.397 62.2393C180.328 62.1358 180.38 61.9287 180.501 61.7733C180.639 61.6353 180.777 61.2383 180.846 60.8931C181.001 60.0301 182.124 57.8382 182.849 56.9925C183.522 56.2158 185.094 55.3874 185.905 55.3874C186.889 55.3874 188.426 56.0605 189.186 56.8027C189.6 57.1996 189.928 57.6139 189.928 57.7347C189.928 57.8382 190.049 58.1661 190.187 58.425C190.688 59.3916 190.429 59.8575 189.41 59.8575C189.082 59.8575 188.219 59.8921 187.511 59.9611C186.803 60.0129 185.75 60.0647 185.18 60.0647C183.609 60.0819 183.54 60.151 182.935 62.3774C182.78 62.947 182.59 63.6373 182.503 63.9307C182.417 64.2069 182.365 64.9836 182.4 65.6567C182.434 66.3125 182.383 67.0029 182.279 67.1927C182.072 67.607 182.003 69.7126 182.193 70.0923C182.279 70.2649 182.262 70.6964 182.175 71.0933C182.089 71.5248 182.089 72.0253 182.193 72.4396C182.279 72.7847 182.4 73.3025 182.452 73.5959C182.503 73.8721 182.642 74.2345 182.763 74.3726C182.883 74.5107 183.021 74.8386 183.091 75.0975C183.142 75.3736 183.246 75.7878 183.298 76.0467C183.367 76.3229 183.505 76.6508 183.626 76.7889C183.937 77.1513 184.489 78.6011 184.748 79.6884C184.852 80.1717 185.093 80.8793 185.266 81.2418C186.095 83.0195 185.18 85.0906 183.177 85.9018C182.158 86.316 182.106 86.316 181.468 86.0226C181.105 85.8672 180.725 85.5566 180.621 85.3495C180.518 85.1596 180.276 84.7799 180.086 84.5383C179.879 84.2967 179.654 83.6753 179.568 83.1575C179.499 82.6398 179.257 81.7941 179.05 81.2763C178.843 80.7585 178.601 80.0509 178.498 79.723C178.411 79.395 178.256 79.0498 178.17 78.9635C178.083 78.86 178.014 78.6701 178.014 78.5148C178.014 78.3595 177.824 77.8417 177.582 77.3757C177.341 76.9097 177.185 76.4264 177.237 76.3056C177.272 76.1848 177.168 75.9604 176.978 75.8051C176.788 75.6325 176.633 75.3736 176.633 75.201C176.633 75.0457 176.546 74.8558 176.46 74.8041C176.357 74.735 176.305 74.4934 176.322 74.2345C176.357 73.8203 175.321 70.938 174.889 70.2304C174.803 70.0923 174.664 69.7816 174.561 69.54C174.474 69.2984 174.285 68.8841 174.129 68.6253C173.991 68.3491 173.87 68.0039 173.87 67.8486C173.87 67.6933 173.749 67.3998 173.611 67.2272C173.473 67.0374 173.352 66.7267 173.352 66.5369C173.352 66.347 173.231 66.0709 173.093 65.9155C172.851 65.6394 172.213 64.017 172.023 63.1541C171.971 62.9124 171.815 62.6018 171.695 62.4637C171.367 62.084 170.762 60.7032 170.762 60.3408C170.762 60.151 170.607 59.823 170.417 59.5814C170.227 59.3398 170.071 58.9946 170.071 58.822C170.071 58.6667 169.882 58.3732 169.657 58.1834C169.364 57.959 169.208 57.6139 169.122 57.0616C169.035 56.5093 168.828 56.0605 168.483 55.6981C168.207 55.4047 168.017 55.0595 168.069 54.9387C168.12 54.8179 167.93 54.4381 167.654 54.0584C167.378 53.696 167.136 53.2473 167.136 53.0747C167.136 52.5914 166.445 51.2452 166.221 51.2452C166.1 51.2452 165.858 50.9 165.686 50.503C165.496 50.1061 165.237 49.6919 165.099 49.5883C164.909 49.4502 164.857 49.1396 164.926 48.3802C164.995 47.3791 165.513 45.8948 165.789 45.8948C165.858 45.8948 165.927 45.7395 165.927 45.5669C165.927 44.9801 166.117 44.6867 166.515 44.6867C166.722 44.6867 167.015 44.5313 167.188 44.3415C167.343 44.1516 167.585 43.9963 167.706 43.9963C167.844 43.9963 168.086 43.841 168.259 43.6511C168.742 43.1333 170.054 43.1851 171.056 43.7719ZM107.393 49.3985C108.257 49.6401 109.845 51.0381 110.07 51.763C110.139 52.0046 110.294 52.3153 110.432 52.4533C110.726 52.7985 110.76 53.8686 110.501 54.9214C110.26 55.8879 110.45 56.2504 111.175 56.2504C111.814 56.2504 113.834 55.8189 114.283 55.5773C114.784 55.3011 116.7 54.697 117.046 54.697C117.46 54.697 118.392 55.3184 118.72 55.8016C119.152 56.4747 118.91 57.3032 117.943 58.4595C117.184 59.357 117.028 59.4606 116.096 59.6504C115.543 59.7713 114.386 59.9093 113.523 59.9784C112.677 60.0474 111.831 60.1855 111.658 60.3063C111.434 60.4616 111.209 60.4789 110.881 60.3581C110.571 60.2372 110.26 60.2372 109.966 60.3581C109.569 60.5134 109.483 60.686 109.293 61.8941C109.155 62.6363 109.034 63.5855 109.017 64.017C108.999 64.4485 108.947 65.0698 108.878 65.3978C108.827 65.7257 108.74 66.4678 108.688 67.0374C108.654 67.607 108.585 68.2973 108.533 68.5907C108.36 69.5055 107.791 74.4416 107.791 74.9767C107.773 76.0813 107.549 79.5331 107.411 80.8448C107.324 81.6042 107.307 82.3291 107.376 82.4844C107.549 82.7951 107.497 84.9698 107.307 85.6429C107.238 85.919 107.255 86.2124 107.376 86.3505C107.48 86.4713 107.532 86.713 107.463 86.8683C107.411 87.0236 107.445 87.248 107.549 87.3688C107.652 87.4896 107.773 88.0592 107.825 88.6287C107.877 89.181 108.015 89.975 108.119 90.3547C108.343 91.3039 109.483 92.4085 110.346 92.5466C111.089 92.6501 112.245 92.305 112.936 91.7527C114.956 90.1821 115.181 89.9577 115.284 89.509C115.336 89.2501 115.526 88.9567 115.699 88.8704C115.871 88.7668 116.061 88.5252 116.13 88.3181C116.199 88.0937 116.424 87.6795 116.648 87.3861C116.873 87.0927 117.063 86.7302 117.063 86.5921C117.063 86.1952 117.581 85.2114 118.047 84.7109C118.289 84.452 118.461 84.1068 118.427 83.9342C118.392 83.6408 119.066 81.9494 119.687 80.7758C119.808 80.5514 120.205 80.258 120.568 80.1372C121.155 79.9301 121.293 79.9473 121.673 80.189C122.036 80.4306 122.087 80.5687 122.001 81.0864C121.794 82.5362 121.673 82.9677 121.276 83.7271C121.034 84.1931 120.896 84.6246 120.948 84.7281C121 84.8317 120.931 85.0215 120.792 85.1769C120.637 85.315 120.516 85.5566 120.516 85.7119C120.516 85.85 120.292 86.2642 119.998 86.6267C119.722 86.9891 119.48 87.4378 119.48 87.6277C119.48 87.8348 119.411 88.0247 119.325 88.0764C119.238 88.1282 118.997 88.5079 118.789 88.9049C118.582 89.3191 118.116 89.9404 117.736 90.2856C117.374 90.6481 117.063 91.0278 117.063 91.1141C117.063 91.2176 116.873 91.373 116.648 91.4938C116.407 91.5973 116.199 91.839 116.165 92.0288C116.13 92.2187 115.958 92.4603 115.785 92.5638C115.44 92.771 115.284 92.8745 114.248 93.7202C113.817 94.0999 113.143 94.3761 112.09 94.6522C110.812 94.9801 110.381 95.0147 109.12 94.9111C108.309 94.8248 107.342 94.6522 106.962 94.4969C106.582 94.3588 106.15 94.238 105.995 94.2207C105.684 94.2207 104.13 93.0816 103.508 92.4258C103.267 92.1669 102.921 91.6318 102.749 91.2349C102.559 90.8379 102.248 90.3547 102.058 90.1821C101.851 89.9922 101.695 89.7506 101.695 89.6125C101.695 89.3364 101.16 87.714 100.729 86.713C100.573 86.3333 100.418 85.6084 100.383 85.1078C100.349 84.6073 100.107 83.5718 99.8652 82.8124C99.5371 81.8113 99.4508 81.2418 99.5371 80.793C99.6235 80.258 99.7443 79.2052 99.8134 78.1696C99.8307 78.0316 99.917 77.3584 100.003 76.7026C100.245 74.9767 100.314 74.3208 100.383 72.5604C100.418 71.6974 100.539 70.7827 100.642 70.5065C100.746 70.2476 100.884 69.1948 100.936 68.1765C100.988 67.1755 101.091 66.1917 101.177 66.0018C101.385 65.5186 101.695 63.3094 101.695 62.3947C101.695 61.8769 101.765 61.6007 101.903 61.6007C102.024 61.6007 101.954 61.4281 101.747 61.221C101.385 60.8759 101.298 60.8586 100.487 61.0484C100.003 61.1692 99.3817 61.2556 99.1055 61.2556C98.8465 61.2556 98.5357 61.3764 98.4148 61.5144C98.104 61.8941 97.6723 61.8251 97.2752 61.3764C96.7227 60.755 96.6536 60.3926 96.9644 59.8921C97.6896 58.8047 98.7601 58.1489 99.8307 58.1489C100.901 58.1489 102.455 57.355 102.524 56.7681C102.645 55.8361 102.731 54.9041 102.801 54.0067C102.835 53.4889 102.904 52.9193 102.99 52.764C103.06 52.5914 103.025 52.2117 102.921 51.9183C102.645 51.1071 102.68 50.6929 103.129 50.1751C103.837 49.2949 105.736 48.9497 107.393 49.3985ZM128.407 52.4706C129.754 52.7813 130.255 53.1092 130.876 54.0584C132.016 55.8016 132.154 57.4413 131.273 58.9083C130.773 59.7367 130.306 59.9956 128.545 60.3926C127.008 60.7378 125.782 60.7033 125.23 60.289C124.608 59.823 124.142 58.0971 124.09 56.0778C124.039 54.093 124.298 53.6615 126.041 52.8848C127.595 52.2117 127.406 52.229 128.407 52.4706ZM62.103 56.1641C63.0699 56.2676 63.2771 56.3712 63.9678 57.0098C64.8139 57.821 64.8484 57.9073 64.5031 58.4078C64.0887 59.0118 64.0023 59.5296 64.2959 59.5296C64.4513 59.5296 64.5721 59.4606 64.5721 59.3916C64.5721 59.1499 65.5218 58.9083 66.2988 58.9601C66.7305 58.9946 67.4039 59.0464 67.8183 59.0636C68.2845 59.0809 68.6471 59.2017 68.7852 59.3916C68.9061 59.5469 69.2169 59.7367 69.5104 59.8058C69.7867 59.8748 70.1147 59.9956 70.2356 60.0992C70.4601 60.2718 71.3061 61.9459 71.3061 62.2048C71.3061 62.2911 71.427 62.481 71.5651 62.6363C71.7896 62.8779 71.8069 63.1368 71.6687 64.1033C71.5651 64.8455 71.5651 65.3978 71.6687 65.5876C71.7723 65.7775 71.7551 65.9328 71.6515 66.0018C71.5651 66.0536 71.4788 66.2435 71.4788 66.3988C71.4788 66.5541 71.3579 66.9166 71.2025 67.21C71.0644 67.4861 70.9263 68.1075 70.8917 68.5907C70.8572 69.2293 70.5809 69.9715 69.8557 71.4385C68.5607 74.0101 68.4226 74.2518 68.1463 74.4589C68.0255 74.5452 67.5075 75.2356 67.0067 75.9777C65.9707 77.462 65.9535 77.859 66.9204 78.325C67.1967 78.4458 67.6283 78.6701 67.8873 78.8082C68.3017 79.0153 68.4917 79.0153 69.3032 78.791C69.8212 78.6701 70.4773 78.394 70.7536 78.1869C71.0471 77.9798 71.3234 77.8244 71.4097 77.8244C71.6515 77.8244 74.4141 74.8041 74.5177 74.4071C74.6559 73.9411 74.3796 73.5787 73.7925 73.4406C73.4472 73.3543 73.3781 73.2507 73.4645 73.0264C73.5335 72.871 73.6371 72.5431 73.6717 72.3015C73.7235 72.0598 73.9134 71.5593 74.0861 71.1624C74.2587 70.7827 74.4141 70.3512 74.4141 70.2131C74.4141 70.075 74.5695 69.8679 74.7767 69.7471C75.0357 69.5745 75.0875 69.4537 74.9494 69.2984C74.8285 69.143 74.8631 69.005 75.0875 68.8151C75.571 68.4009 75.7437 66.5369 75.3811 65.6912C75.2429 65.3287 75.0012 65.0008 74.8458 64.949C74.7077 64.8973 74.5868 64.7592 74.5868 64.6729C74.5868 64.5693 74.4832 64.2587 74.3451 63.9653C73.9652 63.1196 73.8789 61.9804 74.1724 61.687C74.3451 61.5317 74.3623 61.3246 74.2587 61.0484C74.1551 60.755 74.2242 60.4616 74.5177 59.8748C74.7422 59.4433 74.9667 58.9773 75.0357 58.8392C75.2775 58.2524 76.4689 57.5103 77.3667 57.3895C78.1265 57.2859 78.2991 57.3204 78.5927 57.6138C78.7653 57.821 78.9725 57.9763 79.0589 57.9763C79.1279 57.9763 79.3869 58.4941 79.6287 59.1327C80.4057 61.221 80.4747 61.5662 80.3021 61.8941C80.2157 62.0667 80.0431 62.6535 79.9222 63.2231C79.7323 64.1206 79.7323 64.2414 79.9913 64.3967C80.1467 64.483 80.2848 64.6556 80.2848 64.7764C80.2848 64.9145 80.4229 65.0698 80.5956 65.1389C80.9409 65.2942 84.8087 65.6049 86.0691 65.5876C86.5526 65.5704 87.3641 65.7084 87.8821 65.881C88.6937 66.1572 88.9009 66.3298 89.3153 67.0547C89.8851 68.0039 89.8851 68.608 89.298 69.8852C89.1081 70.3167 88.8836 70.938 88.8318 71.2659C88.7627 71.5938 88.6073 72.0253 88.4865 72.2152C88.3829 72.405 88.2275 72.9228 88.1584 73.3716C88.0893 73.8203 87.9685 74.2345 87.8821 74.2863C87.7958 74.3381 87.7267 74.7178 87.744 75.132C87.744 75.529 87.6749 76.0122 87.5713 76.2021C87.2778 76.7198 87.0015 77.9625 86.8289 79.4296C86.7425 80.1717 86.6389 80.8448 86.5871 80.9311C86.5353 81.0174 86.5871 81.259 86.6907 81.5007C86.8461 81.8286 86.8116 82.0357 86.5871 82.4844C86.4145 82.7951 86.2936 83.4164 86.3109 83.8479C86.3109 84.2794 86.3281 84.8662 86.3281 85.1596C86.3454 85.4358 86.3281 86.2297 86.3109 86.9201C86.2763 88.3871 86.6735 89.2673 87.3814 89.3536C87.9512 89.4227 89.3671 88.4734 89.5052 87.9211C89.5743 87.6795 89.6951 87.4896 89.7815 87.4896C90.1959 87.4896 92.3715 84.5555 92.3715 83.9687C92.3715 83.8307 92.5269 83.6581 92.7168 83.6063C92.9067 83.5545 93.0621 83.3647 93.0621 83.2093C93.0621 83.0713 93.2003 82.7778 93.3902 82.588C93.7183 82.2083 94.996 79.8265 95.2895 78.9981C95.5658 78.2732 96.2047 77.9453 97.1025 78.0661C97.5169 78.1351 98.0004 78.3422 98.1731 78.5321C98.4493 78.8255 98.4493 78.8945 98.2076 79.0844C98.0522 79.1879 97.8105 79.723 97.6378 80.2407C97.4824 80.7585 97.1716 81.5007 96.9299 81.8804C96.7054 82.2601 96.3946 82.8124 96.2565 83.123C96.1183 83.4164 95.9284 83.7098 95.8248 83.7789C95.7212 83.8479 95.5313 84.1586 95.3931 84.5038C95.255 84.8317 94.6679 85.7119 94.0981 86.4713C93.5283 87.2135 93.0621 87.8866 93.0621 87.9729C93.0621 88.0592 92.8722 88.2145 92.6305 88.3181C92.3887 88.4216 92.1988 88.6287 92.1988 88.7495C92.1988 88.8704 91.5945 89.5953 90.8693 90.3719C89.5052 91.7527 88.0375 92.6847 86.7253 92.9436C85.8101 93.1334 83.6 92.4948 82.9093 91.839C82.7885 91.7354 82.5813 91.6318 82.4777 91.6318C82.3568 91.6318 82.0805 91.442 81.8388 91.2004C81.5971 90.976 81.1827 90.5618 80.8891 90.3029C80.3884 89.8196 79.6805 88.9567 78.9898 87.9211C78.3164 86.9373 78.0229 83.7789 78.5063 82.6398C78.6099 82.3981 78.6617 81.8458 78.6099 81.3971C78.5409 80.8793 78.5754 80.5859 78.6963 80.5859C78.9035 80.5859 79.4215 78.9463 79.4215 78.3077C79.4215 78.0833 79.6287 77.6001 79.8704 77.2376C80.1121 76.8752 80.3711 76.2538 80.4057 75.8569C80.4575 75.4772 80.6129 74.9421 80.7337 74.6833C80.8719 74.4244 80.9755 74.0964 80.9755 73.9238C80.9755 73.7685 81.1654 73.2507 81.4071 72.7847C81.7179 72.1634 81.787 71.8527 81.6661 71.6974C81.5453 71.5421 81.5625 71.4213 81.7525 71.2659C81.9079 71.1451 81.9942 70.938 81.9424 70.8172C81.8906 70.6964 81.9769 70.5065 82.1151 70.403C82.2532 70.2821 82.3568 69.9197 82.3568 69.5918C82.3568 68.9877 82.1669 68.8324 81.4244 68.7633C80.8201 68.7288 79.9395 68.3146 79.9395 68.073C79.9395 67.8141 79.2143 67.5897 78.8344 67.745C78.679 67.7968 78.5581 67.9521 78.5581 68.073C78.5581 68.1938 78.4027 68.3318 78.2128 68.3836C78.0229 68.4354 77.8157 68.608 77.7639 68.7979C77.6085 69.2811 77.3495 69.9197 77.0732 70.4547C76.9351 70.7309 76.8315 71.0588 76.8315 71.1796C76.8315 71.3177 76.6761 71.5248 76.4689 71.6629C76.1926 71.87 76.1235 72.0598 76.1753 72.5776C76.2271 73.1472 76.3135 73.2853 76.9178 73.5787C77.7984 74.0447 77.902 74.5452 77.2286 75.2355C76.1235 76.3574 75.6401 76.9442 75.3811 77.462C75.2084 77.7727 74.8458 78.1006 74.5005 78.2387C74.1724 78.3767 73.8961 78.5666 73.8961 78.6701C73.8961 78.7564 73.5681 79.0153 73.1709 79.257C72.7565 79.4986 72.2213 79.8955 71.9795 80.1372C71.7205 80.3615 71.2198 80.6204 70.8572 80.6895C70.4773 80.7585 70.0284 80.9138 69.8385 81.0347C69.3895 81.3626 67.8183 81.3453 66.2988 81.0001C65.3146 80.7758 65.0211 80.6377 64.8829 80.3098C64.5376 79.5849 63.2944 79.6712 62.3102 80.5169C61.9476 80.8276 60.7562 81.5007 59.4094 82.1393C58.3389 82.6398 58.1835 82.657 56.3359 82.6398C54.7992 82.6225 54.2467 82.5362 53.7805 82.2946C53.4524 82.1047 53.0725 81.9667 52.9517 81.9667C52.8308 81.9667 52.6581 81.8286 52.5545 81.656C52.4509 81.5007 51.9675 81.2073 51.4667 81.0174C50.9833 80.8276 50.5343 80.5514 50.4825 80.3788C50.4307 80.2062 50.0509 79.8265 49.6192 79.5504C49.2048 79.257 48.8595 78.9118 48.8595 78.791C48.8595 78.6701 48.7213 78.4458 48.5659 78.2904C48.3933 78.1351 48.0997 77.7209 47.9098 77.3584C47.7371 76.996 47.4954 76.5818 47.3745 76.4437C47.1328 76.133 46.9601 75.529 46.8565 74.7178C46.822 74.3898 46.7011 73.803 46.6148 73.4233C46.2867 72.1634 46.304 70.2304 46.6493 69.2811C46.822 68.7978 46.9429 68.2973 46.9256 68.1593C46.822 67.4516 47.7544 64.9318 48.7041 63.3267C48.7904 63.1886 49.0321 62.7744 49.2393 62.3947C49.93 61.221 49.9645 61.152 50.448 60.5997C50.707 60.289 50.9833 60.0474 51.0696 60.0474C51.1732 60.0474 51.2768 59.9266 51.3459 59.7885C51.3977 59.6504 51.5185 59.5296 51.6221 59.5296C51.7085 59.5296 52.2092 59.1327 52.7099 58.6494C53.1934 58.1661 54.074 57.5448 54.6438 57.2514C55.2136 56.958 55.8007 56.6301 55.9388 56.5092C56.0769 56.3884 56.6985 56.2331 57.3201 56.1641C57.9417 56.095 58.8741 55.9915 59.3921 55.9224C59.9101 55.8534 60.4972 55.8534 60.6871 55.9224C60.8771 55.9915 61.5159 56.095 62.103 56.1641ZM202.947 59.3743C203.293 59.6332 203.396 59.8748 203.362 60.2027C203.344 60.4616 203.413 60.8931 203.517 61.1693C203.638 61.4627 203.759 62.4982 203.811 63.4993C203.862 64.5003 203.949 65.6567 204.001 66.0881C204.121 67.0029 204.139 69.2121 204.001 70.0578C203.966 70.3857 203.897 71.007 203.845 71.4385C203.69 73.337 202.153 76.53 201.152 77.0478C200.893 77.1858 200.633 77.4102 200.582 77.5656C200.513 77.7036 200.288 77.8244 200.064 77.8244C199.839 77.8244 199.528 77.9625 199.373 78.1351C199.131 78.4112 198.941 78.4285 198.095 78.3077C197.543 78.2214 196.852 78.1696 196.541 78.1696C195.885 78.1869 194.832 77.7727 194.331 77.3067C194.141 77.1341 193.675 76.9097 193.295 76.8061C192.915 76.7026 192.311 76.4264 191.966 76.1848C191.62 75.9432 191.24 75.7533 191.137 75.7533C191.033 75.7533 190.774 75.5807 190.55 75.3564C190.014 74.8558 189.358 74.3553 188.201 73.5787C187.683 73.2162 187.2 72.871 187.148 72.7847C187.096 72.6984 186.561 72.5431 185.957 72.4223C185.059 72.2324 184.765 72.0771 184.368 71.6111C183.902 71.0416 183.747 70.5755 184.023 70.5755C184.092 70.5755 184.282 70.1958 184.455 69.7298C184.852 68.5735 185.37 68.2628 186.63 68.4009C187.166 68.4699 187.891 68.6252 188.253 68.7633C189.807 69.3847 190.274 69.609 190.274 69.7471C190.274 69.8161 190.377 69.8852 190.515 69.8852C190.653 69.8852 191.085 70.1613 191.482 70.4893C191.879 70.8172 192.311 71.0933 192.432 71.0933C192.553 71.0933 192.777 71.2832 192.933 71.5248C193.088 71.7492 193.692 72.267 194.279 72.6639C194.884 73.0781 195.695 73.665 196.092 73.9929C196.973 74.7005 198.631 75.1147 199.58 74.8558C200.495 74.597 201.152 73.8376 201.152 73.0436C201.152 72.6639 201.238 72.2842 201.341 72.1807C201.462 72.0598 201.531 71.3695 201.531 70.3857C201.514 69.471 201.6 68.677 201.704 68.5562C201.808 68.4354 201.825 68.211 201.739 68.0384C201.67 67.8658 201.583 66.8648 201.566 65.8293C201.549 64.7764 201.48 63.7409 201.411 63.4993C201.272 62.9297 200.806 60.3581 200.806 60.1337C200.806 59.7885 201.687 59.0118 202.084 59.0118C202.308 59.0118 202.688 59.1844 202.947 59.3743ZM32.0417 61.2038C31.8691 61.3764 31.7137 61.1175 31.8691 60.8931C31.9727 60.7033 32.0072 60.7033 32.0763 60.8931C32.1108 61.0139 32.0935 61.152 32.0417 61.2038ZM158.779 65.8638C159.297 66.0881 159.711 66.3816 159.711 66.4851C159.729 66.6059 159.953 66.9684 160.229 67.2963C160.523 67.6242 160.748 67.9867 160.748 68.1075C160.748 68.2283 160.817 68.3318 160.92 68.3318C161.11 68.3318 162.008 70.075 162.198 70.7999C162.25 71.0588 162.388 71.2659 162.474 71.2659C162.578 71.2659 162.647 71.4903 162.647 71.7664C162.647 72.0426 162.768 72.3533 162.906 72.4741C163.044 72.5949 163.165 72.8365 163.165 73.0264C163.165 73.199 163.268 73.5269 163.407 73.734C163.527 73.9411 163.769 74.735 163.942 75.4944C164.114 76.2538 164.339 76.996 164.46 77.1341C164.581 77.2721 164.736 77.7727 164.805 78.2559C164.995 79.6712 165.22 80.3443 165.582 80.6722C165.789 80.8621 165.893 81.1037 165.841 81.2935C165.789 81.4661 165.824 81.7423 165.91 81.9149C165.997 82.0875 166.256 82.9159 166.463 83.7616C166.86 85.3322 167.758 86.8683 168.379 87.0236C168.811 87.1444 169.985 86.5058 170.192 86.0571C170.434 85.5221 171.108 83.5545 171.28 82.8296C171.367 82.5017 171.608 81.6733 171.815 81.0174C172.057 80.2235 172.213 79.2224 172.247 78.0833C172.282 77.1341 172.385 75.598 172.472 74.6487C172.575 73.7167 172.644 72.9055 172.627 72.8365C172.592 72.4568 172.731 72.2842 173.214 72.0771C173.715 71.87 173.853 71.8873 174.336 72.1807C174.854 72.4741 175.044 72.9055 174.889 73.4233C174.872 73.5096 174.837 73.7858 174.82 74.0274C174.803 74.269 174.716 75.1147 174.647 75.9259C174.578 76.7371 174.509 77.7036 174.474 78.0833C174.44 78.463 174.336 79.1189 174.233 79.5504C174.129 79.9818 174.06 80.7758 174.043 81.3281C174.043 81.8976 173.939 82.5535 173.801 82.7951C173.335 83.6926 172.748 85.1424 172.8 85.2804C172.834 85.4185 172.161 86.9891 171.971 87.1444C171.919 87.1962 171.47 87.714 170.952 88.3181C169.674 89.8024 169.191 90.0267 166.963 90.0958C165.496 90.1303 165.03 90.0958 164.46 89.8369C164.08 89.6643 163.597 89.4399 163.389 89.3364C163.199 89.2501 162.768 88.8358 162.457 88.4216C162.146 88.0074 161.714 87.5414 161.49 87.4033C161.265 87.248 161.093 86.9891 161.093 86.7993C161.093 86.6094 161.024 86.4541 160.937 86.4541C160.851 86.4541 160.696 86.2124 160.592 85.9363C160.506 85.6429 160.299 85.2804 160.143 85.1424C160.005 85.0043 159.884 84.6764 159.884 84.4175C159.884 84.1586 159.763 83.7961 159.625 83.6236C159.487 83.4337 159.366 83.0713 159.366 82.7951C159.366 82.5362 159.297 82.3118 159.194 82.3118C159.107 82.3118 159.021 82.0875 159.021 81.8286C159.021 81.5524 158.9 81.19 158.762 81.0001C158.624 80.8276 158.503 80.3443 158.503 79.9473C158.503 79.5504 158.434 79.1707 158.33 79.1189C158.088 78.9808 157.76 77.6691 157.795 76.9615C157.795 76.6163 157.622 75.9777 157.363 75.4944C157.121 75.0112 156.88 74.2863 156.828 73.8548C156.776 73.4233 156.673 72.9918 156.586 72.9055C156.517 72.802 156.465 72.3878 156.465 71.9563C156.465 70.2821 154.825 68.8841 153.772 69.6608C153.202 70.0923 152.459 71.2487 152.459 71.7319C152.459 71.9563 152.39 72.267 152.304 72.4396C151.959 73.1299 151.596 74.5107 151.596 75.1665C151.596 75.5462 151.527 75.9259 151.441 76.0295C151.182 76.2711 150.923 78.2904 150.992 79.4641C151.078 80.7758 151.268 81.9667 151.406 81.9667C151.458 81.9667 151.527 82.4499 151.544 83.054C151.596 84.3657 151.665 84.9525 151.803 85.1596C151.976 85.453 152.304 87.9211 152.27 88.646C152.235 89.0084 152.287 89.4227 152.356 89.5435C152.511 89.7851 152.511 92.3222 152.356 92.8918C151.976 94.3761 148.35 94.8938 147.642 93.5476C147.538 93.3578 147.331 92.1496 147.193 90.8379C147.038 89.5435 146.882 88.4044 146.831 88.3181C146.779 88.2318 146.692 87.8348 146.658 87.4378C146.606 87.0409 146.433 86.3678 146.261 85.9363C146.071 85.5048 145.881 84.7627 145.846 84.2967C145.743 83.4164 145.207 81.5697 144.983 81.3453C144.914 81.2763 144.862 80.9656 144.862 80.655C144.862 80.3443 144.707 79.6021 144.517 78.9981C144.327 78.4113 144.171 77.7381 144.171 77.5483C144.171 77.3412 144.051 77.0823 143.912 76.9615C143.774 76.8407 143.653 76.599 143.653 76.4264C143.653 76.2538 143.584 76.064 143.481 76.0122C143.394 75.9604 143.308 75.7533 143.308 75.5807C143.308 75.3909 143.187 74.8904 143.032 74.4416C142.876 73.9929 142.721 73.4233 142.687 73.1817C142.635 72.9401 142.376 72.405 142.099 71.9908C141.668 71.3695 141.581 71.1278 141.651 70.472C141.737 69.6263 141.823 69.471 143.015 68.2973C143.688 67.6242 143.964 67.4689 144.448 67.4689C145.242 67.4689 146.347 68.0557 146.658 68.6425C146.796 68.9014 147.107 69.3156 147.331 69.5573C147.625 69.8507 147.728 70.1441 147.677 70.4202C147.625 70.6964 147.728 70.9725 147.987 71.2314C148.246 71.5248 148.385 71.9218 148.419 72.5258C148.523 73.8893 149.351 75.3218 149.351 74.131C149.351 73.9066 149.472 73.6304 149.61 73.5096C149.818 73.337 149.852 73.0954 149.766 72.5431C149.68 71.9218 149.731 71.7147 150.129 71.1969C150.37 70.869 150.664 70.3339 150.75 69.9887C150.836 69.6608 151.113 69.143 151.337 68.8669C151.579 68.5907 151.769 68.2628 151.769 68.1247C151.769 67.7623 153.582 66.0881 154.411 65.6739C155.412 65.1734 157.467 65.2597 158.779 65.8638ZM75.1048 66.7785C75.0012 66.9684 74.8458 67.1237 74.7595 67.1237C74.5177 67.1237 74.5523 66.6577 74.8113 66.5541C75.2084 66.3815 75.2947 66.4333 75.1048 66.7785ZM130.22 69.54C130.79 69.9887 131.014 71.7492 130.617 72.6984C130.444 73.1299 130.41 73.4406 130.514 73.734C130.617 73.9756 130.583 74.8041 130.444 75.9432C130.324 76.927 130.168 78.394 130.099 79.2052C130.047 80.0164 129.909 81.5007 129.806 82.519C129.65 84.1413 129.667 84.4693 129.909 85.0906C130.168 85.7292 130.168 85.8327 129.944 86.0916C129.581 86.5058 129.633 87.7485 130.047 88.2663C130.324 88.6287 130.358 88.7668 130.185 88.9567C130.047 89.1292 130.013 89.4227 130.116 89.8541C130.185 90.2166 130.255 90.6826 130.272 90.907C130.289 91.3902 131.446 92.4258 132.085 92.5466C132.948 92.7192 133.604 92.4776 134.019 91.839C134.865 90.51 134.986 90.3029 135.106 89.8887C135.176 89.6643 135.435 89.2501 135.659 88.9739C135.883 88.6978 136.039 88.3871 135.987 88.2663C135.883 87.9729 136.281 86.851 136.643 86.4368C136.799 86.247 136.919 86.0226 136.919 85.9018C136.919 85.5738 137.282 84.521 137.645 83.8307C137.835 83.4682 137.921 83.0885 137.869 83.0022C137.766 82.8296 137.904 82.3291 138.715 79.8955C138.871 79.4123 139.043 79.257 139.527 79.1361C140.425 78.9118 141.409 79.1361 141.409 79.5504C141.409 79.723 141.34 79.9128 141.253 79.9646C141.184 80.0164 141.063 80.4306 141.012 80.8793C140.822 82.6225 140.356 84.8144 140.114 85.0733C139.976 85.2287 139.803 85.7464 139.751 86.2124C139.682 86.6784 139.544 87.179 139.423 87.317C139.095 87.714 138.473 89.0775 138.473 89.4054C138.473 89.5607 138.318 89.8887 138.128 90.1303C137.938 90.3719 137.783 90.6653 137.783 90.7861C137.783 90.8897 137.524 91.3039 137.196 91.7009C136.557 92.4948 136.056 93.3923 136.056 93.7547C136.056 93.8928 135.728 94.0999 135.331 94.2207C134.917 94.3415 134.468 94.5832 134.312 94.7558C133.863 95.239 133.155 95.4461 131.998 95.4289C130.22 95.3944 129.788 95.3081 128.269 94.6867C127.06 94.2035 126.559 93.8755 125.713 93.0471C125.144 92.4775 124.643 91.908 124.626 91.7699C124.574 91.2521 124.505 91.0278 123.969 89.8196C123.262 88.1973 123.054 84.9007 123.434 81.5352C123.555 80.4824 123.676 79.1534 123.71 78.5666C123.762 77.9798 123.935 76.8924 124.125 76.1503C124.367 75.1665 124.453 74.3381 124.418 73.0264C124.384 72.0598 124.436 71.2141 124.505 71.1624C124.591 71.1278 124.608 70.9725 124.557 70.8344C124.332 70.2649 126.922 69.2293 128.649 69.2121C129.547 69.1948 129.892 69.2638 130.22 69.54ZM149.61 70.5583C149.662 70.6446 149.628 70.7654 149.524 70.8344C149.438 70.8862 149.351 70.8172 149.351 70.6791C149.351 70.3684 149.455 70.3167 149.61 70.5583ZM80.4575 72.1289C80.4575 72.2152 80.3884 72.3015 80.2848 72.3015C80.1985 72.3015 80.1121 72.2152 80.1121 72.1289C80.1121 72.0253 80.1985 71.9563 80.2848 71.9563C80.3884 71.9563 80.4575 72.0253 80.4575 72.1289ZM130.876 87.9901C130.876 88.0764 130.721 88.18 130.531 88.2318C130.151 88.3353 130.03 87.9211 130.41 87.783C130.652 87.6967 130.876 87.8003 130.876 87.9901ZM12.9448 91.7181C12.9448 91.8562 12.8757 91.977 12.7894 91.977C12.5649 91.977 12.4095 91.7009 12.5477 91.5628C12.7376 91.373 12.9448 91.4593 12.9448 91.7181ZM131.567 104.3C131.705 104.438 131.998 104.594 132.206 104.645C132.447 104.732 132.637 104.956 132.689 105.232C132.758 105.491 132.879 105.974 132.983 106.337C133.086 106.682 133.121 107.182 133.052 107.459C133 107.717 132.914 108.097 132.879 108.304C132.81 108.788 131.981 109.685 131.394 109.927C130.807 110.168 130.341 110.807 130.514 111.1C130.583 111.221 130.583 111.704 130.531 112.188C130.444 112.895 130.479 113.085 130.721 113.258C131.066 113.517 131.567 114.638 131.567 115.191C131.567 115.398 131.722 115.778 131.912 116.019C132.102 116.261 132.257 116.502 132.257 116.571C132.257 116.658 132.361 116.796 132.499 116.899C132.637 117.003 132.948 117.59 133.207 118.211C133.535 119.005 133.915 119.575 134.537 120.144C135.02 120.61 135.504 120.973 135.624 120.973C135.728 120.973 135.901 121.059 136.022 121.18C136.281 121.439 137.489 121.421 138.594 121.145C139.268 120.973 139.751 120.679 140.476 119.989C141.029 119.488 141.53 119.074 141.581 119.074C141.651 119.074 142.203 118.487 142.807 117.762C144.482 115.743 144.413 115.881 144.171 115.243C144.051 114.932 143.792 114.518 143.619 114.311C143.446 114.121 143.36 113.914 143.412 113.845C143.464 113.793 143.394 113.568 143.239 113.344C142.894 112.861 142.876 112.015 143.205 111.566C143.325 111.376 143.481 110.945 143.55 110.6C143.636 110.117 143.792 109.927 144.258 109.702C144.603 109.547 144.983 109.409 145.121 109.409C145.277 109.409 145.536 109.323 145.708 109.202C146.209 108.891 148.35 109.581 148.92 110.22C149.144 110.479 149.351 110.79 149.351 110.91C149.351 111.187 149.921 112.395 150.094 112.533C150.18 112.585 150.094 112.671 149.904 112.723C149.697 112.792 149.541 113.016 149.472 113.43C149.334 114.328 148.747 114.88 147.159 115.622C145.674 116.313 145.069 116.986 145.294 117.711C145.363 117.918 145.311 118.177 145.156 118.349C144.828 118.729 144.292 120.558 144.43 120.8C144.5 120.904 144.413 121.145 144.258 121.318C143.982 121.628 143.809 122.163 143.533 123.648C143.481 123.924 143.377 124.235 143.308 124.338C143.135 124.58 142.946 125.408 142.876 126.306C142.842 126.703 142.704 127.169 142.566 127.341C142.428 127.497 142.22 127.98 142.099 128.429C141.979 128.877 141.789 129.343 141.651 129.447C141.53 129.533 141.392 129.844 141.322 130.103C141.184 130.776 140.217 131.794 139.596 131.949C139.32 132.019 138.888 132.191 138.646 132.346C138.111 132.692 136.85 133.037 136.022 133.054C135.676 133.054 134.83 133.175 134.157 133.313C133.173 133.52 130.03 133.675 128.804 133.589C128.666 133.572 127.82 133.606 126.939 133.675C125.696 133.762 125.126 133.727 124.436 133.52C123.935 133.365 123.037 133.158 122.415 133.071C121.259 132.881 121.276 132.899 119.532 131.19C118.859 130.534 118.617 130.172 118.617 129.809C118.617 129.55 118.427 129.067 118.185 128.739C117.926 128.394 117.753 127.928 117.753 127.583C117.753 127.255 117.65 126.789 117.512 126.53C117.374 126.271 117.218 125.667 117.149 125.201C117.08 124.718 116.907 124.2 116.769 124.045C116.631 123.889 116.562 123.682 116.614 123.579C116.683 123.475 116.614 123.216 116.458 122.992C116.32 122.768 116.234 122.44 116.303 122.284C116.355 122.129 116.338 121.905 116.251 121.784C116.148 121.68 115.992 121.18 115.871 120.714C115.492 119.04 114.093 116.054 113.575 115.778C113.35 115.657 112.919 115.553 112.608 115.519C112.28 115.501 111.9 115.363 111.745 115.208C111.572 115.07 111.244 114.88 110.985 114.777C110.363 114.535 109.707 113.603 109.569 112.74C109.465 112.032 109.535 111.791 110.312 110.272C110.501 109.909 111.417 109.305 112.332 108.96C113.091 108.667 113.109 108.667 114.024 109.133C115.163 109.702 115.509 110.082 116.061 111.307C116.424 112.136 116.441 112.308 116.251 112.688C116.13 112.93 116.027 113.327 116.027 113.586C116.027 113.862 115.958 114.069 115.889 114.069C115.802 114.069 115.595 114.38 115.422 114.759C115.146 115.381 115.146 115.467 115.388 115.829C115.785 116.433 117.702 118.28 118.876 119.212C120.637 120.576 121 120.8 121.552 120.8C121.846 120.8 122.26 120.921 122.467 121.059C122.899 121.335 123.641 121.283 124.557 120.904C125.144 120.662 125.247 120.489 125.195 119.989C125.178 119.885 125.403 119.626 125.679 119.419C126.214 119.057 126.387 118.781 127.164 117.227C127.406 116.744 127.716 116.244 127.854 116.14C127.993 116.019 128.113 115.726 128.113 115.484C128.113 115.001 128.303 114.311 128.821 112.947C129.288 111.722 129.253 110.979 128.701 110.306C128.442 109.996 128.131 109.754 128.01 109.754C127.872 109.754 127.768 109.702 127.768 109.616C127.768 109.547 127.509 109.081 127.181 108.598C126.68 107.856 126.594 107.579 126.646 106.872C126.698 105.853 127.008 105.215 127.889 104.369C128.372 103.903 128.718 103.713 129.236 103.679C129.978 103.627 131.135 103.92 131.567 104.3ZM203.396 118.505C203.811 118.643 204.242 118.815 204.346 118.884C204.432 118.971 204.726 119.074 204.967 119.126C205.209 119.195 205.848 119.626 206.401 120.11C206.936 120.576 207.454 120.973 207.557 120.973C207.644 120.973 207.713 121.111 207.713 121.301C207.713 121.473 207.851 121.801 208.024 122.025C209.181 123.579 209.612 127.428 208.749 128.601C208.559 128.86 208.404 129.292 208.404 129.55C208.404 130.258 207.419 132.053 206.47 133.054C206.245 133.296 205.934 133.693 205.762 133.952C205.589 134.228 205.382 134.435 205.296 134.435C205.071 134.435 203.828 135.677 203.69 136.04C203.638 136.195 203.448 136.333 203.275 136.333C203.103 136.333 202.74 136.609 202.481 136.937C202.222 137.265 201.756 137.662 201.445 137.8C200.53 138.232 200.133 138.508 199.787 138.888C199.615 139.095 199.339 139.267 199.183 139.267C199.028 139.267 198.855 139.371 198.803 139.509C198.751 139.647 198.406 139.802 198.044 139.871C197.681 139.941 197.284 140.096 197.163 140.234C197.059 140.372 196.852 140.476 196.714 140.476C196.455 140.476 195.454 140.976 195.281 141.183C195.125 141.373 194.003 141.649 192.967 141.753C192.415 141.822 191.482 142.012 190.895 142.201C189.98 142.478 189.445 142.512 186.734 142.46C185.024 142.409 183.142 142.374 182.555 142.391C181.968 142.391 181.122 142.271 180.656 142.098C179.931 141.856 176.875 141.39 175.062 141.252C174.716 141.218 174.164 141.114 173.853 141.028C173.525 140.924 172.644 140.7 171.884 140.545C171.125 140.389 170.382 140.199 170.244 140.113C169.882 139.941 167.602 139.578 166.618 139.544C166.187 139.526 165.479 139.354 165.047 139.129C164.322 138.784 163.976 138.732 161.766 138.732C160.402 138.715 158.123 138.75 156.724 138.801C154.566 138.853 154.134 138.922 153.962 139.164C153.841 139.336 153.271 139.578 152.718 139.699C151.51 139.975 149.99 140.51 149.662 140.769C149.541 140.873 149.248 141.011 149.006 141.08C148.764 141.149 148.143 141.597 147.608 142.046C147.072 142.512 146.537 142.892 146.416 142.892C146.295 142.892 146.002 143.099 145.76 143.375C145.501 143.634 145.087 143.979 144.81 144.152C143.878 144.756 140.994 147.983 140.839 148.622C140.77 148.846 140.528 149.14 140.269 149.261C139.924 149.416 139.838 149.537 139.924 149.847C139.993 150.123 139.838 150.52 139.423 151.125C139.095 151.625 138.732 152.35 138.629 152.764C138.37 153.748 138.145 156.578 138.266 157.562C138.37 158.563 139.25 160.151 139.682 160.151C139.855 160.151 140.045 160.306 140.114 160.479C140.217 160.807 140.511 160.911 142.289 161.1C143.032 161.187 143.291 161.169 143.464 160.945C143.619 160.755 143.774 160.721 143.982 160.824C144.31 161.014 145.777 160.686 146.105 160.358C146.226 160.237 146.382 160.151 146.468 160.151C146.554 160.151 146.917 159.927 147.262 159.651C147.625 159.374 148.108 159.081 148.35 159.029C149.11 158.839 150.767 156.095 150.508 155.439C150.422 155.215 149.904 154.939 148.264 154.214C147.176 153.731 146.779 153.351 146.313 152.315C146.019 151.677 146.019 151.642 146.313 151.435C146.468 151.314 147.09 151.125 147.677 151.021C148.592 150.866 148.937 150.883 149.956 151.176C151.821 151.677 152.511 151.918 152.977 152.264C153.841 152.885 155.326 153.955 155.826 154.335C156.448 154.783 156.932 155.301 157.346 155.888C157.519 156.164 157.743 156.302 157.899 156.251C158.088 156.181 158.157 156.268 158.157 156.527C158.157 156.734 158.296 157.113 158.486 157.355C158.658 157.614 158.848 158.097 158.917 158.442C158.969 158.788 159.176 159.202 159.366 159.374C159.625 159.599 159.66 159.737 159.522 159.909C159.418 160.048 159.401 160.237 159.504 160.445C159.591 160.617 159.763 161.049 159.884 161.411C160.057 161.963 160.04 162.119 159.832 162.36C159.694 162.516 159.487 163.085 159.366 163.603C158.986 165.312 158.71 165.709 156.897 167.365C156.258 167.935 155.447 168.505 155.101 168.625C154.773 168.729 154.221 169.005 153.91 169.212C153.599 169.419 153.047 169.661 152.684 169.73C152.321 169.799 151.838 169.954 151.596 170.092C150.802 170.524 148.333 171.18 146.33 171.473C146.054 171.525 145.587 171.629 145.294 171.715C145.018 171.784 144.43 171.905 144.016 171.956C143.602 172.025 143.205 172.112 143.118 172.146C142.997 172.233 140.718 172.336 135.365 172.509C131.619 172.63 132.603 172.63 127.25 172.509C120.378 172.353 119.359 172.284 117.667 171.974C116.821 171.801 115.405 171.629 114.542 171.559C113.679 171.508 112.867 171.37 112.729 171.283C112.418 171.042 111.365 170.697 110.173 170.403C108.74 170.092 107.014 169.454 106.582 169.126C106.357 168.953 105.909 168.763 105.58 168.712C105.218 168.643 104.873 168.418 104.7 168.177C104.544 167.952 104.268 167.711 104.061 167.642C103.733 167.538 101.972 165.898 101.937 165.674C101.903 165.363 101.626 164.345 101.523 164.121C101.298 163.672 100.798 162.136 100.798 161.963C100.815 161.566 101.143 160.496 101.419 159.979C101.575 159.668 101.695 159.271 101.695 159.116C101.695 158.511 102.231 157.562 102.99 156.786C103.612 156.147 103.75 155.888 103.664 155.56C103.578 155.215 103.629 155.146 103.923 155.146C104.165 155.146 104.355 154.991 104.458 154.714C104.544 154.473 104.734 154.283 104.855 154.283C104.976 154.283 105.304 154.041 105.58 153.765C105.857 153.472 106.219 153.247 106.375 153.247C106.547 153.247 106.755 153.144 106.824 153.023C107.083 152.574 109.863 151.297 110.76 151.211C112.228 151.055 113.955 151.142 114.248 151.366C114.438 151.539 114.49 151.798 114.421 152.35C114.317 153.247 113.851 153.731 112.453 154.369C111.969 154.594 111.52 154.87 111.451 154.956C111.399 155.06 111.158 155.146 110.933 155.146C110.519 155.146 109.983 155.715 109.983 156.13C109.983 156.251 110.346 156.872 110.778 157.51C111.313 158.322 111.866 158.891 112.539 159.323C113.972 160.272 115.181 160.841 115.733 160.841C116.01 160.841 116.389 160.945 116.597 161.049C117.218 161.394 118.945 161.359 119.549 160.997C119.843 160.807 120.24 160.669 120.43 160.669C120.827 160.669 121.846 159.495 122.07 158.805C122.156 158.546 122.329 158.063 122.45 157.718C122.64 157.2 122.64 156.786 122.467 155.388C122.122 152.54 122.018 152.195 121.086 150.797C120.602 150.072 120.154 149.295 120.084 149.071C120.015 148.846 119.687 148.398 119.359 148.07C119.031 147.742 118.582 147.276 118.358 147.034C118.116 146.792 117.926 146.499 117.926 146.378C117.926 146.257 117.874 146.171 117.788 146.171C117.719 146.171 117.063 145.602 116.338 144.911C113.679 142.374 113.333 142.098 112.159 141.442C110.899 140.769 109.103 140.148 107.238 139.751C106.616 139.63 106.047 139.44 105.943 139.336C105.546 138.957 104.959 138.905 100.746 138.905C96.55 138.905 95.4795 139.009 95.4795 139.475C95.4795 139.544 95.1169 139.613 94.6679 139.613C94.2017 139.613 93.3557 139.733 92.7513 139.871C92.1643 140.01 91.6117 140.113 91.5427 140.096C91.2491 140.027 89.6606 140.355 89.2117 140.596C88.9354 140.734 88.6073 140.803 88.4519 140.752C88.3138 140.7 88.003 140.752 87.744 140.89C87.485 141.011 86.8634 141.166 86.3454 141.218C85.8447 141.287 85.3267 141.408 85.2231 141.494C85.1022 141.597 84.7741 141.666 84.4979 141.666C83.8072 141.649 81.1827 142.012 80.5265 142.219C80.233 142.305 79.7668 142.374 79.4905 142.374C79.2143 142.374 78.4027 142.512 77.6948 142.685C76.9869 142.84 75.8645 142.961 75.1911 142.944C74.535 142.926 73.2573 142.909 72.3767 142.909C70.909 142.909 68.8888 142.598 67.5938 142.201C67.3175 142.115 66.8513 141.994 66.5578 141.96C65.7635 141.822 60.9289 139.682 60.3073 139.181C59.9965 138.939 59.5821 138.663 59.3576 138.577C58.477 138.18 57.1647 137.248 56.5431 136.54C56.1805 136.143 55.8007 135.816 55.6971 135.816C55.5935 135.816 55.2654 135.47 54.9546 135.073C54.6438 134.676 54.1085 134.038 53.7805 133.658C53.4351 133.278 53.0207 132.761 52.8653 132.485C52.7099 132.226 52.52 132.019 52.4509 132.019C52.3819 132.019 52.3128 131.898 52.3128 131.76C52.3128 131.622 52.0711 131.052 51.7948 130.5C51.5013 129.93 51.2768 129.343 51.2768 129.188C51.2768 129.033 51.1559 128.653 51.0005 128.36C50.6034 127.583 50.5516 125.529 50.9315 124.683C51.1041 124.304 51.2941 123.734 51.3459 123.441C51.4495 122.785 52.1574 121.663 52.9689 120.852C53.297 120.524 54.333 119.868 55.2999 119.385L57.0611 118.505L60.2555 118.522C63.7088 118.556 64.1232 118.625 65.8671 119.54C67.024 120.144 67.9046 121.007 68.5953 122.215C69.0615 123.009 69.1651 123.717 68.9579 124.752C68.8197 125.408 68.6643 125.425 68.3881 124.804C68.2499 124.545 68.0945 124.2 68.0082 124.045C67.9219 123.872 67.8528 123.631 67.8528 123.51C67.8528 123.285 66.4197 121.991 65.5736 121.439C64.693 120.886 63.657 120.662 61.8958 120.662C60.9461 120.662 60.0828 120.731 59.9792 120.817C59.8756 120.904 59.254 121.128 58.5979 121.335C57.6827 121.611 57.2165 121.87 56.5949 122.491C56.1287 122.923 55.7661 123.389 55.7661 123.527C55.7661 123.665 55.6107 123.993 55.4035 124.269C54.9373 124.925 54.7647 127.1 55.0927 128.221C55.2136 128.653 55.3345 129.102 55.3517 129.24C55.4553 129.775 55.8179 130.448 56.0424 130.534C56.1805 130.586 56.2841 130.741 56.2841 130.879C56.2841 131.294 57.5446 133.02 57.9417 133.175C58.3907 133.347 59.5648 134.366 59.5648 134.573C59.5648 134.78 61.3605 136.454 62.4138 137.231C62.88 137.576 63.7088 138.077 64.2268 138.318C64.7448 138.577 65.4009 138.888 65.6599 139.026C65.9362 139.164 66.247 139.267 66.3679 139.267C66.4715 139.267 66.8686 139.423 67.2312 139.613C67.5938 139.785 68.2499 139.992 68.6989 140.061C69.1305 140.113 70.1665 140.355 70.9953 140.562C72.204 140.89 72.8083 140.942 74.2069 140.89C76.1926 140.821 78.8862 140.527 79.7668 140.303C80.3193 140.165 81.1827 140.061 83.1856 139.871C84.5497 139.751 85.2231 139.578 86.19 139.078C86.3627 138.991 86.9325 138.922 87.4505 138.922C87.9857 138.922 88.6246 138.819 88.8836 138.681C89.1426 138.56 90.0405 138.37 90.8865 138.249C91.7326 138.128 92.5787 137.956 92.7513 137.869C93.0621 137.697 98.1731 137.179 99.2781 137.196C99.6062 137.214 101.54 137.214 103.578 137.214C107.152 137.196 107.359 137.214 109.362 137.714C111.537 138.266 114.922 139.768 116.562 140.924C116.994 141.218 117.581 141.597 117.857 141.735C118.133 141.874 118.738 142.34 119.169 142.754C119.601 143.151 120.395 143.893 120.913 144.359C121.431 144.842 121.967 145.463 122.122 145.74C122.26 146.033 122.554 146.413 122.761 146.603C123.296 147.086 124.315 148.656 124.315 148.984C124.315 149.14 124.505 149.399 124.746 149.554C124.988 149.709 125.178 149.968 125.178 150.123C125.178 150.279 125.282 150.555 125.403 150.745C125.523 150.935 125.731 151.435 125.869 151.867C125.99 152.298 126.162 152.712 126.249 152.799C126.318 152.902 126.387 153.178 126.387 153.42C126.387 153.662 126.508 154.041 126.663 154.266C127.095 154.87 127.095 158.684 126.68 160.013C126.508 160.565 126.249 161.118 126.111 161.256C125.972 161.394 125.869 161.549 125.869 161.618C125.869 161.808 124.764 162.826 124.315 163.051C124.073 163.154 123.348 163.448 122.709 163.689C121.604 164.103 121.379 164.121 119.428 164.034C117.184 163.931 115.992 163.707 115.664 163.327C115.561 163.189 115.25 163.085 114.991 163.085C114.404 163.085 113.333 162.654 113.143 162.326C113.074 162.205 112.694 161.929 112.314 161.739C111.589 161.377 110.45 160.289 109.293 158.857C108.568 157.942 108.481 157.752 108.792 157.441C109.137 157.096 108.809 156.527 108.257 156.527C107.877 156.527 107.652 156.699 107.238 157.234C106.962 157.631 106.565 158.063 106.375 158.201C106.168 158.339 106.012 158.632 106.012 158.857C106.012 159.081 105.926 159.288 105.805 159.323C105.65 159.374 105.65 159.582 105.805 160.186C105.926 160.634 106.012 161.204 106.012 161.446C106.012 161.756 106.116 161.946 106.357 161.998C106.547 162.05 106.703 162.136 106.703 162.205C106.703 162.274 106.945 162.654 107.255 163.051C107.618 163.517 107.946 163.776 108.205 163.776C108.412 163.776 108.671 163.931 108.775 164.121C109.017 164.569 111.348 165.674 112.021 165.674C112.314 165.674 112.763 165.795 113.022 165.933C113.299 166.071 113.713 166.192 113.955 166.192C114.197 166.192 114.559 166.295 114.732 166.433C114.922 166.572 115.63 166.727 116.286 166.796C116.959 166.865 117.805 167.072 118.185 167.227C118.651 167.417 119.014 167.469 119.256 167.383C119.48 167.296 119.687 167.314 119.739 167.4C119.808 167.504 120.171 167.573 120.568 167.573C120.965 167.59 121.569 167.728 121.897 167.901C122.364 168.159 122.571 168.177 122.899 168.039C123.192 167.901 123.331 167.901 123.434 168.056C123.503 168.177 123.918 168.246 124.418 168.246C124.885 168.228 126.646 168.263 128.338 168.315C130.911 168.401 131.429 168.367 131.515 168.159C131.636 167.849 132.085 167.849 132.327 168.177C132.482 168.384 132.706 168.401 133.552 168.246C134.122 168.159 134.744 168.09 134.934 168.125C135.124 168.142 135.883 168.159 136.626 168.159C137.645 168.177 138.042 168.108 138.18 167.918C138.318 167.745 138.784 167.642 139.596 167.59C140.269 167.555 141.046 167.417 141.322 167.262C141.616 167.107 142.238 166.969 142.704 166.951C143.912 166.899 146.572 166.572 146.761 166.451C146.865 166.399 146.934 166.192 146.934 166.002C146.934 165.726 146.986 165.709 147.262 165.881C147.538 166.037 147.728 166.019 148.298 165.76C148.903 165.501 148.989 165.398 148.903 165.053C148.833 164.794 148.868 164.639 148.989 164.639C149.162 164.639 149.265 165.001 149.196 165.363C149.162 165.571 150.008 165.519 150.129 165.312C150.232 165.156 150.957 164.742 152.563 163.965C152.943 163.776 153.357 163.413 153.461 163.171C153.565 162.93 153.772 162.74 153.893 162.74C154.013 162.74 154.342 162.498 154.618 162.222C155.032 161.791 155.136 161.497 155.239 160.496C155.36 159.392 155.343 159.219 154.929 158.477C154.48 157.666 153.392 156.527 153.081 156.527C152.995 156.527 152.788 156.406 152.615 156.251C152.235 155.905 151.769 156.043 151.769 156.509C151.769 156.699 151.682 156.906 151.579 156.975C151.475 157.027 151.424 157.217 151.475 157.372C151.51 157.545 151.441 157.821 151.32 157.994C151.182 158.166 151.078 158.494 151.078 158.719C151.078 158.943 151.009 159.116 150.923 159.116C150.836 159.116 150.698 159.288 150.646 159.495C150.422 160.203 148.557 161.843 147.245 162.481C146.572 162.809 145.881 163.085 145.708 163.085C145.536 163.085 144.983 163.241 144.482 163.448C143.982 163.637 143.205 163.81 142.738 163.827C142.289 163.827 141.875 163.896 141.84 163.965C141.789 164.017 141.012 164.034 140.079 163.983C138.646 163.914 138.249 163.827 137.455 163.413C136.937 163.137 136.401 162.913 136.246 162.913C135.832 162.913 134.157 160.997 134.157 160.531C134.157 160.445 133.967 159.927 133.725 159.392C133.501 158.874 133.328 158.339 133.38 158.218C133.414 158.097 133.483 157.234 133.518 156.302C133.57 155.094 133.673 154.542 133.863 154.317C134.019 154.162 134.226 153.627 134.347 153.161C134.45 152.678 134.606 152.16 134.692 152.005C134.778 151.832 134.847 151.573 134.847 151.418C134.847 151.28 134.968 151.038 135.106 150.9C135.245 150.745 135.365 150.503 135.365 150.331C135.365 150.158 135.521 149.882 135.728 149.692C135.935 149.519 136.315 148.864 136.591 148.277C137.075 147.207 138.335 145.619 140.148 143.789C140.649 143.289 141.063 142.806 141.063 142.719C141.063 142.633 141.202 142.529 141.374 142.478C141.53 142.426 141.927 142.15 142.238 141.856C142.548 141.58 142.894 141.339 142.98 141.339C143.084 141.339 143.584 140.993 144.12 140.562C144.638 140.13 145.156 139.785 145.277 139.785C145.397 139.785 145.864 139.595 146.347 139.371C148.264 138.439 149.162 138.059 149.8 137.904C150.18 137.818 150.716 137.662 150.992 137.559C152.339 137.11 154.013 136.989 158.33 137.11C164.857 137.283 165.375 137.317 166.963 137.8C167.395 137.938 168.345 138.077 169.087 138.111C169.968 138.163 170.52 138.266 170.728 138.439C170.883 138.594 171.522 138.767 172.143 138.836C172.765 138.888 173.68 139.095 174.181 139.285C174.682 139.457 175.459 139.613 175.908 139.613C176.357 139.613 177.013 139.699 177.393 139.802C177.755 139.906 178.498 140.01 179.033 140.044C179.568 140.079 180.777 140.268 181.744 140.458C182.693 140.648 183.937 140.803 184.506 140.803C186.043 140.838 188.098 140.648 188.271 140.458C188.374 140.372 188.65 140.303 188.892 140.303C189.134 140.303 189.427 140.217 189.531 140.113C189.652 139.992 190.204 139.889 190.774 139.889C191.361 139.871 191.914 139.768 192.035 139.647C192.156 139.526 192.415 139.44 192.604 139.44C193.019 139.44 194.003 138.991 194.176 138.732C194.228 138.646 194.418 138.612 194.59 138.663C194.78 138.732 195.039 138.629 195.229 138.439C195.402 138.249 195.833 138.007 196.179 137.904C196.541 137.783 196.869 137.611 196.938 137.524C196.99 137.438 197.353 137.162 197.75 136.92C198.562 136.42 198.89 136.126 200.409 134.625C200.996 134.055 201.531 133.572 201.618 133.572C201.756 133.555 202.516 132.64 203.655 131.104C203.983 130.655 204.38 129.844 204.518 129.292C204.657 128.757 204.95 127.98 205.157 127.583C205.537 126.858 205.555 126.841 205.226 126.254C205.054 125.926 204.967 125.581 205.037 125.46C205.192 125.218 204.847 124.373 204.225 123.441C203.966 123.044 203.742 122.681 203.742 122.612C203.742 122.44 202.809 121.68 202.602 121.663C202.481 121.663 202.36 121.542 202.291 121.404C202.239 121.266 202.049 121.145 201.877 121.145C201.704 121.145 201.324 121.024 201.031 120.886C200.029 120.386 196.938 120.265 195.419 120.679C194.866 120.835 194.072 121.197 193.641 121.49C192.829 122.043 191.482 123.907 191.482 124.476C191.482 124.649 191.396 124.77 191.275 124.718C191.033 124.649 190.999 123.009 191.206 122.06C191.361 121.352 193.105 119.713 194.158 119.247C194.642 119.057 195.177 118.815 195.367 118.729C196.231 118.366 196.869 118.246 197.94 118.28C198.579 118.297 199.131 118.28 199.166 118.211C199.287 118.021 202.619 118.246 203.396 118.505ZM223.512 125.374C223.512 125.546 223.408 125.719 223.305 125.753C223.167 125.805 223.08 125.667 223.08 125.374C223.08 125.08 223.167 124.942 223.305 124.977C223.408 125.029 223.512 125.201 223.512 125.374ZM202.015 145.222C202.015 145.481 201.704 145.74 201.549 145.602C201.514 145.55 201.514 145.343 201.583 145.153C201.704 144.756 202.015 144.825 202.015 145.222ZM203.914 145.481C203.914 145.567 203.845 145.653 203.742 145.653C203.655 145.653 203.569 145.567 203.569 145.481C203.569 145.377 203.655 145.308 203.742 145.308C203.845 145.308 203.914 145.377 203.914 145.481ZM192.242 154.714C192.294 154.853 192.259 154.973 192.173 154.973C192.069 154.973 192 154.853 192 154.714C192 154.576 192.035 154.456 192.069 154.456C192.104 154.456 192.173 154.576 192.242 154.714ZM72.3421 156.009C72.3421 156.199 72.2731 156.354 72.1867 156.354C71.945 156.354 71.7896 156.043 71.9105 155.836C72.0831 155.543 72.3421 155.646 72.3421 156.009ZM187.338 157.735C187.338 157.821 187.269 157.907 187.166 157.907C187.079 157.907 186.993 157.821 186.993 157.735C186.993 157.631 187.079 157.562 187.166 157.562C187.269 157.562 187.338 157.631 187.338 157.735ZM175.735 165.467C175.787 165.622 175.7 165.691 175.493 165.64C175.338 165.622 175.165 165.484 175.113 165.363C175.062 165.208 175.148 165.139 175.355 165.191C175.51 165.208 175.683 165.346 175.735 165.467ZM170.935 169.557C170.935 169.695 170.866 169.816 170.762 169.816C170.676 169.816 170.589 169.695 170.589 169.557C170.589 169.419 170.676 169.299 170.762 169.299C170.866 169.299 170.935 169.419 170.935 169.557ZM171.108 170.766C171.108 170.904 171.038 171.024 170.935 171.024C170.849 171.024 170.762 170.904 170.762 170.766C170.762 170.627 170.849 170.507 170.935 170.507C171.038 170.507 171.108 170.627 171.108 170.766ZM101.695 178.791C101.695 178.877 101.575 178.964 101.419 178.964C101.281 178.964 101.212 178.877 101.264 178.791C101.316 178.688 101.436 178.619 101.54 178.619C101.626 178.619 101.695 178.688 101.695 178.791ZM155.567 180.793C155.567 180.931 155.481 181 155.395 180.949C155.291 180.879 155.257 180.759 155.308 180.672C155.464 180.431 155.567 180.483 155.567 180.793ZM154.186 181.829C154.186 182.105 153.737 182.157 153.582 181.898C153.513 181.794 153.513 181.587 153.565 181.432C153.651 181.225 153.72 181.207 153.927 181.38C154.065 181.501 154.186 181.708 154.186 181.829ZM153.323 182.07C153.323 182.157 153.254 182.243 153.15 182.243C153.064 182.243 152.977 182.157 152.977 182.07C152.977 181.967 153.064 181.898 153.15 181.898C153.254 181.898 153.323 181.967 153.323 182.07ZM151.683 182.243C151.734 182.329 151.7 182.416 151.613 182.416C151.51 182.416 151.423 182.329 151.423 182.243C151.423 182.139 151.458 182.07 151.493 182.07C151.544 182.07 151.631 182.139 151.683 182.243ZM152.373 182.761C152.425 182.847 152.39 182.933 152.304 182.933C152.2 182.933 152.114 182.847 152.114 182.761C152.114 182.657 152.149 182.588 152.183 182.588C152.235 182.588 152.321 182.657 152.373 182.761ZM148.315 183.641C148.315 183.727 148.246 183.796 148.143 183.796C148.056 183.796 147.97 183.675 147.97 183.52C147.97 183.382 148.056 183.313 148.143 183.365C148.246 183.417 148.315 183.537 148.315 183.641ZM146.209 187.11C146.157 187.231 146.019 187.334 145.898 187.334C145.777 187.334 145.639 187.231 145.605 187.11C145.553 186.989 145.674 186.903 145.898 186.903C146.123 186.903 146.243 186.989 146.209 187.11ZM135.193 194.048C135.193 194.1 135.124 194.186 135.02 194.238C134.934 194.29 134.847 194.255 134.847 194.169C134.847 194.066 134.934 193.979 135.02 193.979C135.124 193.979 135.193 194.014 135.193 194.048Z" fill="url(#paint2_linear_2447_89)"/>
<path d="M61.0173 60.0632C60.9655 60.1495 60.741 60.2185 60.4993 60.2185C60.2576 60.2185 59.895 60.3048 59.705 60.4084C59.2043 60.6845 58.5136 61.4439 58.6172 61.6165C58.669 61.6856 58.5309 61.8064 58.3237 61.8582C57.7712 62.0307 57.3222 62.4622 57.3222 62.8074C57.3222 62.98 57.2014 63.1699 57.046 63.2216C56.9078 63.2734 56.8215 63.3942 56.8906 63.4805C56.9424 63.5668 56.8388 63.7567 56.6834 63.8775C56.3035 64.1536 55.0776 66.0004 55.0776 66.2938C55.0776 66.4146 54.8186 67.0187 54.5078 67.64C53.7998 69.0725 53.5581 69.7802 53.42 70.833C53.3509 71.3162 53.1955 71.8685 53.0574 72.0929C52.8847 72.3863 52.7984 73.1802 52.7466 74.8026C52.6948 76.8219 52.7293 77.1844 53.0228 77.7194C53.1955 78.0646 53.3509 78.4443 53.3509 78.5824C53.3509 78.9448 54.3869 79.9631 55.0085 80.222C55.6819 80.4982 56.3553 80.2047 57.4086 79.1864C57.7884 78.824 58.3928 78.289 58.7381 77.9956C59.0834 77.7022 59.4288 77.3052 59.4806 77.1326C59.5496 76.9427 59.8086 76.563 60.1022 76.2869C60.3784 76.0107 60.6029 75.6656 60.6029 75.5275C60.6029 75.3894 60.7583 75.1478 60.9482 74.9752C61.4144 74.561 61.3972 73.4564 60.931 72.4036C60.6374 71.7304 60.5856 71.3335 60.6547 70.039C60.6892 69.1933 60.672 68.4684 60.6202 68.4167C60.4302 68.2096 60.6374 65.1547 60.8792 64.7922C61.0173 64.5851 61.0864 64.2917 61.0346 64.1364C60.9655 63.9983 61 63.8257 61.1036 63.7567C61.2072 63.7049 61.2936 63.377 61.2936 63.049C61.2936 62.6866 61.4317 62.3242 61.6389 62.117C61.8288 61.9272 61.9842 61.6165 61.9842 61.4439C61.9842 61.2713 62.1051 61.0815 62.2432 61.0124C62.3814 60.9607 62.5022 60.7536 62.5022 60.5637C62.5022 60.3739 62.5886 60.2185 62.6922 60.2185C62.7785 60.2185 62.8303 60.1495 62.7785 60.0804C62.6576 59.8733 61.1382 59.8733 61.0173 60.0632ZM59.5669 71.437C59.5669 71.5233 59.4978 71.6096 59.3942 71.6096C59.3079 71.6096 59.2216 71.5233 59.2216 71.437C59.2216 71.3335 59.3079 71.2644 59.3942 71.2644C59.4978 71.2644 59.5669 71.3335 59.5669 71.437Z" fill="#0E0C0C"/>
<path d="M64.9836 63.617C65.0526 63.8586 65.0181 64.0312 64.8627 64.1348C64.4828 64.3592 64.2238 64.9632 64.3447 65.3602C64.3965 65.6018 64.362 65.7399 64.2238 65.7399C64.0857 65.7399 64.0512 65.878 64.103 66.1196C64.172 66.344 64.103 66.6201 63.9648 66.7754C63.6713 67.0861 63.4641 68.9501 63.6886 69.0882C63.7749 69.14 63.9648 69.0364 64.1202 68.8638C64.3102 68.6567 64.3447 68.5014 64.2411 68.4323C64.1375 68.3633 64.2756 68.0181 64.5692 67.5694C64.8627 67.1379 65.0354 66.7064 64.9836 66.4993C64.9318 66.3267 65.0526 65.878 65.2426 65.4983C65.5016 65.015 65.5534 64.7389 65.4325 64.5145C65.3289 64.3592 65.3116 64.1003 65.3462 63.9622C65.398 63.8414 65.3116 63.617 65.1562 63.4789C64.8972 63.2718 64.88 63.2718 64.9836 63.617Z" fill="#0E0C0C"/>
</g>
<defs>
<filter id="filter0_d_2447_89" x="13.6953" y="16.6016" width="234.758" height="94.7266" filterUnits="userSpaceOnUse" color-interpolation-filters="sRGB">
<feFlood flood-opacity="0" result="BackgroundImageFix"/>
<feColorMatrix in="SourceAlpha" type="matrix" values="0 0 0 0 0 0 0 0 0 0 0 0 0 0 0 0 0 0 127 0" result="hardAlpha"/>
<feOffset dy="4"/>
<feGaussianBlur stdDeviation="2"/>
<feComposite in2="hardAlpha" operator="out"/>
<feColorMatrix type="matrix" values="0 0 0 0 0 0 0 0 0 0 0 0 0 0 0 0 0 0 0.25 0"/>
<feBlend mode="normal" in2="BackgroundImageFix" result="effect1_dropShadow_2447_89"/>
<feBlend mode="normal" in="SourceGraphic" in2="effect1_dropShadow_2447_89" result="shape"/>
</filter>
<filter id="filter1_d_2447_89" x="0" y="0" width="258.898" height="204.984" filterUnits="userSpaceOnUse" color-interpolation-filters="sRGB">
<feFlood flood-opacity="0" result="BackgroundImageFix"/>
<feColorMatrix in="SourceAlpha" type="matrix" values="0 0 0 0 0 0 0 0 0 0 0 0 0 0 0 0 0 0 127 0" result="hardAlpha"/>
<feOffset dy="4"/>
<feGaussianBlur stdDeviation="2"/>
<feComposite in2="hardAlpha" operator="out"/>
<feColorMatrix type="matrix" values="0 0 0 0 0 0 0 0 0 0 0 0 0 0 0 0 0 0 0.25 0"/>
<feBlend mode="normal" in2="BackgroundImageFix" result="effect1_dropShadow_2447_89"/>
<feBlend mode="normal" in="SourceGraphic" in2="effect1_dropShadow_2447_89" result="shape"/>
</filter>
<linearGradient id="paint0_linear_2447_89" x1="130.296" y1="119.704" x2="130.296" y2="156.79" gradientUnits="userSpaceOnUse">
<stop stop-color="#510C27"/>
<stop offset="1" stop-color="#700305"/>
</linearGradient>
<radialGradient id="paint1_radial_2447_89" cx="0" cy="0" r="1" gradientTransform="matrix(-2.4605 32.0706 -83.8546 -5.92173 131.137 44.9285)" gradientUnits="userSpaceOnUse">
<stop stop-color="#D01660"/>
<stop offset="1" stop-color="#510C27"/>
</radialGradient>
<linearGradient id="paint2_linear_2447_89" x1="110.286" y1="238.271" x2="130.73" y2="-28.7741" gradientUnits="userSpaceOnUse">
<stop offset="0.795034" stop-color="#0E0C0C"/>
<stop offset="1" stop-color="#746160"/>
</linearGradient>
</defs>
</svg>
