<?xml version="1.0" encoding="UTF-8"?>
<svg xmlns="http://www.w3.org/2000/svg" xmlns:xlink="http://www.w3.org/1999/xlink" version="1.1" width="4252px" height="188px" style="shape-rendering:geometricPrecision; text-rendering:geometricPrecision; image-rendering:optimizeQuality; fill-rule:evenodd; clip-rule:evenodd">
  <g>
    <path style="opacity:0.973" d="M 287.5,-0.5 C 321.167,-0.5 354.833,-0.5 388.5,-0.5C 455.074,3.44489 521.408,10.9449 587.5,22C 691.655,39.8036 795.655,58.4703 899.5,78C 988.402,94.7568 1078.07,104.257 1168.5,106.5C 1186.85,106.053 1205.19,105.219 1223.5,104C 1209.28,95.9872 1197.78,85.1539 1189,71.5C 1178.66,49.0506 1183.83,31.2173 1204.5,18C 1219.31,13.4506 1233.31,15.1173 1246.5,23C 1249.43,25.4233 1251.77,28.2566 1253.5,31.5C 1253.17,33.8333 1251.83,35.1667 1249.5,35.5C 1236.53,30.5386 1223.53,30.3719 1210.5,35C 1202.94,42.0636 1200.78,50.5636 1204,60.5C 1221.26,84.3939 1244.76,97.8939 1274.5,101C 1308.29,103.23 1341.95,101.897 1375.5,97C 1397.67,91.3726 1420.01,86.5393 1442.5,82.5C 1443.48,80.0891 1444.15,77.5891 1444.5,75C 1443.42,67.0126 1442.42,59.0126 1441.5,51C 1441.78,45.9411 1442.94,41.1078 1445,36.5C 1449.67,29.3507 1455.17,22.8507 1461.5,17C 1481.7,7.83662 1500.03,10.8366 1516.5,26C 1505.74,30.7907 1495.91,36.9574 1487,44.5C 1479.54,53.0843 1475.71,63.0843 1475.5,74.5C 1565.26,53.8113 1654.92,32.6446 1744.5,11C 1822.33,-2.21565 1899.67,0.11768 1976.5,18C 2006.25,26.2121 2034.92,37.2121 2062.5,51C 2081.84,54.7926 2101,59.2926 2120,64.5C 2121.47,63.3722 2123.13,62.7055 2125,62.5C 2127.81,63.3863 2130.64,63.553 2133.5,63C 2147.43,59.3515 2161.43,56.0182 2175.5,53C 2212.5,36.8886 2250.5,23.5552 2289.5,13C 2343.03,1.26377 2397.03,-1.4029 2451.5,5C 2499.18,10.8702 2546.18,20.2036 2592.5,33C 2650.21,49.4702 2708.38,63.9702 2767,76.5C 2768.51,74.9826 2769.34,73.1493 2769.5,71C 2768.52,64.728 2766.35,58.8947 2763,53.5C 2752.75,43.2498 2740.92,35.4165 2727.5,30C 2746.67,14.0417 2767,12.3751 2788.5,25C 2802.06,38.1406 2806.56,53.9739 2802,72.5C 2801.14,76.5962 2799.98,80.5962 2798.5,84.5C 2798.83,84.8333 2799.17,85.1667 2799.5,85.5C 2830.1,91.1003 2860.76,96.6003 2891.5,102C 2920.42,107.015 2949.42,107.681 2978.5,104C 2994.89,101.133 3010.23,95.4662 3024.5,87C 3031.87,80.2954 3037.71,72.4621 3042,63.5C 3044.93,49.5271 3039.43,41.0271 3025.5,38C 3015.16,37.4649 3005,38.6316 2995,41.5C 2989.55,39.7758 2989.05,36.9424 2993.5,33C 3005.08,24.3603 3018.08,20.3603 3032.5,21C 3054.08,26.99 3063.58,41.1567 3061,63.5C 3058.43,73.3042 3053.76,81.9708 3047,89.5C 3039.07,96.7667 3030.57,103.267 3021.5,109C 3022.5,110 3023.5,111 3024.5,112C 3115.57,112.866 3206.23,106.866 3296.5,94C 3329.24,89.0994 3361.9,83.7661 3394.5,78C 3470.86,63.4618 3547.19,48.7952 3623.5,34C 3720.45,15.0048 3818.12,3.50476 3916.5,-0.5C 3933.83,-0.5 3951.17,-0.5 3968.5,-0.5C 4011.89,0.894574 4055.23,4.72791 4098.5,11C 4132.86,17.5387 4167.19,24.2054 4201.5,31C 4218.46,34.5722 4235.13,39.0722 4251.5,44.5C 4251.5,46.5 4251.5,48.5 4251.5,50.5C 4250.54,52.2646 4250.21,54.2646 4250.5,56.5C 4164.59,38.9656 4077.93,26.799 3990.5,20C 3963.52,18.4651 3936.52,17.7984 3909.5,18C 3814.73,23.9291 3720.73,35.9291 3627.5,54C 3541.23,70.6566 3454.89,86.9899 3368.5,103C 3276.88,119.827 3184.55,130.16 3091.5,134C 3023.03,137.036 2955.03,132.703 2887.5,121C 2854.7,115.922 2822.03,110.089 2789.5,103.5C 2788.5,103.667 2787.5,103.833 2786.5,104C 2756.7,127.434 2722.7,138.601 2684.5,137.5C 2645.79,137.057 2608.79,128.891 2573.5,113C 2545.14,97.6538 2516.14,83.6538 2486.5,71C 2480.3,68.6992 2473.96,66.8658 2467.5,65.5C 2466.5,65.8333 2465.5,66.1667 2464.5,66.5C 2473.74,78.9237 2480.58,92.5903 2485,107.5C 2486.97,117.842 2486.97,128.175 2485,138.5C 2481.91,152.854 2475.08,165.021 2464.5,175C 2442.84,188.917 2422.34,187.417 2403,170.5C 2396.82,163.625 2394.49,155.625 2396,146.5C 2397.51,140.788 2399.18,135.121 2401,129.5C 2402.39,127.773 2404.06,126.439 2406,125.5C 2411.77,131.267 2417.6,137.1 2423.5,143C 2435.99,149.085 2446.49,146.585 2455,135.5C 2462.92,122.219 2463.59,108.552 2457,94.5C 2454.84,89.5076 2452.17,84.8409 2449,80.5C 2425.5,59.8764 2398,48.3764 2366.5,46C 2355.86,44.9013 2345.19,44.4013 2334.5,44.5C 2334.5,45.5 2334.5,46.5 2334.5,47.5C 2320.59,47.5964 2306.92,49.0964 2293.5,52C 2322.27,70.366 2335.43,96.5327 2333,130.5C 2327.62,158.052 2311.12,173.719 2283.5,177.5C 2271.12,177.543 2260.62,173.21 2252,164.5C 2248.15,158.022 2246.65,151.022 2247.5,143.5C 2240.1,143.277 2232.77,142.444 2225.5,141C 2215.12,138.487 2204.79,136.154 2194.5,134C 2169.54,150.636 2145.54,168.469 2122.5,187.5C 2121.83,187.5 2121.17,187.5 2120.5,187.5C 2097.1,169.288 2073.1,151.788 2048.5,135C 2047.17,134.333 2045.83,134.333 2044.5,135C 2028.87,141.825 2012.54,145.325 1995.5,145.5C 1994.58,161.89 1986.24,172.056 1970.5,176C 1945.58,179.12 1927.74,169.287 1917,146.5C 1909.58,129.804 1907.58,112.471 1911,94.5C 1919.67,76.1604 1932.84,61.9937 1950.5,52C 1940.56,50.4147 1930.56,49.5814 1920.5,49.5C 1920.33,48.1779 1920.66,47.0113 1921.5,46C 1926.49,45.2514 1931.49,44.5847 1936.5,44C 1908.67,42.4 1881.01,43.7333 1853.5,48C 1827.49,52.2404 1806.66,64.7404 1791,85.5C 1779.02,102.32 1778.69,119.32 1790,136.5C 1800.57,147.754 1812.07,148.92 1824.5,140C 1829.07,135.599 1833.4,131.099 1837.5,126.5C 1839.26,127.128 1840.76,128.128 1842,129.5C 1853.5,156.666 1845,174.166 1816.5,182C 1785.66,185.157 1766.49,171.657 1759,141.5C 1754.3,122.755 1756.3,104.755 1765,87.5C 1769.38,79.1247 1774.55,71.2913 1780.5,64C 1766.18,67.4404 1752.18,72.107 1738.5,78C 1703.83,94.8898 1668.49,110.223 1632.5,124C 1587.45,139.243 1542.45,139.243 1497.5,124C 1483.04,118.356 1470.54,109.856 1460,98.5C 1331.95,127.705 1202.45,136.538 1071.5,125C 1045.77,122.575 1020.1,119.575 994.5,116C 938.124,107.613 881.79,98.9462 825.5,90C 736.095,69.5856 646.095,52.2522 555.5,38C 467.696,24.0995 379.362,17.4329 290.5,18C 232.124,20.3381 174.124,26.3381 116.5,36C 78.5446,42.1912 40.7113,49.0245 3,56.5C 1.40088,55.9293 0.234212,54.9293 -0.5,53.5C -0.5,50.5 -0.5,47.5 -0.5,44.5C 94.0288,19.2357 190.029,4.2357 287.5,-0.5 Z M 1992.5,58.5 C 2018.36,63.729 2043.69,70.8957 2068.5,80C 2023.61,93.7225 1978.28,104.889 1932.5,113.5C 1929.87,103.841 1931.71,95.1741 1938,87.5C 1943.5,82 1949,76.5 1954.5,71C 1966.47,64.287 1979.14,60.1203 1992.5,58.5 Z M 2246.5,60.5 C 2272.65,61.8212 2293.15,73.1545 2308,94.5C 2311.62,101.219 2312.62,108.219 2311,115.5C 2268.37,104.718 2225.87,93.385 2183.5,81.5C 2204.26,73.4679 2225.26,66.4679 2246.5,60.5 Z"></path>
  </g>
</svg>
