<svg width="358" height="145" viewBox="0 0 358 145" fill="none" xmlns="http://www.w3.org/2000/svg">
<path d="M67.7942 59.7094C62.2409 59.7094 57.4109 58.706 53.3042 56.6994C49.1975 54.646 46.0475 51.7527 43.8542 48.0194C41.6608 44.286 40.5642 39.946 40.5642 34.9994C40.5642 28.1394 41.8475 22.0494 44.4142 16.7294C47.0275 11.4094 50.5509 7.30271 54.9842 4.40937C59.4175 1.46937 64.3409 -0.000628471 69.7542 -0.000628471C74.7942 -0.000628471 78.6209 1.30604 81.2342 3.91937C83.8475 6.48604 85.1542 9.89271 85.1542 14.1394C85.1542 16.986 84.6409 19.2727 83.6142 20.9994C82.6342 22.726 81.2109 23.5894 79.3442 23.5894C78.0375 23.5894 77.0109 23.286 76.2642 22.6794C75.5175 22.0727 75.1442 21.186 75.1442 20.0194C75.1442 19.5994 75.2375 18.8294 75.4242 17.7094C75.7042 16.3094 75.8442 15.1894 75.8442 14.3494C75.8442 10.1027 73.5809 7.97937 69.0542 7.97937C65.9742 7.97937 63.0342 8.98271 60.2342 10.9894C57.4342 12.996 55.1709 15.9594 53.4442 19.8794C51.7175 23.7527 50.8542 28.3727 50.8542 33.7394C50.8542 39.3394 52.4175 43.6794 55.5442 46.7594C58.6709 49.7927 63.2909 51.3094 69.4042 51.3094C72.4375 51.3094 75.4942 50.936 78.5742 50.1894C81.7009 49.396 85.1542 48.206 88.9342 46.6194C89.6342 46.3394 90.2175 46.1994 90.6842 46.1994C91.4309 46.1994 91.9909 46.4794 92.3642 47.0394C92.7375 47.5994 92.9242 48.3227 92.9242 49.2094C92.9242 52.056 91.3842 54.156 88.3042 55.5094C84.9909 56.956 81.5375 58.0294 77.9442 58.7294C74.3975 59.3827 71.0142 59.7094 67.7942 59.7094ZM128.172 43.8894C128.779 43.8894 129.246 44.1927 129.572 44.7994C129.946 45.3594 130.132 46.0827 130.132 46.9694C130.132 48.0427 129.969 48.8827 129.642 49.4894C129.316 50.096 128.802 50.6327 128.102 51.0994C124.089 53.806 121.149 55.8127 119.282 57.1194L114.802 60.1294C113.029 69.7894 110.696 77.3727 107.802 82.8794C104.956 88.4327 101.316 91.2094 96.8825 91.2094C94.5025 91.2094 92.5658 90.4627 91.0725 88.9694C89.5791 87.5227 88.8325 85.6094 88.8325 83.2294C88.8325 79.916 90.1391 76.346 92.7525 72.5194C95.3658 68.7394 100.266 64.0727 107.452 58.5194L107.872 55.7894C107.079 57.0494 106.029 58.0294 104.722 58.7294C103.462 59.3827 102.202 59.7094 100.942 59.7094C98.0491 59.7094 95.7391 58.6594 94.0125 56.5594C92.2858 54.4594 91.4225 51.706 91.4225 48.2994C91.4225 44.566 92.2858 41.0427 94.0125 37.7294C95.7391 34.3694 98.0258 31.686 100.872 29.6794C103.766 27.626 106.822 26.5994 110.042 26.5994C111.069 26.5994 111.746 26.8094 112.072 27.2294C112.446 27.6027 112.749 28.3027 112.982 29.3294C113.869 29.1427 114.896 29.0494 116.062 29.0494C117.229 29.0494 118.046 29.236 118.512 29.6094C119.026 29.936 119.282 30.6127 119.282 31.6394C119.282 32.1994 119.259 32.6427 119.212 32.9694C119.026 34.416 118.442 38.0794 117.462 43.9594C117.276 45.0794 117.066 46.316 116.832 47.6694C116.646 48.976 116.436 50.376 116.202 51.8694C119.796 49.0694 123.249 46.596 126.562 44.4494C127.169 44.076 127.706 43.8894 128.172 43.8894ZM103.462 52.6394C104.536 52.6394 105.562 51.986 106.542 50.6794C107.522 49.3727 108.222 47.506 108.642 45.0794L110.882 33.1094C108.969 33.156 107.196 33.9027 105.562 35.3494C103.929 36.7494 102.622 38.616 101.642 40.9494C100.662 43.2827 100.172 45.756 100.172 48.3694C100.172 49.816 100.452 50.8894 101.012 51.5894C101.619 52.2894 102.436 52.6394 103.462 52.6394ZM97.6525 84.4194C98.8191 84.4194 100.126 83.0194 101.572 80.2194C103.066 77.4194 104.489 72.9627 105.842 66.8494C102.249 69.9294 99.6591 72.706 98.0725 75.1794C96.4858 77.6527 95.6925 79.8227 95.6925 81.6894C95.6925 82.4827 95.8325 83.136 96.1125 83.6494C96.4391 84.1627 96.9525 84.4194 97.6525 84.4194ZM161.949 43.7494C162.555 43.7494 163.022 44.0294 163.349 44.5894C163.722 45.1494 163.909 45.9194 163.909 46.8994C163.909 48.766 163.465 50.2127 162.579 51.2394C160.852 53.3394 158.402 55.276 155.229 57.0494C152.102 58.8227 148.742 59.7094 145.149 59.7094C140.249 59.7094 136.445 58.3794 133.739 55.7194C131.032 53.0594 129.679 49.4194 129.679 44.7994C129.679 41.5794 130.355 38.5927 131.709 35.8394C133.062 33.0394 134.929 30.8227 137.309 29.1894C139.735 27.556 142.465 26.7394 145.499 26.7394C148.205 26.7394 150.375 27.556 152.009 29.1894C153.642 30.776 154.459 32.946 154.459 35.6994C154.459 38.9194 153.292 41.696 150.959 44.0294C148.672 46.316 144.775 48.136 139.269 49.4894C140.435 51.636 142.652 52.7094 145.919 52.7094C148.019 52.7094 150.399 51.986 153.059 50.5394C155.765 49.046 158.099 47.1094 160.059 44.7294C160.619 44.076 161.249 43.7494 161.949 43.7494ZM144.309 33.5994C142.582 33.5994 141.112 34.6027 139.899 36.6094C138.732 38.616 138.149 41.0427 138.149 43.8894V44.0294C140.902 43.376 143.072 42.396 144.659 41.0894C146.245 39.7827 147.039 38.266 147.039 36.5394C147.039 35.6527 146.782 34.9527 146.269 34.4394C145.802 33.8794 145.149 33.5994 144.309 33.5994ZM204.409 43.7494C205.016 43.7494 205.482 44.0294 205.809 44.5894C206.182 45.1494 206.369 45.9194 206.369 46.8994C206.369 48.766 205.926 50.2127 205.039 51.2394C203.499 53.0594 202.146 54.5294 200.979 55.6494C199.859 56.7227 198.459 57.6794 196.779 58.5194C195.146 59.3127 193.279 59.7094 191.179 59.7094C188.426 59.7094 186.466 58.636 185.299 56.4894C184.132 54.296 183.549 51.006 183.549 46.6194C183.549 44.426 183.642 42.3027 183.829 40.2494H183.689C181.822 46.456 179.512 51.2394 176.759 54.5994C174.052 57.9594 170.949 59.6394 167.449 59.6394C165.069 59.6394 163.202 58.776 161.849 57.0494C160.496 55.3227 159.819 53.1527 159.819 50.5394C159.819 48.206 160.356 46.316 161.429 44.8694C162.502 43.4227 164.019 42.6994 165.979 42.6994C166.866 42.6994 167.519 42.886 167.939 43.2594C168.406 43.6327 168.592 44.146 168.499 44.7994C168.126 47.0394 167.939 48.5794 167.939 49.4194C167.939 51.0994 168.359 51.9394 169.199 51.9394C169.666 51.9394 170.179 51.5894 170.739 50.8894C171.346 50.1894 172.349 48.486 173.749 45.7794C174.822 43.726 175.919 41.416 177.039 38.8494C178.206 36.2827 179.162 33.996 179.909 31.9894C180.656 30.0294 181.519 28.6994 182.499 27.9994C183.479 27.2527 184.879 26.8794 186.699 26.8794C188.472 26.8794 189.779 27.2294 190.619 27.9294C191.459 28.6294 191.879 29.7727 191.879 31.3594L191.739 36.5394C191.552 40.4594 191.459 43.2827 191.459 45.0094C191.459 49.9094 192.462 52.3594 194.469 52.3594C195.309 52.3594 196.126 51.9627 196.919 51.1694C197.759 50.376 199.042 48.9294 200.769 46.8294L202.519 44.7294C203.079 44.076 203.709 43.7494 204.409 43.7494ZM214.353 59.7094C211.46 59.7094 209.15 58.6594 207.423 56.5594C205.697 54.4594 204.833 51.706 204.833 48.2994C204.833 44.566 205.697 41.0427 207.423 37.7294C209.15 34.3694 211.437 31.686 214.283 29.6794C217.177 27.626 220.233 26.5994 223.453 26.5994C224.48 26.5994 225.157 26.8094 225.483 27.2294C225.857 27.6027 226.16 28.3027 226.393 29.3294C227.373 29.1427 228.4 29.0494 229.473 29.0494C231.76 29.0494 232.903 29.866 232.903 31.4994C232.903 32.4794 232.553 34.8127 231.853 38.4994C230.78 43.866 230.243 47.5994 230.243 49.6994C230.243 50.3994 230.407 50.9594 230.733 51.3794C231.107 51.7994 231.573 52.0094 232.133 52.0094C233.02 52.0094 234.093 51.4494 235.353 50.3294C236.613 49.1627 238.317 47.296 240.463 44.7294C241.023 44.076 241.653 43.7494 242.353 43.7494C242.96 43.7494 243.427 44.0294 243.753 44.5894C244.127 45.1494 244.313 45.9194 244.313 46.8994C244.313 48.766 243.87 50.2127 242.983 51.2394C241.07 53.6194 239.04 55.626 236.893 57.2594C234.747 58.8927 232.67 59.7094 230.663 59.7094C229.123 59.7094 227.7 59.196 226.393 58.1694C225.133 57.096 224.177 55.6494 223.523 53.8294C221.097 57.7494 218.04 59.7094 214.353 59.7094ZM216.873 52.6394C217.9 52.6394 218.88 52.0327 219.813 50.8194C220.747 49.606 221.423 47.996 221.843 45.9894L224.433 33.1094C222.473 33.156 220.653 33.9027 218.973 35.3494C217.34 36.7494 216.033 38.616 215.053 40.9494C214.073 43.2827 213.583 45.756 213.583 48.3694C213.583 49.816 213.863 50.8894 214.423 51.5894C215.03 52.2894 215.847 52.6394 216.873 52.6394ZM280.484 43.7494C281.091 43.7494 281.558 44.0294 281.884 44.5894C282.258 45.1494 282.444 45.9194 282.444 46.8994C282.444 48.766 282.001 50.2127 281.114 51.2394C278.968 53.7127 276.751 55.7427 274.464 57.3294C272.224 58.916 269.658 59.7094 266.764 59.7094C264.338 59.7094 262.634 58.9627 261.654 57.4694C260.674 55.976 260.184 53.736 260.184 50.7494C260.184 49.4894 260.301 47.9727 260.534 46.1994C256.428 46.1994 253.581 46.1527 251.994 46.0594C251.901 47.366 251.854 48.276 251.854 48.7894V50.2594C251.808 53.1527 251.738 55.1827 251.644 56.3494C251.551 57.516 251.271 58.3794 250.804 58.9394C250.338 59.4527 249.568 59.7094 248.494 59.7094C246.721 59.7094 245.461 58.776 244.714 56.9094C244.014 55.0427 243.664 52.056 243.664 47.9494C243.664 41.8827 244.528 36.1194 246.254 30.6594C246.674 29.306 247.351 28.326 248.284 27.7194C249.218 27.066 250.571 26.7394 252.344 26.7394C253.278 26.7394 253.931 26.856 254.304 27.0894C254.678 27.3227 254.864 27.766 254.864 28.4194C254.864 29.166 254.514 30.846 253.814 33.4594C253.441 34.9994 253.091 36.866 252.764 39.0594H261.724C262.191 36.866 262.868 34.066 263.754 30.6594C264.128 29.2594 264.688 28.256 265.434 27.6494C266.228 27.0427 267.394 26.7394 268.934 26.7394C270.008 26.7394 270.754 26.8794 271.174 27.1594C271.594 27.3927 271.804 27.8594 271.804 28.5594C271.804 29.726 271.221 32.9227 270.054 38.1494C268.748 44.1227 268.094 47.8094 268.094 49.2094C268.094 50.096 268.281 50.796 268.654 51.3094C269.028 51.776 269.518 52.0094 270.124 52.0094C271.058 52.0094 272.154 51.4494 273.414 50.3294C274.721 49.1627 276.448 47.296 278.594 44.7294C279.154 44.076 279.784 43.7494 280.484 43.7494ZM317.347 37.8694C317.954 37.8694 318.42 38.1727 318.747 38.7794C319.074 39.386 319.237 40.156 319.237 41.0894C319.237 43.3294 318.56 44.6594 317.207 45.0794C314.407 46.0594 311.327 46.6194 307.967 46.7594C307.08 50.6794 305.33 53.8294 302.717 56.2094C300.104 58.5427 297.14 59.7094 293.827 59.7094C291.027 59.7094 288.624 59.0327 286.617 57.6794C284.657 56.326 283.164 54.5294 282.137 52.2894C281.11 50.0494 280.597 47.6227 280.597 45.0094C280.597 41.4627 281.274 38.3127 282.627 35.5594C283.98 32.7594 285.847 30.5894 288.227 29.0494C290.607 27.4627 293.244 26.6694 296.137 26.6694C299.684 26.6694 302.53 27.906 304.677 30.3794C306.87 32.806 308.154 35.816 308.527 39.4094C310.72 39.2694 313.334 38.8027 316.367 38.0094C316.74 37.916 317.067 37.8694 317.347 37.8694ZM294.387 52.2894C295.88 52.2894 297.164 51.6827 298.237 50.4694C299.357 49.256 300.104 47.506 300.477 45.2194C299.03 44.2394 297.91 42.956 297.117 41.3694C296.37 39.7827 295.997 38.1027 295.997 36.3294C295.997 35.5827 296.067 34.836 296.207 34.0894H295.857C293.99 34.0894 292.427 34.9994 291.167 36.8194C289.954 38.5927 289.347 41.1127 289.347 44.3794C289.347 46.946 289.837 48.906 290.817 50.2594C291.844 51.6127 293.034 52.2894 294.387 52.2894ZM14.4864 144.709C9.91311 144.709 6.34311 143.426 3.77644 140.859C1.25644 138.246 -0.00356068 134.816 -0.00356068 130.569C-0.00356068 126.789 0.743106 123.476 2.23644 120.629C3.72977 117.783 5.66644 115.589 8.04644 114.049C10.4264 112.509 12.9231 111.739 15.5364 111.739C18.1031 111.739 20.0864 112.509 21.4864 114.049C22.9331 115.543 23.6564 117.479 23.6564 119.859C23.6564 121.819 23.2131 123.476 22.3264 124.829C21.4864 126.183 20.3664 126.859 18.9664 126.859C18.0798 126.859 17.3564 126.649 16.7964 126.229C16.2831 125.809 16.0264 125.226 16.0264 124.479C16.0264 124.153 16.0731 123.779 16.1664 123.359C16.2598 122.939 16.3298 122.636 16.3764 122.449C16.6098 121.749 16.7264 121.096 16.7264 120.489C16.7264 119.883 16.5631 119.416 16.2364 119.089C15.9564 118.763 15.5364 118.599 14.9764 118.599C13.9031 118.599 12.8998 119.089 11.9664 120.069C11.0331 121.003 10.2864 122.286 9.72644 123.919C9.16644 125.553 8.88644 127.349 8.88644 129.309C8.88644 134.723 11.2431 137.429 15.9564 137.429C17.8698 137.429 19.9231 136.799 22.1164 135.539C24.3564 134.233 26.5498 132.296 28.6964 129.729C29.2564 129.076 29.8864 128.749 30.5864 128.749C31.1931 128.749 31.6598 129.029 31.9864 129.589C32.3598 130.149 32.5464 130.919 32.5464 131.899C32.5464 133.673 32.1031 135.119 31.2164 136.239C29.0231 138.946 26.3864 141.046 23.3064 142.539C20.2731 143.986 17.3331 144.709 14.4864 144.709ZM96.5133 128.749C97.12 128.749 97.5866 129.029 97.9133 129.589C98.2866 130.149 98.4733 130.919 98.4733 131.899C98.4733 133.766 98.03 135.213 97.1433 136.239C95.6033 138.059 94.25 139.529 93.0833 140.649C91.9633 141.723 90.5633 142.679 88.8833 143.519C87.25 144.313 85.3833 144.709 83.2833 144.709C80.53 144.709 78.57 143.636 77.4033 141.489C76.2366 139.296 75.6533 136.006 75.6533 131.619C75.6533 129.426 75.7466 127.303 75.9333 125.249H75.7933C73.9266 131.456 71.6166 136.239 68.8633 139.599C66.1566 142.959 63.0533 144.639 59.5533 144.639C57.1733 144.639 55.3066 143.776 53.9533 142.049C52.6 140.323 51.9233 138.153 51.9233 135.539C51.9233 133.206 52.46 131.316 53.5333 129.869C54.6066 128.423 56.1233 127.699 58.0833 127.699C58.97 127.699 59.6233 127.886 60.0433 128.259C60.51 128.633 60.6966 129.146 60.6033 129.799C60.23 132.039 60.0433 133.579 60.0433 134.419C60.0433 136.099 60.4633 136.939 61.3033 136.939C61.77 136.939 62.2833 136.589 62.8433 135.889C63.45 135.189 64.4533 133.486 65.8533 130.779C66.9266 128.726 68.0233 126.416 69.1433 123.849C70.31 121.283 71.2666 118.996 72.0133 116.989C72.76 115.029 73.6233 113.699 74.6033 112.999C75.5833 112.253 76.9833 111.879 78.8033 111.879C80.5766 111.879 81.8833 112.229 82.7233 112.929C83.5633 113.629 83.9833 114.773 83.9833 116.359L83.8433 121.539C83.6566 125.459 83.5633 128.283 83.5633 130.009C83.5633 134.909 84.5666 137.359 86.5733 137.359C87.4133 137.359 88.23 136.963 89.0233 136.169C89.8633 135.376 91.1466 133.929 92.8733 131.829L94.6233 129.729C95.1833 129.076 95.8133 128.749 96.5133 128.749ZM149.981 122.869C150.588 122.869 151.055 123.173 151.381 123.779C151.708 124.386 151.871 125.156 151.871 126.089C151.871 128.329 151.195 129.659 149.841 130.079C147.041 131.059 143.961 131.619 140.601 131.759C139.715 135.679 137.965 138.829 135.351 141.209C132.738 143.543 129.775 144.709 126.461 144.709C123.801 144.709 121.491 144.103 119.531 142.889C117.618 141.629 116.125 139.996 115.051 137.989C114.025 135.936 113.441 133.673 113.301 131.199H106.931L106.861 133.789V135.259C106.815 138.153 106.745 140.183 106.651 141.349C106.558 142.516 106.278 143.379 105.811 143.939C105.345 144.453 104.575 144.709 103.501 144.709C101.728 144.709 100.468 143.776 99.7213 141.909C99.0213 140.043 98.6713 137.056 98.6713 132.949C98.6713 126.883 99.5346 121.119 101.261 115.659C101.681 114.306 102.358 113.326 103.291 112.719C104.271 112.066 105.625 111.739 107.351 111.739C108.285 111.739 108.938 111.856 109.311 112.089C109.685 112.323 109.871 112.766 109.871 113.419C109.871 114.166 109.521 115.846 108.821 118.459C108.448 119.999 108.098 121.866 107.771 124.059H114.001C114.981 120.279 116.801 117.269 119.461 115.029C122.121 112.789 125.225 111.669 128.771 111.669C132.318 111.669 135.165 112.906 137.311 115.379C139.505 117.806 140.788 120.816 141.161 124.409C143.355 124.269 145.968 123.803 149.001 123.009C149.375 122.916 149.701 122.869 149.981 122.869ZM127.021 137.289C128.515 137.289 129.798 136.683 130.871 135.469C131.991 134.256 132.738 132.506 133.111 130.219C131.665 129.239 130.545 127.956 129.751 126.369C129.005 124.783 128.631 123.103 128.631 121.329C128.631 120.583 128.701 119.836 128.841 119.089H128.491C126.625 119.089 125.061 119.999 123.801 121.819C122.588 123.593 121.981 126.113 121.981 129.379C121.981 131.946 122.471 133.906 123.451 135.259C124.478 136.613 125.668 137.289 127.021 137.289ZM187.976 122.869C188.583 122.869 189.049 123.173 189.376 123.779C189.703 124.386 189.866 125.156 189.866 126.089C189.866 127.256 189.703 128.166 189.376 128.819C189.049 129.426 188.536 129.846 187.836 130.079C184.476 131.246 180.929 131.829 177.196 131.829C175.983 135.983 174.069 139.156 171.456 141.349C168.889 143.543 165.833 144.639 162.286 144.639C158.459 144.639 155.473 143.519 153.326 141.279C151.179 138.993 150.106 135.516 150.106 130.849C150.106 127.349 150.736 124.223 151.996 121.469C153.303 118.669 155.053 116.499 157.246 114.959C159.439 113.373 161.866 112.579 164.526 112.579C165.926 112.579 167.139 112.836 168.166 113.349C167.513 112.276 166.766 111.249 165.926 110.269C165.133 109.289 164.083 108.076 162.776 106.629C161.096 104.763 159.789 103.246 158.856 102.079C157.923 100.913 157.129 99.6294 156.476 98.2294C155.823 96.7827 155.496 95.2894 155.496 93.7494C155.496 91.6027 156.103 89.8994 157.316 88.6394C158.529 87.3327 160.023 86.3527 161.796 85.6994C163.569 85.046 165.949 84.3694 168.936 83.6694C170.429 83.296 171.946 82.8994 173.486 82.4794C175.026 82.0127 176.309 81.5227 177.336 81.0094C177.616 80.8694 177.896 80.7994 178.176 80.7994C178.829 80.7994 179.343 81.2194 179.716 82.0594C180.136 82.8994 180.346 83.8794 180.346 84.9994C180.346 85.7927 180.229 86.516 179.996 87.1694C179.763 87.776 179.436 88.2194 179.016 88.4994C177.803 89.2927 176.473 89.876 175.026 90.2494C173.626 90.576 171.923 90.8794 169.916 91.1594C167.723 91.486 166.113 91.8594 165.086 92.2794C164.106 92.6527 163.616 93.3994 163.616 94.5194C163.616 95.266 163.966 96.1294 164.666 97.1094C165.413 98.0427 166.556 99.3494 168.096 101.029C170.149 103.269 171.876 105.299 173.276 107.119C174.676 108.893 175.889 110.993 176.916 113.419C177.989 115.799 178.526 118.343 178.526 121.049C178.526 121.843 178.479 122.986 178.386 124.479C180.953 124.339 183.823 123.849 186.996 123.009C187.276 122.916 187.603 122.869 187.976 122.869ZM162.286 137.289C163.733 137.289 165.063 136.496 166.276 134.909C167.536 133.276 168.539 131.176 169.286 128.609C168.399 127.629 167.723 126.509 167.256 125.249C166.836 123.989 166.626 122.683 166.626 121.329C166.626 120.909 166.673 120.279 166.766 119.439L165.436 119.369C164.269 119.369 163.173 119.859 162.146 120.839C161.166 121.819 160.373 123.196 159.766 124.969C159.159 126.696 158.856 128.656 158.856 130.849C158.856 132.903 159.113 134.489 159.626 135.609C160.186 136.729 161.073 137.289 162.286 137.289ZM224.422 122.869C225.029 122.869 225.495 123.173 225.822 123.779C226.149 124.386 226.312 125.156 226.312 126.089C226.312 128.329 225.635 129.659 224.282 130.079C221.482 131.059 218.402 131.619 215.042 131.759C214.155 135.679 212.405 138.829 209.792 141.209C207.179 143.543 204.215 144.709 200.902 144.709C198.102 144.709 195.699 144.033 193.692 142.679C191.732 141.326 190.239 139.529 189.212 137.289C188.185 135.049 187.672 132.623 187.672 130.009C187.672 126.463 188.349 123.313 189.702 120.559C191.055 117.759 192.922 115.589 195.302 114.049C197.682 112.463 200.319 111.669 203.212 111.669C206.759 111.669 209.605 112.906 211.752 115.379C213.945 117.806 215.229 120.816 215.602 124.409C217.795 124.269 220.409 123.803 223.442 123.009C223.815 122.916 224.142 122.869 224.422 122.869ZM201.462 137.289C202.955 137.289 204.239 136.683 205.312 135.469C206.432 134.256 207.179 132.506 207.552 130.219C206.105 129.239 204.985 127.956 204.192 126.369C203.445 124.783 203.072 123.103 203.072 121.329C203.072 120.583 203.142 119.836 203.282 119.089H202.932C201.065 119.089 199.502 119.999 198.242 121.819C197.029 123.593 196.422 126.113 196.422 129.379C196.422 131.946 196.912 133.906 197.892 135.259C198.919 136.613 200.109 137.289 201.462 137.289ZM262.444 122.869C263.051 122.869 263.517 123.173 263.844 123.779C264.171 124.386 264.334 125.156 264.334 126.089C264.334 127.256 264.171 128.166 263.844 128.819C263.517 129.426 263.004 129.846 262.304 130.079C259.504 131.059 256.424 131.619 253.064 131.759C252.131 135.633 250.357 138.759 247.744 141.139C245.177 143.519 242.331 144.709 239.204 144.709C234.491 144.709 231.061 142.913 228.914 139.319C226.767 135.726 225.694 130.523 225.694 123.709C225.694 117.689 226.441 111.156 227.934 104.109C229.427 97.016 231.597 90.996 234.444 86.0494C237.337 81.056 240.767 78.5594 244.734 78.5594C246.881 78.5594 248.607 79.4927 249.914 81.3594C251.221 83.1794 251.874 85.5594 251.874 88.4994C251.874 92.326 251.151 96.1294 249.704 99.9094C248.257 103.689 245.854 107.656 242.494 111.809C245.621 112.043 248.164 113.349 250.124 115.729C252.084 118.063 253.251 120.956 253.624 124.409C255.817 124.269 258.431 123.803 261.464 123.009C261.744 122.916 262.071 122.869 262.444 122.869ZM243.124 85.4894C242.191 85.4894 241.164 86.8894 240.044 89.6894C238.971 92.4427 237.967 96.1994 237.034 100.959C236.101 105.719 235.401 110.923 234.934 116.569C238.014 110.923 240.464 105.953 242.284 101.659C244.151 97.3194 245.084 93.4694 245.084 90.1094C245.084 88.616 244.897 87.4727 244.524 86.6794C244.197 85.886 243.731 85.4894 243.124 85.4894ZM239.484 137.289C240.931 137.289 242.214 136.683 243.334 135.469C244.454 134.256 245.201 132.506 245.574 130.219C244.127 129.239 243.007 127.956 242.214 126.369C241.467 124.783 241.094 123.103 241.094 121.329C241.094 120.676 241.187 119.789 241.374 118.669H241.164C239.251 118.669 237.641 119.626 236.334 121.539C235.074 123.406 234.444 125.926 234.444 129.099C234.444 131.759 234.934 133.789 235.914 135.189C236.941 136.589 238.131 137.289 239.484 137.289ZM303.09 128.749C303.697 128.749 304.163 129.029 304.49 129.589C304.863 130.149 305.05 130.919 305.05 131.899C305.05 133.766 304.607 135.213 303.72 136.239C301.573 138.713 299.357 140.743 297.07 142.329C294.83 143.916 292.263 144.709 289.37 144.709C287.457 144.709 285.777 144.149 284.33 143.029C282.183 144.149 279.757 144.709 277.05 144.709C272.803 144.709 269.467 143.519 267.04 141.139C264.66 138.713 263.47 135.563 263.47 131.689C263.47 128.889 263.68 126.229 264.1 123.709C264.52 121.189 265.173 118.506 266.06 115.659C266.48 114.306 267.157 113.326 268.09 112.719C269.07 112.066 270.47 111.739 272.29 111.739C274.39 111.739 275.44 112.299 275.44 113.419C275.44 113.886 275.09 115.566 274.39 118.459L273.9 120.559L272.92 124.759C274.18 123.499 275.673 122.473 277.4 121.679C279.173 120.839 280.97 120.419 282.79 120.419C285.637 120.419 287.877 121.353 289.51 123.219C291.19 125.086 292.03 127.466 292.03 130.359C292.03 132.599 291.493 134.793 290.42 136.939C290.653 136.986 290.98 137.009 291.4 137.009C292.94 137.009 294.41 136.449 295.81 135.329C297.21 134.209 299.007 132.343 301.2 129.729C301.76 129.076 302.39 128.749 303.09 128.749ZM277.4 137.289C279.267 137.289 280.713 136.776 281.74 135.749C282.767 134.723 283.28 133.299 283.28 131.479C283.28 129.006 281.95 127.769 279.29 127.769C277.75 127.769 276.373 128.213 275.16 129.099C273.993 129.986 273.037 130.989 272.29 132.109C272.477 133.789 272.967 135.073 273.76 135.959C274.553 136.846 275.767 137.289 277.4 137.289ZM355.702 122.869C356.309 122.869 356.775 123.173 357.102 123.779C357.429 124.386 357.592 125.156 357.592 126.089C357.592 128.329 356.915 129.659 355.562 130.079C352.762 131.059 349.682 131.619 346.322 131.759C345.435 135.679 343.685 138.829 341.072 141.209C338.459 143.543 335.495 144.709 332.182 144.709C329.522 144.709 327.212 144.103 325.252 142.889C323.339 141.629 321.845 139.996 320.772 137.989C319.745 135.936 319.162 133.673 319.022 131.199H312.652L312.582 133.789V135.259C312.535 138.153 312.465 140.183 312.372 141.349C312.279 142.516 311.999 143.379 311.532 143.939C311.065 144.453 310.295 144.709 309.222 144.709C307.449 144.709 306.189 143.776 305.442 141.909C304.742 140.043 304.392 137.056 304.392 132.949C304.392 126.883 305.255 121.119 306.982 115.659C307.402 114.306 308.079 113.326 309.012 112.719C309.992 112.066 311.345 111.739 313.072 111.739C314.005 111.739 314.659 111.856 315.032 112.089C315.405 112.323 315.592 112.766 315.592 113.419C315.592 114.166 315.242 115.846 314.542 118.459C314.169 119.999 313.819 121.866 313.492 124.059H319.722C320.702 120.279 322.522 117.269 325.182 115.029C327.842 112.789 330.945 111.669 334.492 111.669C338.039 111.669 340.885 112.906 343.032 115.379C345.225 117.806 346.509 120.816 346.882 124.409C349.075 124.269 351.689 123.803 354.722 123.009C355.095 122.916 355.422 122.869 355.702 122.869ZM332.742 137.289C334.235 137.289 335.519 136.683 336.592 135.469C337.712 134.256 338.459 132.506 338.832 130.219C337.385 129.239 336.265 127.956 335.472 126.369C334.725 124.783 334.352 123.103 334.352 121.329C334.352 120.583 334.422 119.836 334.562 119.089H334.212C332.345 119.089 330.782 119.999 329.522 121.819C328.309 123.593 327.702 126.113 327.702 129.379C327.702 131.946 328.192 133.906 329.172 135.259C330.199 136.613 331.389 137.289 332.742 137.289Z" fill="black"/>
</svg>
